<svg width="389" height="295" viewBox="0 0 389 295" fill="none" xmlns="http://www.w3.org/2000/svg">
<path d="M193.651 294.019L2.18657 183.42C-0.303902 181.985 -0.00203109 179.416 2.86578 177.754L179.614 75.3895C182.481 73.7275 186.934 73.5008 189.425 75.0117L380.813 185.611C383.304 187.046 383.002 189.615 380.134 191.277L203.462 293.641C200.594 295.303 196.141 295.454 193.651 294.019Z" fill="#F8FBFD"/>
<path d="M199.651 281.988L8.18657 171.405C5.6961 169.97 5.99797 167.401 8.86578 165.74L185.614 63.3893C188.481 61.7275 192.934 61.5009 195.425 63.0116L386.813 173.595C389.304 175.03 389.002 177.599 386.134 179.26L209.462 281.611C206.594 283.272 202.141 283.499 199.651 281.988Z" fill="#F0F5FD"/>
<path d="M333.557 140.32C333.911 140.498 334.301 140.59 334.697 140.59C335.093 140.59 335.483 140.498 335.837 140.32C335.973 140.272 336.092 140.182 336.175 140.064C336.259 139.946 336.304 139.805 336.304 139.66C336.304 139.515 336.259 139.374 336.175 139.256C336.092 139.138 335.973 139.048 335.837 139C335.483 138.822 335.093 138.73 334.697 138.73C334.301 138.73 333.911 138.822 333.557 139C333.42 139.048 333.302 139.138 333.219 139.256C333.135 139.374 333.09 139.515 333.09 139.66C333.09 139.805 333.135 139.946 333.219 140.064C333.302 140.182 333.42 140.272 333.557 140.32Z" fill="#9DD1FF"/>
<path d="M325.027 146.37C325.916 146.37 326.637 145.954 326.637 145.44C326.637 144.926 325.916 144.51 325.027 144.51C324.138 144.51 323.417 144.926 323.417 145.44C323.417 145.954 324.138 146.37 325.027 146.37Z" fill="#9DD1FF"/>
<path d="M315.357 152.14C316.246 152.14 316.967 151.724 316.967 151.21C316.967 150.696 316.246 150.28 315.357 150.28C314.468 150.28 313.747 150.696 313.747 151.21C313.747 151.724 314.468 152.14 315.357 152.14Z" fill="#9DD1FF"/>
<path d="M304.537 157.64C304.891 157.818 305.281 157.91 305.677 157.91C306.073 157.91 306.463 157.818 306.817 157.64C306.954 157.594 307.074 157.507 307.159 157.389C307.244 157.271 307.29 157.13 307.29 156.985C307.29 156.84 307.244 156.699 307.159 156.581C307.074 156.463 306.954 156.376 306.817 156.33C306.464 156.148 306.073 156.052 305.677 156.052C305.28 156.052 304.889 156.148 304.537 156.33C304.399 156.376 304.279 156.463 304.194 156.581C304.109 156.699 304.064 156.84 304.064 156.985C304.064 157.13 304.109 157.271 304.194 157.389C304.279 157.507 304.399 157.594 304.537 157.64Z" fill="#9DD1FF"/>
<path d="M294.867 163.42C295.22 163.598 295.611 163.69 296.007 163.69C296.403 163.69 296.793 163.598 297.147 163.42C297.283 163.372 297.401 163.282 297.485 163.164C297.569 163.046 297.613 162.905 297.613 162.76C297.613 162.615 297.569 162.474 297.485 162.356C297.401 162.238 297.283 162.148 297.147 162.1C296.793 161.922 296.403 161.83 296.007 161.83C295.611 161.83 295.22 161.922 294.867 162.1C294.73 162.148 294.612 162.238 294.528 162.356C294.445 162.474 294.4 162.615 294.4 162.76C294.4 162.905 294.445 163.046 294.528 163.164C294.612 163.282 294.73 163.372 294.867 163.42Z" fill="#9DD1FF"/>
<path d="M285.197 169.19C285.55 169.368 285.941 169.46 286.337 169.46C286.733 169.46 287.123 169.368 287.477 169.19C287.613 169.142 287.731 169.052 287.815 168.934C287.899 168.816 287.943 168.675 287.943 168.53C287.943 168.385 287.899 168.244 287.815 168.126C287.731 168.008 287.613 167.918 287.477 167.87C287.123 167.692 286.733 167.6 286.337 167.6C285.941 167.6 285.55 167.692 285.197 167.87C285.06 167.918 284.942 168.008 284.858 168.126C284.775 168.244 284.73 168.385 284.73 168.53C284.73 168.675 284.775 168.816 284.858 168.934C284.942 169.052 285.06 169.142 285.197 169.19Z" fill="#9DD1FF"/>
<path d="M276.667 175.24C277.556 175.24 278.277 174.824 278.277 174.31C278.277 173.796 277.556 173.38 276.667 173.38C275.778 173.38 275.057 173.796 275.057 174.31C275.057 174.824 275.778 175.24 276.667 175.24Z" fill="#9DD1FF"/>
<path d="M276.667 175.24C277.556 175.24 278.277 174.824 278.277 174.31C278.277 173.796 277.556 173.38 276.667 173.38C275.778 173.38 275.057 173.796 275.057 174.31C275.057 174.824 275.778 175.24 276.667 175.24Z" fill="#9DD1FF"/>
<path d="M266.997 181.01C267.886 181.01 268.607 180.594 268.607 180.08C268.607 179.566 267.886 179.15 266.997 179.15C266.108 179.15 265.387 179.566 265.387 180.08C265.387 180.594 266.108 181.01 266.997 181.01Z" fill="#9DD1FF"/>
<path d="M256.187 186.51C256.54 186.688 256.931 186.78 257.327 186.78C257.723 186.78 258.113 186.688 258.467 186.51C258.603 186.462 258.721 186.372 258.805 186.254C258.889 186.136 258.934 185.995 258.934 185.85C258.934 185.705 258.889 185.564 258.805 185.446C258.721 185.328 258.603 185.238 258.467 185.19C258.113 185.012 257.723 184.92 257.327 184.92C256.931 184.92 256.54 185.012 256.187 185.19C256.05 185.238 255.932 185.328 255.848 185.446C255.765 185.564 255.72 185.705 255.72 185.85C255.72 185.995 255.765 186.136 255.848 186.254C255.932 186.372 256.05 186.462 256.187 186.51Z" fill="#9DD1FF"/>
<path d="M247.657 192.56C248.546 192.56 249.267 192.144 249.267 191.63C249.267 191.116 248.546 190.7 247.657 190.7C246.768 190.7 246.047 191.116 246.047 191.63C246.047 192.144 246.768 192.56 247.657 192.56Z" fill="#9DD1FF"/>
<path d="M309.557 126.16C310.446 126.16 311.167 125.744 311.167 125.23C311.167 124.716 310.446 124.3 309.557 124.3C308.668 124.3 307.947 124.716 307.947 125.23C307.947 125.744 308.668 126.16 309.557 126.16Z" fill="#9DD1FF"/>
<path d="M298.747 131.66C299.101 131.838 299.491 131.93 299.887 131.93C300.283 131.93 300.673 131.838 301.027 131.66C301.163 131.612 301.281 131.522 301.365 131.404C301.449 131.286 301.494 131.145 301.494 131C301.494 130.855 301.449 130.714 301.365 130.596C301.281 130.478 301.163 130.388 301.027 130.34C300.673 130.162 300.283 130.07 299.887 130.07C299.491 130.07 299.101 130.162 298.747 130.34C298.61 130.388 298.492 130.478 298.409 130.596C298.325 130.714 298.28 130.855 298.28 131C298.28 131.145 298.325 131.286 298.409 131.404C298.492 131.522 298.61 131.612 298.747 131.66Z" fill="#9DD1FF"/>
<path d="M290.217 137.71C291.106 137.71 291.827 137.294 291.827 136.78C291.827 136.266 291.106 135.85 290.217 135.85C289.328 135.85 288.607 136.266 288.607 136.78C288.607 137.294 289.328 137.71 290.217 137.71Z" fill="#9DD1FF"/>
<path d="M279.407 143.21C279.76 143.388 280.151 143.48 280.547 143.48C280.943 143.48 281.333 143.388 281.687 143.21C281.823 143.162 281.941 143.072 282.025 142.954C282.109 142.836 282.153 142.695 282.153 142.55C282.153 142.405 282.109 142.264 282.025 142.146C281.941 142.028 281.823 141.938 281.687 141.89C281.333 141.712 280.943 141.62 280.547 141.62C280.151 141.62 279.76 141.712 279.407 141.89C279.27 141.938 279.152 142.028 279.068 142.146C278.985 142.264 278.94 142.405 278.94 142.55C278.94 142.695 278.985 142.836 279.068 142.954C279.152 143.072 279.27 143.162 279.407 143.21Z" fill="#9DD1FF"/>
<path d="M270.877 149.26C271.766 149.26 272.487 148.844 272.487 148.33C272.487 147.816 271.766 147.4 270.877 147.4C269.988 147.4 269.267 147.816 269.267 148.33C269.267 148.844 269.988 149.26 270.877 149.26Z" fill="#9DD1FF"/>
<path d="M261.197 155.03C262.086 155.03 262.807 154.614 262.807 154.1C262.807 153.586 262.086 153.17 261.197 153.17C260.307 153.17 259.587 153.586 259.587 154.1C259.587 154.614 260.307 155.03 261.197 155.03Z" fill="#9DD1FF"/>
<path d="M250.387 160.53C250.74 160.708 251.131 160.8 251.527 160.8C251.923 160.8 252.313 160.708 252.667 160.53C252.803 160.482 252.921 160.392 253.005 160.274C253.089 160.156 253.133 160.015 253.133 159.87C253.133 159.725 253.089 159.584 253.005 159.466C252.921 159.348 252.803 159.258 252.667 159.21C252.313 159.032 251.923 158.94 251.527 158.94C251.131 158.94 250.74 159.032 250.387 159.21C250.25 159.258 250.132 159.348 250.048 159.466C249.965 159.584 249.92 159.725 249.92 159.87C249.92 160.015 249.965 160.156 250.048 160.274C250.132 160.392 250.25 160.482 250.387 160.53Z" fill="#9DD1FF"/>
<path d="M250.387 160.53C250.74 160.708 251.131 160.8 251.527 160.8C251.923 160.8 252.313 160.708 252.667 160.53C252.803 160.482 252.921 160.392 253.005 160.274C253.089 160.156 253.133 160.015 253.133 159.87C253.133 159.725 253.089 159.584 253.005 159.466C252.921 159.348 252.803 159.258 252.667 159.21C252.313 159.032 251.923 158.94 251.527 158.94C251.131 158.94 250.74 159.032 250.387 159.21C250.25 159.258 250.132 159.348 250.048 159.466C249.965 159.584 249.92 159.725 249.92 159.87C249.92 160.015 249.965 160.156 250.048 160.274C250.132 160.392 250.25 160.482 250.387 160.53Z" fill="#9DD1FF"/>
<path d="M241.857 166.58C242.746 166.58 243.467 166.164 243.467 165.65C243.467 165.136 242.746 164.72 241.857 164.72C240.968 164.72 240.247 165.136 240.247 165.65C240.247 166.164 240.968 166.58 241.857 166.58Z" fill="#9DD1FF"/>
<path d="M231.047 172.08C231.401 172.258 231.791 172.35 232.187 172.35C232.583 172.35 232.973 172.258 233.327 172.08C233.463 172.032 233.582 171.942 233.665 171.824C233.749 171.706 233.794 171.565 233.794 171.42C233.794 171.275 233.749 171.134 233.665 171.016C233.582 170.898 233.463 170.808 233.327 170.76C232.973 170.582 232.583 170.49 232.187 170.49C231.791 170.49 231.401 170.582 231.047 170.76C230.91 170.808 230.792 170.898 230.709 171.016C230.625 171.134 230.58 171.275 230.58 171.42C230.58 171.565 230.625 171.706 230.709 171.824C230.792 171.942 230.91 172.032 231.047 172.08Z" fill="#9DD1FF"/>
<path d="M222.517 178.13C223.406 178.13 224.127 177.714 224.127 177.2C224.127 176.686 223.406 176.27 222.517 176.27C221.628 176.27 220.907 176.686 220.907 177.2C220.907 177.714 221.628 178.13 222.517 178.13Z" fill="#9DD1FF"/>
<path d="M284.427 111.73C285.316 111.73 286.037 111.314 286.037 110.8C286.037 110.286 285.316 109.87 284.427 109.87C283.537 109.87 282.817 110.286 282.817 110.8C282.817 111.314 283.537 111.73 284.427 111.73Z" fill="#9DD1FF"/>
<path d="M273.607 117.22C273.959 117.402 274.35 117.498 274.747 117.498C275.144 117.498 275.534 117.402 275.887 117.22C276.024 117.174 276.144 117.087 276.229 116.969C276.314 116.851 276.36 116.71 276.36 116.565C276.36 116.42 276.314 116.279 276.229 116.161C276.144 116.043 276.024 115.956 275.887 115.91C275.534 115.728 275.144 115.632 274.747 115.632C274.35 115.632 273.959 115.728 273.607 115.91C273.469 115.956 273.349 116.043 273.264 116.161C273.179 116.279 273.134 116.42 273.134 116.565C273.134 116.71 273.179 116.851 273.264 116.969C273.349 117.087 273.469 117.174 273.607 117.22Z" fill="#9DD1FF"/>
<path d="M265.077 123.27C265.966 123.27 266.687 122.854 266.687 122.34C266.687 121.826 265.966 121.41 265.077 121.41C264.188 121.41 263.467 121.826 263.467 122.34C263.467 122.854 264.188 123.27 265.077 123.27Z" fill="#9DD1FF"/>
<path d="M254.307 128.77C254.661 128.948 255.051 129.04 255.447 129.04C255.843 129.04 256.233 128.948 256.587 128.77C256.723 128.722 256.842 128.632 256.925 128.514C257.009 128.396 257.054 128.255 257.054 128.11C257.054 127.965 257.009 127.824 256.925 127.706C256.842 127.588 256.723 127.498 256.587 127.45C256.233 127.272 255.843 127.18 255.447 127.18C255.051 127.18 254.661 127.272 254.307 127.45C254.17 127.498 254.052 127.588 253.969 127.706C253.885 127.824 253.84 127.965 253.84 128.11C253.84 128.255 253.885 128.396 253.969 128.514C254.052 128.632 254.17 128.722 254.307 128.77Z" fill="#9DD1FF"/>
<path d="M245.737 134.82C246.626 134.82 247.347 134.404 247.347 133.89C247.347 133.376 246.626 132.96 245.737 132.96C244.848 132.96 244.127 133.376 244.127 133.89C244.127 134.404 244.848 134.82 245.737 134.82Z" fill="#9DD1FF"/>
<path d="M236.067 140.6C236.956 140.6 237.677 140.184 237.677 139.67C237.677 139.156 236.956 138.74 236.067 138.74C235.178 138.74 234.457 139.156 234.457 139.67C234.457 140.184 235.178 140.6 236.067 140.6Z" fill="#9DD1FF"/>
<path d="M225.247 146.09C225.601 146.272 225.993 146.368 226.392 146.368C226.79 146.368 227.183 146.272 227.537 146.09C227.674 146.044 227.794 145.957 227.879 145.839C227.964 145.721 228.01 145.58 228.01 145.435C228.01 145.29 227.964 145.149 227.879 145.031C227.794 144.913 227.674 144.826 227.537 144.78C227.183 144.598 226.79 144.502 226.392 144.502C225.993 144.502 225.601 144.598 225.247 144.78C225.109 144.826 224.989 144.913 224.904 145.031C224.819 145.149 224.774 145.29 224.774 145.435C224.774 145.58 224.819 145.721 224.904 145.839C224.989 145.957 225.109 146.044 225.247 146.09Z" fill="#9DD1FF"/>
<path d="M225.247 146.09C225.601 146.272 225.993 146.368 226.392 146.368C226.79 146.368 227.183 146.272 227.537 146.09C227.674 146.044 227.794 145.957 227.879 145.839C227.964 145.721 228.01 145.58 228.01 145.435C228.01 145.29 227.964 145.149 227.879 145.031C227.794 144.913 227.674 144.826 227.537 144.78C227.183 144.598 226.79 144.502 226.392 144.502C225.993 144.502 225.601 144.598 225.247 144.78C225.109 144.826 224.989 144.913 224.904 145.031C224.819 145.149 224.774 145.29 224.774 145.435C224.774 145.58 224.819 145.721 224.904 145.839C224.989 145.957 225.109 146.044 225.247 146.09Z" fill="#9DD1FF"/>
<path d="M216.727 152.14C217.616 152.14 218.337 151.724 218.337 151.21C218.337 150.696 217.616 150.28 216.727 150.28C215.838 150.28 215.117 150.696 215.117 151.21C215.117 151.724 215.838 152.14 216.727 152.14Z" fill="#9DD1FF"/>
<path d="M207.047 157.92C207.936 157.92 208.657 157.504 208.657 156.99C208.657 156.476 207.936 156.06 207.047 156.06C206.158 156.06 205.437 156.476 205.437 156.99C205.437 157.504 206.158 157.92 207.047 157.92Z" fill="#9DD1FF"/>
<path d="M196.237 163.42C196.591 163.598 196.981 163.69 197.377 163.69C197.773 163.69 198.163 163.598 198.517 163.42C198.653 163.372 198.771 163.282 198.855 163.164C198.939 163.046 198.984 162.905 198.984 162.76C198.984 162.615 198.939 162.474 198.855 162.356C198.771 162.238 198.653 162.148 198.517 162.1C198.163 161.922 197.773 161.83 197.377 161.83C196.981 161.83 196.591 161.922 196.237 162.1C196.1 162.148 195.982 162.238 195.898 162.356C195.815 162.474 195.77 162.615 195.77 162.76C195.77 162.905 195.815 163.046 195.898 163.164C195.982 163.282 196.1 163.372 196.237 163.42Z" fill="#9DD1FF"/>
<path d="M259.287 97.29C260.176 97.29 260.897 96.8736 260.897 96.36C260.897 95.8464 260.176 95.43 259.287 95.43C258.398 95.43 257.677 95.8464 257.677 96.36C257.677 96.8736 258.398 97.29 259.287 97.29Z" fill="#9DD1FF"/>
<path d="M248.467 102.79C248.822 102.968 249.214 103.06 249.612 103.06C250.009 103.06 250.401 102.968 250.757 102.79C250.893 102.742 251.011 102.652 251.095 102.534C251.179 102.416 251.224 102.275 251.224 102.13C251.224 101.985 251.179 101.844 251.095 101.726C251.011 101.608 250.893 101.518 250.757 101.47C250.401 101.292 250.009 101.2 249.612 101.2C249.214 101.2 248.822 101.292 248.467 101.47C248.33 101.518 248.212 101.608 248.128 101.726C248.045 101.844 248 101.985 248 102.13C248 102.275 248.045 102.416 248.128 102.534C248.212 102.652 248.33 102.742 248.467 102.79Z" fill="#9DD1FF"/>
<path d="M239.947 108.84C240.836 108.84 241.557 108.424 241.557 107.91C241.557 107.396 240.836 106.98 239.947 106.98C239.057 106.98 238.337 107.396 238.337 107.91C238.337 108.424 239.057 108.84 239.947 108.84Z" fill="#9DD1FF"/>
<path d="M229.127 114.34C229.48 114.518 229.871 114.61 230.267 114.61C230.663 114.61 231.053 114.518 231.407 114.34C231.543 114.292 231.661 114.202 231.745 114.084C231.829 113.966 231.873 113.825 231.873 113.68C231.873 113.535 231.829 113.394 231.745 113.276C231.661 113.158 231.543 113.068 231.407 113.02C231.053 112.842 230.663 112.75 230.267 112.75C229.871 112.75 229.48 112.842 229.127 113.02C228.99 113.068 228.872 113.158 228.788 113.276C228.705 113.394 228.66 113.535 228.66 113.68C228.66 113.825 228.705 113.966 228.788 114.084C228.872 114.202 228.99 114.292 229.127 114.34Z" fill="#9DD1FF"/>
<path d="M220.597 120.39C221.486 120.39 222.207 119.974 222.207 119.46C222.207 118.946 221.486 118.53 220.597 118.53C219.708 118.53 218.987 118.946 218.987 119.46C218.987 119.974 219.708 120.39 220.597 120.39Z" fill="#9DD1FF"/>
<path d="M210.927 126.16C211.816 126.16 212.537 125.744 212.537 125.23C212.537 124.716 211.816 124.3 210.927 124.3C210.038 124.3 209.317 124.716 209.317 125.23C209.317 125.744 210.038 126.16 210.927 126.16Z" fill="#9DD1FF"/>
<path d="M200.117 131.66C200.47 131.838 200.861 131.93 201.257 131.93C201.653 131.93 202.043 131.838 202.397 131.66C202.533 131.612 202.651 131.522 202.735 131.404C202.819 131.286 202.863 131.145 202.863 131C202.863 130.855 202.819 130.714 202.735 130.596C202.651 130.478 202.533 130.388 202.397 130.34C202.043 130.162 201.653 130.07 201.257 130.07C200.861 130.07 200.47 130.162 200.117 130.34C199.98 130.388 199.862 130.478 199.778 130.596C199.695 130.714 199.65 130.855 199.65 131C199.65 131.145 199.695 131.286 199.778 131.404C199.862 131.522 199.98 131.612 200.117 131.66Z" fill="#9DD1FF"/>
<path d="M200.117 131.66C200.47 131.838 200.861 131.93 201.257 131.93C201.653 131.93 202.043 131.838 202.397 131.66C202.533 131.612 202.651 131.522 202.735 131.404C202.819 131.286 202.863 131.145 202.863 131C202.863 130.855 202.819 130.714 202.735 130.596C202.651 130.478 202.533 130.388 202.397 130.34C202.043 130.162 201.653 130.07 201.257 130.07C200.861 130.07 200.47 130.162 200.117 130.34C199.98 130.388 199.862 130.478 199.778 130.596C199.695 130.714 199.65 130.855 199.65 131C199.65 131.145 199.695 131.286 199.778 131.404C199.862 131.522 199.98 131.612 200.117 131.66Z" fill="#9DD1FF"/>
<path d="M191.587 137.71C192.476 137.71 193.197 137.294 193.197 136.78C193.197 136.266 192.476 135.85 191.587 135.85C190.698 135.85 189.977 136.266 189.977 136.78C189.977 137.294 190.698 137.71 191.587 137.71Z" fill="#9DD1FF"/>
<path d="M180.767 143.21C181.122 143.388 181.514 143.48 181.912 143.48C182.309 143.48 182.701 143.388 183.057 143.21C183.193 143.162 183.312 143.072 183.395 142.954C183.479 142.836 183.524 142.695 183.524 142.55C183.524 142.405 183.479 142.264 183.395 142.146C183.312 142.028 183.193 141.938 183.057 141.89C182.701 141.712 182.309 141.62 181.912 141.62C181.514 141.62 181.122 141.712 180.767 141.89C180.63 141.938 180.512 142.028 180.429 142.146C180.345 142.264 180.3 142.405 180.3 142.55C180.3 142.695 180.345 142.836 180.429 142.954C180.512 143.072 180.63 143.162 180.767 143.21Z" fill="#9DD1FF"/>
<path d="M171.097 148.98C171.45 149.158 171.841 149.25 172.237 149.25C172.632 149.25 173.023 149.158 173.377 148.98C173.513 148.932 173.631 148.842 173.715 148.724C173.799 148.606 173.843 148.465 173.843 148.32C173.843 148.175 173.799 148.034 173.715 147.916C173.631 147.798 173.513 147.708 173.377 147.66C173.023 147.482 172.632 147.39 172.237 147.39C171.841 147.39 171.45 147.482 171.097 147.66C170.96 147.708 170.842 147.798 170.758 147.916C170.675 148.034 170.63 148.175 170.63 148.32C170.63 148.465 170.675 148.606 170.758 148.724C170.842 148.842 170.96 148.932 171.097 148.98Z" fill="#9DD1FF"/>
<path d="M234.147 82.86C235.036 82.86 235.757 82.4436 235.757 81.93C235.757 81.4164 235.036 81 234.147 81C233.258 81 232.537 81.4164 232.537 81.93C232.537 82.4436 233.258 82.86 234.147 82.86Z" fill="#9DD1FF"/>
<path d="M223.307 88.35C223.659 88.5324 224.05 88.6275 224.447 88.6275C224.844 88.6275 225.234 88.5324 225.587 88.35C225.724 88.3044 225.844 88.2166 225.929 88.099C226.014 87.9814 226.06 87.84 226.06 87.695C226.06 87.55 226.014 87.4086 225.929 87.291C225.844 87.1734 225.724 87.0856 225.587 87.04C225.234 86.8576 224.844 86.7625 224.447 86.7625C224.05 86.7625 223.659 86.8576 223.307 87.04C223.169 87.0856 223.049 87.1734 222.964 87.291C222.879 87.4086 222.834 87.55 222.834 87.695C222.834 87.84 222.879 87.9814 222.964 88.099C223.049 88.2166 223.169 88.3044 223.307 88.35Z" fill="#9DD1FF"/>
<path d="M214.807 94.4C215.696 94.4 216.417 93.9836 216.417 93.47C216.417 92.9564 215.696 92.54 214.807 92.54C213.918 92.54 213.197 92.9564 213.197 93.47C213.197 93.9836 213.918 94.4 214.807 94.4Z" fill="#9DD1FF"/>
<path d="M205.137 100.18C206.026 100.18 206.747 99.7636 206.747 99.25C206.747 98.7364 206.026 98.32 205.137 98.32C204.248 98.32 203.527 98.7364 203.527 99.25C203.527 99.7636 204.248 100.18 205.137 100.18Z" fill="#9DD1FF"/>
<path d="M194.307 105.68C194.661 105.858 195.051 105.95 195.447 105.95C195.843 105.95 196.233 105.858 196.587 105.68C196.723 105.632 196.842 105.542 196.925 105.424C197.009 105.306 197.054 105.165 197.054 105.02C197.054 104.875 197.009 104.734 196.925 104.616C196.842 104.498 196.723 104.408 196.587 104.36C196.233 104.182 195.843 104.09 195.447 104.09C195.051 104.09 194.661 104.182 194.307 104.36C194.17 104.408 194.052 104.498 193.969 104.616C193.885 104.734 193.84 104.875 193.84 105.02C193.84 105.165 193.885 105.306 193.969 105.424C194.052 105.542 194.17 105.632 194.307 105.68Z" fill="#9DD1FF"/>
<path d="M185.787 111.73C186.676 111.73 187.397 111.314 187.397 110.8C187.397 110.286 186.676 109.87 185.787 109.87C184.898 109.87 184.177 110.286 184.177 110.8C184.177 111.314 184.898 111.73 185.787 111.73Z" fill="#9DD1FF"/>
<path d="M174.977 117.22C175.329 117.402 175.72 117.498 176.117 117.498C176.513 117.498 176.904 117.402 177.257 117.22C177.394 117.174 177.514 117.087 177.599 116.969C177.684 116.851 177.73 116.71 177.73 116.565C177.73 116.42 177.684 116.279 177.599 116.161C177.514 116.043 177.394 115.956 177.257 115.91C176.904 115.728 176.513 115.632 176.117 115.632C175.72 115.632 175.329 115.728 174.977 115.91C174.839 115.956 174.719 116.043 174.634 116.161C174.549 116.279 174.504 116.42 174.504 116.565C174.504 116.71 174.549 116.851 174.634 116.969C174.719 117.087 174.839 117.174 174.977 117.22Z" fill="#9DD1FF"/>
<path d="M174.977 117.22C175.329 117.402 175.72 117.498 176.117 117.498C176.513 117.498 176.904 117.402 177.257 117.22C177.394 117.174 177.514 117.087 177.599 116.969C177.684 116.851 177.73 116.71 177.73 116.565C177.73 116.42 177.684 116.279 177.599 116.161C177.514 116.043 177.394 115.956 177.257 115.91C176.904 115.728 176.513 115.632 176.117 115.632C175.72 115.632 175.329 115.728 174.977 115.91C174.839 115.956 174.719 116.043 174.634 116.161C174.549 116.279 174.504 116.42 174.504 116.565C174.504 116.71 174.549 116.851 174.634 116.969C174.719 117.087 174.839 117.174 174.977 117.22Z" fill="#9DD1FF"/>
<path d="M166.447 123.27C167.336 123.27 168.057 122.854 168.057 122.34C168.057 121.826 167.336 121.41 166.447 121.41C165.557 121.41 164.837 121.826 164.837 122.34C164.837 122.854 165.557 123.27 166.447 123.27Z" fill="#9DD1FF"/>
<path d="M156.777 129.05C157.666 129.05 158.387 128.634 158.387 128.12C158.387 127.606 157.666 127.19 156.777 127.19C155.888 127.19 155.167 127.606 155.167 128.12C155.167 128.634 155.888 129.05 156.777 129.05Z" fill="#9DD1FF"/>
<path d="M145.967 134.55C146.321 134.728 146.711 134.82 147.107 134.82C147.503 134.82 147.893 134.728 148.247 134.55C148.383 134.502 148.501 134.412 148.585 134.294C148.669 134.176 148.714 134.035 148.714 133.89C148.714 133.745 148.669 133.604 148.585 133.486C148.501 133.368 148.383 133.278 148.247 133.23C147.893 133.052 147.503 132.96 147.107 132.96C146.711 132.96 146.321 133.052 145.967 133.23C145.83 133.278 145.712 133.368 145.628 133.486C145.545 133.604 145.5 133.745 145.5 133.89C145.5 134.035 145.545 134.176 145.628 134.294C145.712 134.412 145.83 134.502 145.967 134.55Z" fill="#9DD1FF"/>
<path d="M95.2593 150.542C95.2593 150.542 95.8208 140.565 96.139 140.359L129.493 121.099C131.139 120.142 133.008 119.638 134.912 119.638C136.815 119.638 138.685 120.142 140.331 121.099L218.7 166.414C219.56 166.974 220.275 167.728 220.789 168.616C221.303 169.503 221.6 170.5 221.657 171.524V220.806C221.658 222.358 221.25 223.882 220.475 225.226C219.699 226.57 218.584 227.686 217.24 228.462L181.995 248.826L107.762 197.821L95.2593 150.542Z" fill="url(#paint0_linear_3118_39073)"/>
<path d="M95.2593 142.268C95.2593 140.397 96.5882 139.629 98.2166 140.565L180.442 188.051C181.301 188.611 182.017 189.365 182.531 190.253C183.045 191.14 183.342 192.137 183.399 193.161V246.487C183.396 246.954 183.27 247.412 183.034 247.815C182.799 248.218 182.461 248.553 182.056 248.786C181.651 249.019 181.193 249.142 180.725 249.142C180.258 249.142 179.799 249.021 179.394 248.789L98.4225 201.995C97.464 201.44 96.6677 200.643 96.1127 199.684C95.5577 198.725 95.2635 197.638 95.2593 196.53V142.268Z" fill="#BECAF7"/>
<path d="M167.21 147.565L186.919 136.241V148.37L198.018 154.772V134.183C198.023 132.429 197.564 130.705 196.689 129.185C195.813 127.665 194.552 126.404 193.032 125.528C191.513 124.652 189.789 124.193 188.035 124.198C186.281 124.203 184.559 124.67 183.044 125.554L161.669 137.945L167.21 147.565Z" fill="#F7A66A"/>
<path d="M177.298 153.518L196.988 142.194V153.985L208.088 160.405V140.21C208.095 138.455 207.637 136.73 206.762 135.209C205.886 133.689 204.624 132.427 203.103 131.553C201.582 130.678 199.857 130.222 198.102 130.23C196.348 130.238 194.626 130.711 193.114 131.6L171.682 143.897L177.298 153.518Z" fill="#F7A66A"/>
<path d="M181.491 151.103C169.325 160.069 156.934 149.699 156.934 149.699C154.276 147.303 153.846 140.078 154.688 137.327L158.057 133.939L175.445 143.597L181.491 151.103Z" fill="#0D54B3"/>
<path d="M208.256 112.265L183.174 97.8335C183.096 97.7922 183.008 97.7716 182.919 97.7736C182.83 97.7757 182.743 97.8003 182.666 97.8453C182.589 97.8902 182.525 97.9539 182.48 98.0305C182.435 98.107 182.409 98.1938 182.407 98.2827L175.369 117.487C175.367 117.68 175.416 117.87 175.511 118.038C175.606 118.205 175.745 118.345 175.912 118.441L200.993 132.928C201.349 133.134 201.573 132.928 201.761 132.498L208.817 113.275C208.831 113.071 208.785 112.866 208.685 112.687C208.586 112.508 208.436 112.361 208.256 112.265Z" fill="url(#paint1_linear_3118_39073)"/>
<path d="M207.901 112.47L182.82 98.0019C182.483 97.796 182.184 98.0955 182.053 98.4324L174.996 117.655C174.995 117.85 175.047 118.041 175.146 118.209C175.245 118.377 175.387 118.516 175.558 118.61L200.639 133.097C200.976 133.284 201.2 133.097 201.406 132.648L208.463 113.444C208.461 113.247 208.408 113.054 208.31 112.883C208.212 112.713 208.071 112.57 207.901 112.47Z" fill="#05105D"/>
<path d="M207.133 113.425L182.782 99.649L176.343 117.58L200.601 131.525L207.133 113.425Z" fill="url(#paint2_linear_3118_39073)"/>
<path d="M173.929 119.209L157.851 127.781C157.851 127.781 157.851 129.035 158.113 129.241L182.726 143.448C183.038 143.623 183.389 143.715 183.746 143.715C184.104 143.715 184.455 143.623 184.766 143.448L200.564 134.407C201.219 134.014 200.826 132.966 200.826 132.966L175.95 119.302C175.651 119.112 175.307 119.004 174.952 118.987C174.598 118.971 174.245 119.047 173.929 119.209Z" fill="url(#paint3_linear_3118_39073)"/>
<path d="M173.928 118.235L158.112 127.276C158.035 127.322 157.971 127.388 157.926 127.467C157.882 127.546 157.858 127.635 157.858 127.725C157.858 127.815 157.882 127.904 157.926 127.983C157.971 128.062 158.035 128.128 158.112 128.174L182.726 142.381C183.037 142.556 183.388 142.648 183.746 142.648C184.103 142.648 184.454 142.556 184.766 142.381L200.563 133.34C200.641 133.296 200.706 133.232 200.751 133.155C200.796 133.078 200.82 132.99 200.82 132.9C200.82 132.811 200.796 132.723 200.751 132.646C200.706 132.568 200.641 132.505 200.563 132.461L175.95 118.254C175.645 118.072 175.297 117.974 174.942 117.971C174.586 117.968 174.237 118.059 173.928 118.235Z" fill="#F3F8FE"/>
<path d="M172.525 129.952L168.351 132.329C168.332 132.341 168.316 132.358 168.305 132.377C168.294 132.397 168.288 132.419 168.288 132.442C168.288 132.464 168.294 132.487 168.305 132.506C168.316 132.526 168.332 132.542 168.351 132.554L174.846 136.298C174.925 136.348 175.015 136.374 175.108 136.374C175.201 136.374 175.292 136.348 175.37 136.298L179.544 133.902C179.564 133.89 179.58 133.874 179.591 133.854C179.602 133.834 179.608 133.812 179.608 133.789C179.608 133.767 179.602 133.745 179.591 133.725C179.58 133.705 179.564 133.689 179.544 133.677L173.049 129.934C172.971 129.882 172.878 129.855 172.784 129.859C172.69 129.862 172.6 129.895 172.525 129.952Z" fill="#BECAF7"/>
<path d="M175.669 119.62L177.035 120.407C177.054 120.427 177.064 120.454 177.064 120.481C177.064 120.509 177.054 120.536 177.035 120.556L176.343 120.931C176.319 120.95 176.289 120.961 176.258 120.961C176.228 120.961 176.198 120.95 176.174 120.931L174.808 120.145V120.014L175.482 119.62C175.509 119.602 175.542 119.592 175.575 119.592C175.609 119.592 175.641 119.602 175.669 119.62Z" fill="#BECAF7"/>
<path d="M177.654 120.818L179.02 121.605C179.02 121.605 179.02 121.698 179.02 121.735L178.346 122.129C178.321 122.145 178.292 122.155 178.262 122.155C178.232 122.155 178.202 122.145 178.178 122.129L176.811 121.342V121.193L177.485 120.818C177.51 120.801 177.539 120.792 177.569 120.792C177.599 120.792 177.629 120.801 177.654 120.818Z" fill="#BECAF7"/>
<path d="M179.657 121.941L181.023 122.727V122.859L180.35 123.252C180.325 123.268 180.295 123.277 180.265 123.277C180.235 123.277 180.206 123.268 180.181 123.252L178.815 122.465C178.815 122.465 178.815 122.353 178.815 122.334L179.489 121.941C179.512 121.922 179.542 121.911 179.573 121.911C179.604 121.911 179.633 121.922 179.657 121.941Z" fill="#BECAF7"/>
<path d="M181.695 123.102L183.043 123.888C183.043 123.888 183.043 124 183.043 124.019L182.369 124.412C182.346 124.432 182.316 124.443 182.285 124.443C182.254 124.443 182.224 124.432 182.201 124.412L180.834 123.626C180.834 123.626 180.834 123.514 180.834 123.495L181.508 123.102C181.536 123.083 181.569 123.073 181.602 123.073C181.635 123.073 181.668 123.083 181.695 123.102Z" fill="#BECAF7"/>
<path d="M183.717 124.206L185.065 124.992C185.065 124.992 185.065 125.105 185.065 125.123L184.391 125.516C184.366 125.533 184.337 125.542 184.307 125.542C184.276 125.542 184.247 125.533 184.222 125.516L182.856 124.73C182.856 124.73 182.856 124.618 182.856 124.599L183.53 124.206C183.557 124.188 183.59 124.178 183.623 124.178C183.657 124.178 183.689 124.188 183.717 124.206Z" fill="#BECAF7"/>
<path d="M185.645 125.385L186.993 126.172V126.321L186.319 126.714H186.151L184.784 125.928V125.778L185.458 125.385C185.519 125.367 185.584 125.367 185.645 125.385Z" fill="#BECAF7"/>
<path d="M187.648 126.508L189.015 127.295C189.015 127.295 189.015 127.407 189.015 127.426L188.341 127.819C188.317 127.838 188.288 127.849 188.257 127.849C188.226 127.849 188.196 127.838 188.173 127.819L186.806 127.033C186.806 127.033 186.806 126.92 186.806 126.902L187.48 126.508C187.504 126.489 187.533 126.478 187.564 126.478C187.595 126.478 187.625 126.489 187.648 126.508Z" fill="#BECAF7"/>
<path d="M189.65 127.781L190.998 128.567V128.717L190.324 129.091C190.301 129.111 190.271 129.122 190.24 129.122C190.209 129.122 190.179 129.111 190.156 129.091L188.789 128.305C188.789 128.305 188.789 128.212 188.789 128.174L189.463 127.781C189.491 127.763 189.523 127.753 189.557 127.753C189.59 127.753 189.623 127.763 189.65 127.781Z" fill="#BECAF7"/>
<path d="M191.598 128.848L192.964 129.634V129.765L192.29 130.158C192.263 130.177 192.23 130.187 192.197 130.187C192.164 130.187 192.131 130.177 192.103 130.158L190.737 129.372C190.725 129.363 190.716 129.352 190.709 129.339C190.703 129.326 190.699 129.312 190.699 129.297C190.699 129.283 190.703 129.268 190.709 129.255C190.716 129.242 190.725 129.231 190.737 129.222L191.411 128.848C191.437 128.827 191.47 128.815 191.504 128.815C191.538 128.815 191.571 128.827 191.598 128.848Z" fill="#BECAF7"/>
<path d="M193.656 130.027L195.023 130.813V130.963L194.349 131.337C194.321 131.356 194.289 131.366 194.255 131.366C194.222 131.366 194.19 131.356 194.162 131.337L192.814 130.551C192.814 130.551 192.814 130.458 192.814 130.42L193.488 130.027C193.512 130.008 193.541 129.997 193.572 129.997C193.603 129.997 193.633 130.008 193.656 130.027Z" fill="#BECAF7"/>
<path d="M195.66 131.15L197.026 131.936V132.086L196.352 132.461C196.325 132.479 196.292 132.489 196.259 132.489C196.226 132.489 196.193 132.479 196.165 132.461L194.818 131.674C194.818 131.674 194.818 131.581 194.818 131.543L195.491 131.15C195.516 131.133 195.546 131.124 195.576 131.124C195.606 131.124 195.635 131.133 195.66 131.15Z" fill="#BECAF7"/>
<path d="M172.899 121.099L173.816 120.556C173.878 120.529 173.945 120.515 174.013 120.515C174.081 120.515 174.148 120.529 174.209 120.556L175.108 121.08C175.14 121.096 175.166 121.12 175.185 121.149C175.204 121.179 175.214 121.214 175.214 121.249C175.214 121.284 175.204 121.318 175.185 121.348C175.166 121.378 175.14 121.402 175.108 121.417L174.209 121.96C174.15 121.997 174.082 122.016 174.013 122.016C173.944 122.016 173.876 121.997 173.816 121.96L172.899 121.436C172.868 121.421 172.841 121.397 172.822 121.367C172.804 121.337 172.794 121.303 172.794 121.268C172.794 121.232 172.804 121.198 172.822 121.168C172.841 121.138 172.868 121.114 172.899 121.099Z" fill="#BECAF7"/>
<path d="M174.958 122.297L175.876 121.754C175.935 121.718 176.003 121.698 176.072 121.698C176.141 121.698 176.21 121.718 176.269 121.754L177.167 122.278C177.194 122.295 177.216 122.319 177.232 122.346C177.247 122.374 177.256 122.406 177.256 122.437C177.256 122.469 177.247 122.501 177.232 122.528C177.216 122.556 177.194 122.58 177.167 122.597L176.269 123.158C176.21 123.194 176.141 123.214 176.072 123.214C176.003 123.214 175.935 123.194 175.876 123.158L174.94 122.634C174.909 122.617 174.883 122.592 174.866 122.561C174.849 122.53 174.841 122.495 174.843 122.46C174.845 122.424 174.857 122.39 174.877 122.362C174.898 122.333 174.926 122.311 174.958 122.297Z" fill="#BECAF7"/>
<path d="M176.961 123.42L177.897 122.877C177.952 122.84 178.017 122.82 178.084 122.82C178.151 122.82 178.216 122.84 178.271 122.877L179.188 123.401C179.215 123.418 179.238 123.442 179.253 123.469C179.269 123.497 179.277 123.529 179.277 123.56C179.277 123.592 179.269 123.624 179.253 123.651C179.238 123.679 179.215 123.703 179.188 123.72L178.29 124.281C178.231 124.318 178.163 124.337 178.093 124.337C178.024 124.337 177.956 124.318 177.897 124.281L176.961 123.757C176.934 123.738 176.912 123.713 176.897 123.683C176.881 123.654 176.874 123.622 176.874 123.589C176.874 123.556 176.881 123.523 176.897 123.494C176.912 123.464 176.934 123.439 176.961 123.42Z" fill="#BECAF7"/>
<path d="M179.094 124.581L180.03 124.038C180.085 124.001 180.151 123.981 180.217 123.981C180.284 123.981 180.349 124.001 180.404 124.038L181.321 124.562C181.349 124.579 181.371 124.602 181.386 124.63C181.402 124.658 181.41 124.689 181.41 124.721C181.41 124.753 181.402 124.784 181.386 124.812C181.371 124.84 181.349 124.863 181.321 124.88L180.423 125.442C180.364 125.478 180.296 125.497 180.226 125.497C180.157 125.497 180.089 125.478 180.03 125.442L179.094 124.917C179.067 124.898 179.045 124.873 179.03 124.844C179.015 124.815 179.007 124.782 179.007 124.749C179.007 124.716 179.015 124.683 179.03 124.654C179.045 124.625 179.067 124.6 179.094 124.581Z" fill="#BECAF7"/>
<path d="M180.986 125.685L181.903 125.142C181.962 125.106 182.03 125.086 182.099 125.086C182.169 125.086 182.237 125.106 182.296 125.142L183.194 125.666C183.226 125.681 183.253 125.705 183.271 125.735C183.29 125.765 183.3 125.799 183.3 125.835C183.3 125.87 183.29 125.904 183.271 125.934C183.253 125.964 183.226 125.988 183.194 126.003L182.296 126.546C182.237 126.582 182.169 126.602 182.099 126.602C182.03 126.602 181.962 126.582 181.903 126.546L180.986 126.022C180.954 126.006 180.927 125.983 180.909 125.953C180.89 125.923 180.88 125.888 180.88 125.853C180.88 125.818 180.89 125.784 180.909 125.754C180.927 125.724 180.954 125.7 180.986 125.685Z" fill="#BECAF7"/>
<path d="M182.894 126.864L183.811 126.321C183.873 126.294 183.94 126.28 184.008 126.28C184.075 126.28 184.142 126.294 184.204 126.321L185.103 126.845C185.134 126.861 185.161 126.885 185.18 126.914C185.198 126.944 185.208 126.979 185.208 127.014C185.208 127.049 185.198 127.083 185.18 127.113C185.161 127.143 185.134 127.167 185.103 127.182L184.204 127.725C184.145 127.761 184.077 127.781 184.008 127.781C183.938 127.781 183.87 127.761 183.811 127.725L182.894 127.201C182.862 127.186 182.836 127.162 182.817 127.132C182.798 127.102 182.788 127.068 182.788 127.033C182.788 126.997 182.798 126.963 182.817 126.933C182.836 126.903 182.862 126.879 182.894 126.864Z" fill="#BECAF7"/>
<path d="M184.934 127.987L185.851 127.444C185.91 127.408 185.978 127.389 186.048 127.389C186.117 127.389 186.185 127.408 186.244 127.444L187.143 127.968C187.17 127.985 187.192 128.009 187.208 128.036C187.223 128.064 187.231 128.096 187.231 128.127C187.231 128.159 187.223 128.191 187.208 128.219C187.192 128.246 187.17 128.27 187.143 128.287L186.244 128.848C186.185 128.885 186.117 128.904 186.048 128.904C185.978 128.904 185.91 128.885 185.851 128.848L184.934 128.324C184.902 128.309 184.876 128.285 184.857 128.255C184.838 128.225 184.828 128.191 184.828 128.156C184.828 128.12 184.838 128.086 184.857 128.056C184.876 128.026 184.902 128.002 184.934 127.987Z" fill="#BECAF7"/>
<path d="M186.937 129.129L187.855 128.586C187.914 128.55 187.982 128.53 188.051 128.53C188.121 128.53 188.189 128.55 188.248 128.586L189.146 129.091C189.178 129.107 189.204 129.131 189.223 129.16C189.242 129.19 189.252 129.225 189.252 129.26C189.252 129.295 189.242 129.329 189.223 129.359C189.204 129.389 189.178 129.413 189.146 129.428L188.248 129.971C188.187 130.004 188.12 130.021 188.051 130.021C187.983 130.021 187.915 130.004 187.855 129.971L186.937 129.428C186.91 129.414 186.887 129.393 186.871 129.366C186.855 129.34 186.846 129.309 186.846 129.279C186.846 129.248 186.855 129.217 186.871 129.191C186.887 129.164 186.91 129.143 186.937 129.129Z" fill="#BECAF7"/>
<path d="M188.902 130.327L189.819 129.784C189.878 129.748 189.946 129.728 190.016 129.728C190.085 129.728 190.153 129.748 190.212 129.784L191.111 130.308C191.138 130.325 191.16 130.348 191.176 130.376C191.191 130.404 191.199 130.435 191.199 130.467C191.199 130.499 191.191 130.53 191.176 130.558C191.16 130.586 191.138 130.609 191.111 130.626L190.212 131.188C190.153 131.224 190.085 131.244 190.016 131.244C189.946 131.244 189.878 131.224 189.819 131.188L188.902 130.664C188.871 130.648 188.844 130.624 188.825 130.595C188.807 130.565 188.797 130.53 188.797 130.495C188.797 130.46 188.807 130.426 188.825 130.396C188.844 130.366 188.871 130.342 188.902 130.327Z" fill="#BECAF7"/>
<path d="M191.055 131.525L191.972 130.982C192.034 130.955 192.101 130.94 192.169 130.94C192.237 130.94 192.304 130.955 192.366 130.982L193.264 131.506C193.296 131.521 193.322 131.545 193.341 131.575C193.36 131.605 193.37 131.639 193.37 131.674C193.37 131.71 193.36 131.744 193.341 131.774C193.322 131.804 193.296 131.828 193.264 131.843L192.366 132.386C192.306 132.422 192.238 132.441 192.169 132.441C192.1 132.441 192.032 132.422 191.972 132.386L191.055 131.862C191.024 131.846 190.997 131.822 190.978 131.793C190.96 131.763 190.95 131.728 190.95 131.693C190.95 131.658 190.96 131.624 190.978 131.594C190.997 131.564 191.024 131.54 191.055 131.525Z" fill="#BECAF7"/>
<path d="M192.927 132.629L193.863 132.086C193.922 132.058 193.986 132.043 194.05 132.043C194.115 132.043 194.179 132.058 194.238 132.086L195.155 132.61C195.182 132.629 195.204 132.655 195.219 132.684C195.234 132.713 195.242 132.746 195.242 132.779C195.242 132.812 195.234 132.844 195.219 132.874C195.204 132.903 195.182 132.928 195.155 132.947L194.256 133.49C194.197 133.526 194.129 133.546 194.06 133.546C193.99 133.546 193.922 133.526 193.863 133.49L192.927 132.966C192.9 132.947 192.878 132.922 192.863 132.892C192.848 132.863 192.84 132.83 192.84 132.797C192.84 132.764 192.848 132.732 192.863 132.703C192.878 132.673 192.9 132.648 192.927 132.629Z" fill="#BECAF7"/>
<path d="M170.841 122.166L171.758 121.623C171.817 121.587 171.885 121.567 171.955 121.567C172.024 121.567 172.092 121.587 172.151 121.623L173.05 122.147C173.077 122.164 173.099 122.188 173.115 122.215C173.13 122.243 173.138 122.275 173.138 122.306C173.138 122.338 173.13 122.37 173.115 122.397C173.099 122.425 173.077 122.449 173.05 122.465L172.151 123.027C172.092 123.063 172.024 123.083 171.955 123.083C171.885 123.083 171.817 123.063 171.758 123.027L170.841 122.503C170.809 122.488 170.783 122.464 170.764 122.434C170.745 122.404 170.735 122.37 170.735 122.334C170.735 122.299 170.745 122.265 170.764 122.235C170.783 122.205 170.809 122.181 170.841 122.166Z" fill="#BECAF7"/>
<path d="M172.899 123.401L173.835 122.877C173.89 122.84 173.955 122.82 174.022 122.82C174.089 122.82 174.154 122.84 174.209 122.877L175.107 123.383C175.135 123.402 175.157 123.427 175.172 123.456C175.187 123.486 175.195 123.518 175.195 123.551C175.195 123.584 175.187 123.617 175.172 123.646C175.157 123.675 175.135 123.701 175.107 123.72L174.209 124.262C174.149 124.295 174.081 124.312 174.013 124.312C173.944 124.312 173.876 124.295 173.816 124.262L172.88 123.72C172.858 123.699 172.84 123.673 172.829 123.645C172.817 123.617 172.812 123.586 172.814 123.556C172.816 123.526 172.824 123.496 172.839 123.469C172.854 123.442 172.874 123.419 172.899 123.401Z" fill="#BECAF7"/>
<path d="M174.902 124.543L175.838 124C175.894 123.963 175.959 123.944 176.025 123.944C176.092 123.944 176.157 123.963 176.213 124L177.13 124.524C177.157 124.541 177.179 124.565 177.195 124.592C177.21 124.62 177.218 124.652 177.218 124.683C177.218 124.715 177.21 124.747 177.195 124.775C177.179 124.802 177.157 124.826 177.13 124.843L176.231 125.404C176.171 125.437 176.103 125.454 176.035 125.454C175.966 125.454 175.899 125.437 175.838 125.404L174.921 124.861C174.893 124.846 174.869 124.824 174.852 124.797C174.835 124.77 174.825 124.739 174.823 124.707C174.821 124.676 174.827 124.644 174.841 124.615C174.855 124.586 174.876 124.561 174.902 124.543Z" fill="#BECAF7"/>
<path d="M177.035 125.704L177.971 125.161C178.03 125.124 178.098 125.105 178.168 125.105C178.237 125.105 178.305 125.124 178.364 125.161L179.263 125.685C179.29 125.702 179.312 125.725 179.328 125.753C179.343 125.781 179.351 125.812 179.351 125.844C179.351 125.876 179.343 125.907 179.328 125.935C179.312 125.963 179.29 125.986 179.263 126.003L178.364 126.565C178.305 126.601 178.237 126.62 178.168 126.62C178.098 126.62 178.03 126.601 177.971 126.565L177.054 126.022C177.026 126.007 177.002 125.985 176.985 125.958C176.968 125.931 176.958 125.9 176.956 125.868C176.954 125.836 176.96 125.804 176.974 125.775C176.988 125.747 177.009 125.722 177.035 125.704Z" fill="#BECAF7"/>
<path d="M178.926 126.808L179.843 126.265C179.902 126.229 179.97 126.209 180.039 126.209C180.109 126.209 180.177 126.229 180.236 126.265L181.134 126.789C181.161 126.806 181.184 126.829 181.199 126.857C181.215 126.885 181.223 126.916 181.223 126.948C181.223 126.98 181.215 127.011 181.199 127.039C181.184 127.067 181.161 127.091 181.134 127.107L180.236 127.669C180.177 127.705 180.109 127.725 180.039 127.725C179.97 127.725 179.902 127.705 179.843 127.669L178.926 127.145C178.894 127.129 178.867 127.106 178.849 127.076C178.83 127.046 178.82 127.012 178.82 126.976C178.82 126.941 178.83 126.907 178.849 126.877C178.867 126.847 178.894 126.823 178.926 126.808Z" fill="#BECAF7"/>
<path d="M180.836 127.987L181.753 127.444C181.812 127.408 181.88 127.389 181.949 127.389C182.019 127.389 182.087 127.408 182.146 127.444L183.044 127.968C183.072 127.985 183.094 128.009 183.109 128.036C183.125 128.064 183.133 128.096 183.133 128.127C183.133 128.159 183.125 128.191 183.109 128.219C183.094 128.246 183.072 128.27 183.044 128.287L182.165 128.848C182.102 128.884 182.031 128.903 181.959 128.903C181.887 128.903 181.816 128.884 181.753 128.848L180.836 128.324C180.804 128.309 180.777 128.285 180.759 128.255C180.74 128.225 180.73 128.191 180.73 128.156C180.73 128.12 180.74 128.086 180.759 128.056C180.777 128.026 180.804 128.002 180.836 127.987Z" fill="#BECAF7"/>
<path d="M182.876 129.11L183.793 128.567C183.852 128.531 183.92 128.512 183.989 128.512C184.059 128.512 184.127 128.531 184.186 128.567L185.084 129.091C185.112 129.108 185.134 129.132 185.149 129.159C185.165 129.187 185.173 129.219 185.173 129.251C185.173 129.282 185.165 129.314 185.149 129.342C185.134 129.369 185.112 129.393 185.084 129.41L184.205 129.971C184.146 130.008 184.078 130.027 184.008 130.027C183.939 130.027 183.871 130.008 183.812 129.971L182.876 129.428C182.843 129.417 182.814 129.395 182.794 129.367C182.774 129.338 182.763 129.304 182.763 129.269C182.763 129.234 182.774 129.2 182.794 129.172C182.814 129.143 182.843 129.122 182.876 129.11Z" fill="#BECAF7"/>
<path d="M184.879 130.233L185.796 129.69C185.858 129.663 185.925 129.649 185.993 129.649C186.06 129.649 186.127 129.663 186.189 129.69L187.088 130.214C187.119 130.23 187.146 130.254 187.165 130.283C187.183 130.313 187.193 130.348 187.193 130.383C187.193 130.418 187.183 130.453 187.165 130.482C187.146 130.512 187.119 130.536 187.088 130.551L186.189 131.094C186.13 131.131 186.062 131.15 185.993 131.15C185.923 131.15 185.855 131.131 185.796 131.094L184.879 130.57C184.847 130.555 184.821 130.531 184.802 130.501C184.783 130.471 184.773 130.437 184.773 130.402C184.773 130.366 184.783 130.332 184.802 130.302C184.821 130.272 184.847 130.248 184.879 130.233Z" fill="#BECAF7"/>
<path d="M186.843 131.525L187.761 130.982C187.82 130.945 187.888 130.926 187.957 130.926C188.027 130.926 188.095 130.945 188.154 130.982L189.052 131.487C189.084 131.503 189.11 131.526 189.129 131.556C189.148 131.586 189.158 131.621 189.158 131.656C189.158 131.691 189.148 131.725 189.129 131.755C189.11 131.785 189.084 131.809 189.052 131.824L188.154 132.386C188.093 132.418 188.026 132.436 187.957 132.436C187.888 132.436 187.821 132.418 187.761 132.386L186.843 131.843C186.816 131.826 186.794 131.803 186.779 131.775C186.763 131.747 186.755 131.716 186.755 131.684C186.755 131.652 186.763 131.621 186.779 131.593C186.794 131.565 186.816 131.541 186.843 131.525Z" fill="#BECAF7"/>
<path d="M188.978 132.704L189.895 132.161C189.954 132.125 190.022 132.105 190.092 132.105C190.161 132.105 190.229 132.125 190.288 132.161L191.187 132.685C191.214 132.702 191.236 132.725 191.251 132.753C191.267 132.781 191.275 132.812 191.275 132.844C191.275 132.876 191.267 132.907 191.251 132.935C191.236 132.963 191.214 132.987 191.187 133.003L190.288 133.565C190.229 133.601 190.161 133.621 190.092 133.621C190.022 133.621 189.954 133.601 189.895 133.565L188.959 133.041C188.928 133.024 188.903 132.998 188.886 132.968C188.869 132.937 188.861 132.902 188.863 132.866C188.865 132.831 188.876 132.797 188.897 132.769C188.917 132.74 188.945 132.717 188.978 132.704Z" fill="#BECAF7"/>
<path d="M190.906 133.752L191.842 133.209C191.901 133.173 191.969 133.153 192.038 133.153C192.108 133.153 192.176 133.173 192.235 133.209L193.133 133.733C193.16 133.752 193.183 133.778 193.198 133.807C193.213 133.836 193.221 133.869 193.221 133.902C193.221 133.935 193.213 133.967 193.198 133.997C193.183 134.026 193.16 134.051 193.133 134.07L192.235 134.613C192.176 134.649 192.108 134.669 192.038 134.669C191.969 134.669 191.901 134.649 191.842 134.613L190.925 134.089C190.897 134.071 190.873 134.047 190.856 134.019C190.839 133.991 190.83 133.958 190.828 133.925C190.826 133.892 190.832 133.859 190.846 133.829C190.859 133.799 190.88 133.772 190.906 133.752Z" fill="#BECAF7"/>
<path d="M168.781 123.345L169.698 122.802C169.758 122.766 169.826 122.747 169.895 122.747C169.964 122.747 170.032 122.766 170.092 122.802L170.99 123.326C171.023 123.338 171.052 123.359 171.072 123.388C171.092 123.417 171.103 123.451 171.103 123.486C171.103 123.521 171.092 123.555 171.072 123.583C171.052 123.612 171.023 123.633 170.99 123.645L170.11 124.206C170.051 124.243 169.983 124.262 169.914 124.262C169.844 124.262 169.776 124.243 169.717 124.206L168.781 123.663C168.748 123.652 168.72 123.63 168.699 123.602C168.679 123.573 168.668 123.539 168.668 123.504C168.668 123.469 168.679 123.435 168.699 123.407C168.72 123.378 168.748 123.357 168.781 123.345Z" fill="#BECAF7"/>
<path d="M170.839 124.524L171.775 123.982C171.834 123.953 171.898 123.939 171.963 123.939C172.027 123.939 172.091 123.953 172.15 123.982L173.067 124.506C173.094 124.525 173.116 124.55 173.131 124.579C173.146 124.608 173.154 124.641 173.154 124.674C173.154 124.707 173.146 124.74 173.131 124.769C173.116 124.798 173.094 124.824 173.067 124.843L172.168 125.385C172.109 125.422 172.041 125.441 171.972 125.441C171.902 125.441 171.834 125.422 171.775 125.385L170.839 124.861C170.812 124.842 170.79 124.817 170.775 124.788C170.76 124.758 170.752 124.726 170.752 124.693C170.752 124.66 170.76 124.627 170.775 124.598C170.79 124.569 170.812 124.543 170.839 124.524Z" fill="#BECAF7"/>
<path d="M172.861 125.647L173.778 125.123C173.838 125.091 173.906 125.073 173.974 125.073C174.043 125.073 174.111 125.091 174.171 125.123L175.069 125.647C175.101 125.663 175.128 125.687 175.146 125.716C175.165 125.746 175.175 125.781 175.175 125.816C175.175 125.851 175.165 125.885 175.146 125.915C175.128 125.945 175.101 125.969 175.069 125.984L174.171 126.527C174.111 126.56 174.043 126.577 173.974 126.577C173.906 126.577 173.838 126.56 173.778 126.527L172.861 125.984C172.829 125.969 172.802 125.945 172.784 125.915C172.765 125.885 172.755 125.851 172.755 125.816C172.755 125.781 172.765 125.746 172.784 125.716C172.802 125.687 172.829 125.663 172.861 125.647Z" fill="#BECAF7"/>
<path d="M174.995 126.808L175.912 126.284C175.972 126.247 176.04 126.228 176.109 126.228C176.178 126.228 176.246 126.247 176.306 126.284L177.204 126.789C177.236 126.805 177.262 126.828 177.281 126.858C177.3 126.888 177.31 126.922 177.31 126.958C177.31 126.993 177.3 127.027 177.281 127.057C177.262 127.087 177.236 127.111 177.204 127.126L176.306 127.669C176.245 127.702 176.178 127.719 176.109 127.719C176.04 127.719 175.973 127.702 175.912 127.669L174.995 127.126C174.968 127.109 174.946 127.086 174.93 127.058C174.915 127.03 174.907 126.999 174.907 126.967C174.907 126.935 174.915 126.904 174.93 126.876C174.946 126.848 174.968 126.825 174.995 126.808Z" fill="#BECAF7"/>
<path d="M176.867 127.931L177.784 127.388C177.843 127.352 177.911 127.332 177.981 127.332C178.05 127.332 178.118 127.352 178.177 127.388L179.076 127.893C179.103 127.912 179.125 127.938 179.14 127.967C179.155 127.996 179.163 128.029 179.163 128.062C179.163 128.095 179.155 128.128 179.14 128.157C179.125 128.186 179.103 128.211 179.076 128.23L178.177 128.773C178.117 128.806 178.049 128.823 177.981 128.823C177.912 128.823 177.844 128.806 177.784 128.773L176.848 128.23C176.822 128.215 176.8 128.192 176.785 128.164C176.771 128.137 176.764 128.106 176.766 128.075C176.768 128.044 176.778 128.014 176.796 127.989C176.814 127.963 176.839 127.943 176.867 127.931Z" fill="#BECAF7"/>
<path d="M178.777 129.11L179.694 128.567C179.753 128.531 179.821 128.512 179.891 128.512C179.96 128.512 180.028 128.531 180.087 128.567L180.986 129.091C181.013 129.108 181.035 129.132 181.051 129.159C181.066 129.187 181.074 129.219 181.074 129.251C181.074 129.282 181.066 129.314 181.051 129.342C181.035 129.369 181.013 129.393 180.986 129.41L180.087 129.971C180.028 130.008 179.96 130.027 179.891 130.027C179.821 130.027 179.753 130.008 179.694 129.971L178.758 129.428C178.726 129.415 178.698 129.392 178.68 129.362C178.661 129.332 178.652 129.298 178.654 129.263C178.656 129.227 178.669 129.194 178.691 129.167C178.713 129.139 178.743 129.12 178.777 129.11Z" fill="#BECAF7"/>
<path d="M180.817 130.214L181.697 129.653C181.752 129.616 181.817 129.596 181.884 129.596C181.951 129.596 182.016 129.616 182.071 129.653L182.97 130.158C182.997 130.177 183.019 130.203 183.034 130.232C183.049 130.261 183.057 130.294 183.057 130.327C183.057 130.36 183.049 130.392 183.034 130.422C183.019 130.451 182.997 130.476 182.97 130.495L182.071 131.038C182.011 131.071 181.943 131.088 181.875 131.088C181.806 131.088 181.738 131.071 181.678 131.038L180.742 130.495C180.726 130.473 180.715 130.447 180.71 130.419C180.705 130.392 180.706 130.364 180.713 130.337C180.72 130.31 180.733 130.285 180.751 130.264C180.769 130.243 180.792 130.226 180.817 130.214Z" fill="#BECAF7"/>
<path d="M182.819 131.356L183.736 130.813C183.795 130.777 183.863 130.758 183.933 130.758C184.002 130.758 184.07 130.777 184.129 130.813L185.028 131.337C185.055 131.354 185.077 131.378 185.093 131.406C185.108 131.433 185.116 131.465 185.116 131.497C185.116 131.528 185.108 131.56 185.093 131.588C185.077 131.615 185.055 131.639 185.028 131.656L184.129 132.217C184.07 132.254 184.002 132.273 183.933 132.273C183.863 132.273 183.795 132.254 183.736 132.217L182.819 131.693C182.787 131.678 182.761 131.654 182.742 131.624C182.723 131.594 182.713 131.56 182.713 131.525C182.713 131.489 182.723 131.455 182.742 131.425C182.761 131.395 182.787 131.372 182.819 131.356Z" fill="#BECAF7"/>
<path d="M184.785 132.554L185.703 132.011C185.764 131.984 185.831 131.97 185.899 131.97C185.967 131.97 186.034 131.984 186.096 132.011L186.994 132.535C187.026 132.551 187.052 132.575 187.071 132.604C187.09 132.634 187.1 132.669 187.1 132.704C187.1 132.739 187.09 132.773 187.071 132.803C187.052 132.833 187.026 132.857 186.994 132.872L186.096 133.415C186.035 133.448 185.968 133.465 185.899 133.465C185.83 133.465 185.763 133.448 185.703 133.415L184.785 132.872C184.758 132.856 184.736 132.832 184.72 132.804C184.705 132.776 184.697 132.745 184.697 132.713C184.697 132.681 184.705 132.65 184.72 132.622C184.736 132.594 184.758 132.571 184.785 132.554Z" fill="#BECAF7"/>
<path d="M186.919 133.827L187.855 133.284C187.91 133.247 187.976 133.227 188.042 133.227C188.109 133.227 188.174 133.247 188.229 133.284L189.128 133.808C189.155 133.825 189.177 133.848 189.193 133.876C189.208 133.904 189.216 133.935 189.216 133.967C189.216 133.999 189.208 134.03 189.193 134.058C189.177 134.086 189.155 134.11 189.128 134.126L188.229 134.688C188.17 134.724 188.102 134.744 188.033 134.744C187.963 134.744 187.895 134.724 187.836 134.688L186.9 134.145C186.874 134.127 186.853 134.102 186.839 134.073C186.825 134.044 186.819 134.013 186.821 133.981C186.823 133.949 186.833 133.918 186.85 133.891C186.867 133.864 186.891 133.842 186.919 133.827Z" fill="#BECAF7"/>
<path d="M188.866 134.875L189.783 134.332C189.842 134.296 189.91 134.276 189.979 134.276C190.049 134.276 190.117 134.296 190.176 134.332L191.074 134.856C191.101 134.873 191.124 134.897 191.139 134.924C191.155 134.952 191.163 134.984 191.163 135.015C191.163 135.047 191.155 135.079 191.139 135.106C191.124 135.134 191.101 135.158 191.074 135.175L190.176 135.736C190.117 135.772 190.049 135.792 189.979 135.792C189.91 135.792 189.842 135.772 189.783 135.736L188.866 135.212C188.834 135.197 188.807 135.173 188.789 135.143C188.77 135.113 188.76 135.079 188.76 135.044C188.76 135.008 188.77 134.974 188.789 134.944C188.807 134.914 188.834 134.89 188.866 134.875Z" fill="#BECAF7"/>
<path d="M166.723 124.45L167.64 123.925C167.699 123.889 167.767 123.87 167.837 123.87C167.906 123.87 167.974 123.889 168.033 123.925L168.932 124.431C168.959 124.45 168.981 124.475 168.996 124.504C169.011 124.534 169.019 124.566 169.019 124.599C169.019 124.632 169.011 124.665 168.996 124.694C168.981 124.723 168.959 124.749 168.932 124.768L168.033 125.311C167.973 125.343 167.905 125.36 167.837 125.36C167.768 125.36 167.701 125.343 167.64 125.311L166.704 124.768C166.678 124.749 166.657 124.725 166.643 124.696C166.629 124.667 166.623 124.635 166.625 124.603C166.627 124.572 166.637 124.541 166.654 124.514C166.671 124.487 166.695 124.465 166.723 124.45Z" fill="#BECAF7"/>
<path d="M168.799 125.647L169.717 125.105C169.776 125.068 169.844 125.049 169.913 125.049C169.983 125.049 170.051 125.068 170.11 125.105L171.008 125.629C171.035 125.646 171.058 125.669 171.073 125.697C171.089 125.725 171.097 125.756 171.097 125.788C171.097 125.82 171.089 125.851 171.073 125.879C171.058 125.907 171.035 125.93 171.008 125.947L170.11 126.508C170.051 126.545 169.983 126.564 169.913 126.564C169.844 126.564 169.776 126.545 169.717 126.508L168.799 125.984C168.768 125.969 168.741 125.945 168.722 125.915C168.704 125.886 168.694 125.851 168.694 125.816C168.694 125.781 168.704 125.746 168.722 125.716C168.741 125.687 168.768 125.663 168.799 125.647Z" fill="#BECAF7"/>
<path d="M170.803 126.77L171.72 126.228C171.78 126.195 171.848 126.178 171.916 126.178C171.985 126.178 172.052 126.195 172.113 126.228L173.011 126.752C173.043 126.767 173.07 126.791 173.088 126.821C173.107 126.851 173.117 126.885 173.117 126.92C173.117 126.955 173.107 126.99 173.088 127.02C173.07 127.049 173.043 127.073 173.011 127.089L172.113 127.631C172.054 127.668 171.986 127.687 171.916 127.687C171.847 127.687 171.779 127.668 171.72 127.631L170.803 127.107C170.771 127.092 170.744 127.068 170.726 127.038C170.707 127.009 170.697 126.974 170.697 126.939C170.697 126.904 170.707 126.869 170.726 126.839C170.744 126.81 170.771 126.786 170.803 126.77Z" fill="#BECAF7"/>
<path d="M172.936 127.931L173.853 127.388C173.915 127.361 173.982 127.347 174.049 127.347C174.117 127.347 174.184 127.361 174.246 127.388L175.144 127.912C175.176 127.928 175.203 127.951 175.221 127.981C175.24 128.011 175.25 128.046 175.25 128.081C175.25 128.116 175.24 128.15 175.221 128.18C175.203 128.21 175.176 128.234 175.144 128.249L174.246 128.792C174.187 128.828 174.119 128.848 174.049 128.848C173.98 128.848 173.912 128.828 173.853 128.792L172.936 128.268C172.904 128.253 172.877 128.229 172.859 128.199C172.84 128.169 172.83 128.135 172.83 128.099C172.83 128.064 172.84 128.03 172.859 128C172.877 127.97 172.904 127.946 172.936 127.931Z" fill="#BECAF7"/>
<path d="M174.995 129.166L175.912 128.623C175.971 128.587 176.039 128.568 176.108 128.568C176.178 128.568 176.246 128.587 176.305 128.623L180.984 131.337C181.011 131.354 181.034 131.378 181.049 131.406C181.065 131.433 181.073 131.465 181.073 131.497C181.073 131.528 181.065 131.56 181.049 131.588C181.034 131.615 181.011 131.639 180.984 131.656L180.086 132.217C180.027 132.254 179.959 132.273 179.889 132.273C179.82 132.273 179.752 132.254 179.693 132.217L174.976 129.503C174.945 129.486 174.92 129.461 174.903 129.43C174.886 129.399 174.877 129.364 174.879 129.329C174.881 129.294 174.893 129.26 174.914 129.231C174.934 129.202 174.962 129.18 174.995 129.166Z" fill="#BECAF7"/>
<path d="M180.76 132.479L181.677 131.936C181.737 131.9 181.805 131.881 181.874 131.881C181.943 131.881 182.011 131.9 182.071 131.936L182.969 132.461C182.996 132.477 183.018 132.501 183.034 132.529C183.049 132.556 183.058 132.588 183.058 132.62C183.058 132.651 183.049 132.683 183.034 132.711C183.018 132.738 182.996 132.762 182.969 132.779L182.071 133.34C182.011 133.377 181.943 133.396 181.874 133.396C181.805 133.396 181.737 133.377 181.677 133.34L180.742 132.797C180.709 132.784 180.682 132.761 180.663 132.731C180.644 132.702 180.635 132.667 180.637 132.632C180.639 132.597 180.652 132.563 180.674 132.536C180.696 132.508 180.726 132.489 180.76 132.479Z" fill="#BECAF7"/>
<path d="M182.726 133.677L183.643 133.134C183.702 133.098 183.77 133.079 183.839 133.079C183.909 133.079 183.977 133.098 184.036 133.134L184.934 133.658C184.966 133.674 184.993 133.698 185.011 133.727C185.03 133.757 185.04 133.792 185.04 133.827C185.04 133.862 185.03 133.896 185.011 133.926C184.993 133.956 184.966 133.98 184.934 133.995L184.055 134.538C183.996 134.575 183.928 134.594 183.858 134.594C183.789 134.594 183.721 134.575 183.662 134.538L182.726 134.014C182.694 133.999 182.667 133.975 182.649 133.945C182.63 133.915 182.62 133.881 182.62 133.846C182.62 133.81 182.63 133.776 182.649 133.746C182.667 133.716 182.694 133.692 182.726 133.677Z" fill="#BECAF7"/>
<path d="M184.859 134.931L185.795 134.407C185.852 134.374 185.917 134.357 185.982 134.357C186.048 134.357 186.113 134.374 186.169 134.407L187.087 134.931C187.114 134.95 187.136 134.975 187.151 135.005C187.166 135.034 187.174 135.067 187.174 135.1C187.174 135.133 187.166 135.165 187.151 135.195C187.136 135.224 187.114 135.249 187.087 135.268L186.188 135.811C186.128 135.844 186.06 135.861 185.992 135.861C185.923 135.861 185.855 135.844 185.795 135.811L184.859 135.268C184.832 135.249 184.81 135.224 184.795 135.195C184.78 135.165 184.772 135.133 184.772 135.1C184.772 135.067 184.78 135.034 184.795 135.005C184.81 134.975 184.832 134.95 184.859 134.931Z" fill="#BECAF7"/>
<path d="M186.806 135.998L187.723 135.455C187.782 135.419 187.85 135.4 187.92 135.4C187.989 135.4 188.057 135.419 188.116 135.455L189.015 135.961C189.046 135.976 189.073 136 189.092 136.03C189.11 136.059 189.12 136.094 189.12 136.129C189.12 136.164 189.11 136.199 189.092 136.229C189.073 136.258 189.046 136.282 189.015 136.298L188.116 136.84C188.056 136.873 187.988 136.89 187.92 136.89C187.851 136.89 187.783 136.873 187.723 136.84L186.806 136.298C186.778 136.283 186.755 136.262 186.739 136.235C186.723 136.209 186.715 136.179 186.715 136.148C186.715 136.117 186.723 136.087 186.739 136.06C186.755 136.034 186.778 136.012 186.806 135.998Z" fill="#BECAF7"/>
<path d="M169.885 140.022C169.404 140.024 168.935 139.881 168.537 139.611L154.387 130.252C152.053 128.69 150.301 126.401 149.404 123.74C148.507 121.079 148.515 118.196 149.427 115.54L154.293 101.446C154.399 101.143 154.562 100.864 154.776 100.625C154.989 100.386 155.247 100.191 155.536 100.052C155.825 99.9125 156.138 99.8318 156.458 99.8141C156.778 99.7964 157.098 99.8421 157.401 99.9485C157.703 100.052 157.981 100.214 158.22 100.425C158.459 100.636 158.654 100.893 158.794 101.18C158.933 101.468 159.014 101.779 159.032 102.098C159.05 102.417 159.004 102.736 158.898 103.037L154.031 117.131C153.469 118.768 153.465 120.545 154.021 122.184C154.576 123.824 155.659 125.232 157.101 126.19L171.233 135.549C171.5 135.726 171.73 135.955 171.909 136.222C172.088 136.488 172.212 136.788 172.275 137.103C172.338 137.417 172.337 137.742 172.274 138.056C172.211 138.371 172.086 138.67 171.906 138.937C171.687 139.272 171.387 139.548 171.034 139.737C170.681 139.927 170.286 140.025 169.885 140.022Z" fill="#FACAA6"/>
<path d="M151.15 119.789C150.704 119.787 150.261 119.711 149.84 119.564C148.822 119.212 147.987 118.469 147.516 117.501C147.046 116.532 146.98 115.416 147.332 114.398L152.479 99.4244C152.849 98.4291 153.593 97.6181 154.553 97.165C155.513 96.7119 156.613 96.6527 157.616 97.0001C158.619 97.3476 159.446 98.0741 159.921 99.0239C160.395 99.9738 160.478 101.072 160.153 102.082L154.987 117.056C154.713 117.855 154.196 118.549 153.508 119.039C152.82 119.529 151.995 119.791 151.15 119.789Z" fill="#1067DB"/>
<path d="M179.094 111.647C179.352 107.988 178.656 104.324 177.072 101.015C175.277 97.6012 172.551 94.7652 169.211 92.8359L166.048 90.9642C161.986 88.6245 159.047 92.0685 156.895 96.2425C149.146 111.216 156.446 132.011 152.216 146.031C152.216 146.031 166.946 152.993 170.933 152.993C176.66 152.993 185.589 151.477 184.728 149.25C177.952 130.87 178.401 122.896 179.094 111.647Z" fill="#1067DB"/>
<path d="M166.985 96.7479H168.801C169.814 96.7479 170.635 95.9266 170.635 94.9135V87.0336C170.635 86.0205 169.814 85.1992 168.801 85.1992H166.985C165.972 85.1992 165.151 86.0205 165.151 87.0336V94.9135C165.151 95.9266 165.972 96.7479 166.985 96.7479Z" fill="#FFCEBD"/>
<path d="M188.883 138.02C187.647 138.02 184.671 138.02 184.11 136.859L175.949 137.907C175.248 137.993 174.537 137.843 173.931 137.48C173.324 137.117 172.855 136.563 172.599 135.905C170.324 130.289 169.278 124.252 169.529 118.198L170.091 104.815C170.139 103.945 170.527 103.128 171.171 102.54C171.815 101.952 172.663 101.64 173.535 101.671C174.405 101.709 175.225 102.092 175.814 102.734C176.404 103.376 176.715 104.225 176.679 105.096L176.08 118.423C175.818 124.225 175.537 124.562 177.952 129.821L189.8 133.565C191.466 133.565 192.888 135.437 192.645 136.148C192.402 136.859 189.351 138.02 188.883 138.02Z" fill="#FACAA6"/>
<path d="M172.787 125.404H172.656C172.159 125.39 171.671 125.277 171.218 125.071C170.766 124.866 170.359 124.573 170.021 124.209C169.683 123.845 169.421 123.417 169.25 122.951C169.079 122.484 169.002 121.988 169.025 121.492L169.624 104.815C169.661 103.822 170.091 102.885 170.82 102.209C171.18 101.875 171.603 101.614 172.064 101.443C172.526 101.272 173.016 101.193 173.508 101.212C173.999 101.23 174.482 101.345 174.93 101.551C175.377 101.756 175.779 102.047 176.114 102.408C176.448 102.768 176.708 103.191 176.88 103.653C177.051 104.114 177.129 104.604 177.111 105.096L176.512 121.773C176.483 122.743 176.078 123.664 175.383 124.341C174.688 125.019 173.757 125.4 172.787 125.404Z" fill="#1067DB"/>
<path d="M161.294 70.6746H177.653V80.0333C177.653 81.2844 177.407 82.5233 176.928 83.6792C176.449 84.835 175.748 85.8853 174.863 86.77C173.978 87.6547 172.928 88.3564 171.772 88.8352C170.616 89.314 169.377 89.5604 168.126 89.5604H161.294V70.6746Z" fill="#FACAA6"/>
<path d="M178.832 67.343C176.006 64.0113 169.473 65.0033 165.73 66.1637C161.219 67.6237 155.566 69.3083 154.761 74.7551C154.658 76.1445 154.658 77.5396 154.761 78.929C154.786 82.1761 154.042 85.383 152.59 88.2876C150.55 92.4055 149.558 95.0446 151.729 99.3122C153.021 101.839 153.844 105.788 156.465 107.342C159.085 108.895 164.887 109.925 167.47 107.978C171.083 105.246 172.899 98.6196 172.562 94.3708C172.206 89.785 169.922 85.1619 171.308 80.7633C172.187 78.0306 175.875 74.9422 177.952 73.0143C180.03 71.0864 180.704 69.5703 178.832 67.343Z" fill="#F7A66A"/>
<path d="M178.833 67.3429C177.833 66.4321 176.64 65.7587 175.344 65.373C174.048 64.9873 172.681 64.8993 171.346 65.1156C172.36 65.0971 173.368 65.2851 174.307 65.668C175.247 66.0509 176.099 66.6207 176.811 67.3429C178.683 69.5703 177.747 71.2548 175.894 72.9581C174.041 74.6614 170.11 77.9744 169.231 80.7071C167.846 85.1057 170.129 89.7289 170.485 94.3146C170.822 98.5634 169.006 105.189 165.394 107.922C164.429 108.554 163.308 108.904 162.156 108.933C163.985 109.233 165.862 108.875 167.453 107.922C171.065 105.189 172.881 98.5634 172.544 94.3146C172.188 89.7289 169.905 85.1057 171.29 80.7071C172.169 77.9744 175.857 74.886 177.934 72.9581C180.012 71.0302 180.704 69.5703 178.833 67.3429Z" fill="#FACAA6"/>
<path d="M187.498 135.044L193.899 135.137C193.997 135.14 194.094 135.123 194.184 135.087C194.275 135.051 194.358 134.998 194.428 134.93C194.497 134.862 194.553 134.781 194.591 134.691C194.629 134.601 194.648 134.505 194.648 134.407C194.65 134.309 194.634 134.211 194.598 134.119C194.563 134.027 194.51 133.943 194.442 133.872C194.374 133.801 194.293 133.744 194.203 133.704C194.113 133.664 194.016 133.642 193.918 133.64L187.517 133.546C187.318 133.551 187.128 133.63 186.986 133.769C186.843 133.908 186.759 134.096 186.749 134.295C186.749 134.393 186.769 134.491 186.806 134.581C186.844 134.672 186.899 134.755 186.969 134.824C187.038 134.894 187.121 134.949 187.211 134.987C187.302 135.024 187.4 135.044 187.498 135.044Z" fill="#FACAA6"/>
<path d="M184.279 134.632L190.531 133.284C190.725 133.239 190.895 133.12 191.003 132.953C191.111 132.785 191.15 132.582 191.111 132.386C191.089 132.29 191.048 132.199 190.991 132.119C190.934 132.039 190.862 131.971 190.778 131.919C190.695 131.867 190.602 131.831 190.505 131.815C190.408 131.799 190.308 131.802 190.213 131.824L183.961 133.172C183.863 133.192 183.771 133.231 183.689 133.287C183.606 133.343 183.536 133.415 183.482 133.499C183.428 133.583 183.391 133.676 183.374 133.774C183.356 133.873 183.359 133.973 183.381 134.07C183.403 134.166 183.444 134.257 183.501 134.337C183.558 134.417 183.63 134.485 183.714 134.537C183.797 134.589 183.89 134.625 183.987 134.641C184.084 134.657 184.183 134.654 184.279 134.632Z" fill="#FACAA6"/>
<g style="mix-blend-mode:multiply">
<g style="mix-blend-mode:multiply">
<path d="M338.994 136.32C339.057 136.133 339.106 135.941 339.143 135.747C339.149 135.677 339.149 135.606 339.143 135.536C339.193 135.265 339.218 134.99 339.218 134.715L339.305 78.2906C339.303 77.9289 339.282 77.5676 339.243 77.208C339.236 77.1667 339.236 77.1248 339.243 77.0835C339.243 77.0089 339.243 76.9217 339.243 76.8471C339.243 76.7724 339.155 76.3866 339.106 76.1626C339.056 75.9386 339.106 75.8888 338.994 75.7519C338.882 75.6151 338.857 75.3164 338.782 75.0924C338.707 74.8684 338.496 74.4204 338.334 74.0968C338.172 73.7733 338.048 73.599 337.899 73.3626C337.562 72.8294 337.169 72.333 336.729 71.8817C336.345 71.5088 335.929 71.1715 335.484 70.8737C335.273 70.7243 335.061 70.5625 334.825 70.4257L298.897 49.6183L225.349 6.90836C225.131 6.78039 224.902 6.67211 224.665 6.5848L224.441 6.51013L223.956 6.37324H223.719C223.553 6.36182 223.387 6.36182 223.221 6.37324H223.022C222.815 6.36086 222.607 6.36086 222.4 6.37324H222.325C221.994 6.42384 221.669 6.50721 221.355 6.62213L220.932 6.78392C220.722 6.88363 220.518 6.99583 220.322 7.11992C219.845 7.41855 219.424 7.7975 219.077 8.23993L219.003 8.33949C218.903 8.48883 218.804 8.6506 218.716 8.81238L218.617 8.99906C218.542 9.14279 218.48 9.29267 218.43 9.44706L218.343 9.67107C218.294 9.8299 218.257 9.99211 218.231 10.1564C218.225 10.231 218.225 10.3059 218.231 10.3804C218.191 10.6273 218.17 10.8769 218.169 11.1271V67.3145C218.17 68.9024 218.588 70.4621 219.38 71.8379C220.173 73.2138 221.313 74.3574 222.686 75.1546L332.087 138.921C332.933 139.416 333.912 139.638 334.889 139.558C335.866 139.478 336.795 139.099 337.55 138.473H337.612C337.787 138.321 337.954 138.159 338.11 137.987L338.185 137.9C338.511 137.53 338.776 137.11 338.969 136.656L338.994 136.32Z" fill="#1067DB"/>
</g>
</g>
<path d="M208.5 73.487V5.86302C208.51 4.84847 208.786 3.85426 209.3 2.97929C209.813 2.10433 210.547 1.37909 211.428 0.875704C212.309 0.372318 213.306 0.108331 214.321 0.109993C215.335 0.111655 216.332 0.378911 217.211 0.88518L335.049 69.0443C336.708 70.0035 338.085 71.3826 339.042 73.0428C339.999 74.7031 340.502 76.586 340.5 78.5022L340.4 146.412C340.394 147.428 340.121 148.425 339.608 149.302C339.095 150.179 338.361 150.906 337.479 151.41C336.596 151.915 335.597 152.178 334.581 152.174C333.565 152.171 332.568 151.901 331.689 151.39L213.913 82.9076C212.265 81.9488 210.898 80.574 209.948 78.9207C208.998 77.2675 208.499 75.3938 208.5 73.487Z" fill="#F3F8FE"/>
<path d="M340.488 90.9468V78.5022C340.491 77.0349 340.194 75.5824 339.616 74.2337L212.383 0.38739C211.247 0.783235 210.262 1.52332 209.566 2.5047C208.87 3.48608 208.498 4.65996 208.5 5.86302V14.288L340.488 90.9468Z" fill="#1CA2F9"/>
<path d="M216.551 10.144C215.755 9.67106 215.095 10.0568 215.095 10.9902C215.13 11.4891 215.28 11.9734 215.532 12.4051C215.785 12.8368 216.134 13.2044 216.551 13.4791C217.36 13.952 218.02 13.5662 218.02 12.6329C217.985 12.1326 217.834 11.6473 217.579 11.2154C217.324 10.7834 216.972 10.4166 216.551 10.144Z" fill="white"/>
<path d="M221.555 13.0435C220.758 12.5831 220.099 12.9564 220.099 13.8898C220.134 14.3887 220.283 14.8729 220.536 15.3047C220.788 15.7364 221.137 16.1039 221.555 16.3787C222.364 16.8516 223.023 16.4658 223.023 15.5324C222.988 15.0322 222.837 14.5469 222.582 14.1149C222.328 13.683 221.976 13.3162 221.555 13.0435Z" fill="white"/>
<path d="M226.569 16.0427C225.76 15.5823 225.101 15.9556 225.101 16.889C225.136 17.3892 225.287 17.8745 225.542 18.3065C225.797 18.7384 226.148 19.1052 226.569 19.3779C227.366 19.8508 228.025 19.465 228.025 18.5441C227.992 18.0432 227.843 17.5569 227.59 17.123C227.338 16.6891 226.988 16.3194 226.569 16.0427Z" fill="white"/>
<path d="M335.049 69.0443L217.199 0.773167C216.136 0.159052 214.905 -0.0996974 213.685 0.0346099C212.465 0.168917 211.32 0.689261 210.417 1.51984C211.78 1.24888 213.195 1.48332 214.399 2.1794L332.237 70.4506C333.899 71.4072 335.279 72.7854 336.238 74.4459C337.198 76.1065 337.702 77.9907 337.7 79.9084L337.588 147.819C337.591 148.626 337.423 149.425 337.095 150.163C336.767 150.901 336.286 151.561 335.684 152.1C337.009 151.848 338.204 151.142 339.065 150.104C339.926 149.066 340.398 147.761 340.4 146.412L340.5 78.5022C340.502 76.586 339.999 74.7031 339.042 73.0428C338.085 71.3826 336.708 70.0035 335.049 69.0443Z" fill="url(#paint4_linear_3118_39073)"/>
<path d="M332.1 99.8945L249.344 52.4557L249.356 49.0334L332.1 96.2607V99.8945Z" fill="#E9EDFC"/>
<path d="M332.1 110.92L249.344 63.4815L249.356 60.0593L332.1 107.274V110.92Z" fill="#E9EDFC"/>
<path d="M332.1 121.934L249.344 74.495L249.356 71.0728L332.1 118.3V121.934Z" fill="#E9EDFC"/>
<path d="M332.1 132.96L249.344 85.521L249.356 82.0987L332.1 129.314V132.96Z" fill="#E9EDFC"/>
<path d="M287.486 118.549L249.344 96.5469L249.356 93.1122L287.486 114.915V118.549Z" fill="#E9EDFC"/>
<path d="M215.78 29.122V77.1209L243.494 93.1122V45.1258L215.78 29.122Z" fill="#D3DBF9"/>
<path d="M288.92 167.79L268.69 179.17L288.79 190.78L308.89 179.7L288.92 167.79Z" fill="#D3DBF9"/>
<path d="M288.91 168.38L269.72 179.18L288.79 190.19L307.87 179.68L288.91 168.38Z" fill="#92A6F1"/>
<path d="M288.89 172.42L273.25 181.22L288.79 190.19L304.33 181.63L288.89 172.42Z" fill="#4085E2"/>
<path d="M268.69 179.17L273.25 214.42L288.79 223.5V190.78L268.69 179.17Z" fill="#92A6F1"/>
<path d="M308.89 179.7L303.12 215.23L288.79 223.5V190.78L308.89 179.7Z" fill="#A8B8F4"/>
<path d="M284.38 187.32L272.08 175.32C272.08 175.32 287.79 180.38 288.79 185.72L284.38 187.32Z" fill="#040C46"/>
<path d="M291.38 186.86C291.38 186.86 287.23 176.01 281.47 167.76C280.155 165.902 278.325 164.47 276.204 163.641C274.084 162.813 271.767 162.624 269.541 163.099C267.315 163.573 265.276 164.691 263.678 166.312C262.08 167.933 260.993 169.987 260.55 172.22C260.55 172.3 260.55 172.38 260.5 172.45C260.45 172.52 270.5 156.17 286.5 188.66L291.38 186.86Z" fill="#05105D"/>
<path d="M286.36 184.08C286.36 184.08 296.41 163.67 294.02 154.23C294.02 154.23 299.02 156.6 292.39 183.46L286.36 184.08Z" fill="#040C46"/>
<path d="M288.79 190.19C288.79 190.19 300.61 145.19 313.48 174.52C313.48 174.52 303.93 165.76 294.23 187.06L288.79 190.19Z" fill="#05105D"/>
<path d="M288.79 190.19C288.79 190.19 297.05 179.19 284.08 149C284.08 149 286.79 182.54 282.32 186.45L288.79 190.19Z" fill="#05105D"/>
<path d="M280.72 141.23C280.72 140.75 280.05 140.37 279.22 140.37H276.02C275.49 140.37 274.61 140.93 274.48 140.76C274.35 140.59 274.33 140.15 274.71 139.94L276.97 138.64C277.56 138.3 273.84 138.45 273.25 138.12V135.29C272.92 135.127 272.558 135.042 272.19 135.042C271.822 135.042 271.46 135.127 271.13 135.29L268.85 136.61C268.426 136.821 267.94 136.874 267.48 136.76L266.48 136.53C266.01 136.42 265.7 136.16 265.7 135.86V134C265.7 133.53 265.03 133.14 264.2 133.14H258.98C258.15 133.14 257.48 133.53 257.48 134V135.85C257.48 136.15 257.14 136.41 256.64 136.52L255.71 136.74C255.237 136.873 254.731 136.826 254.29 136.61L252.02 135.31C251.691 135.145 251.328 135.059 250.96 135.059C250.592 135.059 250.229 135.145 249.9 135.31L249.63 138.39C249.04 138.72 245.63 138.33 246.22 138.66L248.51 139.97C248.87 140.18 248.98 140.49 248.78 140.76C248.58 141.03 247.78 140.39 247.23 140.39H244C243.17 140.39 242.5 140.78 242.5 141.25V145.64C242.5 146.12 243.18 146.5 244.01 146.5H245.89V150.12C245.88 150.183 245.88 150.247 245.89 150.31C245.918 150.423 245.971 150.529 246.046 150.619C246.12 150.709 246.214 150.781 246.32 150.83L250.01 152.95C250.417 153.157 250.878 153.234 251.33 153.17C251.602 153.148 251.867 153.074 252.11 152.95L254.42 151.64C254.842 151.422 255.331 151.369 255.79 151.49L256.79 151.72C257.26 151.82 257.57 152.09 257.57 152.38V154.24C257.57 154.72 258.24 155.1 259.07 155.1H264.29C265.12 155.1 265.79 154.71 265.79 154.23V152.39C265.79 152.09 266.13 151.82 266.63 151.72L267.51 151.5C267.988 151.368 268.497 151.418 268.94 151.64L271.21 152.94C271.448 153.068 271.71 153.143 271.98 153.16C272.429 153.218 272.885 153.142 273.29 152.94L276.97 150.81C277.072 150.761 277.162 150.692 277.234 150.605C277.307 150.519 277.36 150.418 277.39 150.31V150.18L277.34 146.48H279.19C280.01 146.48 280.68 146.09 280.68 145.61L280.72 141.23ZM268.91 144.89C268.05 147.54 263.27 149.04 258.97 148.09C255.71 147.36 253.72 145.33 254.37 143.35C255.23 140.7 260.01 139.2 264.31 140.15C267.57 140.88 269.56 142.91 268.91 144.89Z" fill="#1067DB"/>
<path d="M275.13 142.33H279.23C280.05 142.33 280.72 141.94 280.72 141.47V138.47C280.72 138 280.05 137.61 279.22 137.61H276.02C275.8 137.627 275.578 137.593 275.373 137.51C275.169 137.426 274.986 137.296 274.84 137.13C274.727 136.963 274.607 136.793 274.48 136.62C274.26 136.34 274.33 136.02 274.71 135.8L276.97 134.5C277.56 134.16 277.56 133.61 276.97 133.28L273.28 131.16C272.952 130.992 272.589 130.905 272.22 130.905C271.852 130.905 271.488 130.992 271.16 131.16L268.88 132.47C268.458 132.688 267.97 132.741 267.51 132.62L266.51 132.39C266.04 132.28 265.73 132.02 265.73 131.73V129.87C265.73 129.39 265.06 129 264.23 129H259.01C258.18 129 257.51 129.39 257.51 129.87V131.74C257.51 132.04 257.17 132.31 256.67 132.41L255.74 132.64C255.266 132.769 254.76 132.72 254.32 132.5L252.05 131.2C251.721 131.035 251.358 130.949 250.99 130.949C250.622 130.949 250.259 131.035 249.93 131.2L246.25 133.33C245.66 133.67 245.67 134.21 246.25 134.55L248.54 135.86C248.9 136.06 249.01 136.37 248.81 136.64L248.41 137.21C248.265 137.367 248.086 137.489 247.887 137.567C247.688 137.644 247.473 137.676 247.26 137.66H244.03C243.2 137.66 242.53 138.05 242.53 138.53V141.53C242.53 142.01 243.21 142.39 244.04 142.39H247.24C247.459 142.372 247.68 142.406 247.883 142.489C248.086 142.573 248.267 142.703 248.41 142.87L248.78 143.38C249 143.66 248.93 143.98 248.55 144.2L246.29 145.5C246.161 145.541 246.048 145.622 245.967 145.732C245.887 145.842 245.844 145.974 245.844 146.11C245.844 146.246 245.887 146.378 245.967 146.488C246.048 146.598 246.161 146.679 246.29 146.72L249.98 148.84C250.308 149.008 250.672 149.095 251.04 149.095C251.409 149.095 251.772 149.008 252.1 148.84L254.38 147.52C254.805 147.309 255.29 147.256 255.75 147.37L256.75 147.6C257.22 147.71 257.53 147.97 257.53 148.26V150.12C257.53 150.6 258.2 150.99 259.03 150.99H264.25C265.08 150.99 265.75 150.6 265.75 150.13V148.24C265.75 147.94 266.09 147.68 266.59 147.57L267.47 147.36C267.947 147.225 268.456 147.271 268.9 147.49L271.17 148.79C271.498 148.958 271.862 149.045 272.23 149.045C272.599 149.045 272.962 148.958 273.29 148.79L276.97 146.67C277.56 146.33 277.56 145.78 276.97 145.45L274.68 144.13C274.32 143.93 274.22 143.62 274.42 143.35C274.77 142.9 275.12 142.36 275.13 142.33ZM254.42 139.21C255.28 136.55 260.06 135.05 264.36 136.01C267.62 136.73 269.61 138.76 268.96 140.74C268.1 143.4 263.32 144.89 259.02 143.94C255.71 143.22 253.72 141.19 254.42 139.21Z" fill="#1CA2F9"/>
<defs>
<linearGradient id="paint0_linear_3118_39073" x1="194.48" y1="242.462" x2="130.579" y2="117.056" gradientUnits="userSpaceOnUse">
<stop stop-color="#92A6F1"/>
<stop offset="0.13" stop-color="#A7B8F4"/>
<stop offset="0.34" stop-color="#C1CEF7"/>
<stop offset="0.55" stop-color="#D4DEFA"/>
<stop offset="0.76" stop-color="#DFE8FC"/>
<stop offset="1" stop-color="#E3EBFC"/>
</linearGradient>
<linearGradient id="paint1_linear_3118_39073" x1="3340.43" y1="10504.6" x2="3938.19" y2="10504.6" gradientUnits="userSpaceOnUse">
<stop stop-color="#92A6F1"/>
<stop offset="1" stop-color="#DCE5FB"/>
</linearGradient>
<linearGradient id="paint2_linear_3118_39073" x1="-60312.4" y1="9454.91" x2="-60818.6" y2="9454.91" gradientUnits="userSpaceOnUse">
<stop offset="0.02" stop-color="#1CA2F9"/>
<stop offset="0.33" stop-color="#1993F1"/>
<stop offset="0.93" stop-color="#116CDE"/>
<stop offset="1" stop-color="#1067DB"/>
</linearGradient>
<linearGradient id="paint3_linear_3118_39073" x1="3831.87" y1="7633.77" x2="4823.85" y2="7633.77" gradientUnits="userSpaceOnUse">
<stop stop-color="#92A6F1"/>
<stop offset="1" stop-color="#DCE5FB"/>
</linearGradient>
<linearGradient id="paint4_linear_3118_39073" x1="42923.3" y1="14546.8" x2="58882.2" y2="29112.2" gradientUnits="userSpaceOnUse">
<stop stop-color="#F3F8FE"/>
<stop offset="0.41" stop-color="#D7ECFD"/>
<stop offset="1" stop-color="#A8D9FB"/>
</linearGradient>
</defs>
</svg>
