<svg width="373" height="275" viewBox="0 0 373 275" fill="none" xmlns="http://www.w3.org/2000/svg">
<path d="M185.684 274.049L1.62137 167.726C-0.772823 166.346 -0.482623 163.877 2.27432 162.279L172.189 63.8718C174.946 62.2741 179.227 62.0562 181.621 63.5087L365.611 169.832C368.005 171.212 367.715 173.681 364.958 175.279L195.115 273.686C192.358 275.284 188.078 275.429 185.684 274.049Z" fill="#F8FBFD"/>
<path d="M191.452 262.484L7.38943 156.175C4.99524 154.795 5.28544 152.327 8.04239 150.729L177.957 52.3356C180.714 50.738 184.995 50.5202 187.389 51.9725L371.379 158.281C373.773 159.661 373.483 162.13 370.726 163.727L200.883 262.121C198.126 263.718 193.846 263.936 191.452 262.484Z" fill="#F0F5FD"/>
<path d="M123.071 66.8779C123.306 66.6342 123.579 66.4161 123.891 66.2325L149.835 50.9808C152.061 49.6721 154.802 49.6733 157.027 50.9832L226.332 91.7244H230V116.81C230.007 117.854 229.505 118.901 228.491 119.497L202.68 134.671C199.664 136.444 195.949 136.443 192.936 134.668L123.889 94.077C122.635 93.3386 122.007 92.0506 122.001 90.7597H122V65.5899L123.071 66.8779Z" fill="#CDD7FC"/>
<path d="M120.987 66.7425L193.628 108.817C194.147 109.118 194.685 109.364 195.237 109.567V135.596C194.685 135.393 194.147 135.147 193.629 134.846L120.987 92.7715C119.669 92.0064 119.008 90.6709 119.002 89.3329H119V63.2833C119 64.6281 119.662 65.9733 120.987 66.7425Z" fill="#DDE5F2"/>
<path d="M116.003 61.9565C116.003 61.9695 116 61.9821 116 61.9951V61.9539L116.003 61.9565Z" fill="#ABADBB"/>
<path d="M117.99 58.5376L145.284 42.7284C147.625 41.3718 150.51 41.3731 152.85 42.7313L228.036 86.2806C230.153 87.5092 230.152 90.5768 228.034 91.8041L200.879 107.533C197.707 109.37 193.799 109.369 190.628 107.529L117.987 65.4543C115.337 63.9159 115.338 60.074 117.99 58.5376Z" fill="#071D4F"/>
<path d="M200.88 107.533L201.95 106.912V132.941L200.88 133.561C199.683 134.255 198.381 134.686 197.054 134.856V108.826C198.381 108.657 199.683 108.226 200.88 107.533Z" fill="#DDE5F2"/>
<path d="M184.669 122.39L123.132 86.7384V90.6072L184.669 126.244V122.39Z" fill="#5384FC"/>
<path d="M124.497 90.066V87.528L123.132 86.7386V90.6074L184.669 126.244V124.912L124.497 90.066Z" fill="#FFFFFD"/>
<path d="M125.764 81.2252C126.41 81.5999 126.932 82.5076 126.93 83.2533C126.928 83.9989 126.403 84.2991 125.756 83.9248C125.11 83.5501 124.588 82.6424 124.59 81.8967C124.592 81.1515 125.118 80.8505 125.764 81.2252Z" fill="#5384FC"/>
<path d="M144.658 92.1519C145.305 92.5266 145.827 93.4344 145.825 94.18C145.822 94.9257 145.297 95.2263 144.651 94.8516C144.004 94.4769 143.482 93.5691 143.484 92.8235C143.486 92.0782 144.012 91.7776 144.658 92.1519Z" fill="#5384FC"/>
<path d="M182.447 114.061C183.094 114.436 183.616 115.343 183.614 116.089C183.612 116.835 183.086 117.135 182.44 116.76C181.794 116.386 181.271 115.478 181.274 114.732C181.276 113.987 181.801 113.686 182.447 114.061Z" fill="#5384FC"/>
<path d="M125.756 77.7976C125.11 77.4229 124.588 76.5152 124.59 75.7695C124.592 75.0243 125.118 74.7233 125.764 75.098C126.41 75.4727 126.932 76.3804 126.93 77.1261C126.928 77.8717 126.403 78.1719 125.756 77.7976Z" fill="#5384FC"/>
<path d="M130.487 77.8296C131.134 78.2043 131.656 79.1121 131.654 79.8577C131.652 80.6034 131.126 80.904 130.48 80.5292C129.834 80.1545 129.311 79.2468 129.313 78.5011C129.316 77.7559 129.841 77.4553 130.487 77.8296Z" fill="#5384FC"/>
<path d="M135.209 80.5614C135.856 80.9361 136.378 81.8439 136.376 82.5895C136.374 83.3352 135.848 83.6354 135.202 83.2611C134.556 82.8863 134.033 81.9786 134.035 81.233C134.038 80.4877 134.563 80.1871 135.209 80.5614Z" fill="#5384FC"/>
<path d="M139.933 83.293C140.579 83.6678 141.102 84.5755 141.099 85.3211C141.097 86.0668 140.572 86.3674 139.926 85.9927C139.279 85.618 138.757 84.7102 138.759 83.9646C138.761 83.2194 139.287 82.9187 139.933 83.293Z" fill="#5384FC"/>
<path d="M154.105 91.5171C154.752 91.8914 155.274 92.7996 155.272 93.5452C155.269 94.2904 154.744 94.5911 154.098 94.2168C153.451 93.842 152.929 92.9343 152.931 92.1887C152.933 91.443 153.459 91.1424 154.105 91.5171Z" fill="#5384FC"/>
<path d="M158.829 94.2584C159.475 94.6327 159.997 95.5408 159.995 96.2865C159.993 97.0317 159.467 97.3323 158.821 96.958C158.175 96.5833 157.653 95.6756 157.655 94.9299C157.657 94.1847 158.182 93.8837 158.829 94.2584Z" fill="#5384FC"/>
<path d="M168.276 99.7249C168.922 100.1 169.444 101.007 169.442 101.753C169.44 102.498 168.914 102.799 168.268 102.425C167.622 102.05 167.1 101.142 167.102 100.396C167.104 99.6508 167.629 99.3502 168.276 99.7249Z" fill="#5384FC"/>
<path d="M172.999 102.46C173.645 102.835 174.167 103.742 174.165 104.488C174.163 105.234 173.638 105.534 172.991 105.159C172.345 104.785 171.823 103.877 171.825 103.131C171.827 102.386 172.353 102.085 172.999 102.46Z" fill="#5384FC"/>
<path d="M182.447 107.934C183.094 108.308 183.616 109.216 183.614 109.962C183.612 110.707 183.086 111.008 182.44 110.633C181.794 110.259 181.271 109.351 181.274 108.605C181.276 107.86 181.801 107.559 182.447 107.934Z" fill="#5384FC"/>
<path d="M198.438 103.287C197.624 103.759 196.697 104.008 195.757 104.008C194.815 104.008 193.887 103.758 193.068 103.283L121.788 61.9967L147.725 46.9739C148.132 46.7381 148.595 46.6135 149.065 46.6135C149.535 46.6135 149.999 46.7385 150.41 46.9768L223.033 89.042L198.438 103.287ZM228.036 86.2809L152.85 42.7312C151.679 42.0516 150.372 41.7119 149.065 41.7119C147.76 41.7119 146.454 42.0508 145.284 42.7282L117.99 58.5375C115.338 60.0743 115.336 63.9157 117.987 65.4542L190.628 107.529C192.215 108.449 193.986 108.91 195.757 108.91C197.525 108.91 199.294 108.451 200.879 107.532L228.035 91.8039C230.152 90.5771 230.153 87.509 228.036 86.2809Z" fill="#FFFFFD"/>
<path d="M150.41 48.9171C150 48.6788 149.535 48.5538 149.065 48.5538C148.595 48.5538 148.132 48.6784 147.725 48.9142L123.462 62.9665L121.788 61.9964L147.725 46.9741C148.132 46.7383 148.595 46.6137 149.065 46.6137C149.535 46.6137 150 46.7383 150.41 46.977L223.033 89.0422L221.358 90.0122L150.41 48.9171Z" fill="#CDD7FC"/>
<path d="M203.357 83.1405L200.319 81.3793L199.318 81.9628L202.357 83.724L203.357 83.1405Z" fill="#5384FC"/>
<path d="M203.58 84.7651L199.033 82.1295L198.033 82.7135L202.58 85.3487L203.58 84.7651Z" fill="#09FAFA"/>
<path d="M202.295 85.5148L197.748 82.8791L196.747 83.4631L201.294 86.0983L202.295 85.5148Z" fill="#5384FC"/>
<path d="M200.104 85.7398L196.462 83.6292L195.461 84.2127L199.103 86.3238L200.104 85.7398Z" fill="#5384FC"/>
<path d="M197.452 85.6971L195.177 84.3788L194.177 84.9628L196.451 86.2806L197.452 85.6971Z" fill="#5384FC"/>
<path d="M196.931 86.89L193.892 85.1288L192.892 85.7123L195.93 87.4735L196.931 86.89Z" fill="#09FAFA"/>
<path d="M205.781 85.709L208.178 87.098L209.178 86.5145L206.782 85.1255L205.781 85.709Z" fill="#5384FC"/>
<path d="M208.454 87.2588L213.785 90.3488L214.786 89.7652L209.454 86.6749L208.454 87.2588Z" fill="#5384FC"/>
<path d="M206.116 87.3987L212.501 91.0991L213.501 90.5156L207.116 86.8151L206.116 87.3987Z" fill="#5384FC"/>
<path d="M207.115 89.4726L208.116 88.8886L204.211 86.6256L203.21 87.2091L207.115 89.4726Z" fill="#5384FC"/>
<path d="M207.393 89.6332L211.216 91.8491L212.217 91.2652L208.394 89.0497L207.393 89.6332Z" fill="#5384FC"/>
<path d="M205.201 89.8582L209.929 92.5986L210.93 92.0151L206.202 89.2746L205.201 89.8582Z" fill="#5384FC"/>
<path d="M200.639 88.7088L202.271 89.6548L203.272 89.0709L201.64 88.1248L200.639 88.7088Z" fill="#5384FC"/>
<path d="M202.549 89.8153L208.645 93.3486L209.646 92.7647L203.55 89.2318L202.549 89.8153Z" fill="#09FAFA"/>
<path d="M200.355 88.8748L199.354 89.4584L204.76 92.5921L205.761 92.0086L200.355 88.8748Z" fill="#5384FC"/>
<path d="M205.038 92.7528L207.359 94.0984L208.36 93.5144L206.038 92.1692L205.038 92.7528Z" fill="#5384FC"/>
<path d="M191.247 90.1375L188.208 88.3763L187.208 88.9598L190.246 90.721L191.247 90.1375Z" fill="#5384FC"/>
<path d="M191.47 91.7622L186.923 89.1265L185.922 89.7105L190.469 92.3457L191.47 91.7622Z" fill="#5384FC"/>
<path d="M190.184 92.5119L185.637 89.8763L184.637 90.4602L189.184 93.0955L190.184 92.5119Z" fill="#09FAFA"/>
<path d="M184.352 90.6261L183.351 91.2101L186.993 93.3207L187.993 92.7368L184.352 90.6261Z" fill="#5384FC"/>
<path d="M182.066 91.9597L184.34 93.278L185.34 92.694L183.066 91.3762L182.066 91.9597Z" fill="#5384FC"/>
<path d="M180.78 92.7095L183.819 94.4706L184.82 93.8871L181.781 92.1255L180.78 92.7095Z" fill="#09FAFA"/>
<path d="M193.672 92.7061L196.069 94.095L197.07 93.5115L194.673 92.1225L193.672 92.7061Z" fill="#5384FC"/>
<path d="M196.345 94.2558L201.676 97.3457L202.677 96.7622L197.346 93.6722L196.345 94.2558Z" fill="#5384FC"/>
<path d="M194.005 94.3958L200.39 98.0962L201.39 97.5126L195.006 93.8122L194.005 94.3958Z" fill="#5384FC"/>
<path d="M195.005 96.4696L196.006 95.8861L192.101 93.6226L191.1 94.2061L195.005 96.4696Z" fill="#5384FC"/>
<path d="M195.281 96.6303L199.104 98.8462L200.105 98.2622L196.282 96.0468L195.281 96.6303Z" fill="#09FAFA"/>
<path d="M193.091 96.8552L197.819 99.5957L198.82 99.0122L194.092 96.2717L193.091 96.8552Z" fill="#5384FC"/>
<path d="M188.529 95.7059L190.161 96.6515L191.161 96.0679L189.53 95.1219L188.529 95.7059Z" fill="#5384FC"/>
<path d="M190.439 96.8124L196.535 100.346L197.535 99.7617L191.44 96.2289L190.439 96.8124Z" fill="#5384FC"/>
<path d="M188.246 95.8718L187.245 96.4554L192.651 99.5891L193.652 99.0056L188.246 95.8718Z" fill="#5384FC"/>
<path d="M192.929 99.7498L195.25 101.095L196.251 100.511L193.93 99.1659L192.929 99.7498Z" fill="#09FAFA"/>
<path d="M153.22 54.0129L150.182 52.2517L149.181 52.8353L152.22 54.5964L153.22 54.0129Z" fill="#5384FC"/>
<path d="M153.441 55.6376L148.894 53.002L147.893 53.586L152.44 56.2212L153.441 55.6376Z" fill="#09FAFA"/>
<path d="M152.156 56.3873L147.609 53.7521L146.609 54.3356L151.155 56.9713L152.156 56.3873Z" fill="#5384FC"/>
<path d="M149.966 56.6123L146.324 54.5017L145.324 55.0852L148.965 57.1959L149.966 56.6123Z" fill="#5384FC"/>
<path d="M147.313 56.5695L145.039 55.2512L144.038 55.8352L146.312 57.1534L147.313 56.5695Z" fill="#5384FC"/>
<path d="M146.793 57.7624L143.754 56.0012L142.754 56.5848L145.792 58.3459L146.793 57.7624Z" fill="#09FAFA"/>
<path d="M155.643 56.5815L158.039 57.9705L159.04 57.3869L156.643 55.9979L155.643 56.5815Z" fill="#09FAFA"/>
<path d="M158.317 58.1313L163.648 61.2212L164.649 60.6376L159.317 57.5477L158.317 58.1313Z" fill="#5384FC"/>
<path d="M155.978 58.2712L162.363 61.9716L163.363 61.3881L156.979 57.6876L155.978 58.2712Z" fill="#5384FC"/>
<path d="M156.977 60.345L157.978 59.7615L154.073 57.498L153.072 58.0816L156.977 60.345Z" fill="#5384FC"/>
<path d="M157.253 60.5057L161.076 62.7216L162.077 62.1376L158.254 59.9222L157.253 60.5057Z" fill="#5384FC"/>
<path d="M155.063 60.7306L159.792 63.4711L160.792 62.8876L156.064 60.1471L155.063 60.7306Z" fill="#5384FC"/>
<path d="M150.503 59.5813L152.135 60.5273L153.136 59.9434L151.504 58.9973L150.503 59.5813Z" fill="#5384FC"/>
<path d="M152.411 60.6878L158.507 64.2211L159.508 63.6372L153.412 60.1043L152.411 60.6878Z" fill="#09FAFA"/>
<path d="M150.217 59.7473L149.216 60.3309L154.623 63.4646L155.623 62.8811L150.217 59.7473Z" fill="#5384FC"/>
<path d="M154.899 63.6252L157.221 64.9708L158.221 64.3873L155.9 63.0417L154.899 63.6252Z" fill="#5384FC"/>
<path d="M141.108 61.01L138.07 59.2488L137.069 59.8323L140.108 61.5939L141.108 61.01Z" fill="#09FAFA"/>
<path d="M141.331 62.6346L136.784 59.999L135.784 60.5829L140.331 63.2186L141.331 62.6346Z" fill="#5384FC"/>
<path d="M140.046 63.3844L135.499 60.7488L134.498 61.3327L139.045 63.9684L140.046 63.3844Z" fill="#5384FC"/>
<path d="M134.214 61.4986L133.213 62.0822L136.855 64.1932L137.856 63.6093L134.214 61.4986Z" fill="#5384FC"/>
<path d="M131.929 62.8321L134.203 64.1504L135.203 63.5664L132.929 62.2486L131.929 62.8321Z" fill="#09FAFA"/>
<path d="M130.643 63.582L133.681 65.3431L134.682 64.7596L131.643 62.9984L130.643 63.582Z" fill="#5384FC"/>
<path d="M143.533 63.5786L145.929 64.9675L146.93 64.384L144.533 62.995L143.533 63.5786Z" fill="#5384FC"/>
<path d="M146.206 65.1283L151.538 68.2182L152.538 67.6347L147.207 64.5447L146.206 65.1283Z" fill="#5384FC"/>
<path d="M143.867 65.2682L150.252 68.9686L151.252 68.3851L144.868 64.6846L143.867 65.2682Z" fill="#5384FC"/>
<path d="M144.867 67.342L145.868 66.7581L141.963 64.495L140.962 65.0786L144.867 67.342Z" fill="#09FAFA"/>
<path d="M145.144 67.5027L148.966 69.7186L149.967 69.1347L146.144 66.9192L145.144 67.5027Z" fill="#5384FC"/>
<path d="M142.953 67.7277L147.681 70.4682L148.682 69.8847L143.953 67.1437L142.953 67.7277Z" fill="#5384FC"/>
<path d="M138.392 66.5783L140.024 67.5239L141.024 66.9404L139.392 65.9943L138.392 66.5783Z" fill="#5384FC"/>
<path d="M140.301 67.6849L146.397 71.2181L147.398 70.6342L141.302 67.1013L140.301 67.6849Z" fill="#5384FC"/>
<path d="M138.108 66.7443L137.107 67.3279L142.513 70.4616L143.514 69.8781L138.108 66.7443Z" fill="#5384FC"/>
<path d="M142.79 70.6223L145.111 71.9679L146.112 71.3839L143.79 70.0387L142.79 70.6223Z" fill="#09FAFA"/>
<path d="M148.934 74.047L151.063 75.2802L153.297 73.9825L151.169 72.7498L148.934 74.047Z" fill="#5384FC"/>
<path d="M151.896 72.3331L154.024 73.5663L156.258 72.2687L154.13 71.0359L151.896 72.3331Z" fill="#5384FC"/>
<path d="M154.859 70.6192L156.988 71.8524L159.222 70.5548L157.094 69.322L154.859 70.6192Z" fill="#5384FC"/>
<path d="M157.822 68.9053L159.951 70.1385L162.185 68.8413L160.057 67.6081L157.822 68.9053Z" fill="#5384FC"/>
<path d="M160.784 67.1915L162.913 68.4247L165.147 67.1271L163.019 65.8943L160.784 67.1915Z" fill="#5384FC"/>
<path d="M163.748 65.4775L165.877 66.7107L168.111 65.4131L165.983 64.1803L163.748 65.4775Z" fill="#5384FC"/>
<path d="M151.805 75.7139L153.934 76.9471L156.168 75.6495L154.04 74.4167L151.805 75.7139Z" fill="#5384FC"/>
<path d="M154.768 74L156.897 75.2332L159.131 73.9355L157.003 72.7028L154.768 74Z" fill="#5384FC"/>
<path d="M157.731 72.2861L159.86 73.5193L162.094 72.2217L159.966 70.9889L157.731 72.2861Z" fill="#5384FC"/>
<path d="M160.693 70.5722L162.822 71.8054L165.056 70.5077L162.928 69.275L160.693 70.5722Z" fill="#5384FC"/>
<path d="M163.655 68.8583L165.784 70.0915L168.018 68.7939L165.89 67.5611L163.655 68.8583Z" fill="#5384FC"/>
<path d="M154.679 77.3807L156.807 78.6139L159.041 77.3163L156.914 76.0835L154.679 77.3807Z" fill="#5384FC"/>
<path d="M157.641 75.6668L159.77 76.9L162.004 75.6024L159.876 74.3696L157.641 75.6668Z" fill="#5384FC"/>
<path d="M160.604 73.953L162.733 75.1862L164.967 73.8885L162.839 72.6558L160.604 73.953Z" fill="#5384FC"/>
<path d="M163.566 72.239L165.695 73.4722L167.929 72.1746L165.801 70.9418L163.566 72.239Z" fill="#5384FC"/>
<path d="M166.529 70.5251L168.658 71.7583L170.892 70.4607L168.764 69.2279L166.529 70.5251Z" fill="#5384FC"/>
<path d="M169.491 68.8112L171.62 70.0444L173.854 68.7468L171.726 67.514L169.491 68.8112Z" fill="#5384FC"/>
<path d="M157.55 79.0475L159.679 80.2807L161.913 78.9835L159.785 77.7503L157.55 79.0475Z" fill="#5384FC"/>
<path d="M160.512 77.3336L162.641 78.5668L164.875 77.2692L162.747 76.0364L160.512 77.3336Z" fill="#5384FC"/>
<path d="M163.475 75.6197L165.604 76.8529L167.838 75.5553L165.71 74.3225L163.475 75.6197Z" fill="#5384FC"/>
<path d="M166.438 73.9058L168.567 75.139L170.801 73.8414L168.673 72.6087L166.438 73.9058Z" fill="#5384FC"/>
<path d="M169.4 72.1919L171.529 73.4251L173.763 72.1275L171.635 70.8947L169.4 72.1919Z" fill="#5384FC"/>
<path d="M172.362 70.478L174.491 71.7112L176.725 70.4136L174.597 69.1809L172.362 70.478Z" fill="#5384FC"/>
<path d="M160.421 80.7144L162.55 81.9476L164.784 80.65L162.656 79.4172L160.421 80.7144Z" fill="#5384FC"/>
<path d="M163.385 79.0004L165.514 80.2336L167.748 78.936L165.62 77.7033L163.385 79.0004Z" fill="#5384FC"/>
<path d="M166.347 77.2865L168.476 78.5197L170.71 77.2221L168.582 75.9893L166.347 77.2865Z" fill="#5384FC"/>
<path d="M169.309 75.5727L171.438 76.8059L173.672 75.5083L171.544 74.2755L169.309 75.5727Z" fill="#5384FC"/>
<path d="M172.273 73.8588L174.402 75.092L176.636 73.7944L174.508 72.5617L172.273 73.8588Z" fill="#5384FC"/>
<path d="M163.294 82.3812L165.423 83.6144L167.657 82.3168L165.529 81.084L163.294 82.3812Z" fill="#5384FC"/>
<path d="M166.257 80.6673L168.386 81.9005L170.62 80.6029L168.492 79.3701L166.257 80.6673Z" fill="#5384FC"/>
<path d="M169.219 78.9534L171.348 80.1866L173.582 78.889L171.454 77.6562L169.219 78.9534Z" fill="#09FAFA"/>
<path d="M172.182 77.2395L174.311 78.4727L176.545 77.1751L174.417 75.9423L172.182 77.2395Z" fill="#5384FC"/>
<path d="M166.166 84.048L168.295 85.2812L170.529 83.9836L168.401 82.7508L166.166 84.048Z" fill="#5384FC"/>
<path d="M169.13 82.3342L171.259 83.5674L173.493 82.2698L171.365 81.037L169.13 82.3342Z" fill="#5384FC"/>
<path d="M172.093 80.6203L174.222 81.8539L176.456 80.5558L174.328 79.3231L172.093 80.6203Z" fill="#5384FC"/>
<path d="M175.054 78.9064L177.182 80.1396L179.416 78.842L177.289 77.6092L175.054 78.9064Z" fill="#5384FC"/>
<path d="M178.016 77.1925L180.145 78.4257L182.379 77.128L180.251 75.8953L178.016 77.1925Z" fill="#5384FC"/>
<path d="M180.979 75.4785L183.108 76.7122L185.342 75.4141L183.214 74.1814L180.979 75.4785Z" fill="#5384FC"/>
<path d="M169.038 85.7149L171.167 86.9485L173.401 85.6505L171.273 84.4177L169.038 85.7149Z" fill="#5384FC"/>
<path d="M172.002 84.001L174.131 85.2342L176.365 83.9366L174.237 82.7038L172.002 84.001Z" fill="#5384FC"/>
<path d="M174.964 82.2871L177.092 83.5203L179.327 82.2227L177.199 80.9899L174.964 82.2871Z" fill="#5384FC"/>
<path d="M177.926 80.5732L180.055 81.8068L182.289 80.5088L180.161 79.276L177.926 80.5732Z" fill="#5384FC"/>
<path d="M180.889 78.8593L183.018 80.0925L185.252 78.7949L183.124 77.5621L180.889 78.8593Z" fill="#5384FC"/>
<path d="M183.851 77.1454L185.979 78.3786L188.213 77.081L186.085 75.8482L183.851 77.1454Z" fill="#5384FC"/>
<path d="M171.91 87.3817L174.038 88.6149L176.273 87.3173L174.145 86.0845L171.91 87.3817Z" fill="#5384FC"/>
<path d="M174.873 85.6679L177.002 86.9011L179.236 85.6034L177.108 84.3707L174.873 85.6679Z" fill="#5384FC"/>
<path d="M177.836 83.9539L179.965 85.1871L182.199 83.8895L180.071 82.6567L177.836 83.9539Z" fill="#5384FC"/>
<path d="M180.799 82.2401L182.928 83.4733L185.162 82.1757L183.034 80.9429L180.799 82.2401Z" fill="#5384FC"/>
<path d="M183.76 80.5261L185.888 81.7597L188.122 80.4617L185.995 79.2289L183.76 80.5261Z" fill="#09FAFA"/>
<path d="M174.783 89.0485L176.912 90.2817L179.146 88.9841L177.018 87.7513L174.783 89.0485Z" fill="#5384FC"/>
<path d="M177.746 87.3347L179.875 88.5679L182.109 87.2703L179.981 86.0375L177.746 87.3347Z" fill="#5384FC"/>
<path d="M180.709 85.6208L182.838 86.8544L185.072 85.5563L182.944 84.3236L180.709 85.6208Z" fill="#5384FC"/>
<path d="M183.67 83.9069L185.798 85.1401L188.033 83.8425L185.905 82.6097L183.67 83.9069Z" fill="#5384FC"/>
<path d="M186.633 82.193L188.762 83.4262L190.996 82.1286L188.868 80.8958L186.633 82.193Z" fill="#5384FC"/>
<path d="M117.126 21.5781C117.373 21.3255 117.661 21.0994 117.99 20.9091L145.284 5.09986C147.625 3.7433 150.51 3.74456 152.85 5.10239L225.763 47.333H229.622V73.3358C229.63 74.4179 229.101 75.5033 228.034 76.1213L200.879 91.8498C197.707 93.6876 193.799 93.6863 190.628 91.846L117.987 49.7716C116.669 49.0062 116.008 47.6711 116.001 46.333H116V20.243L117.126 21.5781Z" fill="#CDD7FC"/>
<path d="M117.987 23.7424L190.628 65.8168C191.147 66.1174 191.685 66.3641 192.237 66.5666V92.5956C191.685 92.3931 191.147 92.1468 190.629 91.8461L117.987 49.7713C116.669 49.0063 116.008 47.6708 116.002 46.3328H116V20.2832C116 21.628 116.662 22.9732 117.987 23.7424Z" fill="#DDE5F2"/>
<path d="M116.003 20.2448C116.003 20.2578 116 20.2704 116 20.2834V20.2417L116.003 20.2448Z" fill="#ABADBB"/>
<path d="M117.99 16.8259L145.284 1.01665C147.625 -0.339912 150.51 -0.338654 152.85 1.01917L228.036 44.5689C230.153 45.7974 230.152 48.865 228.034 50.0924L200.879 65.8208C197.707 67.6586 193.799 67.6573 190.628 65.817L117.987 23.7426C115.337 22.2042 115.338 18.3622 117.99 16.8259Z" fill="#F0F5FD"/>
<path d="M200.88 65.8208L201.95 65.2006V91.2296L200.88 91.8497C199.683 92.5432 198.381 92.9739 197.054 93.144V67.1146C198.381 66.945 199.683 66.5142 200.88 65.8208Z" fill="#DDE5F2"/>
<path d="M184.669 80.6778L123.132 45.0266V48.8955L184.669 84.5323V80.6778Z" fill="#5384FC"/>
<path d="M124.497 48.3542V45.8162L123.132 45.0268V48.8956L184.669 84.5325V83.2003L124.497 48.3542Z" fill="#FFFFFD"/>
<path d="M125.764 39.5134C126.41 39.8881 126.932 40.7958 126.93 41.5415C126.928 42.2871 126.403 42.5877 125.756 42.213C125.11 41.8383 124.588 40.9306 124.59 40.1849C124.592 39.4397 125.118 39.1391 125.764 39.5134Z" fill="#5384FC"/>
<path d="M144.658 50.4401C145.305 50.8149 145.827 51.7226 145.825 52.4682C145.822 53.2139 145.297 53.5145 144.651 53.1398C144.004 52.7651 143.482 51.8573 143.484 51.1117C143.486 50.3665 144.012 50.0658 144.658 50.4401Z" fill="#5384FC"/>
<path d="M182.447 72.3492C183.094 72.7234 183.616 73.6316 183.614 74.3773C183.612 75.1225 183.086 75.4231 182.44 75.0488C181.794 74.6741 181.271 73.7663 181.274 73.0207C181.276 72.2755 181.801 71.9744 182.447 72.3492Z" fill="#5384FC"/>
<path d="M125.756 36.0858C125.11 35.7111 124.588 34.8034 124.59 34.0577C124.592 33.3125 125.118 33.0115 125.764 33.3862C126.41 33.7609 126.932 34.6686 126.93 35.4143C126.928 36.1599 126.403 36.4601 125.756 36.0858Z" fill="#5384FC"/>
<path d="M130.487 36.1179C131.134 36.4926 131.656 37.4003 131.654 38.146C131.652 38.8916 131.126 39.1922 130.48 38.8175C129.834 38.4428 129.311 37.5351 129.313 36.7894C129.316 36.0442 129.841 35.7436 130.487 36.1179Z" fill="#5384FC"/>
<path d="M135.209 38.8496C135.856 39.2243 136.378 40.1321 136.376 40.8777C136.374 41.6234 135.848 41.9236 135.202 41.5493C134.556 41.1746 134.033 40.2668 134.035 39.5212C134.038 38.7759 134.563 38.4749 135.209 38.8496Z" fill="#5384FC"/>
<path d="M139.933 41.5813C140.579 41.956 141.102 42.8638 141.099 43.6094C141.097 44.3551 140.572 44.6557 139.926 44.281C139.279 43.9062 138.757 42.9985 138.759 42.2529C138.761 41.5076 139.287 41.2066 139.933 41.5813Z" fill="#5384FC"/>
<path d="M154.105 49.8053C154.752 50.1796 155.274 51.0878 155.272 51.8334C155.269 52.5787 154.744 52.8793 154.098 52.505C153.451 52.1303 152.929 51.2225 152.931 50.4769C152.933 49.7312 153.459 49.4306 154.105 49.8053Z" fill="#5384FC"/>
<path d="M158.829 52.5466C159.475 52.9209 159.997 53.8291 159.995 54.5747C159.993 55.3199 159.467 55.6205 158.821 55.2462C158.175 54.8715 157.653 53.9634 157.655 53.2181C157.657 52.4729 158.182 52.1719 158.829 52.5466Z" fill="#5384FC"/>
<path d="M168.276 58.0132C168.922 58.3879 169.444 59.2957 169.442 60.0413C169.44 60.7865 168.914 61.0872 168.268 60.7129C167.622 60.3381 167.1 59.4304 167.102 58.6848C167.104 57.9391 167.629 57.6385 168.276 58.0132Z" fill="#5384FC"/>
<path d="M172.999 60.7481C173.645 61.1228 174.167 62.0306 174.165 62.7762C174.163 63.5219 173.638 63.8225 172.991 63.4478C172.345 63.0731 171.823 62.1653 171.825 61.4197C171.827 60.6744 172.353 60.3734 172.999 60.7481Z" fill="#5384FC"/>
<path d="M182.447 66.222C183.094 66.5963 183.616 67.5045 183.614 68.2501C183.612 68.9953 183.086 69.296 182.44 68.9217C181.794 68.5469 181.271 67.6392 181.274 66.8936C181.276 66.1479 181.801 65.8473 182.447 66.222Z" fill="#5384FC"/>
<path d="M198.438 61.5754C197.624 62.047 196.697 62.2962 195.757 62.2962C194.815 62.2962 193.887 62.0466 193.068 61.5712L121.788 20.285L147.725 5.26223C148.132 5.02645 148.595 4.90183 149.065 4.90183C149.535 4.90183 149.999 5.02687 150.41 5.26518L223.033 47.3303L198.438 61.5754ZM228.036 44.5692L152.85 1.01951C151.679 0.339966 150.372 -0.000221252 149.065 0.000198364C147.76 0.000198364 146.454 0.339127 145.284 1.01656L117.99 16.8258C115.338 18.3622 115.336 22.2041 117.987 23.7425L190.628 65.8169C192.215 66.7377 193.986 67.1983 195.757 67.1983C197.525 67.1983 199.294 66.739 200.879 65.8207L228.035 50.0923C230.152 48.8654 230.153 45.7973 228.036 44.5692Z" fill="#FFFFFD"/>
<path d="M150.41 7.2054C150 6.96709 149.535 6.84205 149.065 6.84205C148.595 6.84205 148.132 6.96667 147.725 7.20245L123.462 21.2548L121.788 20.2847L147.725 5.26234C148.132 5.02657 148.595 4.90194 149.065 4.90194C149.535 4.90194 150 5.02657 150.41 5.26529L223.033 47.3304L221.358 48.3005L150.41 7.2054Z" fill="#CDD7FC"/>
<path d="M57.0707 109.878C57.3055 109.634 57.5786 109.416 57.8911 109.232L83.8353 93.9808C86.0605 92.6721 88.8024 92.6733 91.0272 93.9832L160.332 134.724H164V159.81C164.007 160.854 163.505 161.901 162.491 162.497L136.68 177.671C133.664 179.444 129.949 179.443 126.936 177.668L57.8887 137.077C56.6354 136.339 56.0072 135.051 56.0012 133.76H56V108.59L57.0707 109.878Z" fill="#CDD7FC"/>
<path d="M54.9875 109.743L127.628 151.817C128.147 152.118 128.685 152.364 129.237 152.567V178.596C128.685 178.393 128.147 178.147 127.629 177.846L54.9875 135.771C53.6689 135.006 53.008 133.671 53.0017 132.333H53V106.283C52.9996 107.628 53.6622 108.973 54.9875 109.743Z" fill="#DDE5F2"/>
<path d="M50.0026 104.957C50.0026 104.97 50 104.982 50 104.995V104.954L50.0026 104.957Z" fill="#ABADBB"/>
<path d="M51.9896 101.538L79.2843 85.7284C81.6253 84.3718 84.5099 84.3731 86.8505 85.7313L162.036 129.281C164.153 130.509 164.152 133.577 162.034 134.804L134.879 150.533C131.707 152.37 127.799 152.369 124.628 150.529L51.9871 108.454C49.3366 106.916 49.3378 103.074 51.9896 101.538Z" fill="#071D4F"/>
<path d="M134.88 150.533L135.95 149.912V175.941L134.88 176.561C133.683 177.255 132.381 177.686 131.054 177.856V151.826C132.381 151.657 133.683 151.226 134.88 150.533Z" fill="#DDE5F2"/>
<path d="M118.669 165.39L57.132 129.738V133.607L118.669 169.244V165.39Z" fill="#5384FC"/>
<path d="M58.4967 133.066V130.528L57.132 129.739V133.607L118.669 169.244V167.912L58.4967 133.066Z" fill="#FFFFFD"/>
<path d="M59.7638 124.225C60.4101 124.6 60.9322 125.508 60.9301 126.253C60.928 126.999 60.4025 127.299 59.7562 126.925C59.11 126.55 58.5878 125.642 58.5899 124.897C58.592 124.151 59.1175 123.85 59.7638 124.225Z" fill="#5384FC"/>
<path d="M78.6583 135.152C79.3045 135.527 79.8267 136.434 79.8246 137.18C79.8225 137.926 79.297 138.226 78.6507 137.852C78.0044 137.477 77.4823 136.569 77.4844 135.823C77.4865 135.078 78.012 134.778 78.6583 135.152Z" fill="#5384FC"/>
<path d="M116.447 157.061C117.094 157.436 117.616 158.343 117.614 159.089C117.612 159.835 117.086 160.135 116.44 159.76C115.794 159.386 115.271 158.478 115.274 157.732C115.276 156.987 115.801 156.686 116.447 157.061Z" fill="#5384FC"/>
<path d="M59.7562 120.798C59.11 120.423 58.5878 119.515 58.5899 118.77C58.592 118.024 59.1175 117.723 59.7638 118.098C60.4101 118.473 60.9322 119.38 60.9301 120.126C60.928 120.872 60.4025 121.172 59.7562 120.798Z" fill="#5384FC"/>
<path d="M64.4874 120.83C65.1336 121.204 65.6558 122.112 65.6537 122.858C65.6516 123.603 65.1261 123.904 64.4798 123.529C63.8335 123.155 63.3114 122.247 63.3135 121.501C63.3156 120.756 63.8411 120.455 64.4874 120.83Z" fill="#5384FC"/>
<path d="M69.2093 123.561C69.8556 123.936 70.3778 124.844 70.3757 125.59C70.3736 126.335 69.8481 126.635 69.2018 126.261C68.5555 125.886 68.0334 124.979 68.0355 124.233C68.0376 123.488 68.5631 123.187 69.2093 123.561Z" fill="#5384FC"/>
<path d="M73.9332 126.293C74.5794 126.668 75.1016 127.575 75.0995 128.321C75.0974 129.067 74.5719 129.367 73.9256 128.993C73.2793 128.618 72.7572 127.71 72.7593 126.965C72.7614 126.219 73.2869 125.919 73.9332 126.293Z" fill="#5384FC"/>
<path d="M88.1053 134.517C88.7516 134.891 89.2737 135.8 89.2716 136.545C89.2695 137.29 88.744 137.591 88.0977 137.217C87.4514 136.842 86.9293 135.934 86.9314 135.189C86.9335 134.443 87.459 134.142 88.1053 134.517Z" fill="#5384FC"/>
<path d="M92.8285 137.258C93.4748 137.633 93.997 138.541 93.9949 139.286C93.9928 140.032 93.4673 140.332 92.821 139.958C92.1747 139.583 91.6526 138.676 91.6547 137.93C91.6568 137.185 92.1823 136.884 92.8285 137.258Z" fill="#5384FC"/>
<path d="M102.276 142.725C102.922 143.1 103.444 144.007 103.442 144.753C103.44 145.498 102.914 145.799 102.268 145.425C101.622 145.05 101.1 144.142 101.102 143.396C101.104 142.651 101.629 142.35 102.276 142.725Z" fill="#5384FC"/>
<path d="M106.999 145.46C107.645 145.835 108.167 146.742 108.165 147.488C108.163 148.234 107.638 148.534 106.991 148.159C106.345 147.785 105.823 146.877 105.825 146.131C105.827 145.386 106.353 145.085 106.999 145.46Z" fill="#5384FC"/>
<path d="M116.447 150.934C117.094 151.308 117.616 152.216 117.614 152.962C117.612 153.707 117.086 154.008 116.44 153.633C115.794 153.259 115.271 152.351 115.274 151.605C115.276 150.86 115.801 150.559 116.447 150.934Z" fill="#5384FC"/>
<path d="M132.438 146.287C131.624 146.759 130.697 147.008 129.757 147.008C128.815 147.008 127.887 146.758 127.068 146.283L55.7878 104.997L81.7249 89.9739C82.1317 89.7381 82.5951 89.6135 83.0653 89.6135C83.5354 89.6135 83.9992 89.7385 84.4102 89.9768L157.033 132.042L132.438 146.287ZM162.036 129.281L86.8502 85.7312C85.6793 85.0516 84.3721 84.7119 83.0648 84.7119C81.7597 84.7119 80.4537 85.0508 79.284 85.7282L51.9898 101.537C49.338 103.074 49.3363 106.916 51.9873 108.454L124.628 150.529C126.215 151.449 127.986 151.91 129.757 151.91C131.525 151.91 133.294 151.451 134.879 150.532L162.035 134.804C164.152 133.577 164.153 130.509 162.036 129.281Z" fill="#FFFFFD"/>
<path d="M84.4101 91.9171C83.9995 91.6788 83.5353 91.5538 83.0651 91.5538C82.595 91.5538 82.1316 91.6784 81.7248 91.9142L57.4623 105.966L55.7877 104.996L81.7248 89.9741C82.1316 89.7383 82.595 89.6137 83.0651 89.6137C83.5353 89.6137 83.9995 89.7383 84.4101 89.977L157.033 132.042L155.358 133.012L84.4101 91.9171Z" fill="#CDD7FC"/>
<path d="M137.357 126.14L134.319 124.379L133.318 124.963L136.357 126.724L137.357 126.14Z" fill="#5384FC"/>
<path d="M137.58 127.765L133.033 125.129L132.033 125.713L136.58 128.349L137.58 127.765Z" fill="#09FAFA"/>
<path d="M136.295 128.515L131.748 125.879L130.747 126.463L135.294 129.098L136.295 128.515Z" fill="#5384FC"/>
<path d="M134.104 128.74L130.462 126.629L129.461 127.213L133.103 129.324L134.104 128.74Z" fill="#5384FC"/>
<path d="M131.452 128.697L129.177 127.379L128.177 127.963L130.451 129.281L131.452 128.697Z" fill="#5384FC"/>
<path d="M130.931 129.89L127.892 128.129L126.892 128.712L129.93 130.474L130.931 129.89Z" fill="#09FAFA"/>
<path d="M139.781 128.709L142.178 130.098L143.178 129.514L140.782 128.125L139.781 128.709Z" fill="#5384FC"/>
<path d="M142.454 130.259L147.785 133.349L148.786 132.765L143.454 129.675L142.454 130.259Z" fill="#5384FC"/>
<path d="M140.116 130.399L146.501 134.099L147.501 133.516L141.116 129.815L140.116 130.399Z" fill="#5384FC"/>
<path d="M141.115 132.473L142.116 131.889L138.211 129.626L137.21 130.209L141.115 132.473Z" fill="#5384FC"/>
<path d="M141.393 132.633L145.216 134.849L146.217 134.265L142.394 132.05L141.393 132.633Z" fill="#5384FC"/>
<path d="M139.201 132.858L143.929 135.599L144.93 135.015L140.202 132.275L139.201 132.858Z" fill="#5384FC"/>
<path d="M134.639 131.709L136.271 132.655L137.272 132.071L135.64 131.125L134.639 131.709Z" fill="#5384FC"/>
<path d="M136.549 132.815L142.645 136.349L143.646 135.765L137.55 132.232L136.549 132.815Z" fill="#09FAFA"/>
<path d="M134.355 131.875L133.354 132.458L138.76 135.592L139.761 135.009L134.355 131.875Z" fill="#5384FC"/>
<path d="M139.038 135.753L141.359 137.098L142.36 136.514L140.038 135.169L139.038 135.753Z" fill="#5384FC"/>
<path d="M125.247 133.137L122.208 131.376L121.208 131.96L124.246 133.721L125.247 133.137Z" fill="#5384FC"/>
<path d="M125.47 134.762L120.923 132.127L119.922 132.71L124.469 135.346L125.47 134.762Z" fill="#5384FC"/>
<path d="M124.184 135.512L119.637 132.876L118.637 133.46L123.184 136.095L124.184 135.512Z" fill="#09FAFA"/>
<path d="M118.352 133.626L117.351 134.21L120.993 136.321L121.993 135.737L118.352 133.626Z" fill="#5384FC"/>
<path d="M116.066 134.96L118.34 136.278L119.34 135.694L117.066 134.376L116.066 134.96Z" fill="#5384FC"/>
<path d="M114.78 135.709L117.819 137.471L118.82 136.887L115.781 135.126L114.78 135.709Z" fill="#09FAFA"/>
<path d="M127.672 135.706L130.069 137.095L131.07 136.511L128.673 135.123L127.672 135.706Z" fill="#5384FC"/>
<path d="M130.345 137.256L135.676 140.346L136.677 139.762L131.346 136.672L130.345 137.256Z" fill="#5384FC"/>
<path d="M128.005 137.396L134.39 141.096L135.39 140.513L129.006 136.812L128.005 137.396Z" fill="#5384FC"/>
<path d="M129.005 139.47L130.006 138.886L126.101 136.623L125.1 137.206L129.005 139.47Z" fill="#5384FC"/>
<path d="M129.281 139.63L133.104 141.846L134.105 141.262L130.282 139.047L129.281 139.63Z" fill="#09FAFA"/>
<path d="M127.091 139.855L131.819 142.596L132.82 142.012L128.092 139.272L127.091 139.855Z" fill="#5384FC"/>
<path d="M122.529 138.706L124.161 139.651L125.161 139.068L123.53 138.122L122.529 138.706Z" fill="#5384FC"/>
<path d="M124.439 139.812L130.535 143.346L131.535 142.762L125.44 139.229L124.439 139.812Z" fill="#5384FC"/>
<path d="M122.246 138.872L121.245 139.455L126.651 142.589L127.652 142.006L122.246 138.872Z" fill="#5384FC"/>
<path d="M126.929 142.75L129.25 144.095L130.251 143.511L127.93 142.166L126.929 142.75Z" fill="#09FAFA"/>
<path d="M87.2202 97.0129L84.1818 95.2517L83.1811 95.8353L86.2196 97.5964L87.2202 97.0129Z" fill="#5384FC"/>
<path d="M87.4409 98.6376L82.8939 96.002L81.8932 96.586L86.4402 99.2212L87.4409 98.6376Z" fill="#09FAFA"/>
<path d="M86.156 99.3873L81.609 96.7521L80.6088 97.3356L85.1554 99.9713L86.156 99.3873Z" fill="#5384FC"/>
<path d="M83.9659 99.6123L80.3243 97.5017L79.3237 98.0852L82.9652 100.196L83.9659 99.6123Z" fill="#5384FC"/>
<path d="M81.3129 99.5695L79.0386 98.2512L78.0383 98.8352L80.3123 100.153L81.3129 99.5695Z" fill="#5384FC"/>
<path d="M80.7927 100.762L77.7538 99.0012L76.7535 99.5848L79.792 101.346L80.7927 100.762Z" fill="#09FAFA"/>
<path d="M89.6428 99.5815L92.0392 100.97L93.0398 100.387L90.6434 98.9979L89.6428 99.5815Z" fill="#09FAFA"/>
<path d="M92.3166 101.131L97.6479 104.221L98.6485 103.638L93.3173 100.548L92.3166 101.131Z" fill="#5384FC"/>
<path d="M89.9779 101.271L96.3627 104.972L97.3629 104.388L90.9786 100.688L89.9779 101.271Z" fill="#5384FC"/>
<path d="M90.9773 103.345L91.9779 102.761L88.073 100.498L87.0723 101.082L90.9773 103.345Z" fill="#5384FC"/>
<path d="M91.2534 103.506L95.0762 105.722L96.0768 105.138L92.2541 102.922L91.2534 103.506Z" fill="#5384FC"/>
<path d="M89.0634 103.731L93.7916 106.471L94.7923 105.888L90.0641 103.147L89.0634 103.731Z" fill="#5384FC"/>
<path d="M84.5031 102.581L86.135 103.527L87.1356 102.943L85.5038 101.997L84.5031 102.581Z" fill="#5384FC"/>
<path d="M86.4113 103.688L92.5071 107.221L93.5078 106.637L87.412 103.104L86.4113 103.688Z" fill="#09FAFA"/>
<path d="M84.2168 102.747L83.2162 103.331L88.6225 106.465L89.6232 105.881L84.2168 102.747Z" fill="#5384FC"/>
<path d="M88.8992 106.625L91.2206 107.971L92.2212 107.387L89.8999 106.042L88.8992 106.625Z" fill="#5384FC"/>
<path d="M75.1083 104.01L72.0699 102.249L71.0692 102.832L74.1077 104.594L75.1083 104.01Z" fill="#09FAFA"/>
<path d="M75.3312 105.635L70.7842 102.999L69.7835 103.583L74.3305 106.219L75.3312 105.635Z" fill="#5384FC"/>
<path d="M74.0458 106.384L69.4988 103.749L68.4982 104.333L73.0452 106.968L74.0458 106.384Z" fill="#5384FC"/>
<path d="M68.214 104.499L67.2134 105.082L70.8549 107.193L71.8556 106.609L68.214 104.499Z" fill="#5384FC"/>
<path d="M65.9286 105.832L68.2025 107.15L69.2032 106.566L66.9293 105.249L65.9286 105.832Z" fill="#09FAFA"/>
<path d="M64.6426 106.582L67.6815 108.343L68.6817 107.76L65.6432 105.998L64.6426 106.582Z" fill="#5384FC"/>
<path d="M77.5328 106.579L79.9292 107.968L80.9298 107.384L78.5334 105.995L77.5328 106.579Z" fill="#5384FC"/>
<path d="M80.2063 108.128L85.5376 111.218L86.5382 110.635L81.207 107.545L80.2063 108.128Z" fill="#5384FC"/>
<path d="M77.8674 108.268L84.2522 111.969L85.2524 111.385L78.8681 107.685L77.8674 108.268Z" fill="#5384FC"/>
<path d="M78.8669 110.342L79.8676 109.758L75.9626 107.495L74.962 108.079L78.8669 110.342Z" fill="#09FAFA"/>
<path d="M79.1436 110.503L82.9663 112.719L83.967 112.135L80.1443 109.919L79.1436 110.503Z" fill="#5384FC"/>
<path d="M76.9528 110.728L81.681 113.468L82.6816 112.885L77.9534 110.144L76.9528 110.728Z" fill="#5384FC"/>
<path d="M72.3917 109.578L74.0236 110.524L75.0242 109.94L73.3924 108.994L72.3917 109.578Z" fill="#5384FC"/>
<path d="M74.3011 110.685L80.397 114.218L81.3976 113.634L75.3018 110.101L74.3011 110.685Z" fill="#5384FC"/>
<path d="M72.1077 109.744L71.1071 110.328L76.5134 113.462L77.5141 112.878L72.1077 109.744Z" fill="#5384FC"/>
<path d="M76.7896 113.622L79.1109 114.968L80.1115 114.384L77.7902 113.039L76.7896 113.622Z" fill="#09FAFA"/>
<path d="M82.9338 117.047L85.0626 118.28L87.2967 116.983L85.1687 115.75L82.9338 117.047Z" fill="#5384FC"/>
<path d="M85.8956 115.333L88.0244 116.566L90.2585 115.269L88.1305 114.036L85.8956 115.333Z" fill="#5384FC"/>
<path d="M88.8589 113.619L90.9877 114.852L93.2218 113.555L91.0938 112.322L88.8589 113.619Z" fill="#5384FC"/>
<path d="M91.8219 111.905L93.9507 113.138L96.1852 111.841L94.0568 110.608L91.8219 111.905Z" fill="#5384FC"/>
<path d="M94.7843 110.191L96.9131 111.425L99.1472 110.127L97.0192 108.894L94.7843 110.191Z" fill="#5384FC"/>
<path d="M97.7477 108.477L99.8765 109.711L102.111 108.413L99.9826 107.18L97.7477 108.477Z" fill="#5384FC"/>
<path d="M85.8052 118.714L87.9341 119.947L90.1681 118.649L88.0402 117.417L85.8052 118.714Z" fill="#5384FC"/>
<path d="M88.7679 117L90.8968 118.233L93.1308 116.936L91.0029 115.703L88.7679 117Z" fill="#5384FC"/>
<path d="M91.7313 115.286L93.8601 116.519L96.0942 115.222L93.9662 113.989L91.7313 115.286Z" fill="#5384FC"/>
<path d="M94.6931 113.572L96.8219 114.805L99.056 113.508L96.928 112.275L94.6931 113.572Z" fill="#5384FC"/>
<path d="M97.6554 111.858L99.7842 113.091L102.018 111.794L99.8903 110.561L97.6554 111.858Z" fill="#5384FC"/>
<path d="M88.6786 120.381L90.8074 121.614L93.0415 120.316L90.9135 119.084L88.6786 120.381Z" fill="#5384FC"/>
<path d="M91.641 118.667L93.7698 119.9L96.0039 118.602L93.8759 117.37L91.641 118.667Z" fill="#5384FC"/>
<path d="M94.6043 116.953L96.7331 118.186L98.9672 116.889L96.8392 115.656L94.6043 116.953Z" fill="#5384FC"/>
<path d="M97.5661 115.239L99.6949 116.472L101.929 115.175L99.801 113.942L97.5661 115.239Z" fill="#5384FC"/>
<path d="M100.529 113.525L102.658 114.758L104.892 113.461L102.764 112.228L100.529 113.525Z" fill="#5384FC"/>
<path d="M103.491 111.811L105.62 113.044L107.854 111.747L105.726 110.514L103.491 111.811Z" fill="#5384FC"/>
<path d="M91.5505 122.048L93.6793 123.281L95.9134 121.984L93.7854 120.75L91.5505 122.048Z" fill="#5384FC"/>
<path d="M94.5118 120.334L96.6407 121.567L98.8747 120.269L96.7468 119.036L94.5118 120.334Z" fill="#5384FC"/>
<path d="M97.4752 118.62L99.604 119.853L101.838 118.555L99.7101 117.323L97.4752 118.62Z" fill="#5384FC"/>
<path d="M100.438 116.906L102.567 118.139L104.801 116.841L102.673 115.609L100.438 116.906Z" fill="#5384FC"/>
<path d="M103.4 115.192L105.529 116.425L107.763 115.127L105.635 113.895L103.4 115.192Z" fill="#5384FC"/>
<path d="M106.362 113.478L108.491 114.711L110.725 113.414L108.597 112.181L106.362 113.478Z" fill="#5384FC"/>
<path d="M94.4213 123.714L96.5501 124.948L98.7842 123.65L96.6562 122.417L94.4213 123.714Z" fill="#5384FC"/>
<path d="M97.3852 122L99.514 123.234L101.748 121.936L99.6201 120.703L97.3852 122Z" fill="#5384FC"/>
<path d="M100.347 120.287L102.476 121.52L104.71 120.222L102.582 118.989L100.347 120.287Z" fill="#5384FC"/>
<path d="M103.309 118.573L105.438 119.806L107.672 118.508L105.544 117.276L103.309 118.573Z" fill="#5384FC"/>
<path d="M106.273 116.859L108.402 118.092L110.636 116.794L108.508 115.562L106.273 116.859Z" fill="#5384FC"/>
<path d="M97.2943 125.381L99.4231 126.614L101.657 125.317L99.5292 124.084L97.2943 125.381Z" fill="#5384FC"/>
<path d="M100.257 123.667L102.386 124.901L104.62 123.603L102.492 122.37L100.257 123.667Z" fill="#5384FC"/>
<path d="M103.219 121.953L105.348 123.187L107.582 121.889L105.454 120.656L103.219 121.953Z" fill="#09FAFA"/>
<path d="M106.182 120.24L108.311 121.473L110.545 120.175L108.417 118.942L106.182 120.24Z" fill="#5384FC"/>
<path d="M100.166 127.048L102.295 128.281L104.529 126.984L102.401 125.751L100.166 127.048Z" fill="#5384FC"/>
<path d="M103.13 125.334L105.259 126.567L107.493 125.27L105.365 124.037L103.13 125.334Z" fill="#5384FC"/>
<path d="M106.093 123.62L108.222 124.854L110.456 123.556L108.328 122.323L106.093 123.62Z" fill="#5384FC"/>
<path d="M109.054 121.906L111.182 123.14L113.416 121.842L111.289 120.609L109.054 121.906Z" fill="#5384FC"/>
<path d="M112.016 120.192L114.145 121.426L116.379 120.128L114.251 118.895L112.016 120.192Z" fill="#5384FC"/>
<path d="M114.979 118.479L117.108 119.712L119.342 118.414L117.214 117.181L114.979 118.479Z" fill="#5384FC"/>
<path d="M103.038 128.715L105.167 129.948L107.401 128.65L105.273 127.418L103.038 128.715Z" fill="#5384FC"/>
<path d="M106.002 127.001L108.131 128.234L110.365 126.937L108.237 125.704L106.002 127.001Z" fill="#5384FC"/>
<path d="M108.964 125.287L111.092 126.52L113.327 125.223L111.199 123.99L108.964 125.287Z" fill="#5384FC"/>
<path d="M111.926 123.573L114.055 124.807L116.289 123.509L114.161 122.276L111.926 123.573Z" fill="#5384FC"/>
<path d="M114.889 121.859L117.018 123.093L119.252 121.795L117.124 120.562L114.889 121.859Z" fill="#5384FC"/>
<path d="M117.851 120.145L119.979 121.379L122.213 120.081L120.085 118.848L117.851 120.145Z" fill="#5384FC"/>
<path d="M105.91 130.382L108.038 131.615L110.273 130.317L108.145 129.084L105.91 130.382Z" fill="#5384FC"/>
<path d="M108.873 128.668L111.002 129.901L113.236 128.603L111.108 127.371L108.873 128.668Z" fill="#5384FC"/>
<path d="M111.836 126.954L113.965 128.187L116.199 126.89L114.071 125.657L111.836 126.954Z" fill="#5384FC"/>
<path d="M114.799 125.24L116.928 126.473L119.162 125.176L117.034 123.943L114.799 125.24Z" fill="#5384FC"/>
<path d="M117.76 123.526L119.888 124.76L122.122 123.462L119.995 122.229L117.76 123.526Z" fill="#09FAFA"/>
<path d="M108.783 132.049L110.912 133.282L113.146 131.984L111.018 130.751L108.783 132.049Z" fill="#5384FC"/>
<path d="M111.746 130.335L113.875 131.568L116.109 130.27L113.981 129.037L111.746 130.335Z" fill="#5384FC"/>
<path d="M114.709 128.621L116.838 129.854L119.072 128.556L116.944 127.324L114.709 128.621Z" fill="#5384FC"/>
<path d="M117.67 126.907L119.798 128.14L122.033 126.842L119.905 125.61L117.67 126.907Z" fill="#5384FC"/>
<path d="M120.633 125.193L122.762 126.426L124.996 125.129L122.868 123.896L120.633 125.193Z" fill="#5384FC"/>
<path d="M51.1265 64.5781C51.3735 64.3255 51.6608 64.0994 51.9896 63.9091L79.2842 48.0999C81.6253 46.7433 84.5098 46.7446 86.8504 48.1024L159.763 90.333H163.622V116.336C163.63 117.418 163.101 118.503 162.034 119.121L134.879 134.85C131.707 136.688 127.799 136.686 124.628 134.846L51.9871 92.7716C50.6685 92.0062 50.0075 90.6711 50.0013 89.333H50V63.243L51.1265 64.5781Z" fill="#CDD7FC"/>
<path d="M51.9875 66.7424L124.628 108.817C125.147 109.117 125.685 109.364 126.237 109.567V135.596C125.685 135.393 125.147 135.147 124.629 134.846L51.9875 92.7713C50.6689 92.0063 50.008 90.6708 50.0017 89.3328H50V63.2832C49.9996 64.628 50.6622 65.9732 51.9875 66.7424Z" fill="#DDE5F2"/>
<path d="M50.0026 63.2448C50.0026 63.2578 50 63.2704 50 63.2834V63.2417L50.0026 63.2448Z" fill="#ABADBB"/>
<path d="M51.9896 59.8259L79.2843 44.0166C81.6253 42.6601 84.5099 42.6613 86.8505 44.0192L162.036 87.5689C164.153 88.7974 164.152 91.865 162.034 93.0924L134.879 108.821C131.707 110.659 127.799 110.657 124.628 108.817L51.9871 66.7426C49.3366 65.2042 49.3378 61.3622 51.9896 59.8259Z" fill="#F0F5FD"/>
<path d="M134.88 108.821L135.95 108.201V134.23L134.88 134.85C133.683 135.543 132.381 135.974 131.054 136.144V110.115C132.381 109.945 133.683 109.514 134.88 108.821Z" fill="#DDE5F2"/>
<path d="M118.669 123.678L57.132 88.0266V91.8955L118.669 127.532V123.678Z" fill="#5384FC"/>
<path d="M58.4967 91.3542V88.8162L57.132 88.0268V91.8956L118.669 127.532V126.2L58.4967 91.3542Z" fill="#FFFFFD"/>
<path d="M59.7638 82.5134C60.4101 82.8881 60.9322 83.7958 60.9301 84.5415C60.928 85.2871 60.4025 85.5877 59.7562 85.213C59.11 84.8383 58.5878 83.9306 58.5899 83.1849C58.592 82.4397 59.1175 82.1391 59.7638 82.5134Z" fill="#5384FC"/>
<path d="M78.6583 93.4401C79.3045 93.8149 79.8267 94.7226 79.8246 95.4682C79.8225 96.2139 79.297 96.5145 78.6507 96.1398C78.0044 95.7651 77.4823 94.8573 77.4844 94.1117C77.4865 93.3665 78.012 93.0658 78.6583 93.4401Z" fill="#5384FC"/>
<path d="M116.447 115.349C117.094 115.723 117.616 116.632 117.614 117.377C117.612 118.122 117.086 118.423 116.44 118.049C115.794 117.674 115.271 116.766 115.274 116.021C115.276 115.275 115.801 114.974 116.447 115.349Z" fill="#5384FC"/>
<path d="M59.7562 79.0858C59.11 78.7111 58.5878 77.8034 58.5899 77.0577C58.592 76.3125 59.1175 76.0115 59.7638 76.3862C60.4101 76.7609 60.9322 77.6686 60.9301 78.4143C60.928 79.1599 60.4025 79.4601 59.7562 79.0858Z" fill="#5384FC"/>
<path d="M64.4874 79.1179C65.1336 79.4926 65.6558 80.4003 65.6537 81.146C65.6516 81.8916 65.1261 82.1922 64.4798 81.8175C63.8335 81.4428 63.3114 80.5351 63.3135 79.7894C63.3156 79.0442 63.8411 78.7436 64.4874 79.1179Z" fill="#5384FC"/>
<path d="M69.2093 81.8496C69.8556 82.2243 70.3778 83.1321 70.3757 83.8777C70.3736 84.6234 69.8481 84.9236 69.2018 84.5493C68.5555 84.1746 68.0334 83.2668 68.0355 82.5212C68.0376 81.7759 68.5631 81.4749 69.2093 81.8496Z" fill="#5384FC"/>
<path d="M73.9332 84.5813C74.5794 84.956 75.1016 85.8638 75.0995 86.6094C75.0974 87.3551 74.5719 87.6557 73.9256 87.281C73.2793 86.9062 72.7572 85.9985 72.7593 85.2529C72.7614 84.5076 73.2869 84.2066 73.9332 84.5813Z" fill="#5384FC"/>
<path d="M88.1053 92.8053C88.7516 93.1796 89.2737 94.0878 89.2716 94.8334C89.2695 95.5787 88.744 95.8793 88.0977 95.505C87.4514 95.1303 86.9293 94.2225 86.9314 93.4769C86.9335 92.7312 87.459 92.4306 88.1053 92.8053Z" fill="#5384FC"/>
<path d="M92.8285 95.5466C93.4748 95.9209 93.997 96.8291 93.9949 97.5747C93.9928 98.3199 93.4673 98.6205 92.821 98.2462C92.1747 97.8715 91.6526 96.9634 91.6547 96.2181C91.6568 95.4729 92.1823 95.1719 92.8285 95.5466Z" fill="#5384FC"/>
<path d="M102.276 101.013C102.922 101.388 103.444 102.296 103.442 103.041C103.44 103.787 102.914 104.087 102.268 103.713C101.622 103.338 101.1 102.43 101.102 101.685C101.104 100.939 101.629 100.638 102.276 101.013Z" fill="#5384FC"/>
<path d="M106.999 103.748C107.645 104.123 108.167 105.031 108.165 105.776C108.163 106.522 107.638 106.822 106.991 106.448C106.345 106.073 105.823 105.165 105.825 104.42C105.827 103.674 106.353 103.373 106.999 103.748Z" fill="#5384FC"/>
<path d="M116.447 109.222C117.094 109.596 117.616 110.504 117.614 111.25C117.612 111.995 117.086 112.296 116.44 111.922C115.794 111.547 115.271 110.639 115.274 109.894C115.276 109.148 115.801 108.847 116.447 109.222Z" fill="#5384FC"/>
<path d="M132.438 104.575C131.624 105.047 130.697 105.296 129.757 105.296C128.815 105.296 127.887 105.047 127.068 104.571L55.7878 63.285L81.7249 48.2622C82.1317 48.0265 82.5951 47.9018 83.0653 47.9018C83.5354 47.9018 83.9992 48.0269 84.4102 48.2652L157.033 90.3303L132.438 104.575ZM162.036 87.5692L86.8502 44.0195C85.6793 43.34 84.3721 42.9998 83.0648 43.0002C81.7597 43.0002 80.4537 43.3391 79.284 44.0166L51.9898 59.8258C49.338 61.3622 49.3363 65.2041 51.9873 66.7425L124.628 108.817C126.215 109.738 127.986 110.198 129.757 110.198C131.525 110.198 133.294 109.739 134.879 108.821L162.035 93.0923C164.152 91.8654 164.153 88.7973 162.036 87.5692Z" fill="#FFFFFD"/>
<path d="M84.4101 50.2054C83.9995 49.9671 83.5353 49.842 83.0651 49.842C82.595 49.842 82.1316 49.9667 81.7248 50.2024L57.4623 64.2548L55.7877 63.2847L81.7248 48.2623C82.1316 48.0266 82.595 47.9019 83.0651 47.9019C83.5353 47.9019 83.9995 48.0266 84.4101 48.2653L157.033 90.3304L155.358 91.3005L84.4101 50.2054Z" fill="#CDD7FC"/>
<path d="M172.029 154.139L154.092 143.742C151.438 142.199 149.234 139.984 147.699 137.318C146.165 134.652 145.353 131.629 145.346 128.55V115.547H146.346V128.55C146.355 131.453 147.121 134.303 148.567 136.817C150.014 139.331 152.091 141.42 154.592 142.878L172.529 153.275L172.029 154.139Z" fill="#05105D"/>
<path d="M181.249 152.494L160.785 140.634C158.134 139.085 155.932 136.867 154.4 134.199C152.868 131.532 152.059 128.508 152.053 125.428V112.425H153.039V125.428C153.043 128.332 153.808 131.184 155.255 133.698C156.702 136.212 158.781 138.301 161.285 139.756L181.748 151.63L181.249 152.494Z" fill="#05105D"/>
<path d="M145.846 114.097C146.874 113.512 147.693 113.986 147.693 115.17C147.659 115.813 147.475 116.439 147.154 116.996C146.833 117.553 146.385 118.026 145.846 118.376C144.833 118.975 144 118.487 144 117.303C144.042 116.662 144.23 116.039 144.55 115.484C144.871 114.928 145.314 114.453 145.846 114.097Z" fill="#05105D"/>
<path d="M152.538 110.251C153.565 109.665 154.398 110.139 154.398 111.324C154.357 111.968 154.167 112.594 153.845 113.153C153.522 113.711 153.075 114.187 152.538 114.543C151.525 115.129 150.692 114.641 150.692 113.47C150.731 112.827 150.919 112.202 151.239 111.643C151.559 111.085 152.004 110.608 152.538 110.251Z" fill="#05105D"/>
<path opacity="0.2" d="M275.256 155.61C275.318 155.502 275.374 155.391 275.423 155.276C275.557 155.009 275.669 154.73 275.755 154.442C275.818 154.252 275.868 154.057 275.904 153.859C275.956 153.612 275.984 153.361 275.987 153.108C276.004 152.914 276.004 152.719 275.987 152.525C275.974 152.216 275.935 151.91 275.871 151.608C275.718 150.847 275.404 150.127 274.952 149.497C274.499 148.867 273.918 148.342 273.247 147.956L250.11 134.533C248.65 133.689 246.994 133.244 245.31 133.244C243.625 133.244 241.969 133.689 240.509 134.533L167.029 176.92C166.357 177.307 165.775 177.833 165.32 178.462C164.865 179.091 164.547 179.81 164.388 180.571C164.325 180.873 164.286 181.18 164.272 181.488C164.272 181.689 164.272 181.872 164.272 182.072C164.272 182.272 164.272 182.572 164.355 182.822C164.438 183.073 164.438 183.206 164.504 183.406C164.593 183.698 164.704 183.982 164.836 184.256C164.885 184.365 164.941 184.471 165.003 184.573C165.201 184.923 165.441 185.248 165.717 185.54L165.916 185.74C166.245 186.064 166.613 186.344 167.012 186.574L190.149 199.997C190.514 200.204 190.891 200.388 191.279 200.547C192.441 201.037 193.689 201.286 194.949 201.281C195.779 201.284 196.606 201.177 197.408 200.964C198.225 200.741 199.012 200.416 199.75 199.997L273.23 157.611C273.623 157.379 273.986 157.099 274.31 156.777L274.509 156.577C274.793 156.283 275.043 155.959 275.256 155.61Z" fill="#1067DB"/>
<path d="M233.018 176.77V179.571C233.018 179.909 232.929 180.242 232.76 180.535C232.591 180.828 232.347 181.071 232.054 181.238L231.672 181.522C230.86 181.977 229.945 182.217 229.015 182.217C228.084 182.217 227.169 181.977 226.357 181.522L221.374 178.837C221.243 178.763 221.134 178.656 221.057 178.525C220.981 178.395 220.941 178.246 220.941 178.095C220.941 177.944 220.981 177.796 221.057 177.665C221.134 177.535 221.243 177.427 221.374 177.353C222.251 176.654 223.315 176.23 224.431 176.136C224.897 176.22 225.369 176.27 225.842 176.286L228.118 176.603L233.018 176.77Z" fill="#1067DB"/>
<path d="M221.44 178.27L226.423 180.955C227.242 181.401 228.161 181.628 229.092 181.613C230.023 181.598 230.934 181.343 231.738 180.872L232.12 180.605C232.412 180.436 232.655 180.193 232.824 179.9C232.993 179.607 233.082 179.276 233.084 178.937V179.588C233.084 179.926 232.995 180.259 232.826 180.552C232.657 180.845 232.413 181.087 232.12 181.255L231.738 181.539C230.926 181.994 230.011 182.233 229.081 182.233C228.15 182.233 227.235 181.994 226.423 181.539L221.44 178.854C221.254 178.757 221.112 178.594 221.041 178.396C220.97 178.198 220.976 177.98 221.058 177.787C221.126 177.987 221.261 178.158 221.44 178.27Z" fill="#05105D"/>
<path d="M230.576 180.238C231.309 180.235 232.014 179.953 232.547 179.448C233.081 178.944 233.403 178.254 233.45 177.52L234.33 163.046L242.236 167.799C242.897 168.192 243.686 168.306 244.431 168.115C245.175 167.925 245.814 167.445 246.206 166.782C246.598 166.118 246.711 165.326 246.521 164.578C246.331 163.831 245.853 163.19 245.193 162.796L236.456 157.544C235.694 157.088 234.827 156.836 233.94 156.813C233.053 156.79 232.175 156.995 231.39 157.41C230.605 157.825 229.939 158.436 229.456 159.183C228.973 159.931 228.69 160.79 228.633 161.679L227.703 177.136C227.678 177.515 227.728 177.896 227.85 178.255C227.972 178.615 228.163 178.946 228.413 179.231C228.663 179.517 228.967 179.749 229.307 179.916C229.647 180.083 230.016 180.181 230.393 180.204L230.576 180.238Z" fill="#05105D"/>
<path d="M224.181 183.456V186.257C224.176 186.593 224.087 186.922 223.921 187.214C223.756 187.505 223.519 187.75 223.234 187.925L222.852 188.192C222.047 188.66 221.136 188.914 220.205 188.928C219.275 188.943 218.356 188.718 217.537 188.275L212.554 185.59C212.422 185.519 212.312 185.413 212.235 185.284C212.158 185.155 212.118 185.007 212.118 184.857C212.118 184.706 212.158 184.559 212.235 184.43C212.312 184.3 212.422 184.194 212.554 184.123C213.427 183.417 214.492 182.992 215.61 182.906C216.084 182.975 216.56 183.02 217.038 183.039L219.314 183.356L224.181 183.456Z" fill="#1067DB"/>
<path d="M212.606 184.973L217.588 187.641C218.4 188.1 219.315 188.341 220.246 188.341C221.177 188.341 222.092 188.1 222.903 187.641L223.285 187.358C223.572 187.184 223.809 186.94 223.975 186.648C224.141 186.356 224.229 186.026 224.232 185.69V186.341C224.228 186.676 224.139 187.005 223.973 187.297C223.807 187.589 223.571 187.833 223.285 188.008L222.903 188.275C222.098 188.743 221.187 188.997 220.257 189.012C219.326 189.026 218.408 188.801 217.588 188.358L212.606 185.674C212.425 185.571 212.288 185.406 212.221 185.21C212.154 185.013 212.161 184.799 212.24 184.607C212.317 184.767 212.446 184.896 212.606 184.973Z" fill="#05105D"/>
<path d="M221.756 186.941C222.488 186.938 223.193 186.656 223.727 186.151C224.26 185.647 224.583 184.957 224.629 184.223L225.974 172.217L233.897 178.587C235.276 179.404 236.555 174.852 237.368 173.485C237.759 172.825 237.873 172.038 237.686 171.294C237.499 170.55 237.027 169.911 236.372 169.516L227.619 164.28C226.871 163.828 226.02 163.576 225.147 163.55C224.274 163.524 223.409 163.723 222.636 164.13C221.849 164.543 221.181 165.153 220.698 165.901C220.215 166.648 219.933 167.509 219.879 168.399L218.932 183.856C218.886 184.623 219.146 185.377 219.654 185.952C220.161 186.528 220.875 186.877 221.639 186.924L221.756 186.941Z" fill="#05105D"/>
<path d="M239.047 117.875L163.922 161.229C163.06 161.732 162.345 162.454 161.848 163.321C161.351 164.189 161.089 165.172 161.089 166.173C161.089 167.174 161.351 168.157 161.848 169.025C162.345 169.892 163.06 170.614 163.922 171.117L187.574 184.823C189.065 185.692 190.758 186.149 192.482 186.149C194.206 186.149 195.899 185.692 197.39 184.823L272.531 141.47C273.394 140.969 274.109 140.249 274.607 139.383C275.105 138.516 275.367 137.534 275.367 136.534C275.367 135.534 275.105 134.552 274.607 133.685C274.109 132.819 273.394 132.099 272.531 131.598L248.88 117.892C247.387 117.021 245.692 116.561 243.965 116.558C242.239 116.556 240.542 117.01 239.047 117.875Z" fill="#E9EDFC"/>
<path d="M229.396 130.981L189.101 154.226C188.635 154.492 188.247 154.878 187.978 155.344C187.708 155.809 187.566 156.338 187.566 156.877C187.566 157.415 187.708 157.944 187.978 158.41C188.247 158.876 188.635 159.262 189.101 159.528L201.774 166.882C202.577 167.349 203.488 167.595 204.415 167.595C205.343 167.595 206.254 167.349 207.056 166.882L247.351 143.637C247.812 143.367 248.196 142.98 248.462 142.515C248.729 142.05 248.869 141.523 248.869 140.986C248.869 140.449 248.729 139.922 248.462 139.457C248.196 138.992 247.812 138.605 247.351 138.335L234.661 130.981C233.862 130.514 232.953 130.268 232.028 130.268C231.103 130.268 230.195 130.514 229.396 130.981Z" fill="#D3DBF9"/>
<path d="M272.531 139.069L197.39 182.422C195.899 183.29 194.205 183.748 192.482 183.748C190.758 183.748 189.065 183.29 187.574 182.422L163.922 168.716C163.235 168.32 162.64 167.783 162.176 167.139C161.712 166.495 161.39 165.759 161.231 164.981C160.971 166.158 161.092 167.387 161.576 168.491C162.06 169.594 162.882 170.514 163.922 171.117L187.574 184.823C189.065 185.692 190.758 186.149 192.482 186.149C194.205 186.149 195.899 185.692 197.39 184.823L272.531 141.47C273.573 140.869 274.397 139.949 274.881 138.845C275.365 137.741 275.484 136.511 275.222 135.333C275.063 136.112 274.741 136.848 274.277 137.492C273.813 138.136 273.218 138.673 272.531 139.069Z" fill="url(#paint0_linear_3118_39049)"/>
<path d="M221.224 181.872L253.513 163.146L269.657 172.518L237.369 191.243L221.224 181.872Z" fill="url(#paint1_linear_3118_39049)"/>
<path d="M221.224 181.872V200.597L237.369 209.952V191.243L221.224 181.872Z" fill="#A8B8F4"/>
<path d="M269.659 172.518V191.243L237.37 209.952V191.243L269.659 172.518Z" fill="#BECAF7"/>
<path d="M223.018 152.091C223.165 152.087 223.304 152.025 223.407 151.919C223.509 151.814 223.566 151.672 223.566 151.524V149.19C223.566 149.042 223.509 148.901 223.407 148.795C223.304 148.689 223.165 148.627 223.018 148.623C222.868 148.623 222.725 148.683 222.619 148.789C222.513 148.895 222.453 149.04 222.453 149.19V151.524C222.453 151.675 222.513 151.819 222.619 151.925C222.725 152.032 222.868 152.091 223.018 152.091Z" fill="#F9B888"/>
<path d="M240.524 152.425C240.903 152.423 241.276 152.322 241.605 152.132C241.934 151.942 242.208 151.669 242.401 151.341C242.543 151.094 242.636 150.821 242.673 150.537C242.71 150.254 242.691 149.966 242.617 149.691C242.543 149.415 242.415 149.156 242.241 148.93C242.067 148.704 241.851 148.515 241.604 148.373L231.787 142.654C231.292 142.364 230.702 142.284 230.147 142.431C229.593 142.578 229.119 142.94 228.831 143.437C228.542 143.935 228.462 144.527 228.609 145.084C228.755 145.64 229.116 146.116 229.612 146.405L239.527 152.125C239.83 152.306 240.172 152.409 240.524 152.425Z" fill="#F9B888"/>
<path d="M249.76 162.396L251.106 172.401C251.106 173.02 250.943 173.628 250.634 174.164C250.325 174.7 249.88 175.144 249.345 175.452L240.492 180.071C236.539 181.488 232.188 179.287 232.188 176.736L236.273 156.927C236.273 155.66 233.649 156.527 234.745 155.893L246.173 149.223C248.382 148.006 249.76 159.862 249.76 162.396Z" fill="#05105D"/>
<path d="M250.856 146.355L251.388 151.358C251.64 153.806 251.767 156.266 251.77 158.728V162.53C251.812 165.37 251.679 168.21 251.371 171.034C251.222 171.767 243.997 179.171 233.882 175.269L233.201 158.244C232.852 153.242 232.885 146.889 237.818 143.804L238.466 143.421L243.731 140.536C244.343 140.183 245.035 139.998 245.741 139.998C246.446 139.998 247.139 140.183 247.75 140.536C248.685 141.195 249.453 142.064 249.992 143.075C250.532 144.086 250.828 145.209 250.856 146.355Z" fill="#1067DB"/>
<path d="M242.735 144.338C243.211 144.338 243.667 144.148 244.004 143.81C244.34 143.472 244.529 143.014 244.529 142.537V135.483C244.486 135.038 244.28 134.624 243.949 134.323C243.619 134.022 243.189 133.856 242.744 133.856C242.298 133.856 241.868 134.022 241.538 134.323C241.207 134.624 241.001 135.038 240.958 135.483V142.537C240.956 142.773 241 143.006 241.088 143.225C241.177 143.443 241.307 143.642 241.473 143.809C241.638 143.977 241.835 144.11 242.051 144.2C242.268 144.291 242.5 144.338 242.735 144.338Z" fill="#F9B888"/>
<path d="M242.849 142.187C243.057 142.189 243.263 142.149 243.456 142.071C243.648 141.992 243.823 141.875 243.97 141.728C244.117 141.58 244.233 141.405 244.312 141.211C244.39 141.018 244.43 140.811 244.427 140.603V131.832C244.43 131.623 244.39 131.416 244.312 131.223C244.233 131.03 244.117 130.854 243.97 130.707C243.823 130.559 243.648 130.443 243.456 130.364C243.263 130.285 243.057 130.246 242.849 130.248H235.541V134.933C235.541 135.893 235.731 136.843 236.099 137.728C236.467 138.614 237.007 139.417 237.687 140.092C238.367 140.767 239.173 141.299 240.059 141.659C240.945 142.018 241.894 142.198 242.849 142.187Z" fill="#F9B888"/>
<path d="M233.531 127.88C233.622 127.646 233.759 127.433 233.934 127.254C234.11 127.074 234.32 126.933 234.551 126.838C234.783 126.743 235.031 126.696 235.281 126.7C235.531 126.704 235.778 126.76 236.006 126.863C236.471 127.113 236.803 127.246 237.268 126.963C237.733 126.679 238.049 126.329 238.929 126.446C239.262 126.446 239.71 126.796 240.026 126.796C240.69 126.796 241.138 126.246 241.919 126.479C242.333 126.656 242.79 126.702 243.231 126.613C243.655 126.534 244.091 126.575 244.493 126.729C245.291 127.046 245.241 127.646 245.706 128.197C246.171 128.747 246.636 128.347 247.101 128.78C247.295 128.968 247.427 129.211 247.481 129.476C247.534 129.741 247.506 130.016 247.4 130.264C247.3 130.498 247.118 130.748 247.201 130.981C247.284 131.215 247.45 131.231 247.583 131.365C248.048 131.815 247.666 132.599 247.317 133.149C247.24 133.25 247.193 133.372 247.184 133.499C247.221 133.662 247.301 133.812 247.417 133.933C247.643 134.257 247.748 134.651 247.711 135.045C247.674 135.439 247.5 135.807 247.217 136.084C246.935 136.317 246.553 136.517 246.487 136.868C246.493 137.073 246.532 137.275 246.603 137.468C246.689 137.849 246.648 138.248 246.485 138.604C246.323 138.959 246.05 139.251 245.706 139.435C244.892 139.852 245.706 141.32 244.394 141.436C243.414 141.536 242.534 140.319 242.318 139.485C242.318 139.619 241.686 139.269 241.637 139.202C241.483 138.959 241.382 138.686 241.338 138.402C241.15 137.865 241.044 137.303 241.022 136.734C241.06 135.896 240.998 135.056 240.839 134.233C240.406 134.24 239.974 134.178 239.56 134.05C238.597 133.683 238.996 133.049 238.647 132.382C238.464 132.065 238.049 131.999 237.85 131.665C237.676 131.271 237.641 130.831 237.75 130.414C236.85 130.681 235.893 130.681 234.993 130.414C234.312 130.114 233.332 129.631 233.332 128.747C233.341 128.448 233.408 128.153 233.531 127.88Z" fill="#05105D"/>
<path d="M233.532 127.88C233.699 127.478 233.997 127.145 234.378 126.936C234.758 126.727 235.198 126.654 235.625 126.729C235.333 126.811 235.062 126.957 234.833 127.156C234.603 127.354 234.42 127.602 234.296 127.88C234.128 128.185 234.047 128.532 234.064 128.88C234.064 129.697 235.027 130.181 235.725 130.548C235.976 130.642 236.238 130.704 236.505 130.731C235.989 130.791 235.465 130.728 234.977 130.548C234.296 130.248 233.316 129.764 233.316 128.88C233.311 128.535 233.385 128.193 233.532 127.88Z" fill="#37407D"/>
<path d="M240.077 136.651C240.792 136.651 241.372 136.068 241.372 135.35C241.372 134.632 240.792 134.049 240.077 134.049C239.361 134.049 238.781 134.632 238.781 135.35C238.781 136.068 239.361 136.651 240.077 136.651Z" fill="#F9B888"/>
<path opacity="0.3" d="M235.409 158.094C234.932 159.057 234.245 159.901 233.399 160.562L233.184 158.211C233.184 157.327 233.084 156.393 233.067 155.443C233.067 154.479 233.117 153.516 233.217 152.558L235.957 147.006C236.075 146.739 236.247 146.501 236.462 146.306C236.677 146.11 236.93 145.962 237.205 145.871C237.481 145.78 237.772 145.748 238.061 145.777C238.349 145.806 238.628 145.895 238.881 146.038C239.395 146.369 239.769 146.879 239.932 147.47C240.094 148.061 240.034 148.691 239.761 149.24L235.409 158.094Z" fill="#231F20"/>
<path d="M229.564 159.461C229.937 159.462 230.31 159.428 230.677 159.361C231.573 159.206 232.427 158.863 233.182 158.354C233.938 157.846 234.578 157.183 235.062 156.41L239.945 148.573C240.095 148.331 240.197 148.062 240.244 147.78C240.291 147.499 240.282 147.211 240.218 146.933C240.154 146.655 240.036 146.393 239.871 146.16C239.706 145.928 239.497 145.731 239.256 145.58C239.015 145.429 238.746 145.327 238.466 145.28C238.186 145.233 237.899 145.242 237.622 145.306C237.345 145.37 237.084 145.489 236.853 145.654C236.621 145.82 236.425 146.03 236.274 146.272L231.391 154.109C231.228 154.365 231.013 154.584 230.762 154.753C230.511 154.922 230.227 155.038 229.929 155.093C229.638 155.139 229.34 155.125 229.054 155.05C228.768 154.976 228.501 154.842 228.268 154.659L221.658 149.457C221.203 149.148 220.649 149.023 220.106 149.107C219.563 149.192 219.072 149.479 218.732 149.912C218.391 150.344 218.226 150.89 218.27 151.44C218.313 151.989 218.563 152.502 218.967 152.875L225.528 158.061C226.679 158.969 228.1 159.462 229.564 159.461Z" fill="#F9B888"/>
<path d="M236.207 155.043C236.207 155.043 236.655 154.192 237.12 153.375L240.077 148.64C240.266 148.369 240.398 148.063 240.466 147.74C240.533 147.417 240.534 147.083 240.469 146.759C240.404 146.435 240.274 146.128 240.087 145.856C239.9 145.584 239.66 145.354 239.381 145.178C239.102 145.003 238.791 144.886 238.466 144.835C238.141 144.784 237.809 144.8 237.49 144.882C237.171 144.964 236.872 145.11 236.612 145.312C236.351 145.514 236.134 145.767 235.974 146.055L232.469 151.608C232.872 152.468 233.576 153.15 234.446 153.525C235.156 153.867 235.763 154.39 236.207 155.043Z" fill="#1067DB"/>
<path d="M232.884 146.872C232.87 146.799 232.842 146.73 232.8 146.668C232.759 146.606 232.706 146.553 232.644 146.513C232.582 146.472 232.512 146.445 232.439 146.432C232.366 146.419 232.291 146.422 232.219 146.439L229.96 146.922C229.888 146.936 229.818 146.964 229.757 147.006C229.695 147.047 229.643 147.101 229.603 147.163C229.562 147.225 229.535 147.295 229.522 147.369C229.509 147.442 229.512 147.517 229.529 147.589C229.542 147.662 229.571 147.732 229.612 147.794C229.653 147.855 229.706 147.908 229.768 147.949C229.831 147.989 229.9 148.017 229.973 148.029C230.046 148.042 230.121 148.04 230.193 148.023L232.452 147.539C232.525 147.525 232.594 147.497 232.655 147.456C232.717 147.414 232.769 147.361 232.81 147.298C232.85 147.236 232.878 147.166 232.89 147.093C232.903 147.02 232.901 146.945 232.884 146.872Z" fill="#F9B888"/>
<path d="M160.101 104.235L230.659 63.3329C231.331 62.939 232.096 62.7306 232.875 62.729C233.654 62.7273 234.419 62.9324 235.094 63.3234C235.768 63.7145 236.328 64.2776 236.716 64.9556C237.103 65.6337 237.306 66.4027 237.302 67.1847V111.739C237.301 112.83 237.016 113.901 236.474 114.846C235.931 115.791 235.152 116.577 234.213 117.125L163.656 158.011C162.984 158.404 162.221 158.612 161.444 158.615C160.666 158.617 159.902 158.413 159.228 158.024C158.554 157.635 157.994 157.075 157.605 156.399C157.216 155.723 157.011 154.956 157.012 154.176V109.621C157.01 108.53 157.294 107.458 157.836 106.512C158.379 105.566 159.16 104.781 160.101 104.235Z" fill="#1067DB"/>
<path d="M158.806 155.076V110.522C158.805 109.429 159.092 108.355 159.637 107.409C160.182 106.464 160.967 105.679 161.912 105.136L232.452 64.2499C233.417 63.6758 234.57 63.5079 235.658 63.783C234.972 63.2069 234.127 62.855 233.237 62.7745C232.346 62.694 231.452 62.8888 230.675 63.3328L160.118 104.235C159.176 104.781 158.395 105.566 157.853 106.512C157.31 107.457 157.026 108.53 157.028 109.621V154.176C157.027 155.179 157.368 156.152 157.993 156.934C158.618 157.716 159.491 158.261 160.467 158.478C159.948 158.076 159.529 157.561 159.241 156.971C158.953 156.381 158.804 155.733 158.806 155.076Z" fill="url(#paint2_linear_3118_39049)"/>
<path d="M166.961 129.464L187.225 117.708V121.077L166.961 132.815V129.464Z" fill="white"/>
<path d="M166.961 122.457L187.225 110.701V114.07L166.961 125.809V122.457Z" fill="white"/>
<path d="M188.652 116.975L197.223 112.006V115.357L188.652 120.326V116.975Z" fill="white"/>
<path d="M166.961 135.533L193.354 120.326V123.695L166.961 138.885V135.533Z" fill="white"/>
<path d="M166.961 115.834L193.354 100.627V103.995L166.961 119.186V115.834Z" fill="white"/>
<path d="M166.961 141.603L187.225 129.847V133.199L166.961 144.955V141.603Z" fill="white"/>
<path d="M166.961 109.025L187.225 97.2692V100.621L166.961 112.376V109.025Z" fill="white"/>
<path d="M307.617 138.971L295.805 145.616L307.541 152.395L319.277 145.926L307.617 138.971Z" fill="#D3DBF9"/>
<path d="M307.611 139.316L296.406 145.622L307.541 152.05L318.682 145.914L307.611 139.316Z" fill="#92A6F1"/>
<path d="M307.6 141.675L298.467 146.813L307.541 152.051L316.615 147.052L307.6 141.675Z" fill="#4085E2"/>
<path d="M295.805 145.616L298.467 166.198L307.541 171.5V152.395L295.805 145.616Z" fill="#92A6F1"/>
<path d="M319.277 145.926L315.908 166.671L307.541 171.5V152.395L319.277 145.926Z" fill="#A8B8F4"/>
<path d="M304.966 150.375L297.784 143.368C297.784 143.368 306.957 146.323 307.541 149.441L304.966 150.375Z" fill="#040C46"/>
<path d="M309.053 150.106C309.053 150.106 306.63 143.771 303.267 138.954C302.499 137.869 301.43 137.033 300.192 136.549C298.954 136.065 297.602 135.955 296.302 136.232C295.002 136.509 293.812 137.161 292.879 138.108C291.945 139.055 291.31 140.254 291.052 141.558C291.052 141.605 291.052 141.651 291.023 141.692C290.994 141.733 296.862 132.186 306.204 151.157L309.053 150.106Z" fill="#05105D"/>
<path d="M306.122 148.483C306.122 148.483 311.99 136.566 310.595 131.054C310.595 131.054 313.514 132.438 309.643 148.121L306.122 148.483Z" fill="#040C46"/>
<path d="M307.541 152.051C307.541 152.051 314.443 125.776 321.958 142.901C321.958 142.901 316.381 137.786 310.718 150.223L307.541 152.051Z" fill="#05105D"/>
<path d="M307.541 152.051C307.541 152.051 312.364 145.628 304.791 128C304.791 128 306.373 147.584 303.763 149.867L307.541 152.051Z" fill="#05105D"/>
<defs>
<linearGradient id="paint0_linear_3118_39049" x1="36813.6" y1="18619.4" x2="44672.5" y2="18619.4" gradientUnits="userSpaceOnUse">
<stop stop-color="#92A6F1"/>
<stop offset="1" stop-color="white"/>
</linearGradient>
<linearGradient id="paint1_linear_3118_39049" x1="17511" y1="10661.1" x2="18923.3" y2="10661.1" gradientUnits="userSpaceOnUse">
<stop stop-color="#92A6F1"/>
<stop offset="1" stop-color="white"/>
</linearGradient>
<linearGradient id="paint2_linear_3118_39049" x1="25212.3" y1="35292.8" x2="28191.7" y2="30144.8" gradientUnits="userSpaceOnUse">
<stop stop-color="#05105D"/>
<stop offset="0.23" stop-color="#0C3F8F"/>
<stop offset="0.48" stop-color="#136ABD"/>
<stop offset="0.7" stop-color="#1888DE"/>
<stop offset="0.88" stop-color="#1B9BF2"/>
<stop offset="1" stop-color="#1CA2F9"/>
</linearGradient>
</defs>
</svg>
