<svg width="113" height="102" viewBox="0 0 113 102" fill="none" xmlns="http://www.w3.org/2000/svg">
<circle cx="46.5" cy="46" r="46" fill="#E7F3FF"/>
<path d="M62.5 53.25H55V60.75H62.5V53.25Z" fill="#016FD5"/>
<path d="M62.5 65.75H55V73.25H62.5V65.75Z" fill="#016FD5"/>
<path d="M62.5 78.25H55V85.75H62.5V78.25Z" fill="#016FD5"/>
<path d="M87.5 89.5H95L87.5 97V89.5Z" fill="#9CC7FF"/>
<path d="M83.75 28.25V29.5H61.25V25.75C61.252 25.0876 61.516 24.4528 61.9844 23.9844C62.4528 23.516 63.0876 23.252 63.75 23.25H81.25C81.9124 23.252 82.5472 23.516 83.0156 23.9844C83.484 24.4528 83.748 25.0876 83.75 25.75V28.25Z" fill="#016FD5"/>
<path d="M81.25 32H50V97H87.5V89.5H95V32H81.25ZM62.5 85.75H55V78.25H62.5V85.75ZM62.5 73.25H55V65.75H62.5V73.25ZM62.5 60.75H55V53.25H62.5V60.75Z" fill="#F5FAFF"/>
<path d="M83.75 28.25V29.5H61.25V28.25H46.25V100.75H98.75V28.25H83.75ZM95 89.5L87.5 97H50V32H95V89.5Z" fill="#AEB8C1"/>
<path d="M78.75 35.75H66.25C65.2554 35.75 64.3016 35.3549 63.5983 34.6517C62.8951 33.9484 62.5 32.9946 62.5 32V29.5H65V32C65 32.3315 65.1317 32.6495 65.3661 32.8839C65.6005 33.1183 65.9185 33.25 66.25 33.25H78.75C79.0815 33.25 79.3995 33.1183 79.6339 32.8839C79.8683 32.6495 80 32.3315 80 32V29.5H82.5V32C82.5 32.9946 82.1049 33.9484 81.4016 34.6517C80.6984 35.3549 79.7446 35.75 78.75 35.75Z" fill="#016FD5"/>
<path d="M80 40.75H65V43.25H80V40.75Z" fill="#F89F4B"/>
<path d="M82.5 45.75H62.5V48.25H82.5V45.75Z" fill="#F89F4B"/>
<path d="M83.75 53.25H66.25V55.75H83.75V53.25Z" fill="#6DBAFF"/>
<path d="M91.25 58.25H66.25V60.75H91.25V58.25Z" fill="#6DBAFF"/>
<path d="M83.75 65.75H66.25V68.25H83.75V65.75Z" fill="#6DBAFF"/>
<path d="M91.25 70.75H66.25V73.25H91.25V70.75Z" fill="#6DBAFF"/>
<path d="M83.75 78.25H66.25V80.75H83.75V78.25Z" fill="#6DBAFF"/>
<path d="M91.25 83.25H66.25V85.75H91.25V83.25Z" fill="#6DBAFF"/>
<path d="M81.25 27H67.5C66.8376 26.998 66.2028 26.734 65.7344 26.2656C65.266 25.7972 65.002 25.1624 65 24.5V23.25H63.75C63.0876 23.252 62.4528 23.516 61.9844 23.9844C61.516 24.4528 61.252 25.0876 61.25 25.75V29.5H83.75V25.75C83.7474 25.5387 83.7176 25.3287 83.6613 25.125C83.5231 25.6601 83.2115 26.1343 82.7753 26.4736C82.339 26.8128 81.8026 26.9979 81.25 27Z" fill="#01386A"/>
<path d="M78.75 34.5H66.25C65.2554 34.5 64.3016 34.1049 63.5983 33.4017C62.8951 32.6984 62.5 31.7446 62.5 30.75V32C62.5 32.9946 62.8951 33.9484 63.5983 34.6517C64.3016 35.3549 65.2554 35.75 66.25 35.75H78.75C79.7446 35.75 80.6984 35.3549 81.4016 34.6517C82.1049 33.9484 82.5 32.9946 82.5 32V30.75C82.5 31.7446 82.1049 32.6984 81.4016 33.4017C80.6984 34.1049 79.7446 34.5 78.75 34.5Z" fill="#01386A"/>
<path d="M78.75 35.75H66.25C65.2554 35.75 64.3016 35.3549 63.5983 34.6517C62.8951 33.9484 62.5 32.9946 62.5 32V33.25C62.5 34.2446 62.8951 35.1984 63.5983 35.9017C64.3016 36.6049 65.2554 37 66.25 37H78.75C79.7446 37 80.6984 36.6049 81.4016 35.9017C82.1049 35.1984 82.5 34.2446 82.5 33.25V32C82.5 32.9946 82.1049 33.9484 81.4016 34.6517C80.6984 35.3549 79.7446 35.75 78.75 35.75Z" fill="#AEB8C1"/>
<path d="M82.5 29.5H80V30.75H82.5V29.5Z" fill="#01386A"/>
<path d="M65 29.5H62.5V30.75H65V29.5Z" fill="#01386A"/>
<path d="M65 32V29.5H80V32H78.75V30.75H66.25V32H65Z" fill="#8D949C"/>
<path d="M61.25 28.25V29.5H62.5V32H50V97H87.5L93.75 90.75V93.25L88.75 98.25H48.75V30.75H60V28.25H61.25Z" fill="#8D949C"/>
<path d="M85 28.25V30.75H95V32H82.5V29.5H83.75V28.25H85Z" fill="#8D949C"/>
</svg>
