<svg width="373" height="253" viewBox="0 0 373 253" fill="none" xmlns="http://www.w3.org/2000/svg">
<path d="M185.684 252.049L1.62137 145.726C-0.772823 144.346 -0.482623 141.877 2.27432 140.279L172.189 41.8718C174.946 40.2741 179.227 40.0562 181.621 41.5087L365.611 147.832C368.005 149.212 367.715 151.681 364.958 153.279L195.115 251.686C192.358 253.284 188.078 253.429 185.684 252.049Z" fill="#F8FBFD"/>
<path d="M191.452 240.484L7.38943 134.175C4.99524 132.795 5.28544 130.327 8.04239 128.729L177.957 30.3356C180.714 28.738 184.995 28.5202 187.389 29.9725L371.379 136.281C373.773 137.661 373.483 140.13 370.726 141.727L200.883 240.121C198.126 241.718 193.846 241.936 191.452 240.484Z" fill="#F0F5FD"/>
<path d="M140.071 66.8779C140.306 66.6342 140.579 66.4161 140.891 66.2325L166.835 50.9808C169.061 49.6721 171.802 49.6733 174.027 50.9832L243.332 91.7244H247V116.81C247.007 117.854 246.505 118.901 245.491 119.497L219.68 134.671C216.664 136.444 212.949 136.443 209.936 134.668L140.889 94.077C139.635 93.3386 139.007 92.0506 139.001 90.7597H139V65.5899L140.071 66.8779Z" fill="#CDD7FC"/>
<path d="M137.987 66.7425L210.628 108.817C211.147 109.118 211.685 109.364 212.237 109.567V135.596C211.685 135.393 211.147 135.147 210.629 134.846L137.987 92.7715C136.669 92.0064 136.008 90.6709 136.002 89.3329H136V63.2833C136 64.6281 136.662 65.9733 137.987 66.7425Z" fill="#DDE5F2"/>
<path d="M133.003 61.9565C133.003 61.9695 133 61.9821 133 61.9951V61.9539L133.003 61.9565Z" fill="#ABADBB"/>
<path d="M134.99 58.5376L162.284 42.7284C164.625 41.3718 167.51 41.3731 169.85 42.7313L245.036 86.2806C247.153 87.5092 247.152 90.5768 245.034 91.8041L217.879 107.533C214.707 109.37 210.799 109.369 207.628 107.529L134.987 65.4543C132.337 63.9159 132.338 60.074 134.99 58.5376Z" fill="#071D4F"/>
<path d="M217.88 107.533L218.95 106.912V132.941L217.88 133.561C216.683 134.255 215.381 134.686 214.054 134.856V108.826C215.381 108.657 216.683 108.226 217.88 107.533Z" fill="#DDE5F2"/>
<path d="M201.669 122.39L140.132 86.7384V90.6072L201.669 126.244V122.39Z" fill="#5384FC"/>
<path d="M141.497 90.066V87.528L140.132 86.7386V90.6074L201.669 126.244V124.912L141.497 90.066Z" fill="#FFFFFD"/>
<path d="M142.764 81.2252C143.41 81.5999 143.932 82.5076 143.93 83.2533C143.928 83.9989 143.403 84.2991 142.756 83.9248C142.11 83.5501 141.588 82.6424 141.59 81.8967C141.592 81.1515 142.118 80.8505 142.764 81.2252Z" fill="#5384FC"/>
<path d="M161.658 92.1519C162.305 92.5266 162.827 93.4344 162.825 94.18C162.822 94.9257 162.297 95.2263 161.651 94.8516C161.004 94.4769 160.482 93.5691 160.484 92.8235C160.486 92.0782 161.012 91.7776 161.658 92.1519Z" fill="#5384FC"/>
<path d="M199.447 114.061C200.094 114.436 200.616 115.343 200.614 116.089C200.612 116.835 200.086 117.135 199.44 116.76C198.794 116.386 198.271 115.478 198.274 114.732C198.276 113.987 198.801 113.686 199.447 114.061Z" fill="#5384FC"/>
<path d="M142.756 77.7976C142.11 77.4229 141.588 76.5152 141.59 75.7695C141.592 75.0243 142.118 74.7233 142.764 75.098C143.41 75.4727 143.932 76.3804 143.93 77.1261C143.928 77.8717 143.403 78.1719 142.756 77.7976Z" fill="#5384FC"/>
<path d="M147.487 77.8296C148.134 78.2043 148.656 79.1121 148.654 79.8577C148.652 80.6034 148.126 80.904 147.48 80.5292C146.834 80.1545 146.311 79.2468 146.313 78.5011C146.316 77.7559 146.841 77.4553 147.487 77.8296Z" fill="#5384FC"/>
<path d="M152.209 80.5614C152.856 80.9361 153.378 81.8439 153.376 82.5895C153.374 83.3352 152.848 83.6354 152.202 83.2611C151.556 82.8863 151.033 81.9786 151.035 81.233C151.038 80.4877 151.563 80.1871 152.209 80.5614Z" fill="#5384FC"/>
<path d="M156.933 83.293C157.579 83.6678 158.102 84.5755 158.099 85.3211C158.097 86.0668 157.572 86.3674 156.926 85.9927C156.279 85.618 155.757 84.7102 155.759 83.9646C155.761 83.2194 156.287 82.9187 156.933 83.293Z" fill="#5384FC"/>
<path d="M171.105 91.5171C171.752 91.8914 172.274 92.7996 172.272 93.5452C172.269 94.2904 171.744 94.5911 171.098 94.2168C170.451 93.842 169.929 92.9343 169.931 92.1887C169.933 91.443 170.459 91.1424 171.105 91.5171Z" fill="#5384FC"/>
<path d="M175.829 94.2584C176.475 94.6327 176.997 95.5408 176.995 96.2865C176.993 97.0317 176.467 97.3323 175.821 96.958C175.175 96.5833 174.653 95.6756 174.655 94.9299C174.657 94.1847 175.182 93.8837 175.829 94.2584Z" fill="#5384FC"/>
<path d="M185.276 99.7249C185.922 100.1 186.444 101.007 186.442 101.753C186.44 102.498 185.914 102.799 185.268 102.425C184.622 102.05 184.1 101.142 184.102 100.396C184.104 99.6508 184.629 99.3502 185.276 99.7249Z" fill="#5384FC"/>
<path d="M189.999 102.46C190.645 102.835 191.167 103.742 191.165 104.488C191.163 105.234 190.638 105.534 189.991 105.159C189.345 104.785 188.823 103.877 188.825 103.131C188.827 102.386 189.353 102.085 189.999 102.46Z" fill="#5384FC"/>
<path d="M199.447 107.934C200.094 108.308 200.616 109.216 200.614 109.962C200.612 110.707 200.086 111.008 199.44 110.633C198.794 110.259 198.271 109.351 198.274 108.605C198.276 107.86 198.801 107.559 199.447 107.934Z" fill="#5384FC"/>
<path d="M215.438 103.287C214.624 103.759 213.697 104.008 212.757 104.008C211.815 104.008 210.887 103.758 210.068 103.283L138.788 61.9967L164.725 46.9739C165.132 46.7381 165.595 46.6135 166.065 46.6135C166.535 46.6135 166.999 46.7385 167.41 46.9768L240.033 89.042L215.438 103.287ZM245.036 86.2809L169.85 42.7312C168.679 42.0516 167.372 41.7119 166.065 41.7119C164.76 41.7119 163.454 42.0508 162.284 42.7282L134.99 58.5375C132.338 60.0743 132.336 63.9157 134.987 65.4542L207.628 107.529C209.215 108.449 210.986 108.91 212.757 108.91C214.525 108.91 216.294 108.451 217.879 107.532L245.035 91.8039C247.152 90.5771 247.153 87.509 245.036 86.2809Z" fill="#FFFFFD"/>
<path d="M167.41 48.9171C167 48.6788 166.535 48.5538 166.065 48.5538C165.595 48.5538 165.132 48.6784 164.725 48.9142L140.462 62.9665L138.788 61.9964L164.725 46.9741C165.132 46.7383 165.595 46.6137 166.065 46.6137C166.535 46.6137 167 46.7383 167.41 46.977L240.033 89.0422L238.358 90.0122L167.41 48.9171Z" fill="#CDD7FC"/>
<path d="M220.357 83.1405L217.319 81.3793L216.318 81.9628L219.357 83.724L220.357 83.1405Z" fill="#5384FC"/>
<path d="M220.58 84.7651L216.033 82.1295L215.033 82.7135L219.58 85.3487L220.58 84.7651Z" fill="#09FAFA"/>
<path d="M219.295 85.5148L214.748 82.8791L213.747 83.4631L218.294 86.0983L219.295 85.5148Z" fill="#5384FC"/>
<path d="M217.104 85.7398L213.462 83.6292L212.461 84.2127L216.103 86.3238L217.104 85.7398Z" fill="#5384FC"/>
<path d="M214.452 85.6971L212.177 84.3788L211.177 84.9628L213.451 86.2806L214.452 85.6971Z" fill="#5384FC"/>
<path d="M213.931 86.89L210.892 85.1288L209.892 85.7123L212.93 87.4735L213.931 86.89Z" fill="#09FAFA"/>
<path d="M222.781 85.709L225.178 87.098L226.178 86.5145L223.782 85.1255L222.781 85.709Z" fill="#5384FC"/>
<path d="M225.454 87.2588L230.785 90.3488L231.786 89.7652L226.454 86.6749L225.454 87.2588Z" fill="#5384FC"/>
<path d="M223.116 87.3987L229.501 91.0991L230.501 90.5156L224.116 86.8151L223.116 87.3987Z" fill="#5384FC"/>
<path d="M224.115 89.4726L225.116 88.8886L221.211 86.6256L220.21 87.2091L224.115 89.4726Z" fill="#5384FC"/>
<path d="M224.393 89.6332L228.216 91.8491L229.217 91.2652L225.394 89.0497L224.393 89.6332Z" fill="#5384FC"/>
<path d="M222.201 89.8582L226.929 92.5986L227.93 92.0151L223.202 89.2746L222.201 89.8582Z" fill="#5384FC"/>
<path d="M217.639 88.7088L219.271 89.6548L220.272 89.0709L218.64 88.1248L217.639 88.7088Z" fill="#5384FC"/>
<path d="M219.549 89.8153L225.645 93.3486L226.646 92.7647L220.55 89.2318L219.549 89.8153Z" fill="#09FAFA"/>
<path d="M217.355 88.8748L216.354 89.4584L221.76 92.5921L222.761 92.0086L217.355 88.8748Z" fill="#5384FC"/>
<path d="M222.038 92.7528L224.359 94.0984L225.36 93.5144L223.038 92.1692L222.038 92.7528Z" fill="#5384FC"/>
<path d="M208.247 90.1375L205.208 88.3763L204.208 88.9598L207.246 90.721L208.247 90.1375Z" fill="#5384FC"/>
<path d="M208.47 91.7622L203.923 89.1265L202.922 89.7105L207.469 92.3457L208.47 91.7622Z" fill="#5384FC"/>
<path d="M207.184 92.5119L202.637 89.8763L201.637 90.4602L206.184 93.0955L207.184 92.5119Z" fill="#09FAFA"/>
<path d="M201.352 90.6261L200.351 91.2101L203.993 93.3207L204.993 92.7368L201.352 90.6261Z" fill="#5384FC"/>
<path d="M199.066 91.9597L201.34 93.278L202.34 92.694L200.066 91.3762L199.066 91.9597Z" fill="#5384FC"/>
<path d="M197.78 92.7095L200.819 94.4706L201.82 93.8871L198.781 92.1255L197.78 92.7095Z" fill="#09FAFA"/>
<path d="M210.672 92.7061L213.069 94.095L214.07 93.5115L211.673 92.1225L210.672 92.7061Z" fill="#5384FC"/>
<path d="M213.345 94.2558L218.676 97.3457L219.677 96.7622L214.346 93.6722L213.345 94.2558Z" fill="#5384FC"/>
<path d="M211.005 94.3958L217.39 98.0962L218.39 97.5126L212.006 93.8122L211.005 94.3958Z" fill="#5384FC"/>
<path d="M212.005 96.4696L213.006 95.8861L209.101 93.6226L208.1 94.2061L212.005 96.4696Z" fill="#5384FC"/>
<path d="M212.281 96.6303L216.104 98.8462L217.105 98.2622L213.282 96.0468L212.281 96.6303Z" fill="#09FAFA"/>
<path d="M210.091 96.8552L214.819 99.5957L215.82 99.0122L211.092 96.2717L210.091 96.8552Z" fill="#5384FC"/>
<path d="M205.529 95.7059L207.161 96.6515L208.161 96.0679L206.53 95.1219L205.529 95.7059Z" fill="#5384FC"/>
<path d="M207.439 96.8124L213.535 100.346L214.535 99.7617L208.44 96.2289L207.439 96.8124Z" fill="#5384FC"/>
<path d="M205.246 95.8718L204.245 96.4554L209.651 99.5891L210.652 99.0056L205.246 95.8718Z" fill="#5384FC"/>
<path d="M209.929 99.7498L212.25 101.095L213.251 100.511L210.93 99.1659L209.929 99.7498Z" fill="#09FAFA"/>
<path d="M170.22 54.0129L167.182 52.2517L166.181 52.8353L169.22 54.5964L170.22 54.0129Z" fill="#5384FC"/>
<path d="M170.441 55.6376L165.894 53.002L164.893 53.586L169.44 56.2212L170.441 55.6376Z" fill="#09FAFA"/>
<path d="M169.156 56.3873L164.609 53.7521L163.609 54.3356L168.155 56.9713L169.156 56.3873Z" fill="#5384FC"/>
<path d="M166.966 56.6123L163.324 54.5017L162.324 55.0852L165.965 57.1959L166.966 56.6123Z" fill="#5384FC"/>
<path d="M164.313 56.5695L162.039 55.2512L161.038 55.8352L163.312 57.1534L164.313 56.5695Z" fill="#5384FC"/>
<path d="M163.793 57.7624L160.754 56.0012L159.754 56.5848L162.792 58.3459L163.793 57.7624Z" fill="#09FAFA"/>
<path d="M172.643 56.5815L175.039 57.9705L176.04 57.3869L173.643 55.9979L172.643 56.5815Z" fill="#09FAFA"/>
<path d="M175.317 58.1313L180.648 61.2212L181.649 60.6376L176.317 57.5477L175.317 58.1313Z" fill="#5384FC"/>
<path d="M172.978 58.2712L179.363 61.9716L180.363 61.3881L173.979 57.6876L172.978 58.2712Z" fill="#5384FC"/>
<path d="M173.977 60.345L174.978 59.7615L171.073 57.498L170.072 58.0816L173.977 60.345Z" fill="#5384FC"/>
<path d="M174.253 60.5057L178.076 62.7216L179.077 62.1376L175.254 59.9222L174.253 60.5057Z" fill="#5384FC"/>
<path d="M172.063 60.7306L176.792 63.4711L177.792 62.8876L173.064 60.1471L172.063 60.7306Z" fill="#5384FC"/>
<path d="M167.503 59.5813L169.135 60.5273L170.136 59.9434L168.504 58.9973L167.503 59.5813Z" fill="#5384FC"/>
<path d="M169.411 60.6878L175.507 64.2211L176.508 63.6372L170.412 60.1043L169.411 60.6878Z" fill="#09FAFA"/>
<path d="M167.217 59.7473L166.216 60.3309L171.623 63.4646L172.623 62.8811L167.217 59.7473Z" fill="#5384FC"/>
<path d="M171.899 63.6252L174.221 64.9708L175.221 64.3873L172.9 63.0417L171.899 63.6252Z" fill="#5384FC"/>
<path d="M158.108 61.01L155.07 59.2488L154.069 59.8323L157.108 61.5939L158.108 61.01Z" fill="#09FAFA"/>
<path d="M158.331 62.6346L153.784 59.999L152.784 60.5829L157.331 63.2186L158.331 62.6346Z" fill="#5384FC"/>
<path d="M157.046 63.3844L152.499 60.7488L151.498 61.3327L156.045 63.9684L157.046 63.3844Z" fill="#5384FC"/>
<path d="M151.214 61.4986L150.213 62.0822L153.855 64.1932L154.856 63.6093L151.214 61.4986Z" fill="#5384FC"/>
<path d="M148.929 62.8321L151.203 64.1504L152.203 63.5664L149.929 62.2486L148.929 62.8321Z" fill="#09FAFA"/>
<path d="M147.643 63.582L150.681 65.3431L151.682 64.7596L148.643 62.9984L147.643 63.582Z" fill="#5384FC"/>
<path d="M160.533 63.5786L162.929 64.9675L163.93 64.384L161.533 62.995L160.533 63.5786Z" fill="#5384FC"/>
<path d="M163.206 65.1283L168.538 68.2182L169.538 67.6347L164.207 64.5447L163.206 65.1283Z" fill="#5384FC"/>
<path d="M160.867 65.2682L167.252 68.9686L168.252 68.3851L161.868 64.6846L160.867 65.2682Z" fill="#5384FC"/>
<path d="M161.867 67.342L162.868 66.7581L158.963 64.495L157.962 65.0786L161.867 67.342Z" fill="#09FAFA"/>
<path d="M162.144 67.5027L165.966 69.7186L166.967 69.1347L163.144 66.9192L162.144 67.5027Z" fill="#5384FC"/>
<path d="M159.953 67.7277L164.681 70.4682L165.682 69.8847L160.953 67.1437L159.953 67.7277Z" fill="#5384FC"/>
<path d="M155.392 66.5783L157.024 67.5239L158.024 66.9404L156.392 65.9943L155.392 66.5783Z" fill="#5384FC"/>
<path d="M157.301 67.6849L163.397 71.2181L164.398 70.6342L158.302 67.1013L157.301 67.6849Z" fill="#5384FC"/>
<path d="M155.108 66.7443L154.107 67.3279L159.513 70.4616L160.514 69.8781L155.108 66.7443Z" fill="#5384FC"/>
<path d="M159.79 70.6223L162.111 71.9679L163.112 71.3839L160.79 70.0387L159.79 70.6223Z" fill="#09FAFA"/>
<path d="M165.934 74.047L168.063 75.2802L170.297 73.9825L168.169 72.7498L165.934 74.047Z" fill="#5384FC"/>
<path d="M168.896 72.3331L171.024 73.5663L173.258 72.2687L171.13 71.0359L168.896 72.3331Z" fill="#5384FC"/>
<path d="M171.859 70.6192L173.988 71.8524L176.222 70.5548L174.094 69.322L171.859 70.6192Z" fill="#5384FC"/>
<path d="M174.822 68.9053L176.951 70.1385L179.185 68.8413L177.057 67.6081L174.822 68.9053Z" fill="#5384FC"/>
<path d="M177.784 67.1915L179.913 68.4247L182.147 67.1271L180.019 65.8943L177.784 67.1915Z" fill="#5384FC"/>
<path d="M180.748 65.4775L182.877 66.7107L185.111 65.4131L182.983 64.1803L180.748 65.4775Z" fill="#5384FC"/>
<path d="M168.805 75.7139L170.934 76.9471L173.168 75.6495L171.04 74.4167L168.805 75.7139Z" fill="#5384FC"/>
<path d="M171.768 74L173.897 75.2332L176.131 73.9355L174.003 72.7028L171.768 74Z" fill="#5384FC"/>
<path d="M174.731 72.2861L176.86 73.5193L179.094 72.2217L176.966 70.9889L174.731 72.2861Z" fill="#5384FC"/>
<path d="M177.693 70.5722L179.822 71.8054L182.056 70.5077L179.928 69.275L177.693 70.5722Z" fill="#5384FC"/>
<path d="M180.655 68.8583L182.784 70.0915L185.018 68.7939L182.89 67.5611L180.655 68.8583Z" fill="#5384FC"/>
<path d="M171.679 77.3807L173.807 78.6139L176.041 77.3163L173.914 76.0835L171.679 77.3807Z" fill="#5384FC"/>
<path d="M174.641 75.6668L176.77 76.9L179.004 75.6024L176.876 74.3696L174.641 75.6668Z" fill="#5384FC"/>
<path d="M177.604 73.953L179.733 75.1862L181.967 73.8885L179.839 72.6558L177.604 73.953Z" fill="#5384FC"/>
<path d="M180.566 72.239L182.695 73.4722L184.929 72.1746L182.801 70.9418L180.566 72.239Z" fill="#5384FC"/>
<path d="M183.529 70.5251L185.658 71.7583L187.892 70.4607L185.764 69.2279L183.529 70.5251Z" fill="#5384FC"/>
<path d="M186.491 68.8112L188.62 70.0444L190.854 68.7468L188.726 67.514L186.491 68.8112Z" fill="#5384FC"/>
<path d="M174.55 79.0475L176.679 80.2807L178.913 78.9835L176.785 77.7503L174.55 79.0475Z" fill="#5384FC"/>
<path d="M177.512 77.3336L179.641 78.5668L181.875 77.2692L179.747 76.0364L177.512 77.3336Z" fill="#5384FC"/>
<path d="M180.475 75.6197L182.604 76.8529L184.838 75.5553L182.71 74.3225L180.475 75.6197Z" fill="#5384FC"/>
<path d="M183.438 73.9058L185.567 75.139L187.801 73.8414L185.673 72.6087L183.438 73.9058Z" fill="#5384FC"/>
<path d="M186.4 72.1919L188.529 73.4251L190.763 72.1275L188.635 70.8947L186.4 72.1919Z" fill="#5384FC"/>
<path d="M189.362 70.478L191.491 71.7112L193.725 70.4136L191.597 69.1809L189.362 70.478Z" fill="#5384FC"/>
<path d="M177.421 80.7144L179.55 81.9476L181.784 80.65L179.656 79.4172L177.421 80.7144Z" fill="#5384FC"/>
<path d="M180.385 79.0004L182.514 80.2336L184.748 78.936L182.62 77.7033L180.385 79.0004Z" fill="#5384FC"/>
<path d="M183.347 77.2865L185.476 78.5197L187.71 77.2221L185.582 75.9893L183.347 77.2865Z" fill="#5384FC"/>
<path d="M186.309 75.5727L188.438 76.8059L190.672 75.5083L188.544 74.2755L186.309 75.5727Z" fill="#5384FC"/>
<path d="M189.273 73.8588L191.402 75.092L193.636 73.7944L191.508 72.5617L189.273 73.8588Z" fill="#5384FC"/>
<path d="M180.294 82.3812L182.423 83.6144L184.657 82.3168L182.529 81.084L180.294 82.3812Z" fill="#5384FC"/>
<path d="M183.257 80.6673L185.386 81.9005L187.62 80.6029L185.492 79.3701L183.257 80.6673Z" fill="#5384FC"/>
<path d="M186.219 78.9534L188.348 80.1866L190.582 78.889L188.454 77.6562L186.219 78.9534Z" fill="#09FAFA"/>
<path d="M189.182 77.2395L191.311 78.4727L193.545 77.1751L191.417 75.9423L189.182 77.2395Z" fill="#5384FC"/>
<path d="M183.166 84.048L185.295 85.2812L187.529 83.9836L185.401 82.7508L183.166 84.048Z" fill="#5384FC"/>
<path d="M186.13 82.3342L188.259 83.5674L190.493 82.2698L188.365 81.037L186.13 82.3342Z" fill="#5384FC"/>
<path d="M189.093 80.6203L191.222 81.8539L193.456 80.5558L191.328 79.3231L189.093 80.6203Z" fill="#5384FC"/>
<path d="M192.054 78.9064L194.182 80.1396L196.416 78.842L194.289 77.6092L192.054 78.9064Z" fill="#5384FC"/>
<path d="M195.016 77.1925L197.145 78.4257L199.379 77.128L197.251 75.8953L195.016 77.1925Z" fill="#5384FC"/>
<path d="M197.979 75.4785L200.108 76.7122L202.342 75.4141L200.214 74.1814L197.979 75.4785Z" fill="#5384FC"/>
<path d="M186.038 85.7149L188.167 86.9485L190.401 85.6505L188.273 84.4177L186.038 85.7149Z" fill="#5384FC"/>
<path d="M189.002 84.001L191.131 85.2342L193.365 83.9366L191.237 82.7038L189.002 84.001Z" fill="#5384FC"/>
<path d="M191.964 82.2871L194.092 83.5203L196.327 82.2227L194.199 80.9899L191.964 82.2871Z" fill="#5384FC"/>
<path d="M194.926 80.5732L197.055 81.8068L199.289 80.5088L197.161 79.276L194.926 80.5732Z" fill="#5384FC"/>
<path d="M197.889 78.8593L200.018 80.0925L202.252 78.7949L200.124 77.5621L197.889 78.8593Z" fill="#5384FC"/>
<path d="M200.851 77.1454L202.979 78.3786L205.213 77.081L203.085 75.8482L200.851 77.1454Z" fill="#5384FC"/>
<path d="M188.91 87.3817L191.038 88.6149L193.273 87.3173L191.145 86.0845L188.91 87.3817Z" fill="#5384FC"/>
<path d="M191.873 85.6679L194.002 86.9011L196.236 85.6034L194.108 84.3707L191.873 85.6679Z" fill="#5384FC"/>
<path d="M194.836 83.9539L196.965 85.1871L199.199 83.8895L197.071 82.6567L194.836 83.9539Z" fill="#5384FC"/>
<path d="M197.799 82.2401L199.928 83.4733L202.162 82.1757L200.034 80.9429L197.799 82.2401Z" fill="#5384FC"/>
<path d="M200.76 80.5261L202.888 81.7597L205.122 80.4617L202.995 79.2289L200.76 80.5261Z" fill="#09FAFA"/>
<path d="M191.783 89.0485L193.912 90.2817L196.146 88.9841L194.018 87.7513L191.783 89.0485Z" fill="#5384FC"/>
<path d="M194.746 87.3347L196.875 88.5679L199.109 87.2703L196.981 86.0375L194.746 87.3347Z" fill="#5384FC"/>
<path d="M197.709 85.6208L199.838 86.8544L202.072 85.5563L199.944 84.3236L197.709 85.6208Z" fill="#5384FC"/>
<path d="M200.67 83.9069L202.798 85.1401L205.033 83.8425L202.905 82.6097L200.67 83.9069Z" fill="#5384FC"/>
<path d="M203.633 82.193L205.762 83.4262L207.996 82.1286L205.868 80.8958L203.633 82.193Z" fill="#5384FC"/>
<path d="M134.126 21.5781C134.373 21.3255 134.661 21.0994 134.99 20.9091L162.284 5.09986C164.625 3.7433 167.51 3.74456 169.85 5.10239L242.763 47.333H246.622V73.3358C246.63 74.4179 246.101 75.5033 245.034 76.1213L217.879 91.8498C214.707 93.6876 210.799 93.6863 207.628 91.846L134.987 49.7716C133.669 49.0062 133.008 47.6711 133.001 46.333H133V20.243L134.126 21.5781Z" fill="#CDD7FC"/>
<path d="M134.987 23.7424L207.628 65.8168C208.147 66.1174 208.685 66.3641 209.237 66.5666V92.5956C208.685 92.3931 208.147 92.1468 207.629 91.8461L134.987 49.7713C133.669 49.0063 133.008 47.6708 133.002 46.3328H133V20.2832C133 21.628 133.662 22.9732 134.987 23.7424Z" fill="#DDE5F2"/>
<path d="M133.003 20.2448C133.003 20.2578 133 20.2704 133 20.2834V20.2417L133.003 20.2448Z" fill="#ABADBB"/>
<path d="M134.99 16.8259L162.284 1.01665C164.625 -0.339912 167.51 -0.338654 169.85 1.01917L245.036 44.5689C247.153 45.7974 247.152 48.865 245.034 50.0924L217.879 65.8208C214.707 67.6586 210.799 67.6573 207.628 65.817L134.987 23.7426C132.337 22.2042 132.338 18.3622 134.99 16.8259Z" fill="#F0F5FD"/>
<path d="M217.88 65.8208L218.95 65.2006V91.2296L217.88 91.8497C216.683 92.5432 215.381 92.9739 214.054 93.144V67.1146C215.381 66.945 216.683 66.5142 217.88 65.8208Z" fill="#DDE5F2"/>
<path d="M201.669 80.6778L140.132 45.0266V48.8955L201.669 84.5323V80.6778Z" fill="#5384FC"/>
<path d="M141.497 48.3542V45.8162L140.132 45.0268V48.8956L201.669 84.5325V83.2003L141.497 48.3542Z" fill="#FFFFFD"/>
<path d="M142.764 39.5134C143.41 39.8881 143.932 40.7958 143.93 41.5415C143.928 42.2871 143.403 42.5877 142.756 42.213C142.11 41.8383 141.588 40.9306 141.59 40.1849C141.592 39.4397 142.118 39.1391 142.764 39.5134Z" fill="#5384FC"/>
<path d="M161.658 50.4401C162.305 50.8149 162.827 51.7226 162.825 52.4682C162.822 53.2139 162.297 53.5145 161.651 53.1398C161.004 52.7651 160.482 51.8573 160.484 51.1117C160.486 50.3665 161.012 50.0658 161.658 50.4401Z" fill="#5384FC"/>
<path d="M199.447 72.3492C200.094 72.7234 200.616 73.6316 200.614 74.3773C200.612 75.1225 200.086 75.4231 199.44 75.0488C198.794 74.6741 198.271 73.7663 198.274 73.0207C198.276 72.2755 198.801 71.9744 199.447 72.3492Z" fill="#5384FC"/>
<path d="M142.756 36.0858C142.11 35.7111 141.588 34.8034 141.59 34.0577C141.592 33.3125 142.118 33.0115 142.764 33.3862C143.41 33.7609 143.932 34.6686 143.93 35.4143C143.928 36.1599 143.403 36.4601 142.756 36.0858Z" fill="#5384FC"/>
<path d="M147.487 36.1179C148.134 36.4926 148.656 37.4003 148.654 38.146C148.652 38.8916 148.126 39.1922 147.48 38.8175C146.834 38.4428 146.311 37.5351 146.313 36.7894C146.316 36.0442 146.841 35.7436 147.487 36.1179Z" fill="#5384FC"/>
<path d="M152.209 38.8496C152.856 39.2243 153.378 40.1321 153.376 40.8777C153.374 41.6234 152.848 41.9236 152.202 41.5493C151.556 41.1746 151.033 40.2668 151.035 39.5212C151.038 38.7759 151.563 38.4749 152.209 38.8496Z" fill="#5384FC"/>
<path d="M156.933 41.5813C157.579 41.956 158.102 42.8638 158.099 43.6094C158.097 44.3551 157.572 44.6557 156.926 44.281C156.279 43.9062 155.757 42.9985 155.759 42.2529C155.761 41.5076 156.287 41.2066 156.933 41.5813Z" fill="#5384FC"/>
<path d="M171.105 49.8053C171.752 50.1796 172.274 51.0878 172.272 51.8334C172.269 52.5787 171.744 52.8793 171.098 52.505C170.451 52.1303 169.929 51.2225 169.931 50.4769C169.933 49.7312 170.459 49.4306 171.105 49.8053Z" fill="#5384FC"/>
<path d="M175.829 52.5466C176.475 52.9209 176.997 53.8291 176.995 54.5747C176.993 55.3199 176.467 55.6205 175.821 55.2462C175.175 54.8715 174.653 53.9634 174.655 53.2181C174.657 52.4729 175.182 52.1719 175.829 52.5466Z" fill="#5384FC"/>
<path d="M185.276 58.0132C185.922 58.3879 186.444 59.2957 186.442 60.0413C186.44 60.7865 185.914 61.0872 185.268 60.7129C184.622 60.3381 184.1 59.4304 184.102 58.6848C184.104 57.9391 184.629 57.6385 185.276 58.0132Z" fill="#5384FC"/>
<path d="M189.999 60.7481C190.645 61.1228 191.167 62.0306 191.165 62.7762C191.163 63.5219 190.638 63.8225 189.991 63.4478C189.345 63.0731 188.823 62.1653 188.825 61.4197C188.827 60.6744 189.353 60.3734 189.999 60.7481Z" fill="#5384FC"/>
<path d="M199.447 66.222C200.094 66.5963 200.616 67.5045 200.614 68.2501C200.612 68.9953 200.086 69.296 199.44 68.9217C198.794 68.5469 198.271 67.6392 198.274 66.8936C198.276 66.1479 198.801 65.8473 199.447 66.222Z" fill="#5384FC"/>
<path d="M215.438 61.5754C214.624 62.047 213.697 62.2962 212.757 62.2962C211.815 62.2962 210.887 62.0466 210.068 61.5712L138.788 20.285L164.725 5.26223C165.132 5.02645 165.595 4.90183 166.065 4.90183C166.535 4.90183 166.999 5.02687 167.41 5.26518L240.033 47.3303L215.438 61.5754ZM245.036 44.5692L169.85 1.01951C168.679 0.339966 167.372 -0.000221252 166.065 0.000198364C164.76 0.000198364 163.454 0.339127 162.284 1.01656L134.99 16.8258C132.338 18.3622 132.336 22.2041 134.987 23.7425L207.628 65.8169C209.215 66.7377 210.986 67.1983 212.757 67.1983C214.525 67.1983 216.294 66.739 217.879 65.8207L245.035 50.0923C247.152 48.8654 247.153 45.7973 245.036 44.5692Z" fill="#FFFFFD"/>
<path d="M167.41 7.2054C167 6.96709 166.535 6.84205 166.065 6.84205C165.595 6.84205 165.132 6.96667 164.725 7.20245L140.462 21.2548L138.788 20.2847L164.725 5.26234C165.132 5.02657 165.595 4.90194 166.065 4.90194C166.535 4.90194 167 5.02657 167.41 5.26529L240.033 47.3304L238.358 48.3005L167.41 7.2054Z" fill="#CDD7FC"/>
<path d="M86.0707 97.8779C86.3055 97.6342 86.5786 97.4161 86.8911 97.2325L112.835 81.9808C115.061 80.6721 117.802 80.6733 120.027 81.9832L189.332 122.724H193V147.81C193.007 148.854 192.505 149.901 191.491 150.497L165.68 165.671C162.664 167.444 158.949 167.443 155.936 165.668L86.8887 125.077C85.6354 124.339 85.0072 123.051 85.0012 121.76H85V96.5899L86.0707 97.8779Z" fill="#CDD7FC"/>
<path d="M83.9875 97.7425L156.628 139.817C157.147 140.118 157.685 140.364 158.237 140.567V166.596C157.685 166.393 157.147 166.147 156.629 165.846L83.9875 123.771C82.6689 123.006 82.008 121.671 82.0017 120.333H82V94.2833C81.9996 95.6281 82.6622 96.9733 83.9875 97.7425Z" fill="#DDE5F2"/>
<path d="M79.0026 92.9565C79.0026 92.9695 79 92.9821 79 92.9951V92.9539L79.0026 92.9565Z" fill="#ABADBB"/>
<path d="M80.9896 89.5376L108.284 73.7284C110.625 72.3718 113.51 72.3731 115.85 73.7313L191.036 117.281C193.153 118.509 193.152 121.577 191.034 122.804L163.879 138.533C160.707 140.37 156.799 140.369 153.628 138.529L80.9871 96.4543C78.3366 94.9159 78.3378 91.074 80.9896 89.5376Z" fill="#071D4F"/>
<path d="M163.88 138.533L164.95 137.912V163.941L163.88 164.561C162.683 165.255 161.381 165.686 160.054 165.856V139.826C161.381 139.657 162.683 139.226 163.88 138.533Z" fill="#DDE5F2"/>
<path d="M147.669 153.39L86.132 117.738V121.607L147.669 157.244V153.39Z" fill="#5384FC"/>
<path d="M87.4967 121.066V118.528L86.132 117.739V121.607L147.669 157.244V155.912L87.4967 121.066Z" fill="#FFFFFD"/>
<path d="M88.7638 112.225C89.4101 112.6 89.9322 113.508 89.9301 114.253C89.928 114.999 89.4025 115.299 88.7562 114.925C88.11 114.55 87.5878 113.642 87.5899 112.897C87.592 112.151 88.1175 111.85 88.7638 112.225Z" fill="#5384FC"/>
<path d="M107.658 123.152C108.305 123.527 108.827 124.434 108.825 125.18C108.822 125.926 108.297 126.226 107.651 125.852C107.004 125.477 106.482 124.569 106.484 123.823C106.486 123.078 107.012 122.778 107.658 123.152Z" fill="#5384FC"/>
<path d="M145.447 145.061C146.094 145.436 146.616 146.343 146.614 147.089C146.612 147.835 146.086 148.135 145.44 147.76C144.794 147.386 144.271 146.478 144.274 145.732C144.276 144.987 144.801 144.686 145.447 145.061Z" fill="#5384FC"/>
<path d="M88.7562 108.798C88.11 108.423 87.5878 107.515 87.5899 106.77C87.592 106.024 88.1175 105.723 88.7638 106.098C89.4101 106.473 89.9322 107.38 89.9301 108.126C89.928 108.872 89.4025 109.172 88.7562 108.798Z" fill="#5384FC"/>
<path d="M93.4874 108.83C94.1336 109.204 94.6558 110.112 94.6537 110.858C94.6516 111.603 94.1261 111.904 93.4798 111.529C92.8335 111.155 92.3114 110.247 92.3135 109.501C92.3156 108.756 92.8411 108.455 93.4874 108.83Z" fill="#5384FC"/>
<path d="M98.2093 111.561C98.8556 111.936 99.3778 112.844 99.3757 113.59C99.3736 114.335 98.8481 114.635 98.2018 114.261C97.5555 113.886 97.0334 112.979 97.0355 112.233C97.0376 111.488 97.5631 111.187 98.2093 111.561Z" fill="#5384FC"/>
<path d="M102.933 114.293C103.579 114.668 104.102 115.575 104.099 116.321C104.097 117.067 103.572 117.367 102.926 116.993C102.279 116.618 101.757 115.71 101.759 114.965C101.761 114.219 102.287 113.919 102.933 114.293Z" fill="#5384FC"/>
<path d="M117.105 122.517C117.752 122.891 118.274 123.8 118.272 124.545C118.269 125.29 117.744 125.591 117.098 125.217C116.451 124.842 115.929 123.934 115.931 123.189C115.933 122.443 116.459 122.142 117.105 122.517Z" fill="#5384FC"/>
<path d="M121.829 125.258C122.475 125.633 122.997 126.541 122.995 127.286C122.993 128.032 122.467 128.332 121.821 127.958C121.175 127.583 120.653 126.676 120.655 125.93C120.657 125.185 121.182 124.884 121.829 125.258Z" fill="#5384FC"/>
<path d="M131.276 130.725C131.922 131.1 132.444 132.007 132.442 132.753C132.44 133.498 131.914 133.799 131.268 133.425C130.622 133.05 130.1 132.142 130.102 131.396C130.104 130.651 130.629 130.35 131.276 130.725Z" fill="#5384FC"/>
<path d="M135.999 133.46C136.645 133.835 137.167 134.742 137.165 135.488C137.163 136.234 136.638 136.534 135.991 136.159C135.345 135.785 134.823 134.877 134.825 134.131C134.827 133.386 135.353 133.085 135.999 133.46Z" fill="#5384FC"/>
<path d="M145.447 138.934C146.094 139.308 146.616 140.216 146.614 140.962C146.612 141.707 146.086 142.008 145.44 141.633C144.794 141.259 144.271 140.351 144.274 139.605C144.276 138.86 144.801 138.559 145.447 138.934Z" fill="#5384FC"/>
<path d="M161.438 134.287C160.624 134.759 159.697 135.008 158.757 135.008C157.815 135.008 156.887 134.758 156.068 134.283L84.7878 92.9967L110.725 77.9739C111.132 77.7381 111.595 77.6135 112.065 77.6135C112.535 77.6135 112.999 77.7385 113.41 77.9768L186.033 120.042L161.438 134.287ZM191.036 117.281L115.85 73.7312C114.679 73.0516 113.372 72.7119 112.065 72.7119C110.76 72.7119 109.454 73.0508 108.284 73.7282L80.9898 89.5375C78.338 91.0743 78.3363 94.9157 80.9873 96.4542L153.628 138.529C155.215 139.449 156.986 139.91 158.757 139.91C160.525 139.91 162.294 139.451 163.879 138.532L191.035 122.804C193.152 121.577 193.153 118.509 191.036 117.281Z" fill="#FFFFFD"/>
<path d="M113.41 79.9171C113 79.6788 112.535 79.5538 112.065 79.5538C111.595 79.5538 111.132 79.6784 110.725 79.9142L86.4623 93.9665L84.7877 92.9964L110.725 77.9741C111.132 77.7383 111.595 77.6137 112.065 77.6137C112.535 77.6137 113 77.7383 113.41 77.977L186.033 120.042L184.358 121.012L113.41 79.9171Z" fill="#CDD7FC"/>
<path d="M166.357 114.14L163.319 112.379L162.318 112.963L165.357 114.724L166.357 114.14Z" fill="#5384FC"/>
<path d="M166.58 115.765L162.033 113.129L161.033 113.713L165.58 116.349L166.58 115.765Z" fill="#09FAFA"/>
<path d="M165.295 116.515L160.748 113.879L159.747 114.463L164.294 117.098L165.295 116.515Z" fill="#5384FC"/>
<path d="M163.104 116.74L159.462 114.629L158.461 115.213L162.103 117.324L163.104 116.74Z" fill="#5384FC"/>
<path d="M160.452 116.697L158.177 115.379L157.177 115.963L159.451 117.281L160.452 116.697Z" fill="#5384FC"/>
<path d="M159.931 117.89L156.892 116.129L155.892 116.712L158.93 118.474L159.931 117.89Z" fill="#09FAFA"/>
<path d="M168.781 116.709L171.178 118.098L172.178 117.514L169.782 116.125L168.781 116.709Z" fill="#5384FC"/>
<path d="M171.454 118.259L176.785 121.349L177.786 120.765L172.454 117.675L171.454 118.259Z" fill="#5384FC"/>
<path d="M169.116 118.399L175.501 122.099L176.501 121.516L170.116 117.815L169.116 118.399Z" fill="#5384FC"/>
<path d="M170.115 120.473L171.116 119.889L167.211 117.626L166.21 118.209L170.115 120.473Z" fill="#5384FC"/>
<path d="M170.393 120.633L174.216 122.849L175.217 122.265L171.394 120.05L170.393 120.633Z" fill="#5384FC"/>
<path d="M168.201 120.858L172.929 123.599L173.93 123.015L169.202 120.275L168.201 120.858Z" fill="#5384FC"/>
<path d="M163.639 119.709L165.271 120.655L166.272 120.071L164.64 119.125L163.639 119.709Z" fill="#5384FC"/>
<path d="M165.549 120.815L171.645 124.349L172.646 123.765L166.55 120.232L165.549 120.815Z" fill="#09FAFA"/>
<path d="M163.355 119.875L162.354 120.458L167.76 123.592L168.761 123.009L163.355 119.875Z" fill="#5384FC"/>
<path d="M168.038 123.753L170.359 125.098L171.36 124.514L169.038 123.169L168.038 123.753Z" fill="#5384FC"/>
<path d="M154.247 121.137L151.208 119.376L150.208 119.96L153.246 121.721L154.247 121.137Z" fill="#5384FC"/>
<path d="M154.47 122.762L149.923 120.127L148.922 120.71L153.469 123.346L154.47 122.762Z" fill="#5384FC"/>
<path d="M153.184 123.512L148.637 120.876L147.637 121.46L152.184 124.095L153.184 123.512Z" fill="#09FAFA"/>
<path d="M147.352 121.626L146.351 122.21L149.993 124.321L150.993 123.737L147.352 121.626Z" fill="#5384FC"/>
<path d="M145.066 122.96L147.34 124.278L148.34 123.694L146.066 122.376L145.066 122.96Z" fill="#5384FC"/>
<path d="M143.78 123.709L146.819 125.471L147.82 124.887L144.781 123.126L143.78 123.709Z" fill="#09FAFA"/>
<path d="M156.672 123.706L159.069 125.095L160.07 124.511L157.673 123.123L156.672 123.706Z" fill="#5384FC"/>
<path d="M159.345 125.256L164.676 128.346L165.677 127.762L160.346 124.672L159.345 125.256Z" fill="#5384FC"/>
<path d="M157.005 125.396L163.39 129.096L164.39 128.513L158.006 124.812L157.005 125.396Z" fill="#5384FC"/>
<path d="M158.005 127.47L159.006 126.886L155.101 124.623L154.1 125.206L158.005 127.47Z" fill="#5384FC"/>
<path d="M158.281 127.63L162.104 129.846L163.105 129.262L159.282 127.047L158.281 127.63Z" fill="#09FAFA"/>
<path d="M156.091 127.855L160.819 130.596L161.82 130.012L157.092 127.272L156.091 127.855Z" fill="#5384FC"/>
<path d="M151.529 126.706L153.161 127.651L154.161 127.068L152.53 126.122L151.529 126.706Z" fill="#5384FC"/>
<path d="M153.439 127.812L159.535 131.346L160.535 130.762L154.44 127.229L153.439 127.812Z" fill="#5384FC"/>
<path d="M151.246 126.872L150.245 127.455L155.651 130.589L156.652 130.006L151.246 126.872Z" fill="#5384FC"/>
<path d="M155.929 130.75L158.25 132.095L159.251 131.511L156.93 130.166L155.929 130.75Z" fill="#09FAFA"/>
<path d="M116.22 85.0129L113.182 83.2517L112.181 83.8353L115.22 85.5964L116.22 85.0129Z" fill="#5384FC"/>
<path d="M116.441 86.6376L111.894 84.002L110.893 84.586L115.44 87.2212L116.441 86.6376Z" fill="#09FAFA"/>
<path d="M115.156 87.3873L110.609 84.7521L109.609 85.3356L114.155 87.9713L115.156 87.3873Z" fill="#5384FC"/>
<path d="M112.966 87.6123L109.324 85.5017L108.324 86.0852L111.965 88.1959L112.966 87.6123Z" fill="#5384FC"/>
<path d="M110.313 87.5695L108.039 86.2512L107.038 86.8352L109.312 88.1534L110.313 87.5695Z" fill="#5384FC"/>
<path d="M109.793 88.7624L106.754 87.0012L105.754 87.5848L108.792 89.3459L109.793 88.7624Z" fill="#09FAFA"/>
<path d="M118.643 87.5815L121.039 88.9705L122.04 88.3869L119.643 86.9979L118.643 87.5815Z" fill="#09FAFA"/>
<path d="M121.317 89.1313L126.648 92.2212L127.649 91.6376L122.317 88.5477L121.317 89.1313Z" fill="#5384FC"/>
<path d="M118.978 89.2712L125.363 92.9716L126.363 92.3881L119.979 88.6876L118.978 89.2712Z" fill="#5384FC"/>
<path d="M119.977 91.345L120.978 90.7615L117.073 88.498L116.072 89.0816L119.977 91.345Z" fill="#5384FC"/>
<path d="M120.253 91.5057L124.076 93.7216L125.077 93.1376L121.254 90.9222L120.253 91.5057Z" fill="#5384FC"/>
<path d="M118.063 91.7306L122.792 94.4711L123.792 93.8876L119.064 91.1471L118.063 91.7306Z" fill="#5384FC"/>
<path d="M113.503 90.5813L115.135 91.5273L116.136 90.9434L114.504 89.9973L113.503 90.5813Z" fill="#5384FC"/>
<path d="M115.411 91.6878L121.507 95.2211L122.508 94.6372L116.412 91.1043L115.411 91.6878Z" fill="#09FAFA"/>
<path d="M113.217 90.7473L112.216 91.3309L117.623 94.4646L118.623 93.8811L113.217 90.7473Z" fill="#5384FC"/>
<path d="M117.899 94.6252L120.221 95.9708L121.221 95.3873L118.9 94.0417L117.899 94.6252Z" fill="#5384FC"/>
<path d="M104.108 92.01L101.07 90.2488L100.069 90.8323L103.108 92.5939L104.108 92.01Z" fill="#09FAFA"/>
<path d="M104.331 93.6346L99.7842 90.999L98.7835 91.5829L103.331 94.2186L104.331 93.6346Z" fill="#5384FC"/>
<path d="M103.046 94.3844L98.4988 91.7488L97.4982 92.3327L102.045 94.9684L103.046 94.3844Z" fill="#5384FC"/>
<path d="M97.214 92.4986L96.2134 93.0822L99.8549 95.1932L100.856 94.6093L97.214 92.4986Z" fill="#5384FC"/>
<path d="M94.9286 93.8321L97.2025 95.1504L98.2032 94.5664L95.9293 93.2486L94.9286 93.8321Z" fill="#09FAFA"/>
<path d="M93.6426 94.582L96.6815 96.3431L97.6817 95.7596L94.6432 93.9984L93.6426 94.582Z" fill="#5384FC"/>
<path d="M106.533 94.5786L108.929 95.9675L109.93 95.384L107.533 93.995L106.533 94.5786Z" fill="#5384FC"/>
<path d="M109.206 96.1283L114.538 99.2182L115.538 98.6347L110.207 95.5447L109.206 96.1283Z" fill="#5384FC"/>
<path d="M106.867 96.2682L113.252 99.9686L114.252 99.3851L107.868 95.6846L106.867 96.2682Z" fill="#5384FC"/>
<path d="M107.867 98.342L108.868 97.7581L104.963 95.495L103.962 96.0786L107.867 98.342Z" fill="#09FAFA"/>
<path d="M108.144 98.5027L111.966 100.719L112.967 100.135L109.144 97.9192L108.144 98.5027Z" fill="#5384FC"/>
<path d="M105.953 98.7277L110.681 101.468L111.682 100.885L106.953 98.1437L105.953 98.7277Z" fill="#5384FC"/>
<path d="M101.392 97.5783L103.024 98.5239L104.024 97.9404L102.392 96.9943L101.392 97.5783Z" fill="#5384FC"/>
<path d="M103.301 98.6849L109.397 102.218L110.398 101.634L104.302 98.1013L103.301 98.6849Z" fill="#5384FC"/>
<path d="M101.108 97.7443L100.107 98.3279L105.513 101.462L106.514 100.878L101.108 97.7443Z" fill="#5384FC"/>
<path d="M105.79 101.622L108.111 102.968L109.112 102.384L106.79 101.039L105.79 101.622Z" fill="#09FAFA"/>
<path d="M111.934 105.047L114.063 106.28L116.297 104.983L114.169 103.75L111.934 105.047Z" fill="#5384FC"/>
<path d="M114.896 103.333L117.024 104.566L119.258 103.269L117.13 102.036L114.896 103.333Z" fill="#5384FC"/>
<path d="M117.859 101.619L119.988 102.852L122.222 101.555L120.094 100.322L117.859 101.619Z" fill="#5384FC"/>
<path d="M120.822 99.9053L122.951 101.138L125.185 99.8413L123.057 98.6081L120.822 99.9053Z" fill="#5384FC"/>
<path d="M123.784 98.1915L125.913 99.4247L128.147 98.1271L126.019 96.8943L123.784 98.1915Z" fill="#5384FC"/>
<path d="M126.748 96.4775L128.877 97.7107L131.111 96.4131L128.983 95.1803L126.748 96.4775Z" fill="#5384FC"/>
<path d="M114.805 106.714L116.934 107.947L119.168 106.649L117.04 105.417L114.805 106.714Z" fill="#5384FC"/>
<path d="M117.768 105L119.897 106.233L122.131 104.936L120.003 103.703L117.768 105Z" fill="#5384FC"/>
<path d="M120.731 103.286L122.86 104.519L125.094 103.222L122.966 101.989L120.731 103.286Z" fill="#5384FC"/>
<path d="M123.693 101.572L125.822 102.805L128.056 101.508L125.928 100.275L123.693 101.572Z" fill="#5384FC"/>
<path d="M126.655 99.8583L128.784 101.091L131.018 99.7939L128.89 98.5611L126.655 99.8583Z" fill="#5384FC"/>
<path d="M117.679 108.381L119.807 109.614L122.041 108.316L119.914 107.084L117.679 108.381Z" fill="#5384FC"/>
<path d="M120.641 106.667L122.77 107.9L125.004 106.602L122.876 105.37L120.641 106.667Z" fill="#5384FC"/>
<path d="M123.604 104.953L125.733 106.186L127.967 104.889L125.839 103.656L123.604 104.953Z" fill="#5384FC"/>
<path d="M126.566 103.239L128.695 104.472L130.929 103.175L128.801 101.942L126.566 103.239Z" fill="#5384FC"/>
<path d="M129.529 101.525L131.658 102.758L133.892 101.461L131.764 100.228L129.529 101.525Z" fill="#5384FC"/>
<path d="M132.491 99.8112L134.62 101.044L136.854 99.7468L134.726 98.514L132.491 99.8112Z" fill="#5384FC"/>
<path d="M120.55 110.048L122.679 111.281L124.913 109.984L122.785 108.75L120.55 110.048Z" fill="#5384FC"/>
<path d="M123.512 108.334L125.641 109.567L127.875 108.269L125.747 107.036L123.512 108.334Z" fill="#5384FC"/>
<path d="M126.475 106.62L128.604 107.853L130.838 106.555L128.71 105.323L126.475 106.62Z" fill="#5384FC"/>
<path d="M129.438 104.906L131.567 106.139L133.801 104.841L131.673 103.609L129.438 104.906Z" fill="#5384FC"/>
<path d="M132.4 103.192L134.529 104.425L136.763 103.127L134.635 101.895L132.4 103.192Z" fill="#5384FC"/>
<path d="M135.362 101.478L137.491 102.711L139.725 101.414L137.597 100.181L135.362 101.478Z" fill="#5384FC"/>
<path d="M123.421 111.714L125.55 112.948L127.784 111.65L125.656 110.417L123.421 111.714Z" fill="#5384FC"/>
<path d="M126.385 110L128.514 111.234L130.748 109.936L128.62 108.703L126.385 110Z" fill="#5384FC"/>
<path d="M129.347 108.287L131.476 109.52L133.71 108.222L131.582 106.989L129.347 108.287Z" fill="#5384FC"/>
<path d="M132.309 106.573L134.438 107.806L136.672 106.508L134.544 105.276L132.309 106.573Z" fill="#5384FC"/>
<path d="M135.273 104.859L137.402 106.092L139.636 104.794L137.508 103.562L135.273 104.859Z" fill="#5384FC"/>
<path d="M126.294 113.381L128.423 114.614L130.657 113.317L128.529 112.084L126.294 113.381Z" fill="#5384FC"/>
<path d="M129.257 111.667L131.386 112.901L133.62 111.603L131.492 110.37L129.257 111.667Z" fill="#5384FC"/>
<path d="M132.219 109.953L134.348 111.187L136.582 109.889L134.454 108.656L132.219 109.953Z" fill="#09FAFA"/>
<path d="M135.182 108.24L137.311 109.473L139.545 108.175L137.417 106.942L135.182 108.24Z" fill="#5384FC"/>
<path d="M129.166 115.048L131.295 116.281L133.529 114.984L131.401 113.751L129.166 115.048Z" fill="#5384FC"/>
<path d="M132.13 113.334L134.259 114.567L136.493 113.27L134.365 112.037L132.13 113.334Z" fill="#5384FC"/>
<path d="M135.093 111.62L137.222 112.854L139.456 111.556L137.328 110.323L135.093 111.62Z" fill="#5384FC"/>
<path d="M138.054 109.906L140.182 111.14L142.416 109.842L140.289 108.609L138.054 109.906Z" fill="#5384FC"/>
<path d="M141.016 108.192L143.145 109.426L145.379 108.128L143.251 106.895L141.016 108.192Z" fill="#5384FC"/>
<path d="M143.979 106.479L146.108 107.712L148.342 106.414L146.214 105.181L143.979 106.479Z" fill="#5384FC"/>
<path d="M132.038 116.715L134.167 117.948L136.401 116.65L134.273 115.418L132.038 116.715Z" fill="#5384FC"/>
<path d="M135.002 115.001L137.131 116.234L139.365 114.937L137.237 113.704L135.002 115.001Z" fill="#5384FC"/>
<path d="M137.964 113.287L140.092 114.52L142.327 113.223L140.199 111.99L137.964 113.287Z" fill="#5384FC"/>
<path d="M140.926 111.573L143.055 112.807L145.289 111.509L143.161 110.276L140.926 111.573Z" fill="#5384FC"/>
<path d="M143.889 109.859L146.018 111.093L148.252 109.795L146.124 108.562L143.889 109.859Z" fill="#5384FC"/>
<path d="M146.851 108.145L148.979 109.379L151.213 108.081L149.085 106.848L146.851 108.145Z" fill="#5384FC"/>
<path d="M134.91 118.382L137.038 119.615L139.273 118.317L137.145 117.084L134.91 118.382Z" fill="#5384FC"/>
<path d="M137.873 116.668L140.002 117.901L142.236 116.603L140.108 115.371L137.873 116.668Z" fill="#5384FC"/>
<path d="M140.836 114.954L142.965 116.187L145.199 114.89L143.071 113.657L140.836 114.954Z" fill="#5384FC"/>
<path d="M143.799 113.24L145.928 114.473L148.162 113.176L146.034 111.943L143.799 113.24Z" fill="#5384FC"/>
<path d="M146.76 111.526L148.888 112.76L151.122 111.462L148.995 110.229L146.76 111.526Z" fill="#09FAFA"/>
<path d="M137.783 120.049L139.912 121.282L142.146 119.984L140.018 118.751L137.783 120.049Z" fill="#5384FC"/>
<path d="M140.746 118.335L142.875 119.568L145.109 118.27L142.981 117.037L140.746 118.335Z" fill="#5384FC"/>
<path d="M143.709 116.621L145.838 117.854L148.072 116.556L145.944 115.324L143.709 116.621Z" fill="#5384FC"/>
<path d="M146.67 114.907L148.798 116.14L151.033 114.842L148.905 113.61L146.67 114.907Z" fill="#5384FC"/>
<path d="M149.633 113.193L151.762 114.426L153.996 113.129L151.868 111.896L149.633 113.193Z" fill="#5384FC"/>
<path d="M80.1265 52.5781C80.3735 52.3255 80.6608 52.0994 80.9896 51.9091L108.284 36.0999C110.625 34.7433 113.51 34.7446 115.85 36.1024L188.763 78.333H192.622V104.336C192.63 105.418 192.101 106.503 191.034 107.121L163.879 122.85C160.707 124.688 156.799 124.686 153.628 122.846L80.9871 80.7716C79.6685 80.0062 79.0075 78.6711 79.0013 77.333H79V51.243L80.1265 52.5781Z" fill="#CDD7FC"/>
<path d="M80.9875 54.7424L153.628 96.8168C154.147 97.1174 154.685 97.3641 155.237 97.5666V123.596C154.685 123.393 154.147 123.147 153.629 122.846L80.9875 80.7713C79.6689 80.0063 79.008 78.6708 79.0017 77.3328H79V51.2832C78.9996 52.628 79.6622 53.9732 80.9875 54.7424Z" fill="#DDE5F2"/>
<path d="M79.0026 51.2448C79.0026 51.2578 79 51.2704 79 51.2834V51.2417L79.0026 51.2448Z" fill="#ABADBB"/>
<path d="M80.9896 47.8259L108.284 32.0166C110.625 30.6601 113.51 30.6613 115.85 32.0192L191.036 75.5689C193.153 76.7974 193.152 79.865 191.034 81.0924L163.879 96.8208C160.707 98.6586 156.799 98.6573 153.628 96.817L80.9871 54.7426C78.3366 53.2042 78.3378 49.3622 80.9896 47.8259Z" fill="#F0F5FD"/>
<path d="M163.88 96.8208L164.95 96.2006V122.23L163.88 122.85C162.683 123.543 161.381 123.974 160.054 124.144V98.1146C161.381 97.945 162.683 97.5142 163.88 96.8208Z" fill="#DDE5F2"/>
<path d="M147.669 111.678L86.132 76.0266V79.8955L147.669 115.532V111.678Z" fill="#5384FC"/>
<path d="M87.4967 79.3542V76.8162L86.132 76.0268V79.8956L147.669 115.532V114.2L87.4967 79.3542Z" fill="#FFFFFD"/>
<path d="M88.7638 70.5134C89.4101 70.8881 89.9322 71.7958 89.9301 72.5415C89.928 73.2871 89.4025 73.5877 88.7562 73.213C88.11 72.8383 87.5878 71.9306 87.5899 71.1849C87.592 70.4397 88.1175 70.1391 88.7638 70.5134Z" fill="#5384FC"/>
<path d="M107.658 81.4401C108.305 81.8149 108.827 82.7226 108.825 83.4682C108.822 84.2139 108.297 84.5145 107.651 84.1398C107.004 83.7651 106.482 82.8573 106.484 82.1117C106.486 81.3665 107.012 81.0658 107.658 81.4401Z" fill="#5384FC"/>
<path d="M145.447 103.349C146.094 103.723 146.616 104.632 146.614 105.377C146.612 106.122 146.086 106.423 145.44 106.049C144.794 105.674 144.271 104.766 144.274 104.021C144.276 103.275 144.801 102.974 145.447 103.349Z" fill="#5384FC"/>
<path d="M88.7562 67.0858C88.11 66.7111 87.5878 65.8034 87.5899 65.0577C87.592 64.3125 88.1175 64.0115 88.7638 64.3862C89.4101 64.7609 89.9322 65.6686 89.9301 66.4143C89.928 67.1599 89.4025 67.4601 88.7562 67.0858Z" fill="#5384FC"/>
<path d="M93.4874 67.1179C94.1336 67.4926 94.6558 68.4003 94.6537 69.146C94.6516 69.8916 94.1261 70.1922 93.4798 69.8175C92.8335 69.4428 92.3114 68.5351 92.3135 67.7894C92.3156 67.0442 92.8411 66.7436 93.4874 67.1179Z" fill="#5384FC"/>
<path d="M98.2093 69.8496C98.8556 70.2243 99.3778 71.1321 99.3757 71.8777C99.3736 72.6234 98.8481 72.9236 98.2018 72.5493C97.5555 72.1746 97.0334 71.2668 97.0355 70.5212C97.0376 69.7759 97.5631 69.4749 98.2093 69.8496Z" fill="#5384FC"/>
<path d="M102.933 72.5813C103.579 72.956 104.102 73.8638 104.099 74.6094C104.097 75.3551 103.572 75.6557 102.926 75.281C102.279 74.9062 101.757 73.9985 101.759 73.2529C101.761 72.5076 102.287 72.2066 102.933 72.5813Z" fill="#5384FC"/>
<path d="M117.105 80.8053C117.752 81.1796 118.274 82.0878 118.272 82.8334C118.269 83.5787 117.744 83.8793 117.098 83.505C116.451 83.1303 115.929 82.2225 115.931 81.4769C115.933 80.7312 116.459 80.4306 117.105 80.8053Z" fill="#5384FC"/>
<path d="M121.829 83.5466C122.475 83.9209 122.997 84.8291 122.995 85.5747C122.993 86.3199 122.467 86.6205 121.821 86.2462C121.175 85.8715 120.653 84.9634 120.655 84.2181C120.657 83.4729 121.182 83.1719 121.829 83.5466Z" fill="#5384FC"/>
<path d="M131.276 89.0132C131.922 89.3879 132.444 90.2957 132.442 91.0413C132.44 91.7865 131.914 92.0872 131.268 91.7129C130.622 91.3381 130.1 90.4304 130.102 89.6848C130.104 88.9391 130.629 88.6385 131.276 89.0132Z" fill="#5384FC"/>
<path d="M135.999 91.7481C136.645 92.1228 137.167 93.0306 137.165 93.7762C137.163 94.5219 136.638 94.8225 135.991 94.4478C135.345 94.0731 134.823 93.1653 134.825 92.4197C134.827 91.6744 135.353 91.3734 135.999 91.7481Z" fill="#5384FC"/>
<path d="M145.447 97.222C146.094 97.5963 146.616 98.5045 146.614 99.2501C146.612 99.9953 146.086 100.296 145.44 99.9217C144.794 99.5469 144.271 98.6392 144.274 97.8936C144.276 97.1479 144.801 96.8473 145.447 97.222Z" fill="#5384FC"/>
<path d="M161.438 92.5754C160.624 93.047 159.697 93.2962 158.757 93.2962C157.815 93.2962 156.887 93.0466 156.068 92.5712L84.7878 51.285L110.725 36.2622C111.132 36.0265 111.595 35.9018 112.065 35.9018C112.535 35.9018 112.999 36.0269 113.41 36.2652L186.033 78.3303L161.438 92.5754ZM191.036 75.5692L115.85 32.0195C114.679 31.34 113.372 30.9998 112.065 31.0002C110.76 31.0002 109.454 31.3391 108.284 32.0166L80.9898 47.8258C78.338 49.3622 78.3363 53.2041 80.9873 54.7425L153.628 96.8169C155.215 97.7377 156.986 98.1983 158.757 98.1983C160.525 98.1983 162.294 97.739 163.879 96.8207L191.035 81.0923C193.152 79.8654 193.153 76.7973 191.036 75.5692Z" fill="#FFFFFD"/>
<path d="M113.41 38.2054C113 37.9671 112.535 37.842 112.065 37.842C111.595 37.842 111.132 37.9667 110.725 38.2024L86.4623 52.2548L84.7877 51.2847L110.725 36.2623C111.132 36.0266 111.595 35.9019 112.065 35.9019C112.535 35.9019 113 36.0266 113.41 36.2653L186.033 78.3304L184.358 79.3005L113.41 38.2054Z" fill="#CDD7FC"/>
<g opacity="0.2">
<path opacity="0.02" d="M306.866 120.921L347.292 142.33L248.676 199.264L208.25 177.855L306.866 120.921Z" fill="#F9FBFE"/>
<path opacity="0.05" d="M306.866 120.921L346.41 141.859L247.794 198.794L208.25 177.855L306.866 120.921Z" fill="#F3F8FD"/>
<path opacity="0.07" d="M306.866 120.921L345.508 141.389L246.912 198.323L208.25 177.855L306.866 120.921Z" fill="#EEF4FC"/>
<path opacity="0.1" d="M306.866 120.921L344.626 140.918L246.01 197.833L208.25 177.855L306.866 120.921Z" fill="#E8F0FB"/>
<path opacity="0.12" d="M306.866 120.921L343.744 140.428L245.128 197.363L208.25 177.855L306.866 120.921Z" fill="#E2ECFB"/>
<path opacity="0.15" d="M306.866 120.921L342.842 139.958L244.226 196.892L208.25 177.855L306.866 120.921Z" fill="#DCE9FA"/>
<path opacity="0.17" d="M306.866 120.921L341.96 139.487L243.344 196.422L208.25 177.855L306.866 120.921Z" fill="#D6E5F9"/>
<path opacity="0.2" d="M306.866 120.921L341.077 139.017L242.461 195.951L208.25 177.855L306.866 120.921Z" fill="#D0E1F8"/>
<path opacity="0.22" d="M306.866 120.921L340.175 138.546L241.579 195.481L208.25 177.855L306.866 120.921Z" fill="#CBDEF7"/>
<path opacity="0.24" d="M306.866 120.921L339.293 138.076L240.677 195.01L208.25 177.855L306.866 120.921Z" fill="#C5DAF6"/>
<path opacity="0.27" d="M306.866 120.921L338.411 137.605L239.795 194.52L208.25 177.855L306.866 120.921Z" fill="#BFD6F5"/>
<path opacity="0.29" d="M306.866 120.921L337.509 137.115L238.913 194.049L208.25 177.855L306.866 120.921Z" fill="#B9D3F4"/>
<path opacity="0.32" d="M306.866 120.921L336.627 136.644L238.011 193.579L208.25 177.855L306.866 120.921Z" fill="#B3CFF4"/>
<path opacity="0.34" d="M306.866 120.921L335.745 136.174L237.129 193.108L208.25 177.855L306.866 120.921Z" fill="#ADCBF3"/>
<path opacity="0.37" d="M306.866 120.921L334.862 135.703L236.246 192.638L208.25 177.855L306.866 120.921Z" fill="#A8C7F2"/>
<path opacity="0.39" d="M306.866 120.921L333.96 135.233L235.345 192.167L208.25 177.855L306.866 120.921Z" fill="#A2C4F1"/>
<path opacity="0.41" d="M306.866 120.921L333.078 134.762L234.462 191.697L208.25 177.855L306.866 120.921Z" fill="#9CC0F0"/>
<path opacity="0.44" d="M306.866 120.921L332.196 134.272L233.58 191.207L208.25 177.855L306.866 120.921Z" fill="#96BCEF"/>
<path opacity="0.46" d="M306.866 120.921L331.294 133.801L232.678 190.736L208.25 177.855L306.866 120.921Z" fill="#90B9EE"/>
<path opacity="0.49" d="M306.866 120.921L330.412 133.331L231.796 190.266L208.25 177.855L306.866 120.921Z" fill="#8AB5ED"/>
<path opacity="0.51" d="M306.866 120.921L329.51 132.86L230.914 189.795L208.25 177.855L306.866 120.921Z" fill="#85B1ED"/>
<path opacity="0.54" d="M306.866 120.921L328.628 132.39L230.012 189.324L208.25 177.855L306.866 120.921Z" fill="#7FADEC"/>
<path opacity="0.56" d="M306.866 120.921L327.746 131.919L229.13 188.854L208.25 177.855L306.866 120.921Z" fill="#79AAEB"/>
<path opacity="0.59" d="M306.866 120.921L326.863 131.429L228.247 188.383L208.25 177.855L306.866 120.921Z" fill="#73A6EA"/>
<path opacity="0.61" d="M306.866 120.921L325.961 130.959L227.345 187.893L208.25 177.855L306.866 120.921Z" fill="#6DA2E9"/>
<path opacity="0.63" d="M306.866 120.921L325.079 130.488L226.463 187.423L208.25 177.855L306.866 120.921Z" fill="#679FE8"/>
<path opacity="0.66" d="M306.866 120.921L324.197 130.018L225.581 186.952L208.25 177.855L306.866 120.921Z" fill="#629BE7"/>
<path opacity="0.68" d="M306.866 120.921L323.295 129.547L224.699 186.482L208.25 177.855L306.866 120.921Z" fill="#5C97E6"/>
<path opacity="0.71" d="M306.866 120.921L322.413 129.077L223.797 186.011L208.25 177.855L306.866 120.921Z" fill="#5693E6"/>
<path opacity="0.73" d="M306.866 120.921L321.531 128.606L222.915 185.541L208.25 177.855L306.866 120.921Z" fill="#5090E5"/>
<path opacity="0.76" d="M306.866 120.921L320.629 128.116L222.032 185.07L208.25 177.855L306.866 120.921Z" fill="#4A8CE4"/>
<path opacity="0.78" d="M306.866 120.921L319.746 127.645L221.131 184.58L208.25 177.855L306.866 120.921Z" fill="#4488E3"/>
<path opacity="0.8" d="M306.866 120.921L318.864 127.175L220.248 184.109L208.25 177.855L306.866 120.921Z" fill="#3F85E2"/>
<path opacity="0.83" d="M306.866 120.921L317.962 126.704L219.366 183.639L208.25 177.855L306.866 120.921Z" fill="#3981E1"/>
<path opacity="0.85" d="M306.866 120.921L317.08 126.234L218.464 183.168L208.25 177.855L306.866 120.921Z" fill="#337DE0"/>
<path opacity="0.88" d="M306.866 120.921L316.198 125.763L217.582 182.698L208.25 177.855L306.866 120.921Z" fill="#2D7ADF"/>
<path opacity="0.9" d="M306.866 120.921L315.296 125.293L216.7 182.227L208.25 177.855L306.866 120.921Z" fill="#2776DF"/>
<path opacity="0.93" d="M306.866 120.921L314.414 124.803L215.798 181.737L208.25 177.855L306.866 120.921Z" fill="#2172DE"/>
<path opacity="0.95" d="M306.866 120.921L313.532 124.332L214.916 181.267L208.25 177.855L306.866 120.921Z" fill="#1C6EDD"/>
<path opacity="0.98" d="M306.866 120.921L312.63 123.861L214.033 180.796L208.25 177.855L306.866 120.921Z" fill="#166BDC"/>
<path opacity="0.2" d="M306.866 120.921L311.747 123.391L213.131 180.325L208.25 177.855L306.866 120.921Z" fill="#1067DB"/>
</g>
<path d="M307.276 52.4972C307.276 51.5758 306.61 51.2033 305.826 51.6542L209.17 107.471C208.744 107.743 208.389 108.113 208.133 108.549C207.877 108.985 207.729 109.476 207.7 109.981V176.895C207.7 177.816 208.366 178.208 209.17 177.738L305.826 121.94C306.245 121.658 306.594 121.283 306.846 120.845C307.098 120.406 307.245 119.916 307.276 119.411V52.4972Z" fill="url(#paint0_linear_3118_39061)"/>
<path d="M211.68 109.157C211.257 109.43 210.904 109.801 210.652 110.237C210.4 110.673 210.255 111.163 210.229 111.667V177.13L305.826 121.94C306.246 121.658 306.595 121.283 306.847 120.845C307.098 120.406 307.245 119.916 307.277 119.411V53.9677L211.68 109.157Z" fill="#FEFEFF"/>
<path d="M220.601 116.921C220.308 117.112 220.065 117.37 219.891 117.674C219.718 117.977 219.618 118.317 219.601 118.666V163.759L247.539 147.31C247.829 147.12 248.07 146.866 248.244 146.566C248.417 146.266 248.518 145.93 248.539 145.584V100.492L220.601 116.921Z" fill="url(#paint1_linear_3118_39061)"/>
<path d="M251.205 100.217L305.218 69.0247V73.4752L251.205 104.668V100.217Z" fill="#D3DBF9"/>
<path d="M251.205 110.843L305.218 79.6509V84.121L251.205 115.313V110.843Z" fill="#D3DBF9"/>
<path d="M251.205 121.489L305.218 90.2968V94.7472L251.205 125.94V121.489Z" fill="#D3DBF9"/>
<path d="M251.205 132.135L281.574 114.706V119.156L251.205 136.586V132.135Z" fill="#D3DBF9"/>
<path style="mix-blend-mode:multiply" d="M171.836 197.368C181.161 191.991 196.422 191.991 205.747 197.368C215.073 202.746 215.073 211.562 205.747 216.959C196.422 222.357 181.161 222.337 171.836 216.959C162.51 211.582 162.51 202.756 171.836 197.368Z" fill="url(#paint2_radial_3118_39061)"/>
<path d="M211.957 199.024C211.957 198.524 211.262 198.132 210.409 198.132H207.098C206.56 198.132 205.649 198.71 205.512 198.534C205.374 198.358 205.365 197.917 205.756 197.692L208.088 196.34C208.695 195.997 204.855 196.154 204.248 195.811V192.872C203.909 192.701 203.535 192.612 203.156 192.612C202.776 192.612 202.402 192.701 202.064 192.872L199.703 194.224C199.269 194.451 198.766 194.507 198.292 194.381L197.313 194.146C196.823 194.038 196.5 193.764 196.5 193.46V191.501C196.5 191.011 195.804 190.61 194.952 190.61H189.565C188.712 190.61 188.017 191.011 188.017 191.501V193.401C188.017 193.724 187.664 193.989 187.155 194.097C186.832 194.175 186.508 194.244 186.175 194.332C185.685 194.468 185.163 194.419 184.706 194.195L182.355 192.853C182.016 192.684 181.642 192.596 181.263 192.596C180.884 192.596 180.51 192.684 180.171 192.853L179.887 196.026C179.289 196.379 175.773 195.968 176.38 196.31L178.741 197.662C179.113 197.878 179.221 198.201 179.015 198.475C178.809 198.75 177.947 198.103 177.418 198.103H174.078C173.226 198.103 172.53 198.505 172.53 198.994V203.53C172.53 204.02 173.226 204.411 174.078 204.411H176.037L175.988 208.153C175.978 208.215 175.978 208.278 175.988 208.339C176.017 208.457 176.072 208.568 176.148 208.662C176.224 208.757 176.32 208.834 176.429 208.888L180.249 211.072C180.665 211.286 181.137 211.368 181.601 211.307C181.881 211.287 182.154 211.211 182.404 211.082L184.755 209.72C185.191 209.499 185.692 209.443 186.166 209.564L187.145 209.799C187.635 209.907 187.948 210.181 187.958 210.485V212.444C187.958 212.933 188.654 213.335 189.506 213.335H194.893C195.755 213.335 196.441 212.943 196.441 212.444V210.543C196.441 210.23 196.794 209.956 197.303 209.848L198.214 209.632C198.703 209.491 199.228 209.54 199.683 209.769L202.024 211.111C202.274 211.24 202.547 211.317 202.828 211.337C203.291 211.388 203.76 211.307 204.179 211.102L207.98 208.907C208.085 208.856 208.177 208.784 208.251 208.694C208.326 208.605 208.38 208.5 208.411 208.388V208.261L208.362 204.441H210.321C211.173 204.441 211.869 204.039 211.869 203.549L211.957 199.024ZM199.771 202.795C198.87 205.538 193.894 207.086 189.506 206.106C186.136 205.352 184.079 203.255 184.745 201.208C185.646 198.465 190.622 196.918 195.011 197.897C198.381 198.661 200.438 200.758 199.771 202.795Z" fill="#1067DB"/>
<path d="M208.559 193.871V191.432H205.062L204.288 190.992C203.95 190.818 203.576 190.727 203.196 190.727C202.816 190.727 202.442 190.818 202.104 190.992L201.33 191.432H196.501V189.708C196.501 189.219 195.805 188.817 194.953 188.817H189.566C188.713 188.817 188.018 189.219 188.018 189.708V191.481H183.12L182.366 191.06C182.028 190.887 181.654 190.796 181.274 190.796C180.894 190.796 180.519 190.887 180.182 191.06L179.447 191.481H175.94V193.862C175.942 194.003 175.985 194.141 176.066 194.258C176.146 194.375 176.259 194.466 176.391 194.518L178.751 195.87H205.748L208.079 194.518C208.194 194.466 208.295 194.387 208.373 194.288C208.451 194.19 208.505 194.074 208.53 193.95L208.559 193.871Z" fill="#1067DB"/>
<path d="M206.188 200.16H210.419C211.271 200.16 211.967 199.759 211.967 199.269V196.164C211.967 195.674 211.271 195.272 210.419 195.272H207.108C206.883 195.289 206.656 195.252 206.447 195.166C206.237 195.079 206.051 194.944 205.904 194.773C205.786 194.596 205.659 194.42 205.522 194.244C205.296 193.96 205.375 193.627 205.766 193.401L208.098 192.05C208.232 192.008 208.349 191.925 208.432 191.812C208.515 191.699 208.56 191.563 208.56 191.423C208.56 191.282 208.515 191.146 208.432 191.033C208.349 190.92 208.232 190.837 208.098 190.796L204.287 188.601C203.949 188.43 203.575 188.341 203.195 188.341C202.816 188.341 202.442 188.43 202.103 188.601L199.742 189.953C199.308 190.18 198.805 190.236 198.332 190.11L197.352 189.875C196.862 189.767 196.539 189.493 196.539 189.189V187.23C196.539 186.74 195.844 186.339 194.991 186.339H189.604C188.752 186.339 188.056 186.74 188.056 187.23V189.13C188.056 189.454 187.704 189.718 187.194 189.826C186.871 189.904 186.548 189.973 186.215 190.061C185.725 190.197 185.202 190.148 184.745 189.924L182.394 188.631C182.055 188.462 181.681 188.374 181.302 188.374C180.923 188.374 180.549 188.462 180.21 188.631L176.409 190.835C175.802 191.178 175.812 191.746 176.409 192.089L178.77 193.44C179.142 193.656 179.25 193.979 179.044 194.253C178.839 194.528 178.76 194.655 178.633 194.841C178.484 195.004 178.299 195.129 178.094 195.209C177.888 195.289 177.667 195.321 177.448 195.302H174.107C173.255 195.302 172.56 195.703 172.56 196.193V199.298C172.56 199.788 173.255 200.18 174.107 200.18H177.418C177.645 200.16 177.872 200.195 178.082 200.282C178.292 200.369 178.477 200.505 178.623 200.679C178.742 200.859 178.869 201.032 179.005 201.198C179.24 201.483 179.152 201.825 178.77 202.041L176.449 203.422C176.316 203.466 176.201 203.551 176.119 203.665C176.037 203.778 175.993 203.914 175.993 204.054C175.993 204.194 176.037 204.33 176.119 204.443C176.201 204.557 176.316 204.641 176.449 204.686L180.269 206.87C180.607 207.041 180.982 207.131 181.361 207.131C181.741 207.131 182.115 207.041 182.453 206.87L184.804 205.508C185.24 205.287 185.741 205.231 186.215 205.352L187.194 205.587C187.684 205.695 187.997 205.969 188.007 206.273V208.232C188.007 208.721 188.703 209.123 189.555 209.123H194.942C195.804 209.123 196.49 208.731 196.49 208.232V206.263C196.49 205.949 196.843 205.675 197.352 205.567L198.263 205.352C198.753 205.21 199.278 205.259 199.732 205.489L202.074 206.831C202.415 207 202.79 207.088 203.171 207.088C203.551 207.088 203.927 207 204.268 206.831L208.068 204.637C208.201 204.592 208.316 204.508 208.398 204.394C208.48 204.281 208.524 204.145 208.524 204.005C208.524 203.865 208.48 203.729 208.398 203.616C208.316 203.502 208.201 203.417 208.068 203.373L205.708 202.021C205.335 201.806 205.228 201.483 205.433 201.208C205.815 200.748 206.178 200.19 206.188 200.16ZM184.745 196.937C185.647 194.195 190.623 192.647 195.011 193.627C198.381 194.381 200.438 196.477 199.772 198.524C198.87 201.267 193.894 202.815 189.506 201.835C186.136 201.071 184.079 198.975 184.745 196.937Z" fill="#1CA2F9"/>
<defs>
<linearGradient id="paint0_linear_3118_39061" x1="207.7" y1="114.706" x2="307.276" y2="114.706" gradientUnits="userSpaceOnUse">
<stop stop-color="#1067DB"/>
<stop offset="1" stop-color="#1CA2F9"/>
</linearGradient>
<linearGradient id="paint1_linear_3118_39061" x1="11067.8" y1="11293.7" x2="11494.9" y2="11293.7" gradientUnits="userSpaceOnUse">
<stop stop-color="#1067DB"/>
<stop offset="1" stop-color="#1CA2F9"/>
</linearGradient>
<radialGradient id="paint2_radial_3118_39061" cx="0" cy="0" r="1" gradientUnits="userSpaceOnUse" gradientTransform="translate(188.792 229.491) scale(24.2144 12.5915)">
<stop stop-color="#1067DB"/>
<stop offset="0.16" stop-color="#4F8FE5"/>
<stop offset="0.33" stop-color="#8DB7EE"/>
<stop offset="0.48" stop-color="#BED6F5"/>
<stop offset="0.62" stop-color="#E2ECFB"/>
<stop offset="0.73" stop-color="#F7FAFE"/>
<stop offset="0.8" stop-color="white"/>
</radialGradient>
</defs>
</svg>
