<svg width="373" height="310" viewBox="0 0 373 310" fill="none" xmlns="http://www.w3.org/2000/svg">
<path d="M185.684 309.049L1.62137 202.726C-0.772823 201.346 -0.482623 198.877 2.27432 197.279L172.189 98.8718C174.946 97.2741 179.227 97.0562 181.621 98.5087L365.611 204.832C368.005 206.212 367.715 208.681 364.958 210.279L195.115 308.686C192.358 310.284 188.078 310.429 185.684 309.049Z" fill="#F8FBFD"/>
<path d="M191.452 297.484L7.38943 191.175C4.99524 189.795 5.28544 187.327 8.04239 185.729L177.957 87.3356C180.714 85.738 184.995 85.5202 187.389 86.9725L371.379 193.281C373.773 194.661 373.483 197.13 370.726 198.727L200.883 297.121C198.126 298.718 193.846 298.936 191.452 297.484Z" fill="#F0F5FD"/>
<g clip-path="url(#clip0_3119_58145)">
<path d="M141.901 171.485C140.208 173.045 140.88 176.593 143.461 179.55C146.041 182.507 149.509 183.421 151.229 181.862C152.95 180.303 152.251 176.727 149.67 173.797C147.09 170.867 143.622 169.926 141.901 171.485Z" fill="#292A2F"/>
<path d="M180.098 195.549C178.405 197.108 179.077 200.657 181.657 203.614C184.238 206.571 187.706 207.485 189.426 205.926C191.147 204.366 190.448 200.791 187.867 197.861C185.286 194.931 181.819 193.99 180.098 195.549Z" fill="#292A2F"/>
<path d="M149.622 175.227C149.622 175.227 149.468 173.595 151.686 173.595L149.237 171.239L148.652 173.965L149.622 175.227Z" fill="#6B8FA6"/>
<path d="M188.197 199.173C188.197 199.173 188.043 197.54 190.261 197.54L187.828 195.231L187.227 197.941L188.197 199.173Z" fill="#6B8FA6"/>
<path d="M151.832 212.737C150.139 214.297 150.811 217.845 153.392 220.802C155.972 223.759 159.44 224.673 161.161 223.114C162.881 221.555 162.182 217.979 159.601 215.049C157.021 212.119 153.553 211.178 151.832 212.737Z" fill="#292A2F"/>
<path d="M159.355 215.896C159.355 215.896 159.201 214.264 161.419 214.264L158.986 211.938L158.385 214.664L159.355 215.896Z" fill="#6B8FA6"/>
<path d="M117.285 193.752C117.285 193.752 117.131 192.12 119.348 192.12L116.9 189.795L116.314 192.52L117.285 193.752Z" fill="#6B8FA6"/>
<path d="M109.484 190.574C107.791 192.133 108.463 195.681 111.044 198.639C113.624 201.596 117.092 202.51 118.813 200.95C120.533 199.391 119.834 195.816 117.253 192.886C114.673 189.956 111.205 189.015 109.484 190.574Z" fill="#292A2F"/>
<path d="M112.142 161.815C112.322 161.474 112.63 161.218 112.998 161.104C113.366 160.99 113.764 161.027 114.105 161.207C114.446 161.386 114.702 161.694 114.816 162.062C114.93 162.431 114.893 162.829 114.714 163.17C111.634 168.975 107.707 178.246 108.662 180.663C110.202 184.759 112.281 185.807 117.131 188.07L162.558 212C168.333 214.649 174.569 214.803 179.174 212.462L190.43 205.856C191.739 205.04 193.325 203.746 193.356 202.176C193.356 200.898 192.324 199.45 190.43 198.172L188.198 196.801V202.468C188.198 204.147 186.827 204.732 185.118 203.762C184.263 203.251 183.54 202.548 183.005 201.709C182.471 200.869 182.139 199.917 182.038 198.926C181.984 198.642 182.012 198.347 182.118 198.078C182.223 197.808 182.403 197.573 182.637 197.401C182.87 197.229 183.147 197.126 183.436 197.104C183.725 197.083 184.015 197.143 184.271 197.279V194.43L149.577 173.118V178.523C149.577 180.201 148.206 180.786 146.497 179.816C145.641 179.308 144.916 178.605 144.382 177.765C143.847 176.926 143.516 175.972 143.417 174.981C143.365 174.695 143.394 174.401 143.502 174.131C143.61 173.861 143.792 173.627 144.027 173.457C144.262 173.286 144.541 173.185 144.831 173.166C145.121 173.147 145.41 173.21 145.666 173.349V170.746L145.25 170.5C140.846 167.867 136.673 165.372 138.397 160.229C139.937 155.44 144.049 144.599 144.095 144.491C144.23 144.132 144.502 143.841 144.851 143.682C145.201 143.523 145.599 143.509 145.958 143.644C146.137 143.709 146.302 143.809 146.442 143.939C146.582 144.068 146.694 144.224 146.773 144.398C146.852 144.571 146.896 144.759 146.901 144.949C146.907 145.14 146.874 145.33 146.805 145.507C146.805 145.615 142.724 156.41 141.138 161.153C140.245 163.832 141.97 165.157 146.744 168.005C147.56 168.498 148.422 169.006 149.284 169.545L191.924 195.723C195.497 198.141 196.205 200.59 196.174 202.222C196.143 203.854 195.373 206.133 191.847 208.381L180.483 215.049C177.765 216.392 174.767 217.073 171.736 217.036C168.095 217.001 164.504 216.187 161.203 214.649L159.278 213.632V219.176C159.278 220.87 157.908 221.455 156.198 220.47C155.344 219.963 154.621 219.262 154.086 218.425C153.551 217.588 153.22 216.638 153.119 215.65C153.063 215.363 153.089 215.066 153.196 214.794C153.302 214.521 153.484 214.285 153.72 214.112C153.956 213.939 154.236 213.837 154.527 213.818C154.819 213.798 155.11 213.862 155.367 214.002V211.6L117.285 191.412V197.032C117.285 198.726 115.915 199.311 114.206 198.326C113.349 197.822 112.624 197.122 112.088 196.285C111.553 195.447 111.223 194.495 111.126 193.506C111.07 193.219 111.096 192.922 111.203 192.65C111.309 192.378 111.491 192.141 111.727 191.968C111.963 191.796 112.243 191.693 112.534 191.674C112.826 191.654 113.117 191.718 113.374 191.858V189.502C111.673 188.797 110.135 187.749 108.856 186.425C107.576 185.1 106.583 183.527 105.936 181.803C104.181 177.199 110.802 164.34 112.142 161.815Z" fill="#016FD5"/>
<path d="M131.652 81.1242C131.925 80.7755 132.273 80.4932 132.67 80.2985C133.068 80.1038 133.504 80.0018 133.947 80.0001C134.588 79.9941 135.212 80.2059 135.718 80.6007C140.378 84.4547 143.526 89.833 144.603 95.7841L145.142 101.02C145.211 101.784 144.977 102.545 144.49 103.138C144.003 103.732 143.302 104.11 142.539 104.192H142.247C141.527 104.191 140.834 103.923 140.301 103.439C139.769 102.955 139.436 102.29 139.367 101.574L138.859 96.5232C137.984 92.1043 135.626 88.1167 132.176 85.2204C131.871 84.9866 131.616 84.6949 131.425 84.3621C131.234 84.0293 131.11 83.662 131.062 83.2812C131.013 82.9005 131.04 82.514 131.142 82.1438C131.243 81.7736 131.416 81.4271 131.652 81.1242Z" fill="#016FD5"/>
<path d="M204.12 165.495C204.248 165.492 204.373 165.457 204.483 165.392C204.594 165.327 204.686 165.236 204.751 165.126C204.846 164.96 204.872 164.764 204.823 164.579C204.774 164.394 204.654 164.237 204.489 164.14L144.218 128.584C144.137 128.534 144.048 128.501 143.954 128.486C143.861 128.472 143.765 128.476 143.673 128.499C143.581 128.522 143.495 128.563 143.419 128.62C143.343 128.677 143.28 128.748 143.232 128.83C143.136 128.998 143.11 129.197 143.159 129.384C143.208 129.571 143.328 129.732 143.494 129.831L203.75 165.388C203.86 165.46 203.989 165.498 204.12 165.495Z" fill="#A1DAF7"/>
<path d="M205.752 151.729C205.877 151.729 206 151.698 206.11 151.639C206.22 151.58 206.314 151.494 206.383 151.39C206.481 151.224 206.509 151.026 206.463 150.839C206.417 150.652 206.3 150.491 206.137 150.389L143.17 112.477C143.089 112.428 142.998 112.396 142.904 112.383C142.809 112.369 142.713 112.374 142.621 112.398C142.529 112.422 142.442 112.463 142.366 112.52C142.29 112.577 142.226 112.649 142.177 112.731C142.129 112.813 142.097 112.903 142.083 112.997C142.07 113.092 142.075 113.188 142.099 113.28C142.122 113.372 142.164 113.459 142.221 113.535C142.278 113.611 142.349 113.675 142.431 113.724L205.382 151.636C205.496 151.696 205.623 151.727 205.752 151.729Z" fill="#A1DAF7"/>
<path d="M155.89 151.22C156.082 151.22 156.266 151.144 156.401 151.009C156.537 150.873 156.613 150.689 156.613 150.497L156.352 104.592C156.352 104.498 156.333 104.405 156.296 104.318C156.26 104.231 156.206 104.152 156.139 104.086C156.071 104.02 155.991 103.968 155.904 103.934C155.816 103.899 155.722 103.882 155.628 103.884C155.436 103.884 155.252 103.96 155.116 104.096C154.98 104.232 154.904 104.416 154.904 104.608L155.166 150.497C155.166 150.689 155.242 150.873 155.378 151.009C155.514 151.144 155.698 151.22 155.89 151.22Z" fill="#A1DAF7"/>
<path d="M192.632 184.79C192.871 184.789 193.103 184.71 193.293 184.564C193.483 184.419 193.619 184.215 193.682 183.985C193.745 183.754 193.731 183.509 193.641 183.288C193.552 183.066 193.392 182.88 193.187 182.758L135.225 149.296C135.099 149.224 134.959 149.178 134.815 149.16C134.671 149.142 134.525 149.152 134.384 149.191C134.244 149.23 134.113 149.295 133.998 149.385C133.884 149.474 133.788 149.585 133.716 149.711C133.644 149.838 133.598 149.977 133.58 150.121C133.562 150.266 133.573 150.412 133.611 150.552C133.65 150.692 133.716 150.823 133.805 150.938C133.894 151.053 134.005 151.149 134.132 151.22L192.093 184.636C192.254 184.739 192.442 184.792 192.632 184.79Z" fill="#68C6E3"/>
<path d="M158.431 189.841C158.56 189.843 158.688 189.811 158.801 189.749L190.877 171.147C191.043 171.047 191.163 170.887 191.212 170.7C191.261 170.512 191.235 170.314 191.139 170.146C191.042 169.981 190.884 169.861 190.7 169.812C190.515 169.763 190.319 169.789 190.153 169.884L158.077 188.486C157.993 188.534 157.92 188.598 157.861 188.674C157.803 188.751 157.76 188.838 157.736 188.931C157.711 189.024 157.706 189.122 157.719 189.217C157.733 189.312 157.766 189.404 157.815 189.487C157.876 189.596 157.966 189.686 158.074 189.749C158.183 189.811 158.306 189.843 158.431 189.841Z" fill="#68C6E3"/>
<path d="M108.277 133.912C108.401 133.913 108.523 133.881 108.631 133.82L143.171 113.801C143.336 113.703 143.456 113.543 143.504 113.357C143.551 113.171 143.523 112.973 143.425 112.808C143.327 112.642 143.167 112.523 142.981 112.475C142.795 112.427 142.597 112.456 142.432 112.554L107.861 132.572C107.696 132.669 107.576 132.826 107.527 133.011C107.478 133.196 107.504 133.392 107.599 133.558C107.669 133.673 107.769 133.767 107.889 133.829C108.008 133.892 108.142 133.92 108.277 133.912Z" fill="#A1DAF7"/>
<path d="M110.617 148.864C110.746 148.863 110.872 148.831 110.986 148.772L144.217 129.831C144.382 129.735 144.502 129.577 144.551 129.392C144.6 129.208 144.574 129.011 144.479 128.846C144.434 128.761 144.373 128.687 144.298 128.627C144.224 128.567 144.138 128.522 144.046 128.497C143.954 128.471 143.857 128.464 143.762 128.476C143.667 128.488 143.576 128.52 143.494 128.569L110.263 147.509C110.098 147.606 109.978 147.763 109.929 147.948C109.88 148.133 109.906 148.329 110.001 148.495C110.061 148.606 110.15 148.698 110.259 148.763C110.367 148.828 110.491 148.863 110.617 148.864Z" fill="#A1DAF7"/>
<path d="M123.799 169.807C123.923 169.808 124.045 169.776 124.153 169.715L156.26 151.236C156.426 151.136 156.546 150.976 156.595 150.789C156.644 150.602 156.618 150.403 156.522 150.235C156.425 150.07 156.267 149.95 156.083 149.901C155.898 149.852 155.702 149.878 155.536 149.973L123.429 168.452C123.288 168.531 123.178 168.655 123.115 168.804C123.053 168.952 123.042 169.118 123.084 169.274C123.127 169.43 123.22 169.567 123.35 169.663C123.479 169.76 123.637 169.811 123.799 169.807Z" fill="#68C6E3"/>
<path d="M179.636 164.91C179.822 164.91 180.002 164.838 180.137 164.709C180.272 164.58 180.351 164.404 180.359 164.217L182.484 121.47C182.49 121.374 182.476 121.279 182.444 121.19C182.412 121.1 182.363 121.017 182.3 120.947C182.236 120.876 182.159 120.818 182.073 120.777C181.987 120.736 181.894 120.712 181.799 120.707C181.704 120.702 181.609 120.716 181.519 120.748C181.43 120.779 181.347 120.828 181.276 120.892C181.205 120.956 181.148 121.033 181.107 121.119C181.066 121.204 181.042 121.298 181.037 121.393L178.912 164.155C178.908 164.251 178.922 164.345 178.955 164.435C178.988 164.524 179.038 164.606 179.102 164.676C179.166 164.747 179.244 164.803 179.33 164.843C179.416 164.883 179.51 164.906 179.605 164.91H179.636Z" fill="#A1DAF7"/>
<path d="M124.677 156.718H124.8C124.894 156.703 124.984 156.669 125.065 156.619C125.147 156.569 125.217 156.504 125.273 156.427C125.329 156.349 125.369 156.262 125.39 156.169C125.412 156.076 125.416 155.98 125.4 155.886L118.517 110.028C118.504 109.935 118.472 109.845 118.424 109.764C118.375 109.683 118.311 109.612 118.235 109.556C118.159 109.5 118.073 109.46 117.981 109.438C117.889 109.416 117.794 109.412 117.701 109.427C117.513 109.458 117.344 109.56 117.229 109.712C117.114 109.864 117.063 110.054 117.085 110.244L123.953 156.102C123.982 156.273 124.07 156.429 124.203 156.541C124.335 156.654 124.503 156.717 124.677 156.718Z" fill="#A1DAF7"/>
<path d="M134.686 150.959C134.875 150.932 135.047 150.834 135.167 150.686C135.287 150.537 135.346 150.348 135.332 150.158L130.528 103.484C130.518 103.388 130.49 103.296 130.444 103.212C130.399 103.127 130.337 103.053 130.263 102.993C130.188 102.933 130.102 102.888 130.011 102.861C129.919 102.834 129.822 102.826 129.727 102.837C129.536 102.86 129.362 102.957 129.242 103.106C129.121 103.256 129.063 103.446 129.08 103.638L134.039 150.312C134.056 150.478 134.129 150.632 134.247 150.75C134.365 150.868 134.52 150.942 134.686 150.959Z" fill="#A1DAF7"/>
<path d="M168.378 157.888C168.473 157.89 168.566 157.873 168.654 157.839C168.742 157.804 168.822 157.752 168.889 157.686C168.957 157.62 169.01 157.542 169.047 157.455C169.083 157.368 169.102 157.274 169.102 157.18L170.072 113.493C170.076 113.397 170.061 113.302 170.027 113.212C169.994 113.123 169.942 113.041 169.876 112.972C169.81 112.903 169.73 112.848 169.642 112.811C169.554 112.773 169.46 112.754 169.364 112.754C169.175 112.754 168.993 112.828 168.857 112.96C168.722 113.093 168.644 113.273 168.64 113.462L167.67 157.149C167.666 157.245 167.681 157.34 167.715 157.43C167.749 157.519 167.8 157.601 167.866 157.67C167.932 157.739 168.012 157.794 168.1 157.832C168.188 157.869 168.283 157.888 168.378 157.888Z" fill="#A1DAF7"/>
<path d="M181.776 191.058C181.969 191.061 182.159 191.013 182.327 190.919C182.495 190.824 182.634 190.686 182.731 190.519C182.808 190.392 182.859 190.251 182.88 190.104C182.902 189.957 182.894 189.808 182.856 189.664C182.819 189.52 182.753 189.386 182.663 189.268C182.572 189.15 182.459 189.052 182.33 188.979L124.338 155.578C124.213 155.496 124.073 155.441 123.926 155.416C123.779 155.391 123.628 155.397 123.483 155.433C123.339 155.469 123.203 155.535 123.085 155.626C122.967 155.718 122.869 155.832 122.798 155.963C122.719 156.09 122.666 156.231 122.644 156.378C122.621 156.525 122.628 156.676 122.666 156.82C122.703 156.964 122.77 157.099 122.862 157.217C122.953 157.334 123.068 157.432 123.198 157.503L181.145 190.965C181.343 191.054 181.561 191.086 181.776 191.058Z" fill="#68C6E3"/>
<path d="M147.421 183.42C147.549 183.418 147.676 183.387 147.79 183.327L180.005 164.848C180.17 164.752 180.29 164.594 180.339 164.41C180.388 164.225 180.362 164.029 180.267 163.863C180.22 163.78 180.158 163.707 180.083 163.648C180.008 163.589 179.923 163.546 179.831 163.52C179.74 163.494 179.644 163.487 179.55 163.498C179.455 163.509 179.364 163.539 179.281 163.586L147.066 182.018C146.984 182.065 146.911 182.127 146.852 182.202C146.793 182.277 146.749 182.362 146.724 182.454C146.698 182.545 146.69 182.641 146.702 182.735C146.713 182.83 146.743 182.921 146.789 183.004C146.849 183.123 146.938 183.223 147.049 183.296C147.16 183.369 147.288 183.412 147.421 183.42Z" fill="#68C6E3"/>
<path d="M135.949 176.783C136.073 176.783 136.195 176.752 136.303 176.69L168.749 157.796C168.888 157.685 168.982 157.528 169.015 157.353C169.047 157.178 169.016 156.998 168.926 156.844C168.836 156.691 168.694 156.575 168.526 156.518C168.358 156.461 168.174 156.466 168.01 156.533L135.579 175.443C135.415 175.539 135.295 175.697 135.246 175.882C135.197 176.066 135.222 176.263 135.318 176.429C135.384 176.537 135.476 176.626 135.587 176.688C135.698 176.75 135.822 176.783 135.949 176.783Z" fill="#68C6E3"/>
<path d="M112.927 164.233C113.182 164.234 113.432 164.164 113.65 164.032L145.726 145.554C145.891 145.453 146.035 145.32 146.148 145.163C146.262 145.007 146.343 144.83 146.388 144.642C146.433 144.454 146.441 144.258 146.411 144.068C146.38 143.877 146.313 143.693 146.211 143.529C146.11 143.364 145.978 143.221 145.821 143.107C145.665 142.993 145.488 142.912 145.299 142.867C145.111 142.822 144.916 142.814 144.725 142.844C144.534 142.875 144.351 142.942 144.187 143.044L112.126 161.522C111.963 161.624 111.821 161.758 111.71 161.915C111.599 162.072 111.521 162.249 111.479 162.437C111.438 162.625 111.434 162.819 111.468 163.009C111.503 163.198 111.574 163.378 111.679 163.54C111.809 163.754 111.992 163.931 112.211 164.052C112.429 164.174 112.676 164.236 112.927 164.233Z" fill="#68C6E3"/>
<path d="M207.107 139.163C207.42 139.163 207.724 139.062 207.974 138.875C208.225 138.688 208.408 138.425 208.496 138.125C208.585 137.825 208.574 137.504 208.465 137.211C208.356 136.918 208.155 136.668 207.892 136.499L142.693 94.6292C142.369 94.4439 141.986 94.3911 141.624 94.4817C141.261 94.5723 140.948 94.7993 140.75 95.1153C140.551 95.4313 140.482 95.8119 140.557 96.1776C140.632 96.5432 140.846 96.8657 141.153 97.0776L206.322 138.901C206.555 139.058 206.826 139.149 207.107 139.163Z" fill="#A1DAF7"/>
<path d="M144.988 145.708H145.08C145.271 145.698 145.458 145.65 145.63 145.567C145.803 145.484 145.956 145.367 146.083 145.223C146.209 145.08 146.305 144.913 146.366 144.731C146.426 144.55 146.45 144.358 146.435 144.168L143.356 95.7842C143.346 95.5933 143.298 95.4062 143.215 95.2341C143.132 95.0619 143.015 94.9082 142.871 94.7819C142.728 94.6556 142.561 94.5593 142.379 94.4987C142.198 94.4381 142.006 94.4144 141.816 94.4291C141.626 94.4408 141.44 94.49 141.268 94.5739C141.097 94.6577 140.944 94.7745 140.818 94.9176C140.692 95.0606 140.596 95.2272 140.535 95.4076C140.473 95.588 140.448 95.7788 140.461 95.969L143.54 144.368C143.564 144.734 143.727 145.077 143.997 145.327C144.266 145.576 144.621 145.712 144.988 145.708Z" fill="#A1DAF7"/>
<path d="M203.073 179.108C203.393 179.108 203.704 179.002 203.958 178.806C204.211 178.611 204.393 178.336 204.474 178.026C204.555 177.717 204.531 177.389 204.405 177.094C204.28 176.799 204.06 176.554 203.781 176.398L145.711 143.013C145.382 142.821 144.99 142.767 144.621 142.862C144.252 142.957 143.936 143.194 143.74 143.521C143.569 143.86 143.53 144.251 143.629 144.617C143.729 144.984 143.96 145.301 144.279 145.507L202.349 178.939C202.57 179.061 202.82 179.12 203.073 179.108Z" fill="#68C6E3"/>
<path d="M105.69 118.22C105.945 118.222 106.195 118.152 106.414 118.02L142.632 97.1085C142.797 97.0135 142.941 96.8869 143.057 96.736C143.173 96.5851 143.258 96.4129 143.307 96.2292C143.357 96.0454 143.369 95.8538 143.345 95.6651C143.32 95.4765 143.258 95.2946 143.163 95.1298C143.068 94.9649 142.942 94.8205 142.791 94.7046C142.64 94.5887 142.468 94.5036 142.284 94.4543C142.1 94.405 141.909 94.3923 141.72 94.4171C141.531 94.4418 141.349 94.5034 141.185 94.5985L104.966 115.51C104.686 115.667 104.465 115.914 104.34 116.21C104.215 116.506 104.192 116.836 104.275 117.147C104.358 117.457 104.542 117.732 104.798 117.926C105.055 118.12 105.368 118.224 105.69 118.22Z" fill="#A1DAF7"/>
<path d="M112.928 164.232H113.159C113.536 164.172 113.873 163.965 114.098 163.656C114.323 163.347 114.417 162.962 114.36 162.585L107.122 116.573C107.063 116.193 106.855 115.852 106.545 115.625C106.234 115.399 105.847 115.305 105.467 115.364C105.087 115.423 104.746 115.631 104.519 115.941C104.293 116.252 104.199 116.639 104.258 117.019L111.495 163.031C111.569 163.361 111.75 163.657 112.008 163.874C112.267 164.091 112.59 164.217 112.928 164.232Z" fill="#CFF7FF"/>
<path d="M170.889 197.695C171.21 197.698 171.524 197.595 171.78 197.4C172.036 197.206 172.22 196.931 172.303 196.621C172.386 196.31 172.364 195.98 172.238 195.684C172.113 195.388 171.893 195.142 171.612 194.984L113.651 161.522C113.487 161.426 113.306 161.363 113.118 161.337C112.93 161.311 112.739 161.323 112.556 161.372C112.372 161.421 112.2 161.505 112.05 161.621C111.9 161.737 111.774 161.881 111.68 162.046C111.583 162.211 111.52 162.393 111.494 162.582C111.468 162.771 111.479 162.963 111.528 163.148C111.577 163.333 111.661 163.506 111.777 163.658C111.893 163.809 112.038 163.937 112.203 164.032L170.165 197.494C170.386 197.62 170.635 197.689 170.889 197.695Z" fill="#CFF7FF"/>
<path d="M170.888 197.694C171.28 197.671 171.649 197.498 171.918 197.212C172.187 196.926 172.336 196.547 172.336 196.155V159.197C172.336 158.813 172.183 158.445 171.912 158.173C171.64 157.902 171.272 157.75 170.888 157.75C170.504 157.75 170.136 157.902 169.865 158.173C169.593 158.445 169.441 158.813 169.441 159.197V196.155C169.44 196.547 169.589 196.926 169.859 197.212C170.128 197.498 170.496 197.671 170.888 197.694Z" fill="#CFF7FF"/>
<path d="M203.073 179.108C203.431 179.106 203.776 178.971 204.04 178.729C204.305 178.487 204.47 178.156 204.505 177.799L208.555 137.854C208.559 137.485 208.431 137.126 208.194 136.844C207.957 136.561 207.626 136.373 207.261 136.314C206.887 136.288 206.517 136.409 206.23 136.65C205.943 136.891 205.76 137.235 205.721 137.608L201.671 177.553C201.667 177.922 201.795 178.28 202.032 178.563C202.269 178.845 202.601 179.033 202.965 179.092L203.073 179.108Z" fill="#CFF7FF"/>
<path d="M170.889 197.694C171.143 197.688 171.392 197.62 171.613 197.494L203.797 178.938C204.13 178.746 204.373 178.43 204.472 178.059C204.572 177.688 204.52 177.293 204.328 176.96C204.136 176.627 203.82 176.384 203.449 176.284C203.078 176.185 202.682 176.236 202.349 176.428L170.165 195.015C169.885 195.172 169.665 195.418 169.539 195.715C169.414 196.011 169.391 196.34 169.474 196.651C169.557 196.962 169.742 197.236 169.998 197.431C170.254 197.625 170.568 197.729 170.889 197.725V197.694Z" fill="#CFF7FF"/>
<path d="M192.632 184.421C192.82 184.421 193.001 184.349 193.139 184.221C193.276 184.092 193.359 183.916 193.371 183.728L194.834 145.461C194.838 145.268 194.766 145.08 194.634 144.939C194.501 144.798 194.319 144.715 194.125 144.707C194.032 144.705 193.94 144.721 193.853 144.755C193.766 144.788 193.687 144.839 193.62 144.903C193.553 144.968 193.499 145.045 193.461 145.13C193.424 145.215 193.404 145.307 193.402 145.4L191.862 183.681C191.862 183.872 191.935 184.056 192.067 184.194C192.199 184.331 192.38 184.413 192.57 184.421H192.632Z" fill="#CFF7FF"/>
<path d="M170.889 160.66C171.201 160.66 171.506 160.559 171.756 160.372C172.007 160.185 172.19 159.922 172.278 159.622C172.367 159.322 172.356 159.002 172.247 158.709C172.138 158.415 171.937 158.166 171.674 157.996L106.475 115.557C106.157 115.412 105.799 115.388 105.464 115.487C105.13 115.586 104.843 115.803 104.655 116.097C104.468 116.391 104.393 116.743 104.445 117.088C104.496 117.433 104.67 117.747 104.935 117.974L170.103 160.46C170.34 160.602 170.613 160.671 170.889 160.66Z" fill="#CFF7FF"/>
<path d="M170.889 184.421C171.014 184.423 171.137 184.391 171.245 184.328C171.354 184.266 171.443 184.176 171.504 184.066C171.554 183.986 171.588 183.896 171.602 183.803C171.617 183.709 171.612 183.613 171.589 183.522C171.567 183.43 171.525 183.343 171.468 183.268C171.412 183.192 171.34 183.128 171.258 183.081L110.94 147.509C110.776 147.432 110.59 147.419 110.417 147.474C110.244 147.528 110.097 147.644 110.007 147.801C109.916 147.958 109.887 148.143 109.926 148.32C109.965 148.497 110.068 148.652 110.217 148.757L170.473 184.328C170.6 184.397 170.744 184.429 170.889 184.421Z" fill="#CFF7FF"/>
<path d="M170.888 171.87C171.045 171.868 171.197 171.815 171.32 171.719C171.444 171.624 171.534 171.49 171.576 171.339C171.617 171.188 171.609 171.028 171.551 170.882C171.494 170.736 171.391 170.613 171.258 170.531L108.646 132.572C108.564 132.523 108.473 132.49 108.378 132.475C108.284 132.461 108.187 132.465 108.094 132.488C108.001 132.511 107.914 132.552 107.837 132.609C107.759 132.665 107.694 132.737 107.645 132.819C107.595 132.901 107.562 132.991 107.548 133.086C107.533 133.181 107.538 133.277 107.561 133.37C107.583 133.463 107.624 133.551 107.681 133.628C107.738 133.705 107.809 133.77 107.891 133.82L170.519 171.763C170.627 171.837 170.757 171.875 170.888 171.87Z" fill="#CFF7FF"/>
<path d="M170.889 171.87C171.016 171.873 171.14 171.835 171.243 171.763L206.122 151.636C206.287 151.54 206.407 151.382 206.456 151.197C206.505 151.013 206.479 150.816 206.384 150.651C206.338 150.568 206.275 150.495 206.2 150.436C206.125 150.378 206.039 150.335 205.947 150.31C205.855 150.286 205.759 150.28 205.665 150.294C205.57 150.307 205.48 150.34 205.398 150.389L170.52 170.515C170.355 170.612 170.235 170.77 170.186 170.954C170.137 171.139 170.163 171.335 170.258 171.501C170.323 171.611 170.415 171.703 170.526 171.767C170.636 171.832 170.761 171.867 170.889 171.87Z" fill="#CFF7FF"/>
<path d="M170.889 184.42C171.013 184.421 171.135 184.389 171.243 184.328L204.474 165.403C204.557 165.356 204.63 165.294 204.689 165.219C204.748 165.144 204.791 165.059 204.817 164.967C204.843 164.876 204.85 164.78 204.839 164.686C204.828 164.591 204.798 164.5 204.751 164.417C204.705 164.334 204.642 164.261 204.568 164.203C204.493 164.144 204.407 164.1 204.316 164.074C204.224 164.049 204.129 164.041 204.034 164.053C203.94 164.064 203.849 164.093 203.766 164.14L170.535 183.065C170.395 183.144 170.285 183.266 170.223 183.413C170.16 183.561 170.148 183.725 170.188 183.88C170.229 184.035 170.32 184.172 170.446 184.27C170.573 184.367 170.729 184.42 170.889 184.42Z" fill="#CFF7FF"/>
<path d="M181.775 190.703C181.966 190.699 182.148 190.622 182.283 190.487C182.418 190.352 182.495 190.17 182.499 189.98L182.869 152.545C182.869 152.351 182.793 152.166 182.658 152.027C182.522 151.889 182.338 151.81 182.145 151.806C181.953 151.806 181.769 151.882 181.633 152.018C181.498 152.153 181.421 152.337 181.421 152.529L181.052 189.964C181.05 190.059 181.066 190.154 181.101 190.242C181.135 190.331 181.187 190.412 181.253 190.481C181.319 190.549 181.397 190.604 181.484 190.642C181.571 190.681 181.665 190.701 181.76 190.703H181.775Z" fill="#CFF7FF"/>
<path d="M123.799 169.807C123.894 169.799 123.987 169.773 124.072 169.729C124.156 169.685 124.232 169.625 124.293 169.552C124.355 169.479 124.401 169.395 124.43 169.304C124.459 169.213 124.469 169.117 124.461 169.022L120.888 126.136C120.883 126.041 120.858 125.949 120.816 125.864C120.774 125.779 120.715 125.704 120.643 125.642C120.572 125.58 120.488 125.533 120.398 125.504C120.308 125.476 120.213 125.465 120.118 125.473C120.023 125.481 119.931 125.508 119.846 125.551C119.761 125.595 119.685 125.655 119.624 125.728C119.562 125.801 119.516 125.886 119.487 125.977C119.458 126.068 119.448 126.164 119.456 126.259L123.075 169.145C123.091 169.326 123.174 169.495 123.308 169.617C123.442 169.74 123.617 169.808 123.799 169.807Z" fill="#CFF7FF"/>
<path d="M158.431 189.841C158.624 189.837 158.809 189.757 158.944 189.619C159.079 189.481 159.155 189.295 159.155 189.102L158.677 150.758C158.682 150.662 158.666 150.566 158.631 150.476C158.597 150.387 158.543 150.305 158.475 150.237C158.407 150.169 158.326 150.116 158.236 150.081C158.146 150.046 158.05 150.03 157.954 150.035C157.76 150.039 157.576 150.118 157.441 150.256C157.306 150.395 157.23 150.58 157.23 150.774L157.754 189.133C157.757 189.314 157.829 189.488 157.954 189.619C158.08 189.75 158.25 189.829 158.431 189.841Z" fill="#CFF7FF"/>
<path d="M147.421 183.774C147.71 183.758 147.981 183.63 148.176 183.417C148.372 183.204 148.477 182.923 148.468 182.634L146.574 142.597C146.544 142.314 146.412 142.051 146.202 141.858C145.992 141.665 145.719 141.556 145.435 141.55C145.147 141.566 144.878 141.694 144.685 141.908C144.491 142.121 144.39 142.402 144.403 142.689L146.297 182.727C146.301 182.87 146.333 183.01 146.392 183.141C146.451 183.271 146.535 183.388 146.64 183.486C146.744 183.583 146.867 183.659 147.001 183.708C147.135 183.758 147.278 183.78 147.421 183.774Z" fill="#CFF7FF"/>
<path d="M135.948 176.783C136.043 176.777 136.136 176.752 136.222 176.71C136.307 176.668 136.384 176.61 136.447 176.538C136.51 176.467 136.558 176.384 136.589 176.293C136.619 176.203 136.632 176.108 136.626 176.013L133.546 134.435C133.54 134.34 133.515 134.247 133.473 134.162C133.432 134.076 133.373 134 133.302 133.937C133.23 133.874 133.147 133.826 133.057 133.795C132.966 133.764 132.871 133.752 132.776 133.758C132.584 133.777 132.407 133.87 132.281 134.016C132.155 134.162 132.089 134.351 132.098 134.543L135.178 176.12C135.184 176.215 135.209 176.307 135.251 176.392C135.293 176.477 135.352 176.552 135.423 176.614C135.495 176.676 135.578 176.723 135.669 176.751C135.759 176.78 135.854 176.791 135.948 176.783Z" fill="#CFF7FF"/>
<path d="M190.507 171.239C190.689 171.24 190.864 171.172 190.998 171.049C191.132 170.927 191.216 170.758 191.231 170.577L194.804 129.415C194.814 129.321 194.806 129.226 194.779 129.135C194.752 129.044 194.707 128.959 194.646 128.886C194.586 128.813 194.512 128.752 194.428 128.708C194.343 128.664 194.251 128.638 194.157 128.63C194.062 128.622 193.966 128.632 193.875 128.661C193.784 128.69 193.699 128.736 193.626 128.798C193.553 128.859 193.493 128.935 193.449 129.019C193.406 129.104 193.379 129.197 193.371 129.292L189.799 170.454C189.788 170.548 189.797 170.643 189.824 170.734C189.851 170.825 189.896 170.91 189.956 170.983C190.016 171.057 190.091 171.117 190.175 171.161C190.259 171.205 190.351 171.231 190.446 171.239H190.507Z" fill="#A1DAF7"/>
<path d="M177.926 155.039L177.494 179.94L198.991 167.682L200.239 141.627L177.926 155.039Z" fill="#016FD5"/>
<path d="M162.527 153.761C162.683 153.512 162.888 153.297 163.129 153.129C163.371 152.962 163.644 152.845 163.932 152.786C164.22 152.727 164.517 152.727 164.805 152.786C165.093 152.845 165.365 152.962 165.607 153.13L170.997 156.656L203.042 137.638L198.961 135.021C198.564 134.768 198.26 134.394 198.094 133.953C197.928 133.513 197.91 133.031 198.042 132.579C198.174 132.127 198.449 131.731 198.826 131.449C199.203 131.167 199.661 131.016 200.131 131.017C200.548 131.018 200.955 131.141 201.302 131.371L208.277 135.821C208.543 135.999 208.768 136.23 208.94 136.499C208.934 136.545 208.934 136.592 208.94 136.638C208.945 136.694 208.945 136.751 208.94 136.807C208.94 136.884 208.94 136.961 209.017 137.038V137.223C209.017 137.223 209.017 137.377 209.017 137.454C209.024 137.515 209.024 137.577 209.017 137.638C209.017 137.638 209.017 137.777 209.017 137.854C209.017 137.931 209.017 137.993 209.017 138.07C209.023 138.131 209.023 138.193 209.017 138.254C209.023 138.326 209.023 138.398 209.017 138.47C208.992 138.535 208.961 138.596 208.924 138.655C208.932 138.695 208.932 138.737 208.924 138.778C208.854 138.899 208.766 139.008 208.662 139.101C208.546 139.197 208.422 139.285 208.293 139.363L172.074 160.922L171.705 161.076H171.551C171.377 161.099 171.201 161.099 171.027 161.076C170.839 161.067 170.653 161.036 170.473 160.983L170.257 160.906L169.934 160.752L163.389 156.487C162.908 156.172 162.571 155.679 162.452 155.116C162.334 154.553 162.444 153.966 162.758 153.484L162.527 153.761Z" fill="#016FD5"/>
<path d="M95.9268 105.116C95.9963 104.839 96.1207 104.579 96.2926 104.352C96.4646 104.124 96.6806 103.934 96.9277 103.792L133.146 82.7258C133.481 82.5397 133.856 82.4392 134.239 82.4332C134.619 82.4342 134.992 82.5342 135.322 82.7232C135.651 82.9122 135.926 83.1838 136.118 83.5111C136.406 84.0096 136.489 84.6004 136.349 85.1588C136.276 85.436 136.149 85.6959 135.974 85.9233C135.8 86.1507 135.582 86.341 135.333 86.4831L99.1144 107.549C98.7804 107.737 98.4043 107.837 98.0211 107.841C97.6413 107.84 97.2683 107.74 96.9389 107.551C96.6095 107.362 96.335 107.091 96.1424 106.764C95.9984 106.517 95.9052 106.244 95.8682 105.961C95.8312 105.679 95.8511 105.391 95.9268 105.116Z" fill="#016FD5"/>
<path d="M94.4332 102.56C94.7046 102.18 95.0627 101.87 95.4778 101.655C95.8928 101.441 96.353 101.329 96.82 101.328C97.416 101.321 97.9985 101.504 98.4831 101.851C98.8373 102.098 107.245 108.103 108.708 117.343L109.54 122.563C109.6 122.939 109.585 123.323 109.495 123.694C109.405 124.064 109.242 124.412 109.016 124.719C108.561 125.337 107.88 125.752 107.122 125.874C106.973 125.889 106.824 125.889 106.675 125.874C105.995 125.881 105.334 125.646 104.809 125.212C104.285 124.778 103.931 124.172 103.811 123.502L102.995 118.282C101.917 111.522 95.2031 106.656 95.1415 106.61C94.5113 106.166 94.0827 105.49 93.9499 104.731C93.8171 103.972 93.9909 103.191 94.4332 102.56Z" fill="#016FD5"/>
</g>
<path d="M235.23 159.557L238.188 158.06C240.508 156.745 244.963 157.823 247.922 158.864C248.283 158.989 248.667 159.037 249.048 159.002C249.429 158.967 249.798 158.852 250.131 158.663L252.669 157.238L253.875 158.334L261.179 157.092L261.435 165.492C261.435 166.022 261.526 166.935 261.069 167.209L258.659 168.761C257.271 169.562 255.696 169.984 254.094 169.984C252.491 169.984 250.917 169.562 249.528 168.761L235.194 163.027C234.897 162.843 234.653 162.586 234.484 162.281C234.316 161.975 234.229 161.631 234.233 161.282C234.237 160.933 234.331 160.591 234.505 160.289C234.68 159.987 234.93 159.735 235.23 159.557Z" fill="#05105D"/>
<path d="M235.23 159.557L238.188 158.06C240.507 156.745 244.963 157.823 247.921 158.864C248.282 158.989 248.666 159.037 249.047 159.002C249.429 158.967 249.798 158.852 250.131 158.663L252.669 157.238L256.011 158.809L261.215 157.092L261.471 162.571C261.417 163.469 261.134 164.339 260.648 165.097C260.162 165.855 259.489 166.475 258.695 166.898C257.307 167.7 255.732 168.122 254.13 168.122C252.527 168.122 250.952 167.7 249.564 166.898L235.23 161.183C234.887 160.982 234.614 160.683 234.444 160.324C234.632 160.003 234.903 159.738 235.23 159.557Z" fill="#1067DB"/>
<path d="M261.325 157.403L260.12 124.715L262.165 78.1314C262.182 77.5079 262.076 76.887 261.853 76.3045C261.63 75.7219 261.295 75.189 260.866 74.7362C260.437 74.2834 259.922 73.9196 259.353 73.6656C258.783 73.4115 258.169 73.2723 257.545 73.2557C254.952 73.1644 244.361 75.2462 244.288 77.8575L248.123 123.784V123.967L252.542 157.275C252.597 159.813 261.453 160.032 261.325 157.403Z" fill="#92A6F1"/>
<path d="M222.484 163.958L225.443 162.461C227.744 161.128 232.199 162.205 235.158 163.246C235.517 163.38 235.901 163.433 236.283 163.401C236.665 163.369 237.035 163.254 237.367 163.064L239.905 161.639L241.111 162.717L248.415 161.493L248.671 169.893C248.671 170.423 248.762 171.336 248.305 171.61L245.895 173.162C244.507 173.963 242.932 174.385 241.33 174.385C239.727 174.385 238.153 173.963 236.764 173.162L222.484 167.611C222.135 167.45 221.838 167.193 221.631 166.869C221.423 166.546 221.312 166.169 221.312 165.784C221.312 165.4 221.423 165.023 221.631 164.7C221.838 164.376 222.135 164.119 222.484 163.958Z" fill="#05105D"/>
<path d="M222.484 163.958L225.442 162.461C227.743 161.128 232.199 162.205 235.157 163.246C235.516 163.38 235.9 163.433 236.282 163.401C236.664 163.369 237.034 163.254 237.367 163.064L239.905 161.639L243.247 163.21L248.451 161.493L248.707 167.538C248.647 168.372 248.355 169.173 247.865 169.85C247.375 170.528 246.705 171.055 245.931 171.372C244.543 172.174 242.968 172.596 241.366 172.596C239.763 172.596 238.188 172.174 236.8 171.372L222.484 165.784C222.136 165.585 221.857 165.286 221.68 164.926C221.825 164.519 222.11 164.176 222.484 163.958Z" fill="#1067DB"/>
<path d="M257.363 85.9107C257.968 85.9108 258.563 85.7524 259.089 85.4513C259.614 85.1501 260.052 84.7167 260.358 84.1942L266.585 73.3836C269.725 67.9347 270.774 61.5292 269.538 55.363C268.301 49.1968 264.863 43.6914 259.864 39.8746L258.166 38.5781C257.809 38.2729 257.394 38.0437 256.946 37.9045C256.498 37.7653 256.026 37.719 255.559 37.7685C255.092 37.818 254.64 37.9621 254.231 38.1922C253.822 38.4223 253.464 38.7333 253.179 39.1065C252.894 39.4796 252.689 39.9069 252.575 40.3623C252.461 40.8177 252.441 41.2915 252.516 41.7548C252.591 42.2181 252.76 42.6612 253.013 43.0569C253.265 43.4527 253.596 43.7928 253.984 44.0564L255.683 45.3529C259.348 48.149 261.87 52.184 262.778 56.7041C263.685 61.2241 262.916 65.9199 260.613 69.914L254.368 80.7246C253.911 81.5166 253.787 82.4576 254.023 83.3409C254.26 84.2242 254.837 84.9777 255.628 85.4359C256.155 85.7415 256.753 85.9051 257.363 85.9107Z" fill="#1067DB"/>
<path d="M261.763 89.9464L262.165 78.1315L243.191 70.8271L243.338 81.2724C241.292 81.6924 237.494 83.4272 237.366 85.6186L236.91 127.089L240.032 164.817C240.233 167.3 248.688 167.026 248.505 164.817L249.546 126.724L250.806 98.9491L259.334 94.0917C260.06 93.6665 260.665 93.0621 261.09 92.3362C261.515 91.6104 261.747 90.7875 261.763 89.9464Z" fill="#A8B8F4"/>
<path opacity="0.3" d="M260.339 84.194C260.034 84.7166 259.596 85.15 259.071 85.4512C258.545 85.7523 257.95 85.9107 257.345 85.9106C256.737 85.9106 256.139 85.7533 255.61 85.4541C254.819 84.9958 254.241 84.2423 254.005 83.359C253.769 82.4757 253.893 81.5347 254.35 80.7427L260.595 69.9322C261.6 68.1841 262.316 66.2847 262.713 64.3077C262.67 67.4528 262.865 70.5967 263.298 73.7122L263.773 78.2409L260.339 84.194Z" fill="#231F20"/>
<path d="M249.071 29.8492L248.122 30.397C244.873 32.2728 242.176 34.9725 240.304 38.2236C238.431 41.4746 237.449 45.162 237.457 48.9137V92.3567C240.471 94.475 246.058 94.055 251.281 92.3567C251.902 92.1558 254.404 91.115 255.043 90.8228C258.326 89.4674 261.112 87.1338 263.023 84.1392L262.055 73.8218C261.544 70.1383 261.361 66.4166 261.507 62.7007L262.42 37.9936C262.502 36.394 262.151 34.802 261.403 33.3857C260.655 31.9694 259.538 30.7813 258.171 29.9471C256.803 29.1129 255.236 28.6635 253.635 28.6462C252.033 28.629 250.456 29.0446 249.071 29.8492Z" fill="url(#paint0_linear_3119_58145)"/>
<path d="M256.796 28.2789V9.23264H237.622V12.2092C237.622 22.8006 240.051 29.3929 256.796 28.2789Z" fill="#F9B888"/>
<path d="M251.373 34.5059C252.341 34.5059 253.27 34.1211 253.955 33.4362C254.64 32.7513 255.025 31.8223 255.025 30.8537V19.8971H247.72V30.8537C247.72 31.8223 248.105 32.7513 248.79 33.4362C249.475 34.1211 250.404 34.5059 251.373 34.5059Z" fill="#F9B888"/>
<path opacity="0.3" d="M237.459 58.1721C237.981 57.9688 238.437 57.6265 238.778 57.1822C239.119 56.738 239.332 56.2088 239.394 55.6521L240.782 44.8781C240.905 43.9719 241.381 43.1508 242.105 42.5934C242.83 42.036 243.746 41.7874 244.653 41.9015C246.48 42.1389 246.626 44.1294 246.388 46.0286L246.242 56.5469C245.956 58.7654 244.935 60.8243 243.344 62.3961C241.752 63.9679 239.681 64.9622 237.459 65.2209V58.1721Z" fill="#231F20"/>
<path d="M228.747 59.9981L218.759 48.6397C218.153 47.952 217.846 47.0519 217.904 46.1376C217.962 45.2232 218.381 44.3694 219.069 43.764C219.757 43.1586 220.657 42.8512 221.571 42.9095C222.485 42.9677 223.339 43.3867 223.945 44.0745L233.933 55.4328C234.329 55.896 234.851 56.2334 235.436 56.4036C236.02 56.5738 236.642 56.5694 237.224 56.3909C237.806 56.2124 238.323 55.8676 238.712 55.3988C239.101 54.9301 239.344 54.3579 239.412 53.7528L240.8 42.9971C240.857 42.5474 241.003 42.1135 241.228 41.7201C241.453 41.3267 241.754 40.9815 242.112 40.7043C242.471 40.427 242.881 40.2232 243.318 40.1043C243.756 39.9854 244.212 39.9538 244.662 40.0114C245.111 40.0689 245.545 40.2145 245.939 40.4397C246.332 40.6649 246.677 40.9655 246.955 41.3241C247.232 41.6827 247.436 42.0925 247.555 42.53C247.673 42.9674 247.705 43.4239 247.647 43.8736L246.26 54.6476C246.019 56.5659 245.228 58.3735 243.984 59.8529C242.739 61.3323 241.093 62.4202 239.245 62.9856C237.396 63.5511 235.423 63.5699 233.564 63.0398C231.705 62.5098 230.038 61.4534 228.766 59.9981H228.747Z" fill="url(#paint1_linear_3119_58145)"/>
<path d="M225.643 45.9554L223.999 44.1293C223.394 43.4416 222.54 43.0225 221.626 42.9643C220.712 42.9061 219.811 43.2134 219.124 43.8188C218.436 44.4242 218.017 45.278 217.959 46.1924C217.901 47.1068 218.208 48.0068 218.813 48.6946L220.804 50.9589L225.643 45.9554Z" fill="#F9B888"/>
<path d="M215.526 45.2616C215.526 46.0894 215.772 46.8986 216.232 47.5867C216.693 48.2748 217.347 48.8108 218.112 49.1268C218.877 49.4427 219.719 49.5245 220.531 49.3616C221.342 49.1988 222.088 48.7987 222.672 48.212C223.256 47.6253 223.653 46.8785 223.812 46.0661C223.971 45.2537 223.886 44.4124 223.566 43.6486C223.247 42.8848 222.708 42.233 222.018 41.7757C221.328 41.3184 220.518 41.0762 219.69 41.0798C219.142 41.0798 218.599 41.1881 218.092 41.3985C217.586 41.6089 217.126 41.9171 216.739 42.3057C216.353 42.6942 216.046 43.1554 215.838 43.6627C215.63 44.1699 215.524 44.7133 215.526 45.2616Z" fill="#F9B888"/>
<path d="M216.111 38.1032L221.371 43.5815C221.455 43.6671 221.556 43.735 221.668 43.7814C221.779 43.8277 221.898 43.8516 222.019 43.8516C222.139 43.8516 222.259 43.8277 222.37 43.7814C222.481 43.735 222.582 43.6671 222.667 43.5815C222.753 43.4966 222.821 43.3957 222.867 43.2844C222.913 43.1731 222.937 43.0538 222.937 42.9332C222.937 42.8127 222.913 42.6934 222.867 42.5821C222.821 42.4708 222.753 42.3698 222.667 42.285L217.408 36.8066C217.323 36.7211 217.222 36.6532 217.111 36.6068C216.999 36.5605 216.88 36.5366 216.76 36.5366C216.639 36.5366 216.52 36.5605 216.408 36.6068C216.297 36.6532 216.196 36.7211 216.111 36.8066C215.947 36.9825 215.856 37.2142 215.856 37.4549C215.856 37.6956 215.947 37.9273 216.111 38.1032Z" fill="#F9B888"/>
<path d="M261.326 17.03C260.972 16.5942 260.574 16.1965 260.139 15.843C261.049 15.003 261.604 13.8467 261.691 12.6108C261.691 11.3508 260.376 10.1456 259.189 10.5656C259.585 9.79577 259.741 8.92445 259.635 8.0651C259.529 7.20576 259.166 6.39827 258.595 5.74786C258.023 5.09746 257.269 4.63429 256.43 4.41875C255.592 4.2032 254.708 4.24527 253.893 4.53945C253.552 3.46989 252.829 2.56295 251.863 1.99072C250.897 1.41849 249.755 1.22075 248.652 1.43505C248.225 1.55547 247.777 1.58655 247.338 1.52636C246.933 1.37224 246.561 1.14298 246.242 0.850688C245.554 0.414701 244.777 0.137658 243.968 0.0397298C243.16 -0.0581983 242.339 0.0254577 241.567 0.2846C240.021 0.821848 238.562 1.58491 237.239 2.54898C235.541 1.74549 233.258 1.2707 231.998 2.65854C231.575 3.36475 231.352 4.17265 231.352 4.99598C231.352 5.8193 231.575 6.62718 231.998 7.33339C232.504 8.86137 233.54 10.1573 234.92 10.9856C235.34 11.223 237.769 12.5012 237.842 11.9352C237.732 12.9578 238.974 13.5604 239.997 13.7613C241.019 13.9621 242.261 14.0169 242.699 14.9482C243.338 16.3361 241.494 18.1804 242.462 19.3491C242.991 19.1117 243.375 18.6004 243.886 18.3265C244.367 18.1205 244.899 18.0625 245.412 18.1601C245.926 18.2577 246.4 18.5064 246.772 18.8743C247.491 19.6345 248.056 20.5277 248.433 21.5039C248.598 21.8874 248.78 22.2526 248.945 22.6361C249.785 24.4622 254.66 30.744 257.272 28.5709C258.185 27.8222 257.472 26.1422 258.367 25.357C259.568 24.5645 260.672 23.6328 261.654 22.5813C262.278 21.772 262.589 20.7644 262.528 19.7442C262.468 18.724 262.041 17.7601 261.326 17.03Z" fill="#05105D"/>
<path d="M307.617 173.971L295.805 180.616L307.541 187.395L319.277 180.926L307.617 173.971Z" fill="#D3DBF9"/>
<path d="M307.611 174.316L296.406 180.622L307.541 187.05L318.682 180.914L307.611 174.316Z" fill="#92A6F1"/>
<path d="M307.6 176.675L298.468 181.813L307.541 187.05L316.615 182.052L307.6 176.675Z" fill="#4085E2"/>
<path d="M295.805 180.616L298.467 201.198L307.541 206.5V187.395L295.805 180.616Z" fill="#92A6F1"/>
<path d="M319.277 180.926L315.908 201.671L307.541 206.5V187.395L319.277 180.926Z" fill="#A8B8F4"/>
<path d="M304.966 185.375L297.784 178.368C297.784 178.368 306.957 181.323 307.541 184.441L304.966 185.375Z" fill="#040C46"/>
<path d="M309.053 185.106C309.053 185.106 306.63 178.771 303.267 173.954C302.499 172.869 301.43 172.033 300.192 171.549C298.954 171.065 297.602 170.955 296.302 171.232C295.002 171.509 293.812 172.161 292.879 173.108C291.945 174.055 291.31 175.254 291.052 176.558C291.052 176.605 291.052 176.651 291.023 176.692C290.994 176.733 296.862 167.186 306.204 186.157L309.053 185.106Z" fill="#05105D"/>
<path d="M306.122 183.483C306.122 183.483 311.99 171.566 310.595 166.054C310.595 166.054 313.514 167.438 309.643 183.121L306.122 183.483Z" fill="#040C46"/>
<path d="M307.541 187.051C307.541 187.051 314.443 160.776 321.958 177.901C321.958 177.901 316.381 172.786 310.718 185.223L307.541 187.051Z" fill="#05105D"/>
<path d="M307.541 187.051C307.541 187.051 312.364 180.628 304.791 163C304.791 163 306.373 182.584 303.763 184.867L307.541 187.051Z" fill="#05105D"/>
<defs>
<linearGradient id="paint0_linear_3119_58145" x1="237.457" y1="61.1851" x2="263.023" y2="61.1851" gradientUnits="userSpaceOnUse">
<stop offset="0.15" stop-color="#1CA2F9"/>
<stop offset="1" stop-color="#1067DB"/>
</linearGradient>
<linearGradient id="paint1_linear_3119_58145" x1="217.9" y1="51.6893" x2="247.666" y2="51.6893" gradientUnits="userSpaceOnUse">
<stop stop-color="#1067DB"/>
<stop offset="0.85" stop-color="#1CA2F9"/>
</linearGradient>
<clipPath id="clip0_3119_58145">
<rect width="115.306" height="144" fill="white" transform="translate(93.8081 80)"/>
</clipPath>
</defs>
</svg>
