<svg width="113" height="102" viewBox="0 0 113 102" fill="none" xmlns="http://www.w3.org/2000/svg">
<circle cx="46.5" cy="46" r="46" fill="#E7F3FF"/>
<path d="M90.262 54.5003L78.662 67.2003L75.437 70.7253C75.4164 72.059 75.1217 73.3742 74.5712 74.5892C74.0207 75.8042 73.2262 76.8929 72.237 77.7878C67.173 78.5142 62.0259 78.4341 56.987 77.5503C56.862 77.4253 56.737 77.2878 56.612 77.1503C54.6508 74.9912 53.6269 72.1418 53.7652 69.2283C53.9035 66.3147 55.1927 63.5752 57.3495 61.6115C59.101 59.9944 61.3908 59.0857 63.7745 59.0615L68.7745 54.499L90.262 54.5003Z" fill="#CDD6E0"/>
<path d="M109.451 25.0489C110.54 26.0937 111.182 27.5195 111.242 29.0272C111.303 30.535 110.777 32.0076 109.776 33.1364L90.2623 54.5002H68.7748L101.364 24.7239C102.492 23.7225 103.965 23.1971 105.473 23.2576C106.98 23.3182 108.406 23.9602 109.451 25.0489Z" fill="#CDD6E0"/>
<path d="M56.6123 77.1504C56.7373 77.2879 56.8623 77.4254 56.9873 77.5504C52.9054 76.908 48.8923 75.8869 44.9998 74.5004C47.839 73.2806 50.7634 72.2696 53.7498 71.4754L53.8873 71.4629C54.2176 73.5851 55.1653 75.5631 56.6123 77.1504Z" fill="#DE6725"/>
<path d="M78.7498 67.2749C84.0248 66.8999 89.9998 66.9999 96.2498 66.9999C92.4998 66.9999 88.9373 68.4249 84.9998 71.9999C81.4014 75.1329 76.965 77.1447 72.2373 77.7874C73.2265 76.8925 74.021 75.8038 74.5715 74.5888C75.122 73.3738 75.4167 72.0586 75.4373 70.7249L78.6623 67.1999L78.7498 67.2749Z" fill="#EF7127"/>
<path d="M103.75 54.5002H90.2622L78.6622 67.2002L78.7497 67.2752C84.0247 66.9002 89.9997 67.0014 96.2497 67.0014C98.398 66.9708 100.528 67.3968 102.5 68.2514C102.5 68.2514 97.4997 92.0002 77.4997 92.0002H68.7497C48.7497 92.0002 44.9997 74.5002 44.9997 74.5002C47.8389 73.2804 50.7633 72.2694 53.7497 71.4752L53.8872 71.4627C53.5988 69.6622 53.7644 67.8182 54.369 66.0979C54.9737 64.3776 55.9982 62.8355 57.3497 61.6114C59.1012 59.9943 61.391 59.0856 63.7747 59.0614L68.7747 54.4989H36.7859C36.2087 54.485 35.6396 54.6365 35.1457 54.9355C34.6518 55.2345 34.2537 55.6685 33.9984 56.1864C33.7998 56.6334 33.7175 57.1233 33.759 57.6107C33.8005 58.098 33.9646 58.567 34.2359 58.9739L38.7497 65.7502H38.8997C39.9609 79.1127 46.6734 90.2127 57.4997 94.7752V99.5002C57.4997 99.8317 57.6314 100.15 57.8658 100.384C58.1002 100.618 58.4182 100.75 58.7497 100.75H86.2497C86.5812 100.75 86.8992 100.618 87.1336 100.384C87.368 100.15 87.4997 99.8317 87.4997 99.5002V94.7752C97.5259 90.5627 104.026 80.7127 105.776 68.6752C106.093 66.4644 106.252 64.2337 106.25 62.0002V57.0002C106.251 56.6715 106.187 56.3459 106.062 56.0421C105.937 55.7383 105.752 55.4622 105.52 55.2298C105.288 54.9975 105.012 54.8134 104.708 54.6881C104.404 54.5629 104.078 54.499 103.75 54.5002Z" fill="#9DD1FF"/>
<path d="M96.2498 67.0001C98.3981 66.9694 100.528 67.3955 102.5 68.2501C102.5 68.2501 97.4998 92.0001 77.4998 92.0001H68.7498C48.7498 92.0001 44.9998 74.5001 44.9998 74.5001C48.8927 75.8867 52.9062 76.9078 56.9885 77.5501C62.0274 78.4339 67.1745 78.514 72.2385 77.7876C76.9658 77.1447 81.4017 75.1329 84.9998 72.0001C88.9373 68.4251 92.4998 67.0001 96.2498 67.0001Z" fill="#FCAC55"/>
<path d="M58.7498 100.75H86.2498C86.5813 100.75 86.8992 100.618 87.1336 100.384C87.3681 100.149 87.4998 99.8315 87.4998 99.5V97C87.4998 96.337 87.2364 95.7011 86.7675 95.2322C86.2987 94.7634 85.6628 94.5 84.9998 94.5H59.9998C59.3367 94.5 58.7008 94.7634 58.232 95.2322C57.7631 95.7011 57.4998 96.337 57.4998 97V99.5C57.4998 99.8315 57.6315 100.149 57.8659 100.384C58.1003 100.618 58.4182 100.75 58.7498 100.75Z" fill="#016FD5"/>
<path d="M68.7746 54.5L63.7746 59.0625H63.7496V59.5H73.7496C74.2138 59.5 74.6689 59.6293 75.0639 59.8734C75.4588 60.1175 75.778 60.4667 75.9856 60.882C76.1932 61.2972 76.2811 61.7621 76.2395 62.2245C76.1978 62.6869 76.0281 63.1286 75.7495 63.5L71.2496 69.5C71.2496 71.1576 70.5911 72.7473 69.419 73.9194C68.2469 75.0915 66.6572 75.75 64.9996 75.75H59.9996C58.3756 75.7483 56.8162 75.1136 55.6527 73.9807C54.4892 72.8478 53.8132 71.3059 53.7683 69.6825C53.7585 70.2781 53.7982 70.8735 53.8871 71.4625C54.2174 73.5847 55.1651 75.5628 56.6121 77.15C56.7371 77.2875 56.8621 77.425 56.9871 77.55C62.026 78.4338 67.1731 78.514 72.2371 77.7875C73.2262 76.8926 74.0207 75.8039 74.5712 74.5889C75.1217 73.3739 75.4164 72.0587 75.437 70.725L78.6621 67.1988L90.2621 54.5H68.7746Z" fill="#BAC3CC"/>
<path d="M109.451 25.0492C109.37 24.9679 109.276 24.9104 109.192 24.8354C109.478 25.3905 109.577 26.0234 109.473 26.6392C109.369 27.255 109.068 27.8203 108.615 28.2504L88.946 46.8755C88.018 47.757 86.7873 48.2492 85.5073 48.2505H75.6148L68.7748 54.5005H90.2623L109.776 33.1367C110.777 32.0079 111.303 30.5352 111.242 29.0275C111.182 27.5197 110.54 26.094 109.451 25.0492Z" fill="#BAC3CC"/>
<path d="M82.4997 54.5H68.7734L64.6647 58.25H82.4997V54.5Z" fill="#2492F7"/>
<path d="M59.9997 94.4999H69.9997C65.3823 94.5009 60.9286 92.7897 57.4997 89.6974C54.4455 88.2126 51.7476 86.0862 49.5904 83.4635C47.4331 80.8407 45.8672 77.7832 44.9997 74.4999C47.0364 73.6178 49.1234 72.8565 51.2497 72.2199V54.4999H36.7859C36.2087 54.486 35.6396 54.6374 35.1457 54.9365C34.6518 55.2355 34.2537 55.6695 33.9984 56.1874C33.7998 56.6344 33.7175 57.1243 33.759 57.6117C33.8005 58.099 33.9646 58.568 34.2359 58.9749L38.7497 65.7499H38.8997C39.9609 79.1124 46.6734 90.2124 57.4997 94.7749V99.4999V96.9999C57.4997 96.3369 57.7631 95.701 58.2319 95.2321C58.7008 94.7633 59.3366 94.4999 59.9997 94.4999Z" fill="#6DBAFF"/>
<path d="M51.2823 76.385C49.155 75.8726 47.0577 75.2433 44.9998 74.5C45.8673 77.7833 47.4332 80.8408 49.5904 83.4635C51.7477 86.0863 54.4455 88.2127 57.4998 89.6975C55.617 88.0144 54.0952 85.9667 53.0265 83.6785C51.9578 81.3903 51.3644 78.9091 51.2823 76.385Z" fill="#EF7127"/>
<path d="M103.664 70.8076C103.315 70.733 102.955 70.7341 102.607 70.8106C102.26 70.8872 101.932 71.0375 101.647 71.2513C101.052 73.0465 100.339 74.8004 99.5125 76.5013C98.3436 79.3855 96.6163 82.0104 94.43 84.2251C94.0012 84.7063 93.555 85.1788 93.0837 85.6363C92.8365 86.0123 92.6956 86.4483 92.6761 86.8979C92.6565 87.3475 92.7589 87.794 92.9726 88.19C93.1862 88.5861 93.503 88.917 93.8894 89.1477C94.2758 89.3783 94.7175 89.5001 95.1675 89.5001C95.3235 89.4994 95.4792 89.4843 95.6325 89.4551C100.506 84.6669 103.833 78.5277 105.182 71.8301C104.825 71.3086 104.282 70.943 103.664 70.8076Z" fill="#016FD5"/>
<path d="M51.6796 88.6855C51.9741 88.3612 52.1778 87.965 52.2702 87.5368C52.3626 87.1086 52.3404 86.6636 52.2059 86.2468C50.0782 84.3503 48.3099 82.0858 46.9859 79.5618C45.74 77.435 44.8376 75.1249 44.3121 72.7168C44.2098 72.2409 43.9703 71.8054 43.6233 71.4641C43.2762 71.1227 42.8369 70.8905 42.3594 70.796C41.8819 70.7015 41.3872 70.7488 40.9363 70.9322C40.4854 71.1156 40.0981 71.427 39.8221 71.828C41.1745 78.5327 44.5104 84.6762 49.3971 89.4618C49.5408 89.4871 49.6863 89.5001 49.8321 89.5005C50.1798 89.5006 50.5237 89.4282 50.8418 89.2878C51.16 89.1475 51.4453 88.9424 51.6796 88.6855Z" fill="#016FD5"/>
<path d="M106.249 57C106.251 56.6714 106.187 56.3458 106.061 56.0419C105.936 55.7381 105.752 55.462 105.52 55.2297C105.287 54.9973 105.011 54.8132 104.707 54.688C104.404 54.5627 104.078 54.4989 103.749 54.5H90.2619L86.8369 58.25H106.249V57Z" fill="#2492F7"/>
<path d="M68.7746 54.4999H36.7858C36.2086 54.486 35.6395 54.6374 35.1456 54.9365C34.6516 55.2355 34.2536 55.6695 33.9983 56.1874C33.7135 56.8393 33.6771 57.5729 33.8958 58.2499H64.6646L68.7746 54.4999Z" fill="#2492F7"/>
<path d="M82.4998 67.0901V73.9314C83.3807 73.3517 84.2164 72.7061 84.9998 72.0001C87.4017 69.609 90.438 67.9555 93.7498 67.2351V66.9939C89.831 66.9839 86.041 66.9714 82.4998 67.0901Z" fill="#FCAC55"/>
<path d="M93.7498 77.0004V67.2354C90.438 67.9557 87.4017 69.6092 84.9998 72.0004C84.2164 72.7063 83.3807 73.3519 82.4998 73.9316V79.5004C82.4998 82.8156 81.1828 85.995 78.8386 88.3392C76.4944 90.6834 73.315 92.0004 69.9998 92.0004H77.4998C79.5877 92.0062 81.6663 91.7218 83.676 91.1554C86.617 90.1339 89.167 88.2223 90.9722 85.6858C92.7774 83.1492 93.7482 80.1137 93.7498 77.0004Z" fill="#FFD36E"/>
<path d="M90.2623 54.5H82.4998V67.09C86.041 66.965 89.831 66.9837 93.7498 66.9937V54.5H90.2623Z" fill="#CEE8FF"/>
<path d="M81.2498 85.75H78.7498V88.25H81.2498V85.75Z" fill="#EF7127"/>
<path d="M76.2498 85.75H73.7498V88.25H76.2498V85.75Z" fill="#EF7127"/>
<path d="M63.7498 48.25H61.2498V50.75H63.7498V48.25Z" fill="#DE6725"/>
<path d="M58.7498 48.25H56.2498V50.75H58.7498V48.25Z" fill="#DE6725"/>
<path d="M63.7498 43.25H61.2498V45.75H63.7498V43.25Z" fill="#DE6725"/>
<path d="M96.7196 68.8378C96.537 68.651 96.3183 68.5033 96.0767 68.4038C95.8352 68.3043 95.5759 68.255 95.3146 68.259C94.8455 68.3694 94.4266 68.6334 94.1246 69.009C91.5609 71.6178 89.4609 74.7065 86.5934 76.9715C85.8018 77.5156 85.0802 78.155 84.4446 78.8753C84.1293 79.2402 83.9136 79.6804 83.8184 80.1532C83.7231 80.626 83.7515 81.1154 83.9009 81.574C84.2113 82.0937 84.6552 82.5209 85.1865 82.811C85.7178 83.1012 86.3171 83.2438 86.9221 83.224C89.6951 83.4322 92.4426 82.5702 94.5996 80.8153C98.0671 77.9678 100.788 72.2965 96.7196 68.8378Z" fill="white"/>
</svg>
