<svg width="113" height="102" viewBox="0 0 113 102" fill="none" xmlns="http://www.w3.org/2000/svg">
<circle cx="46.5" cy="46" r="46" fill="#E7F3FF"/>
<path d="M111.25 100.75H33.75V102H111.25V100.75Z" fill="#5E6369"/>
<path d="M76.25 95.75V100.75H68.75V95.75H72.5H76.25Z" fill="#2492F7"/>
<path d="M96.25 65.75V69.5H92.5H88.75V65.75H92.5H96.25Z" fill="#98A0A8"/>
<path d="M86.25 93.25H103.75V95.75C103.75 98.1875 101.75 100.75 99.45 100.75H86.95C84.6375 100.75 82.5 98.1875 82.5 95.75V93.25H86.25Z" fill="#2492F7"/>
<path d="M92.5 79.5C93.0717 80.5481 93.4925 81.6717 93.75 82.8375C93.75 83.75 93.1875 84.5 92.5 84.5C91.8125 84.5 91.25 83.75 91.25 82.8375C91.5075 81.6717 91.9283 80.5481 92.5 79.5Z" fill="#2492F7"/>
<path d="M86.2499 93.25H82.4999V80.75L80.4374 78.4125C80.1518 78.1182 79.9945 77.7226 79.9999 77.3125C79.9892 76.9099 80.1383 76.5195 80.4148 76.2267C80.6912 75.9338 81.0724 75.7624 81.4749 75.75H103.125C103.622 75.75 104.099 75.9475 104.451 76.2992C104.802 76.6508 105 77.1277 105 77.625C105.004 78.029 104.923 78.4292 104.762 78.8C104.685 79.0056 104.546 79.1827 104.365 79.3077C104.184 79.4327 103.97 79.4998 103.75 79.5V93.25H86.2499ZM93.7499 82.8375C93.4925 81.6717 93.0716 80.5481 92.4999 79.5C91.9282 80.5481 91.5074 81.6717 91.2499 82.8375C91.2499 83.75 91.8124 84.5 92.4999 84.5C93.1874 84.5 93.7499 83.75 93.7499 82.8375Z" fill="#E6F3FF"/>
<path d="M98.75 48.25V53.25H95H86.25V50.75V48.25H95H98.75Z" fill="#BAC3CC"/>
<path d="M95 48.25H86.25V40.75C86.252 40.0876 86.516 39.4528 86.9844 38.9844C87.4528 38.516 88.0876 38.252 88.75 38.25H96.25C96.9124 38.252 97.5472 38.516 98.0156 38.9844C98.484 39.4528 98.748 40.0876 98.75 40.75V48.25H95Z" fill="#E6F3FF"/>
<path d="M95 53.25H86.25V63.25C86.252 63.9124 86.516 64.5472 86.9844 65.0156C87.4528 65.484 88.0876 65.748 88.75 65.75H96.25C96.9124 65.748 97.5472 65.484 98.0156 65.0156C98.484 64.5472 98.748 63.9124 98.75 63.25V53.25H95Z" fill="#E6F3FF"/>
<path d="M72.5 54.5C74.5711 54.5 76.25 52.8211 76.25 50.75C76.25 48.6789 74.5711 47 72.5 47C70.4289 47 68.75 48.6789 68.75 50.75C68.75 52.8211 70.4289 54.5 72.5 54.5Z" fill="#2492F7"/>
<path d="M65 69.7625V70.75C65 72.0761 64.4732 73.3479 63.5355 74.2855C62.5979 75.2232 61.3261 75.75 60 75.75H42.5C41.8432 75.7508 41.1926 75.6221 40.5856 75.3711C39.9786 75.1201 39.4271 74.7518 38.9626 74.2874C38.4982 73.8229 38.1299 73.2714 37.8789 72.6644C37.628 72.0574 37.4992 71.4068 37.5 70.75V69.7625C37.4985 68.775 37.79 67.8093 38.3375 66.9875L39.1625 65.75H43.75C43.75 65.087 44.0134 64.4511 44.4822 63.9822C44.9511 63.5134 45.587 63.25 46.25 63.25C46.913 63.25 47.5489 63.5134 48.0178 63.9822C48.4866 64.4511 48.75 65.087 48.75 65.75C48.7443 65.8714 48.7318 65.9925 48.7125 66.1125C49.1001 65.8754 49.5456 65.75 50 65.75C50.4544 65.75 50.8999 65.8754 51.2875 66.1125C51.2682 65.9925 51.2557 65.8714 51.25 65.75C51.2565 65.1644 51.4683 64.5997 51.8485 64.1543C52.2288 63.7089 52.7533 63.4111 53.3306 63.3129C53.9079 63.2147 54.5014 63.3223 55.0076 63.6169C55.5137 63.9115 55.9003 64.3745 56.1 64.925C56.5155 64.6505 57.002 64.5028 57.5 64.5C58.1624 64.502 58.7972 64.766 59.2656 65.2344C59.734 65.7028 59.998 66.3376 60 67H63.75L64.0375 66.8L64.1625 66.9875C64.71 67.8093 65.0015 68.775 65 69.7625Z" fill="#2492F7"/>
<path d="M55.0001 53.25L64.0376 66.8L63.7501 67H60.0001C59.9981 66.3376 59.7341 65.7028 59.2657 65.2344C58.7973 64.766 58.1625 64.502 57.5001 64.5C57.0021 64.5028 56.5156 64.6505 56.1001 64.925C55.9004 64.3745 55.5138 63.9115 55.0076 63.6169C54.5015 63.3223 53.908 63.2147 53.3307 63.3129C52.7534 63.4111 52.2288 63.7089 51.8486 64.1543C51.4684 64.5997 51.2565 65.1644 51.2501 65.75C51.2558 65.8714 51.2683 65.9925 51.2876 66.1125C50.9 65.8754 50.4545 65.75 50.0001 65.75C49.5457 65.75 49.1002 65.8754 48.7126 66.1125C48.7319 65.9925 48.7444 65.8714 48.7501 65.75C48.7501 65.087 48.4867 64.4511 48.0179 63.9822C47.549 63.5134 46.9131 63.25 46.2501 63.25C45.5871 63.25 44.9512 63.5134 44.4823 63.9822C44.0135 64.4511 43.7501 65.087 43.7501 65.75H39.1626L47.5001 53.25H55.0001Z" fill="#E6F3FF"/>
<path d="M61.25 93.25V98.25C61.248 98.9124 60.984 99.5472 60.5156 100.016C60.0472 100.484 59.4124 100.748 58.75 100.75H43.75C43.0876 100.748 42.4528 100.484 41.9844 100.016C41.516 99.5472 41.252 98.9124 41.25 98.25V93.25H61.25Z" fill="#80BEFF"/>
<path d="M61.25 92.1V93.25H41.25V92.1C41.25 90.175 44.2375 88.25 47.9125 88.25H54.5875C58.2625 88.25 61.25 90.175 61.25 92.1Z" fill="#DBEAFF"/>
<path d="M56.25 50.75V53.25H55H47.5H46.25V45.75H47.5H55H56.25V50.75Z" fill="#BAC3CC"/>
<path d="M55 42V45.75H47.5V42H48.75H53.75H55Z" fill="#E6F3FF"/>
<path d="M54.9998 85.25C54.9998 85.25 54.9998 88.25 51.2498 88.25C50.7356 88.2511 50.2266 88.1465 49.7545 87.9426C49.2825 87.7387 48.8574 87.4399 48.5057 87.0648C48.154 86.6896 47.8832 86.2462 47.7102 85.7619C47.5371 85.2777 47.4655 84.7631 47.4998 84.25C47.4998 79.25 51.2498 78.25 51.2498 78.25V83.25C51.2404 83.3789 51.2576 83.5083 51.3005 83.6302C51.3433 83.7521 51.4108 83.8639 51.4988 83.9585C51.5868 84.0531 51.6933 84.1286 51.8118 84.1803C51.9303 84.2319 52.0581 84.2585 52.1873 84.2585C52.3165 84.2585 52.4443 84.2319 52.5628 84.1803C52.6813 84.1286 52.7878 84.0531 52.8758 83.9585C52.9638 83.8639 53.0313 83.7521 53.0741 83.6302C53.117 83.5083 53.1342 83.3789 53.1248 83.25V82.25C53.1248 82.25 54.9998 82.25 54.9998 85.25Z" fill="#F7B255"/>
<path d="M53.75 38.25V42H48.75V38.25H51.25H53.75Z" fill="#F89F4B"/>
<path d="M104.762 78.8C104.923 78.4292 105.004 78.029 105 77.625C105 77.1277 104.802 76.6508 104.451 76.2992C104.099 75.9475 103.622 75.75 103.125 75.75H81.4749C81.0724 75.7624 80.6912 75.9338 80.4148 76.2267C80.1383 76.5195 79.9892 76.9099 79.9999 77.3125C79.9945 77.7226 80.1518 78.1182 80.4374 78.4125L81.3974 79.5H103.75C103.97 79.4998 104.184 79.4327 104.365 79.3077C104.546 79.1827 104.685 79.0056 104.762 78.8Z" fill="#CEE8FF"/>
<path d="M93.75 69.5H91.25V72H93.75V69.5Z" fill="#016FD5"/>
<path d="M93.75 38.25H91.25V35.1C91.2509 34.8341 91.1663 34.5749 91.0088 34.3607C90.8512 34.1464 90.6291 33.9885 90.375 33.91L62.8575 25.4325C60.8375 24.8156 58.7372 24.5013 56.625 24.5C55.9448 24.5003 55.2753 24.6688 54.6759 24.9905C54.0766 25.3122 53.5662 25.777 53.19 26.3438C52.7376 27.0183 52.4973 27.8128 52.5 28.625V38.25H50V28.625C50 26.8679 50.698 25.1828 51.9404 23.9404C53.1828 22.698 54.8679 22 56.625 22C58.9849 22.0013 61.3317 22.3522 63.5888 23.0412L91.105 31.5175C91.8708 31.7536 92.5408 32.2289 93.0168 32.8736C93.4928 33.5183 93.7498 34.2986 93.75 35.1V38.25Z" fill="#016FD5"/>
<path d="M93.75 65.75H91.25V64.5C91.2487 64.2667 91.3128 64.0376 91.435 63.8388C91.5571 63.64 91.7325 63.4793 91.9413 63.375L93.085 62.8025L89.6975 61.9563C89.428 61.889 89.1886 61.734 89.017 61.5155C88.8454 61.2971 88.7515 61.0278 88.75 60.75V58.25C88.7499 58.0177 88.8145 57.79 88.9366 57.5924C89.0587 57.3948 89.2335 57.2351 89.4413 57.1312L93.75 54.9775V53.25H96.25V55.75C96.2501 55.9823 96.1855 56.21 96.0634 56.4076C95.9413 56.6052 95.7665 56.7649 95.5587 56.8688L91.25 59.0225V59.7725L95.3025 60.7862C95.5732 60.8538 95.8136 61.01 95.9853 61.2299C96.157 61.4499 96.2502 61.721 96.25 62V63.25C96.2513 63.4833 96.1872 63.7124 96.065 63.9112C95.9429 64.11 95.7675 64.2707 95.5587 64.375L93.75 65.2725V65.75Z" fill="#016FD5"/>
<path d="M96.25 48.25H93.75V46.7263L89.6975 45.7125C89.427 45.645 89.1867 45.489 89.0151 45.2693C88.8434 45.0496 88.7501 44.7788 88.75 44.5V42C88.7499 41.7677 88.8145 41.54 88.9366 41.3424C89.0587 41.1448 89.2335 40.9851 89.4413 40.8812L91.25 39.9775V39.5H93.75V40.75C93.7501 40.9823 93.6855 41.21 93.5634 41.4076C93.4413 41.6052 93.2665 41.7649 93.0587 41.8688L91.25 42.7725V43.5225L95.3025 44.5362C95.5732 44.6038 95.8136 44.76 95.9853 44.9799C96.157 45.1999 96.2502 45.471 96.25 45.75V48.25Z" fill="#016FD5"/>
<path d="M56.25 40.75H46.25C45.5596 40.75 45 41.3096 45 42C45 42.6904 45.5596 43.25 46.25 43.25H56.25C56.9404 43.25 57.5 42.6904 57.5 42C57.5 41.3096 56.9404 40.75 56.25 40.75Z" fill="#2492F7"/>
<path d="M71.25 54.271V95.7497H73.75V54.271C72.9446 54.576 72.0554 54.576 71.25 54.271Z" fill="#5E6369"/>
<path d="M73.75 47.2288V40.75H71.25V47.2288C72.0554 46.9238 72.9446 46.9238 73.75 47.2288Z" fill="#5E6369"/>
<path d="M68.9788 49.5H56.25V52H68.9788C68.6738 51.1946 68.6738 50.3054 68.9788 49.5Z" fill="#5E6369"/>
<path d="M86.2499 49.5H76.0211C76.3261 50.3054 76.3261 51.1946 76.0211 52H86.2499V49.5Z" fill="#5E6369"/>
<path d="M58.75 93.25H55V100.75H58.75V93.25Z" fill="#A0D3FF"/>
<path d="M55 93.25H58.75C58.75 91.9239 58.2232 90.6521 57.2855 89.7145C56.3479 88.7768 55.0761 88.25 53.75 88.25H50C51.3261 88.25 52.5979 88.7768 53.5355 89.7145C54.4732 90.6521 55 91.9239 55 93.25Z" fill="#EEF7FF"/>
<path d="M43.75 98.25V93.25H41.25V98.25C41.252 98.9124 41.516 99.5472 41.9844 100.016C42.4528 100.484 43.0876 100.748 43.75 100.75H46.25C45.5876 100.748 44.9528 100.484 44.4844 100.016C44.016 99.5472 43.752 98.9124 43.75 98.25Z" fill="#63A6EC"/>
<path d="M43.75 92.1C43.75 90.225 46.605 88.35 50.1612 88.2663C50.1062 88.2663 50.055 88.25 50 88.25H47.9125C44.2375 88.25 41.25 90.175 41.25 92.1V93.25H43.75V92.1Z" fill="#CEE8FF"/>
<path d="M53.7499 86.375C53.6488 85.5106 53.3211 84.6882 52.7999 83.9912C52.6366 84.153 52.4173 84.2456 52.1874 84.25C51.931 84.2402 51.6888 84.1297 51.5133 83.9425C51.3378 83.7553 51.2432 83.5065 51.2499 83.25V82C51.2499 82 48.7499 84.6487 48.7499 86.375C48.7271 86.7923 48.8355 87.2062 49.0599 87.5587C49.7157 87.9793 50.4716 88.2179 51.2499 88.25C51.837 88.2613 52.4214 88.1687 52.9762 87.9762C53.2496 87.8163 53.4692 87.5786 53.607 87.2935C53.7448 87.0083 53.7945 86.6886 53.7499 86.375Z" fill="#EF7127"/>
<path d="M48.75 45.75V48.25C48.75 48.913 49.0134 49.5489 49.4822 50.0178C49.9511 50.4866 50.587 50.75 51.25 50.75H56.25V53.25H46.25V45.75H48.75Z" fill="#98A0A8"/>
<path d="M51.25 43.25H47.5V45.75H51.25V43.25Z" fill="#C2DCFF"/>
<path d="M61.25 73.2497H46.415C45.7222 73.2495 45.0419 73.0655 44.4434 72.7164C43.8449 72.3674 43.3498 71.8659 43.0084 71.263C42.6671 70.6601 42.4918 69.9775 42.5004 69.2847C42.509 68.592 42.7013 67.9139 43.0575 67.3197L45.405 63.4072C44.9221 63.5807 44.5042 63.8985 44.2082 64.3175C43.9121 64.7366 43.7521 65.2366 43.75 65.7497H39.1625L38.3375 66.9872C37.79 67.809 37.4985 68.7747 37.5 69.7622V70.7497C37.4992 71.4066 37.628 72.0571 37.8789 72.6641C38.1299 73.2711 38.4982 73.8226 38.9626 74.2871C39.4271 74.7516 39.9786 75.1198 40.5856 75.3708C41.1926 75.6218 41.8432 75.7506 42.5 75.7497H60C61.3261 75.7497 62.5979 75.2229 63.5355 74.2853C64.4732 73.3476 65 72.0758 65 70.7497V69.7622C65 69.711 64.99 69.661 64.9888 69.6097C64.9602 70.5832 64.5541 71.5073 63.8563 72.1866C63.1585 72.866 62.2239 73.2472 61.25 73.2497Z" fill="#016FD5"/>
<path d="M45.4051 63.4075L48.5438 58.1775C48.9881 57.4371 49.6165 56.8244 50.3678 56.399C51.1192 55.9736 51.9679 55.75 52.8313 55.75H56.6676L55.0001 53.25H47.5001L39.1626 65.75H43.7501C43.7522 65.2369 43.9122 64.7369 44.2083 64.3178C44.5043 63.8987 44.9222 63.5809 45.4051 63.4075Z" fill="#CEE8FF"/>
<path d="M72.5 53.25C73.8807 53.25 75 52.1307 75 50.75C75 49.3693 73.8807 48.25 72.5 48.25C71.1193 48.25 70 49.3693 70 50.75C70 52.1307 71.1193 53.25 72.5 53.25Z" fill="#016FD5"/>
<path d="M101.25 97H97.5C96.0018 97.0005 94.5226 96.6637 93.1724 96.0145C91.8221 95.3653 90.6353 94.4205 89.7 93.25H82.5V95.75C82.5 98.1875 84.6375 100.75 86.95 100.75H99.45C101.75 100.75 103.75 98.1875 103.75 95.75V94.5C103.75 95.163 103.487 95.7989 103.018 96.2678C102.549 96.7366 101.913 97 101.25 97Z" fill="#016FD5"/>
<path d="M87.5002 87V79.5H81.3977L82.5002 80.75V93.25H89.7002C88.2746 91.479 87.4983 89.2734 87.5002 87Z" fill="#CEE8FF"/>
<path d="M84.375 97C84.375 97.1658 84.4408 97.3247 84.5581 97.4419C84.6753 97.5592 84.8342 97.625 85 97.625H88.75V96.375H85.625V93.25H84.375V97Z" fill="#01386A"/>
<path d="M85.625 82.625H88.75V81.375H85C84.8342 81.375 84.6753 81.4408 84.5581 81.5581C84.4408 81.6753 84.375 81.8342 84.375 82V93.25H85.625V90.125H88.75V88.875H85.625V82.625Z" fill="#9CC7FF"/>
<path d="M71.25 95.75V97C71.25 97.663 71.5134 98.2989 71.9822 98.7678C72.4511 99.2366 73.087 99.5 73.75 99.5H76.25V100.75H68.75V95.75H71.25Z" fill="#016FD5"/>
<path d="M91.25 65.75C91.25 66.413 91.5134 67.0489 91.9822 67.5178C92.4511 67.9866 93.087 68.25 93.75 68.25H96.25V69.5H88.75V65.75H91.25Z" fill="#5E6369"/>
<path d="M88.75 48.25C88.75 48.913 89.0134 49.5489 89.4822 50.0178C89.9511 50.4866 90.587 50.75 91.25 50.75H98.75V53.25H86.25V48.25H88.75Z" fill="#8D949C"/>
<path d="M90 45.7875L89.6975 45.7125C89.427 45.645 89.1867 45.489 89.0151 45.2693C88.8434 45.0496 88.7501 44.7788 88.75 44.5V42C88.7499 41.7677 88.8145 41.54 88.9366 41.3424C89.0587 41.1448 89.2335 40.9851 89.4413 40.8812L90.0163 40.5938C90.0559 39.961 90.3344 39.3669 90.7956 38.9317C91.2567 38.4966 91.866 38.2529 92.5 38.25H88.75C88.0876 38.252 87.4528 38.516 86.9844 38.9844C86.516 39.4528 86.252 40.0876 86.25 40.75V48.25H90V45.7875Z" fill="#CEE8FF"/>
<path d="M90.0163 40.5938L89.4413 40.8812C89.2335 40.9851 89.0587 41.1448 88.9366 41.3424C88.8145 41.54 88.7499 41.7677 88.75 42V44.5C88.7501 44.7788 88.8434 45.0496 89.0151 45.2693C89.1867 45.489 89.427 45.645 89.6975 45.7125L90 45.7875V40.75C90 40.6962 90.0125 40.6462 90.0163 40.5938Z" fill="#01386A"/>
<path d="M98.75 55.75V53.25H96.25H95V55.75H98.75Z" fill="#CEE8FF"/>
<path d="M95 55.75V53.25H93.75H92.5V55.75H95Z" fill="#016FD5"/>
<path d="M88.75 58.25V60.75C88.7501 61.0289 88.8434 61.2997 89.0151 61.5194C89.1867 61.7391 89.427 61.8951 89.6975 61.9625L90 62.0375V56.8525L89.4413 57.1313C89.2335 57.2351 89.0587 57.3948 88.9366 57.5924C88.8145 57.79 88.7499 58.0177 88.75 58.25Z" fill="#01386A"/>
<path d="M90 53.25H86.25V63.25C86.252 63.9124 86.516 64.5472 86.9844 65.0156C87.4528 65.484 88.0876 65.748 88.75 65.75H91.25V65.4013C90.872 65.183 90.5577 64.8696 90.3384 64.4922C90.1191 64.1148 90.0024 63.6865 90 63.25V62.0375L89.6975 61.9625C89.427 61.895 89.1867 61.739 89.0151 61.5193C88.8434 61.2996 88.7501 61.0288 88.75 60.75V58.25C88.7499 58.0177 88.8145 57.79 88.9366 57.5924C89.0587 57.3948 89.2335 57.2351 89.4413 57.1312L90 56.8525V55.75H92.205L93.75 54.9775V53.25H90Z" fill="#CEE8FF"/>
<path d="M92.2052 55.75H96.2502V53.25H95.0002H93.7502V54.9775L92.2052 55.75Z" fill="#01386A"/>
</svg>
