<svg width="113" height="102" viewBox="0 0 113 102" fill="none" xmlns="http://www.w3.org/2000/svg">
<circle cx="46.5" cy="46" r="46" fill="#E7F3FF"/>
<path d="M83.75 23.25V30.75H77.5V35.75H68.75V25.75H78.75V23.25H83.75Z" fill="#E6EEFB"/>
<path d="M68.75 60.75C70.1307 60.75 71.25 59.6307 71.25 58.25C71.25 56.8693 70.1307 55.75 68.75 55.75C67.3693 55.75 66.25 56.8693 66.25 58.25C66.25 59.6307 67.3693 60.75 68.75 60.75Z" fill="#01386A"/>
<path d="M78.75 64.5C80.1307 64.5 81.25 63.3807 81.25 62C81.25 60.6193 80.1307 59.5 78.75 59.5C77.3693 59.5 76.25 60.6193 76.25 62C76.25 63.3807 77.3693 64.5 78.75 64.5Z" fill="#01386A"/>
<path d="M98.75 73.25C99.4124 73.252 100.047 73.516 100.516 73.9844C100.984 74.4528 101.248 75.0876 101.25 75.75C101.245 76.4115 100.98 77.0446 100.512 77.5123C100.045 77.9801 99.4115 78.2451 98.75 78.25H46.25C45.5876 78.248 44.9528 77.984 44.4844 77.5156C44.016 77.0472 43.752 76.4124 43.75 75.75C43.7549 75.0885 44.0199 74.4554 44.4877 73.9877C44.9554 73.5199 45.5885 73.2549 46.25 73.25H98.75Z" fill="#AEB8C1"/>
<path d="M100.513 75.0125C100.283 75.2475 100.009 75.4339 99.7063 75.5606C99.4035 75.6873 99.0783 75.7517 98.75 75.75H46.25C45.8135 75.7476 45.3852 75.6309 45.0078 75.4116C44.6304 75.1923 44.317 74.878 44.0988 74.5C43.8724 74.8778 43.752 75.3096 43.75 75.75C43.752 76.4124 44.016 77.0472 44.4844 77.5156C44.9528 77.984 45.5876 78.248 46.25 78.25H98.75C99.1901 78.2538 99.6232 78.1403 100.005 77.9214C100.387 77.7025 100.703 77.3859 100.922 77.0041C101.141 76.6224 101.255 76.1893 101.251 75.7492C101.247 75.3091 101.127 74.878 100.901 74.5C100.795 74.6874 100.664 74.8597 100.513 75.0125Z" fill="#8D949C"/>
<path d="M63.75 37.625C63.75 37.1277 63.9475 36.6508 64.2992 36.2992C64.6508 35.9475 65.1277 35.75 65.625 35.75H79.375C79.8723 35.75 80.3492 35.9475 80.7008 36.2992C81.0525 36.6508 81.25 37.1277 81.25 37.625C81.25 38.1223 81.0525 38.5992 80.7008 38.9508C80.3492 39.3025 79.8723 39.5 79.375 39.5H65.625C65.1277 39.5 64.6508 39.3025 64.2992 38.9508C63.9475 38.5992 63.75 38.1223 63.75 37.625Z" fill="#EEF7FF"/>
<path d="M54.425 78.25H90.575C89.4838 82.2062 87.1247 85.6951 83.8597 88.1815C80.5946 90.6679 76.604 92.0143 72.5 92.0143C68.3961 92.0143 64.4055 90.6679 61.1404 88.1815C57.8754 85.6951 55.5163 82.2062 54.425 78.25Z" fill="#016FD5"/>
<path d="M91.25 73.25H53.75C53.7513 71.9653 53.8811 70.6839 54.1375 69.425C56.325 69.2 57.1625 67 60 67C63.225 67 63.025 69.5 66.25 69.5C69.475 69.5 69.275 67 72.5 67C75.725 67 75.525 69.5 78.75 69.5C81.975 69.5 81.775 67 85 67C88.1 67 88.0375 69.2875 90.875 69.475C91.1265 70.7175 91.2522 71.9823 91.25 73.25Z" fill="#016FD5"/>
<path d="M101.25 99.5001H100V77.9014C99.6223 78.1279 99.1904 78.2484 98.75 78.2501H97.5V99.5001H96.25C95.9185 99.5001 95.6005 99.6318 95.3661 99.8662C95.1317 100.101 95 100.419 95 100.75C95 101.082 95.1317 101.4 95.3661 101.634C95.6005 101.868 95.9185 102 96.25 102H101.25C101.582 102 101.899 101.868 102.134 101.634C102.368 101.4 102.5 101.082 102.5 100.75C102.5 100.419 102.368 100.101 102.134 99.8662C101.899 99.6318 101.582 99.5001 101.25 99.5001Z" fill="#AEB8C1"/>
<path d="M48.75 99.5001H47.5V78.2501H46.25C45.8097 78.2474 45.3781 78.127 45 77.9014V99.5001H43.75C43.4185 99.5001 43.1005 99.6318 42.8661 99.8662C42.6317 100.101 42.5 100.419 42.5 100.75C42.5 101.082 42.6317 101.4 42.8661 101.634C43.1005 101.868 43.4185 102 43.75 102H48.75C49.0815 102 49.3995 101.868 49.6339 101.634C49.8683 101.4 50 101.082 50 100.75C50 100.419 49.8683 100.101 49.6339 99.8662C49.3995 99.6318 49.0815 99.5001 48.75 99.5001Z" fill="#AEB8C1"/>
<path d="M54.1375 69.425C56.325 69.2 57.1625 67 60 67C63.225 67 63.025 69.5 66.25 69.5C69.475 69.5 69.275 67 72.5 67C75.725 67 75.525 69.5 78.75 69.5C81.975 69.5 81.775 67 85 67C88.1 67 88.0375 69.2875 90.875 69.475C91.1265 70.7175 91.2522 71.9823 91.25 73.25H95C94.9972 68.1537 93.2644 63.2094 90.0852 59.2263C86.906 55.2433 82.4688 52.4575 77.5 51.325V39.5H67.5V51.325C62.5312 52.4575 58.094 55.2433 54.9148 59.2263C51.7356 63.2094 50.0028 68.1537 50 73.25H53.75C53.7513 71.9653 53.8811 70.6839 54.1375 69.425ZM78.75 59.5C79.2445 59.5 79.7278 59.6466 80.1389 59.9213C80.55 60.196 80.8705 60.5865 81.0597 61.0433C81.2489 61.5001 81.2984 62.0028 81.202 62.4877C81.1055 62.9727 80.8674 63.4181 80.5178 63.7678C80.1681 64.1174 79.7227 64.3555 79.2377 64.452C78.7528 64.5484 78.2501 64.4989 77.7933 64.3097C77.3365 64.1205 76.946 63.8 76.6713 63.3889C76.3966 62.9778 76.25 62.4945 76.25 62C76.252 61.3376 76.516 60.7028 76.9844 60.2344C77.4528 59.766 78.0876 59.502 78.75 59.5ZM68.75 55.75C69.2445 55.75 69.7278 55.8966 70.1389 56.1713C70.55 56.446 70.8705 56.8365 71.0597 57.2933C71.2489 57.7501 71.2984 58.2528 71.202 58.7377C71.1055 59.2227 70.8674 59.6681 70.5178 60.0178C70.1681 60.3674 69.7227 60.6055 69.2377 60.702C68.7528 60.7984 68.2501 60.7489 67.7933 60.5597C67.3365 60.3705 66.946 60.05 66.6713 59.6389C66.3966 59.2278 66.25 58.7445 66.25 58.25C66.252 57.5876 66.516 56.9528 66.9844 56.4844C67.4528 56.016 68.0876 55.752 68.75 55.75Z" fill="#CEE8FF"/>
<path d="M72.5002 92C68.3985 91.9994 64.41 90.6545 61.1455 88.1711C57.881 85.6877 55.5204 82.2028 54.4252 78.25H50.5627C51.6956 83.221 54.4833 87.6598 58.4689 90.8393C62.4545 94.0188 67.4018 95.7504 72.5002 95.7504C77.5987 95.7504 82.546 94.0188 86.5316 90.8393C90.5172 87.6598 93.3048 83.221 94.4377 78.25H90.5752C89.48 82.2028 87.1195 85.6877 83.855 88.1711C80.5905 90.6545 76.602 91.9994 72.5002 92Z" fill="#EEF7FF"/>
<path d="M87.1715 87.96C86.9397 87.6653 86.6442 87.4268 86.3071 87.2625C85.9701 87.0982 85.6002 87.0123 85.2252 87.0112C81.7919 90.1911 77.2926 91.9706 72.6131 91.9995C67.9335 92.0284 63.4126 90.3046 59.9402 87.1675C59.5863 87.1734 59.2378 87.255 58.918 87.4068C58.5982 87.5585 58.3146 87.777 58.0862 88.0474C57.8578 88.3178 57.69 88.634 57.5938 88.9746C57.4977 89.3153 57.4756 89.6726 57.529 90.0225C61.6792 93.7414 67.0648 95.783 72.6375 95.7497C78.2101 95.7164 83.5709 93.6107 87.6765 89.8425C87.7233 89.5109 87.7027 89.1732 87.6159 88.8497C87.5292 88.5263 87.378 88.2236 87.1715 87.96Z" fill="#CEE8FF"/>
<path d="M89.6763 80.75C90.035 79.9391 90.3353 79.1037 90.575 78.25H54.425C54.6648 79.1037 54.9651 79.9391 55.3238 80.75H89.6763Z" fill="#01386A"/>
<path d="M93.6953 80.75C93.9918 79.932 94.2398 79.0972 94.4378 78.25H90.5753C90.3355 79.1037 90.0352 79.9391 89.6765 80.75H93.6953Z" fill="#CEE8FF"/>
<path d="M54.4252 78.25H50.5627C50.7607 79.0972 51.0087 79.932 51.3052 80.75H55.324C54.9653 79.9391 54.665 79.1037 54.4252 78.25Z" fill="#CEE8FF"/>
<path d="M54.1375 69.425H54.1438C55.0215 65.2003 57.3295 61.4076 60.6785 58.6867C64.0274 55.9658 68.2123 54.4833 72.5272 54.4891C76.8422 54.495 81.023 55.989 84.3646 58.719C87.7061 61.4489 90.0038 65.2479 90.87 69.475C91.1232 70.7174 91.2505 71.9821 91.25 73.25H95C94.9972 68.1537 93.2644 63.2094 90.0852 59.2263C86.906 55.2433 82.4688 52.4575 77.5 51.325V39.5H67.5V51.325C62.5312 52.4575 58.094 55.2433 54.9148 59.2263C51.7356 63.2094 50.0028 68.1537 50 73.25H53.75C53.7504 72.6033 53.7838 71.9571 53.85 71.3138C53.915 70.675 54.0125 70.045 54.1375 69.425Z" fill="#EEF7FF"/>
<path d="M77.5 39.5H67.5V43.25H77.5V39.5Z" fill="#CCE1FF"/>
<path d="M63.8635 38.25C63.9915 38.6151 64.2296 38.9315 64.5451 39.1554C64.8606 39.3793 65.2379 39.4998 65.6248 39.5H79.3748C79.7617 39.4998 80.1389 39.3793 80.4544 39.1554C80.7699 38.9315 81.0081 38.6151 81.136 38.25H63.8635Z" fill="#DBEAFF"/>
<path d="M61.6588 78.25H54.425C55.3792 81.7017 57.3018 84.8079 59.9656 87.2013C62.6294 89.5948 65.9229 91.1753 69.4566 91.7561C72.9903 92.3369 76.6164 91.8935 79.9061 90.4785C83.1957 89.0635 86.0114 86.736 88.0201 83.7712C85.9401 85.1819 83.5976 86.1594 81.132 86.6458C78.6664 87.1321 76.1281 87.1172 73.6683 86.6021C71.2086 86.0869 68.8777 85.0819 66.8144 83.647C64.7512 82.2121 62.9978 80.3767 61.6588 78.25Z" fill="#01386A"/>
<path d="M58.805 67.1611C58.3384 67.2805 57.8908 67.4644 57.475 67.7074C57.2487 67.8411 57.035 67.9836 56.825 68.1286C56.4062 68.4174 56.0075 68.7136 55.575 68.9511C55.1326 69.2063 54.6424 69.3675 54.135 69.4249C53.8795 70.6839 53.7505 71.9652 53.75 73.2499H59.445C58.9884 71.6223 58.7546 69.9403 58.75 68.2499C58.75 67.8824 58.7838 67.5236 58.805 67.1611Z" fill="#01386A"/>
<path d="M55.5775 68.9513C56.0075 68.7138 56.4062 68.4175 56.8275 68.1287C57.0375 67.9837 57.2513 67.8413 57.4775 67.7075C57.8933 67.4645 58.3409 67.2806 58.8075 67.1613C59.375 57.3163 67.5125 50.75 77.5 50.75V39.5H67.5V51.325C62.5312 52.4575 58.094 55.2433 54.9148 59.2263C51.7356 63.2094 50.0028 68.1537 50 73.25H53.75C53.7513 71.9653 53.8811 70.6839 54.1375 69.425C54.6449 69.3677 55.1351 69.2064 55.5775 68.9513Z" fill="#CEE8FF"/>
<path d="M77.5 30.75H75V32C75 32.3315 74.8683 32.6495 74.6339 32.8839C74.3995 33.1183 74.0815 33.25 73.75 33.25H68.75V35.75H77.5V30.75Z" fill="#CEE8FF"/>
<path d="M81.25 23.25V27C81.25 27.3315 81.1183 27.6495 80.8839 27.8839C80.6495 28.1183 80.3315 28.25 80 28.25H68.75V25.75H78.75V23.25H81.25Z" fill="#E9F3FF"/>
<path d="M74.3375 57.7801C74.1507 57.9628 74.003 58.1815 73.9035 58.4231C73.804 58.6646 73.7548 58.9239 73.7588 59.1851C73.8692 59.6543 74.1331 60.0731 74.5088 60.3751C77.1175 62.9389 80.2063 65.0389 82.4713 67.9064C83.0154 68.698 83.6548 69.4196 84.375 70.0551C84.74 70.3704 85.1802 70.5862 85.653 70.6814C86.1258 70.7767 86.6152 70.7483 87.0738 70.5989C87.5935 70.2885 88.0206 69.8446 88.3108 69.3133C88.601 68.782 88.7436 68.1827 88.7238 67.5776C88.932 64.8046 88.07 62.0572 86.315 59.9001C83.4675 56.4326 77.7963 53.7114 74.3375 57.7801Z" fill="white"/>
<path d="M81.25 61.9999C81.2514 61.6716 81.1881 61.3462 81.0638 61.0424C80.9394 60.7385 80.7564 60.4622 80.5253 60.229C80.2941 59.9959 80.0193 59.8106 79.7165 59.6836C79.4137 59.5567 79.0889 59.4907 78.7606 59.4893C78.4323 59.4879 78.107 59.5512 77.8031 59.6755C77.4993 59.7999 77.2229 59.9828 76.9897 60.214C76.7566 60.4452 76.5713 60.72 76.4444 61.0228C76.3174 61.3255 76.2514 61.6503 76.25 61.9787C77.1975 62.8124 78.165 63.6274 79.1075 64.4637C79.7006 64.378 80.2432 64.0821 80.6365 63.6298C81.0297 63.1776 81.2475 62.5992 81.25 61.9999Z" fill="#4D93F3"/>
<path d="M82.406 67.8286C82.4273 67.8561 82.4498 67.8798 82.471 67.9061C83.0151 68.6976 83.6545 69.4193 84.3748 70.0548C84.7004 70.3881 85.1145 70.6214 85.5683 70.7272C86.0221 70.833 86.4966 70.807 86.9361 70.6521C87.3756 70.4973 87.7617 70.2201 88.0489 69.8532C88.3361 69.4862 88.5125 69.0449 88.5573 68.5811C88.1025 68.09 87.5527 67.6966 86.9411 67.4247C86.3295 67.1529 85.669 67.0083 84.9998 66.9998C84.065 66.9652 83.1475 67.2583 82.406 67.8286Z" fill="#4D93F3"/>
</svg>
