<svg width="113" height="102" viewBox="0 0 113 102" fill="none" xmlns="http://www.w3.org/2000/svg">
<circle cx="46.5" cy="46" r="46" fill="#E7F3FF"/>
<path d="M60 97H52.5V100.75H60V97Z" fill="#8D949C"/>
<path d="M92.5 97H85V100.75H92.5V97Z" fill="#8D949C"/>
<path d="M97.5 94.5C97.498 95.1624 97.234 95.7972 96.7656 96.2656C96.2972 96.734 95.6624 96.998 95 97H50C49.3376 96.998 48.7028 96.734 48.2344 96.2656C47.766 95.7972 47.502 95.1624 47.5 94.5V92H97.5V94.5Z" fill="#016FD5"/>
<path d="M80 89.5C81.3807 89.5 82.5 88.3807 82.5 87C82.5 85.6193 81.3807 84.5 80 84.5C78.6193 84.5 77.5 85.6193 77.5 87C77.5 88.3807 78.6193 89.5 80 89.5Z" fill="#FA7928"/>
<path d="M88.75 89.5C90.1307 89.5 91.25 88.3807 91.25 87C91.25 85.6193 90.1307 84.5 88.75 84.5C87.3693 84.5 86.25 85.6193 86.25 87C86.25 88.3807 87.3693 89.5 88.75 89.5Z" fill="#016FD5"/>
<path d="M86.25 75.75L87.5 80.75H57.5L58.75 75.75H86.25Z" fill="#6DBAFF"/>
<path d="M57.5 80.75H87.5L86.25 75.75H58.75L57.5 80.75ZM80 89.5C80.4945 89.5 80.9778 89.3534 81.3889 89.0787C81.8 88.804 82.1205 88.4135 82.3097 87.9567C82.4989 87.4999 82.5484 86.9972 82.452 86.5123C82.3555 86.0273 82.1174 85.5819 81.7678 85.2322C81.4181 84.8826 80.9727 84.6445 80.4877 84.5481C80.0028 84.4516 79.5001 84.5011 79.0433 84.6903C78.5865 84.8795 78.196 85.2 77.9213 85.6111C77.6466 86.0222 77.5 86.5056 77.5 87C77.502 87.6624 77.766 88.2972 78.2344 88.7656C78.7028 89.234 79.3376 89.498 80 89.5ZM97.5 92H47.5L52.025 73.8875C52.1598 73.347 52.472 72.8672 52.9116 72.5251C53.3512 72.1829 53.8929 71.998 54.45 72H90.55C91.1071 71.998 91.6488 72.1829 92.0884 72.5251C92.528 72.8672 92.8402 73.347 92.975 73.8875L97.5 92ZM88.75 89.5C89.2445 89.5 89.7278 89.3534 90.1389 89.0787C90.55 88.804 90.8705 88.4135 91.0597 87.9567C91.2489 87.4999 91.2984 86.9972 91.202 86.5123C91.1055 86.0273 90.8674 85.5819 90.5178 85.2322C90.1681 84.8826 89.7227 84.6445 89.2377 84.5481C88.7528 84.4516 88.2501 84.5011 87.7933 84.6903C87.3365 84.8795 86.946 85.2 86.6713 85.6111C86.3966 86.0222 86.25 86.5056 86.25 87C86.252 87.6624 86.516 88.2972 86.9844 88.7656C87.4528 89.234 88.0876 89.498 88.75 89.5Z" fill="#E6F3FF"/>
<path d="M82.5 68.25H62.5V72H82.5V68.25Z" fill="#AEB8C1"/>
<path d="M83.125 64.5C83.6223 64.5 84.0992 64.6975 84.4508 65.0492C84.8025 65.4008 85 65.8777 85 66.375C85 66.8723 84.8025 67.3492 84.4508 67.7008C84.0992 68.0525 83.6223 68.25 83.125 68.25H61.875C61.3777 68.25 60.9008 68.0525 60.5492 67.7008C60.1975 67.3492 60 66.8723 60 66.375C60 65.8777 60.1975 65.4008 60.5492 65.0492C60.9008 64.6975 61.3777 64.5 61.875 64.5H83.125Z" fill="#016FD5"/>
<path d="M83.1248 67H61.8748C61.488 66.9998 61.1107 66.8793 60.7952 66.6554C60.4797 66.4315 60.2415 66.1151 60.1136 65.75C60.0101 66.0323 59.9767 66.3354 60.016 66.6334C60.0553 66.9315 60.1663 67.2155 60.3395 67.4613C60.5126 67.707 60.7427 67.9072 61.0101 68.0445C61.2775 68.1819 61.5742 68.2524 61.8748 68.25H83.1248C83.4255 68.2524 83.7222 68.1819 83.9896 68.0445C84.257 67.9072 84.4871 67.707 84.6602 67.4613C84.8334 67.2155 84.9444 66.9315 84.9837 66.6334C85.023 66.3354 84.9895 66.0323 84.8861 65.75C84.7582 66.1151 84.52 66.4315 84.2045 66.6554C83.889 66.8793 83.5117 66.9998 83.1248 67Z" fill="#01386A"/>
<path d="M83.7499 43.25V49.5H62.4999V44.5L60.4374 42.1625C60.1518 41.8682 59.9945 41.4726 59.9999 41.0625C59.9891 40.6599 60.1383 40.2695 60.4147 39.9767C60.6912 39.6838 61.0724 39.5124 61.4749 39.5H83.1249C83.6222 39.5 84.0991 39.6975 84.4507 40.0492C84.8024 40.4008 84.9999 40.8777 84.9999 41.375C85.0037 41.779 84.9228 42.1792 84.7624 42.55C84.6846 42.7556 84.546 42.9327 84.3652 43.0577C84.1843 43.1827 83.9698 43.2498 83.7499 43.25Z" fill="#E6F3FF"/>
<path d="M67.5 49.5H83.75V59.5C83.75 61.9375 81.75 64.5 79.45 64.5H66.95C64.6375 64.5 62.5 61.9375 62.5 59.5V49.5H67.5Z" fill="#6DBAFF"/>
<path d="M93.75 27C93.75 27.3315 93.6183 27.6495 93.3839 27.8839C93.1495 28.1183 92.8315 28.25 92.5 28.25H52.5C52.1685 28.25 51.8505 28.1183 51.6161 27.8839C51.3817 27.6495 51.25 27.3315 51.25 27V24.5C51.25 24.1685 51.3817 23.8505 51.6161 23.6161C51.8505 23.3817 52.1685 23.25 52.5 23.25H92.5C92.8315 23.25 93.1495 23.3817 93.3839 23.6161C93.6183 23.8505 93.75 24.1685 93.75 24.5V27Z" fill="#016FD5"/>
<path d="M92.5 25.75H52.5C52.1685 25.75 51.8505 25.6183 51.6161 25.3839C51.3817 25.1495 51.25 24.8315 51.25 24.5V27C51.25 27.3315 51.3817 27.6495 51.6161 27.8839C51.8505 28.1183 52.1685 28.25 52.5 28.25H92.5C92.8315 28.25 93.1495 28.1183 93.3839 27.8839C93.6183 27.6495 93.75 27.3315 93.75 27V24.5C93.75 24.8315 93.6183 25.1495 93.3839 25.3839C93.1495 25.6183 92.8315 25.75 92.5 25.75Z" fill="#01386A"/>
<path d="M83.125 68.25C83.6223 68.25 84.0992 68.0525 84.4508 67.7008C84.8025 67.3492 85 66.8723 85 66.375C85 65.8777 84.8025 65.4008 84.4508 65.0492C84.0992 64.6975 83.6223 64.5 83.125 64.5H79.45C81.75 64.5 83.75 61.9375 83.75 59.5V43.25C83.9698 43.2498 84.1844 43.1827 84.3653 43.0577C84.5461 42.9327 84.6847 42.7556 84.7625 42.55C84.9229 42.1792 85.0038 41.779 85 41.375C85 40.8777 84.8025 40.4008 84.4508 40.0492C84.0992 39.6975 83.6223 39.5 83.125 39.5H61.475C61.0725 39.5124 60.6913 39.6838 60.4148 39.9767C60.1384 40.2695 59.9892 40.6599 60 41.0625C59.9946 41.4726 60.1519 41.8682 60.4375 42.1625L62.5 44.5V59.5C62.5 61.9375 64.6375 64.5 66.95 64.5H61.875C61.3777 64.5 60.9008 64.6975 60.5492 65.0492C60.1975 65.4008 60 65.8777 60 66.375C60 66.8723 60.1975 67.3492 60.5492 67.7008C60.9008 68.0525 61.3777 68.25 61.875 68.25H62.5V72H53.75V28.25H91.25V72H82.5V68.25H83.125Z" fill="#C7E2FF"/>
<path d="M82.5 68.25H62.5V72H65C65 71.337 65.2634 70.7011 65.7322 70.2322C66.2011 69.7634 66.837 69.5 67.5 69.5H82.5V68.25Z" fill="#8D949C"/>
<path d="M77.5 32H91.25V28.25H53.75V72H58.75V50.75C58.7519 47.8735 59.4197 45.0365 60.7013 42.4612L60.4375 42.1625C60.1519 41.8682 59.9946 41.4726 60 41.0625C59.9892 40.6599 60.1384 40.2695 60.4148 39.9767C60.6913 39.6838 61.0725 39.5124 61.475 39.5H62.525C64.2664 37.172 66.5266 35.282 69.1261 33.9801C71.7255 32.6782 74.5927 32.0002 77.5 32Z" fill="#9CC7FF"/>
<path d="M67.5 49.5H83.75V59.5C83.75 61.9375 81.75 64.5 79.45 64.5H66.95C64.6375 64.5 62.5 61.9375 62.5 59.5V49.5H67.5Z" fill="#016FD5"/>
<path d="M84.7624 42.55C84.9228 42.1792 85.0037 41.779 84.9999 41.375C84.9999 40.8777 84.8024 40.4008 84.4507 40.0492C84.0991 39.6975 83.6222 39.5 83.1249 39.5H61.4749C61.0724 39.5124 60.6912 39.6838 60.4147 39.9767C60.1383 40.2695 59.9891 40.6599 59.9999 41.0625C59.9945 41.4726 60.1518 41.8682 60.4374 42.1625L61.3974 43.25H83.7499C83.9698 43.2498 84.1843 43.1827 84.3652 43.0577C84.546 42.9327 84.6846 42.7556 84.7624 42.55Z" fill="#DBEAFF"/>
<path d="M81.25 60.75H77.5C74.8478 60.75 72.3043 59.6964 70.4289 57.8211C68.5536 55.9457 67.5 53.4022 67.5 50.75V49.5H62.5V59.5C62.5 61.9375 64.6375 64.5 66.95 64.5H79.45C81.75 64.5 83.75 61.9375 83.75 59.5V58.25C83.75 58.913 83.4866 59.5489 83.0178 60.0178C82.5489 60.4866 81.913 60.75 81.25 60.75Z" fill="#01386A"/>
<path d="M67.5003 43.25H61.3978L62.5003 44.5V49.5H67.5003V43.25Z" fill="#DBEAFF"/>
<path d="M68.125 46.375H71.25V45.125H67.5C67.3342 45.125 67.1753 45.1908 67.0581 45.3081C66.9408 45.4253 66.875 45.5842 66.875 45.75V49.5H68.125V46.375Z" fill="#9CC7FF"/>
<path d="M68.125 49.5H66.875V60.75C66.875 60.9158 66.9408 61.0747 67.0581 61.1919C67.1753 61.3092 67.3342 61.375 67.5 61.375H71.25V60.125H68.125V53.875H71.25V52.625H68.125V49.5Z" fill="#016FD5"/>
<path d="M95 94.5H56.25C55.587 94.5 54.9511 94.2366 54.4822 93.7678C54.0134 93.2989 53.75 92.663 53.75 92H47.5V94.5C47.502 95.1624 47.766 95.7972 48.2344 96.2656C48.7028 96.734 49.3376 96.998 50 97H95C95.6624 96.998 96.2972 96.734 96.7656 96.2656C97.234 95.7972 97.498 95.1624 97.5 94.5V92C97.5 92.663 97.2366 93.2989 96.7678 93.7678C96.2989 94.2366 95.663 94.5 95 94.5Z" fill="#01386A"/>
<path d="M92.5 97H85V100.75H87.5C87.5 100.087 87.7634 99.4511 88.2322 98.9822C88.7011 98.5134 89.337 98.25 90 98.25H92.5V97Z" fill="#5E6369"/>
<path d="M60 97H52.5V100.75H55C55 100.087 55.2634 99.4511 55.7322 98.9822C56.2011 98.5134 56.837 98.25 57.5 98.25H60V97Z" fill="#5E6369"/>
<path d="M70 75.75L65 80.75H67.5L72.5 75.75H70Z" fill="#2492F7"/>
<path d="M72.5 75.75L67.5 80.75H77.5L82.5 75.75H72.5Z" fill="#C2DCFF"/>
<path d="M58.75 75.75L57.5 80.75H65L70 75.75H58.75Z" fill="#6DBAFF"/>
<path d="M86.25 75.75L81.25 80.75H87.5L86.25 75.75Z" fill="#2492F7"/>
<path d="M82.5 75.75L77.5 80.75H81.25L86.25 75.75H82.5Z" fill="#6DBAFF"/>
<path d="M90.9013 88.25C90.6848 88.6296 90.3718 88.9452 89.994 89.1648C89.6162 89.3843 89.187 89.4999 88.75 89.4999C88.313 89.4999 87.8838 89.3843 87.506 89.1648C87.1282 88.9452 86.8152 88.6296 86.5987 88.25H82.1513C81.9348 88.6296 81.6218 88.9452 81.244 89.1648C80.8662 89.3843 80.437 89.4999 80 89.4999C79.563 89.4999 79.1338 89.3843 78.756 89.1648C78.3782 88.9452 78.0652 88.6296 77.8487 88.25H65.2137C63.0589 88.25 60.9922 87.394 59.4685 85.8703C57.9448 84.3465 57.0887 82.2799 57.0887 80.125C57.0887 77.9701 57.9448 75.9035 59.4685 74.3798C60.9922 72.856 63.0589 72 65.2137 72H54.45C53.8929 71.998 53.3512 72.1829 52.9116 72.5251C52.472 72.8672 52.1598 73.347 52.025 73.8875L47.5 92H97.5L96.5625 88.25H90.9013Z" fill="#CCE1FF"/>
<path d="M88.75 88.25C89.4404 88.25 90 87.6904 90 87C90 86.3096 89.4404 85.75 88.75 85.75C88.0596 85.75 87.5 86.3096 87.5 87C87.5 87.6904 88.0596 88.25 88.75 88.25Z" fill="#01386A"/>
<path d="M80 88.25C80.6904 88.25 81.25 87.6904 81.25 87C81.25 86.3096 80.6904 85.75 80 85.75C79.3096 85.75 78.75 86.3096 78.75 87C78.75 87.6904 79.3096 88.25 80 88.25Z" fill="#DE6725"/>
<path d="M55 87H52.5V89.5H55V87Z" fill="#01386A"/>
<path d="M60 87H57.5V89.5H60V87Z" fill="#01386A"/>
<path d="M65 87H62.5V89.5H65V87Z" fill="#01386A"/>
<path d="M70 87H67.5V89.5H70V87Z" fill="#01386A"/>
<path d="M56.25 83.25H53.75V85.75H56.25V83.25Z" fill="#01386A"/>
<path d="M61.25 83.25H58.75V85.75H61.25V83.25Z" fill="#01386A"/>
<path d="M66.25 83.25H63.75V85.75H66.25V83.25Z" fill="#01386A"/>
<path d="M71.25 83.25H68.75V85.75H71.25V83.25Z" fill="#01386A"/>
<path d="M56.25 85.75H53.75V87H56.25V85.75Z" fill="#A0BEE8"/>
<path d="M56.25 83.25H53.75V84.5H56.25V83.25Z" fill="#0062BC"/>
<path d="M61.25 85.75H58.75V87H61.25V85.75Z" fill="#A0BEE8"/>
<path d="M61.25 83.25H58.75V84.5H61.25V83.25Z" fill="#0062BC"/>
<path d="M66.25 85.75H63.75V87H66.25V85.75Z" fill="#A0BEE8"/>
<path d="M66.25 83.25H63.75V84.5H66.25V83.25Z" fill="#0062BC"/>
<path d="M71.25 85.75H68.75V87H71.25V85.75Z" fill="#A0BEE8"/>
<path d="M71.25 83.25H68.75V84.5H71.25V83.25Z" fill="#0062BC"/>
<path d="M55 89.5H52.5V90.75H55V89.5Z" fill="#A0BEE8"/>
<path d="M55 87H52.5V88.25H55V87Z" fill="#0062BC"/>
<path d="M60 89.5H57.5V90.75H60V89.5Z" fill="#A0BEE8"/>
<path d="M60 87H57.5V88.25H60V87Z" fill="#0062BC"/>
<path d="M65 89.5H62.5V90.75H65V89.5Z" fill="#A0BEE8"/>
<path d="M65 87H62.5V88.25H65V87Z" fill="#0062BC"/>
<path d="M70 89.5H67.5V90.75H70V89.5Z" fill="#A0BEE8"/>
<path d="M70 87H67.5V88.25H70V87Z" fill="#0062BC"/>
<path d="M81.25 45.75C81.25 45.4185 81.1183 45.1005 80.8839 44.8661C80.6495 44.6317 80.3315 44.5 80 44.5C79.6685 44.5 79.3505 44.6317 79.1161 44.8661C78.8817 45.1005 78.75 45.4185 78.75 45.75V49.5H81.25V45.75Z" fill="white"/>
<path d="M78.75 49.5V57C78.75 57.3315 78.8817 57.6495 79.1161 57.8839C79.3505 58.1183 79.6685 58.25 80 58.25C80.3315 58.25 80.6495 58.1183 80.8839 57.8839C81.1183 57.6495 81.25 57.3315 81.25 57V49.5H78.75Z" fill="#63A6EC"/>
</svg>
