<svg width="372" height="461" viewBox="0 0 372 461" fill="none" xmlns="http://www.w3.org/2000/svg">
<g opacity="0.300003">
<path opacity="0.0243835" d="M143.878 343.711L3.26953 422.227L33.5733 439.718L172.129 360.019L143.878 343.711Z" fill="#F8FBFF"/>
<path opacity="0.0487823" d="M143.878 343.71L6.5415 420.399L36.796 437.865L172.129 360.018L143.878 343.71Z" fill="#F8FBFF"/>
<path opacity="0.0731659" d="M143.877 343.709L9.81055 418.572L40.0183 436.009L172.129 360.017L143.877 343.709Z" fill="#F8FBFF"/>
<path opacity="0.0975647" d="M143.877 343.71L13.0796 416.747L43.238 434.155L172.128 360.019L143.877 343.71Z" fill="#F8FBFF"/>
<path opacity="0.121948" d="M143.878 343.71L16.3525 414.92L46.4617 432.302L172.129 360.018L143.878 343.71Z" fill="#F8FBFF"/>
<path opacity="0.146347" d="M143.877 343.71L19.6211 413.094L49.6809 430.447L172.128 360.018L143.877 343.71Z" fill="#F8FBFF"/>
<path opacity="0.170731" d="M143.878 343.709L22.8911 411.267L52.9043 428.592L172.129 360.017L143.878 343.709Z" fill="#F8FBFF"/>
<path opacity="0.195129" d="M143.877 343.71L26.1626 409.443L56.1239 426.74L172.129 360.018L143.877 343.71Z" fill="#F8FBFF"/>
<path opacity="0.219513" d="M143.877 343.71L29.4316 407.617L59.3462 424.885L172.128 360.018L143.877 343.71Z" fill="#F8FBFF"/>
<path opacity="0.243896" d="M143.878 343.71L32.7021 405.791L62.5674 423.03L172.13 360.018L143.878 343.71Z" fill="#F8FBFF"/>
<path opacity="0.268295" d="M143.877 343.71L35.9707 403.964L65.7893 421.178L172.129 360.018L143.877 343.71Z" fill="#F8FBFF"/>
<path opacity="0.292679" d="M143.878 343.71L39.2437 402.138L69.0129 419.323L172.13 360.018L143.878 343.71Z" fill="#F8FBFF"/>
<path opacity="0.317078" d="M143.878 343.709L42.5122 400.311L72.2322 417.467L172.129 360.018L143.878 343.709Z" fill="#F8FBFF"/>
<path opacity="0.341461" d="M143.877 343.71L45.7812 398.485L75.4545 415.615L172.129 360.018L143.877 343.71Z" fill="#F8FBFF"/>
<path opacity="0.36586" d="M143.877 343.71L49.0532 396.661L78.6746 413.76L172.129 360.018L143.877 343.71Z" fill="#F8FBFF"/>
<path opacity="0.390244" d="M143.877 343.71L52.3223 394.834L81.8969 411.905L172.128 360.018L143.877 343.71Z" fill="#F8FBFF"/>
<path opacity="0.414627" d="M143.876 343.709L55.5908 393.007L85.1162 410.052L172.128 360.017L143.876 343.709Z" fill="#F8FBFF"/>
<path opacity="0.439026" d="M143.877 343.71L58.8638 391.182L88.3398 408.199L172.129 360.019L143.877 343.71Z" fill="#F8FBFF"/>
<path opacity="0.463409" d="M143.876 343.709L62.1323 389.355L91.5591 406.343L172.128 360.018L143.876 343.709Z" fill="#F8FBFF"/>
<path opacity="0.487808" d="M143.878 343.71L65.4028 387.529L94.7829 404.489L172.129 360.019L143.878 343.71Z" fill="#F8FBFF"/>
<path opacity="0.512192" d="M143.877 343.71L68.6743 385.702L98.0051 402.636L172.128 360.018L143.877 343.71Z" fill="#F8FBFF"/>
<path opacity="0.536591" d="M143.877 343.71L71.9434 383.879L101.225 400.781L172.128 360.019L143.877 343.71Z" fill="#F8FBFF"/>
<path opacity="0.560974" d="M143.878 343.71L75.2134 382.052L104.448 398.926L172.129 360.018L143.878 343.71Z" fill="#F8FBFF"/>
<path opacity="0.585373" d="M143.877 343.71L78.4849 380.226L107.668 397.074L172.128 360.018L143.877 343.71Z" fill="#F8FBFF"/>
<path opacity="0.609756" d="M143.877 343.71L81.7544 378.399L110.891 395.218L172.129 360.018L143.877 343.71Z" fill="#F8FBFF"/>
<path opacity="0.63414" d="M143.877 343.711L85.0234 376.573L114.11 393.364L172.128 360.019L143.877 343.711Z" fill="#F8FBFF"/>
<path opacity="0.658539" d="M143.877 343.709L88.293 374.746L117.333 391.511L172.128 360.018L143.877 343.709Z" fill="#F8FBFF"/>
<path opacity="0.682922" d="M143.877 343.71L91.5649 372.92L120.556 389.657L172.128 360.019L143.877 343.71Z" fill="#F8FBFF"/>
<path opacity="0.707321" d="M143.877 343.71L94.8345 371.096L123.776 387.801L172.129 360.018L143.877 343.71Z" fill="#F8FBFF"/>
<path opacity="0.731705" d="M143.877 343.71L98.104 369.27L126.999 385.949L172.129 360.018L143.877 343.71Z" fill="#F8FBFF"/>
<path opacity="0.756104" d="M143.878 343.709L101.376 367.443L130.219 384.093L172.129 360.018L143.878 343.709Z" fill="#F8FBFF"/>
<path opacity="0.780487" d="M143.877 343.71L104.645 365.617L133.441 382.239L172.129 360.018L143.877 343.71Z" fill="#F8FBFF"/>
<path opacity="0.804871" d="M143.876 343.71L107.914 363.79L136.66 380.386L172.128 360.018L143.876 343.71Z" fill="#F8FBFF"/>
<path opacity="0.829269" d="M143.878 343.71L111.187 361.964L139.885 378.531L172.129 360.018L143.878 343.71Z" fill="#F8FBFF"/>
<path opacity="0.853653" d="M143.877 343.71L114.456 360.14L143.106 376.676L172.128 360.018L143.877 343.71Z" fill="#F8FBFF"/>
<path opacity="0.878052" d="M143.878 343.709L117.726 358.313L146.327 374.823L172.129 360.017L143.878 343.709Z" fill="#F8FBFF"/>
<path opacity="0.902435" d="M143.877 343.71L120.995 356.488L149.55 372.97L172.129 360.019L143.877 343.71Z" fill="#F8FBFF"/>
<path opacity="0.926834" d="M143.877 343.71L124.266 354.661L152.769 371.114L172.128 360.018L143.877 343.71Z" fill="#F8FBFF"/>
<path opacity="0.951218" d="M143.877 343.71L127.536 352.835L155.992 369.262L172.129 360.018L143.877 343.71Z" fill="#F8FBFF"/>
<path opacity="0.975616" d="M143.876 343.709L130.804 351.007L159.211 367.406L172.128 360.017L143.876 343.709Z" fill="#F8FBFF"/>
<path opacity="0.300003" d="M143.878 343.71L134.078 349.182L162.435 365.552L172.129 360.018L143.878 343.71Z" fill="#F8FBFF"/>
</g>
<path d="M162.148 366.336L315.18 277.492V95.6372L162.148 134.503V366.336Z" fill="#F8FBFD"/>
<path d="M133.043 104.494L162.148 121.296V366.336L133.043 349.535V104.494Z" fill="#E5EDF4"/>
<path d="M200.829 245.689L372 146.877V159.854L200.829 258.666V245.689Z" fill="#E5EDF4"/>
<path d="M200.829 245.689L86.064 98.8118L257.235 0L372 146.878L200.829 245.689Z" fill="#F8FBFD"/>
<path d="M103.143 101.681L204.197 231.016L354.921 144.006L253.865 14.6737L103.143 101.681Z" fill="#E5EDF4"/>
<path d="M166.773 157.815C165.301 155.909 165.835 153.144 167.911 151.923L273.909 89.5834C275.634 88.5694 277.842 88.9849 279.08 90.5562L290.505 105.062C291.991 106.948 291.492 109.709 289.44 110.956L184.358 174.778C182.617 175.835 180.36 175.416 179.115 173.803L166.773 157.815Z" fill="#040D1F"/>
<path d="M199.16 153.151C199.94 152.67 200.311 152.041 200.426 151.253L200.46 151.232L200.988 151.907L201.793 151.412L199.796 148.171L197.229 149.752L197.769 150.629L199.232 149.728C199.73 150.597 199.492 151.557 198.546 152.14C197.512 152.777 196.319 152.44 195.455 151.037C194.596 149.643 194.869 148.407 195.87 147.791C196.614 147.333 197.414 147.386 198.008 147.929L199.15 147.225C198.212 146.122 196.604 145.95 195.235 146.793C193.617 147.79 193.105 149.749 194.335 151.744C195.542 153.703 197.455 154.201 199.16 153.151ZM204.725 149.731C205.807 149.064 206.225 148.076 205.921 147.15L204.828 147.665C204.922 148.149 204.686 148.578 204.214 148.869C203.507 149.305 202.751 149.128 202.252 148.338L205.487 146.345L205.281 146.009C204.277 144.38 202.856 144.267 201.713 144.971C200.382 145.791 200.116 147.302 200.999 148.735C201.897 150.192 203.325 150.593 204.725 149.731ZM201.801 147.599C201.469 146.985 201.6 146.217 202.253 145.814C202.882 145.427 203.588 145.625 203.984 146.254L201.801 147.599ZM206.964 141.819L206.048 142.383L205.362 141.271L204.268 141.945L204.953 143.058L204.294 143.464L204.816 144.31L205.475 143.904L207.066 146.486C207.598 147.364 208.498 147.402 209.305 146.871C209.611 146.67 209.788 146.477 209.882 146.365L209.17 145.623C209.119 145.676 209.012 145.779 208.876 145.863C208.601 146.033 208.32 146.072 208.048 145.63L206.569 143.23L207.485 142.665L206.964 141.819ZM209.901 137.874L208.779 138.565L212.594 144.757L213.716 144.066L209.901 137.874ZM214.147 140.046C213.733 139.375 213.9 138.738 214.477 138.382C215.043 138.034 215.61 138.197 215.992 138.817L217.71 141.605L218.804 140.93L216.982 137.973C216.3 136.859 215.274 136.615 214.315 137.206C213.62 137.634 213.347 138.261 213.454 138.909L213.4 138.942L212.914 138.153L211.868 138.798L214.729 143.441L215.823 142.767L214.147 140.046ZM221.329 134.661C220.693 133.968 219.755 133.854 218.667 134.525C217.548 135.214 217.125 136.234 217.658 137.09C218.072 137.769 218.765 137.96 219.77 137.595L220.665 137.273C221.149 137.104 221.455 137.153 221.617 137.416C221.812 137.734 221.615 138.185 221.095 138.505C220.593 138.815 220.132 138.798 219.781 138.439L218.777 139.199C219.439 139.968 220.466 140.031 221.606 139.329C222.767 138.614 223.216 137.507 222.677 136.626C222.266 135.965 221.59 135.823 220.596 136.173L219.699 136.491C219.163 136.676 218.874 136.628 218.712 136.357C218.515 136.045 218.729 135.613 219.185 135.332C219.69 135.021 220.126 135.132 220.398 135.385L221.329 134.661ZM223.741 131.482L222.824 132.046L222.139 130.934L221.045 131.608L221.73 132.721L221.071 133.127L221.593 133.973L222.252 133.567L223.842 136.149C224.375 137.027 225.274 137.065 226.082 136.534C226.387 136.333 226.565 136.14 226.659 136.028L225.947 135.286C225.896 135.339 225.789 135.442 225.653 135.526C225.377 135.696 225.097 135.735 224.825 135.294L223.346 132.893L224.262 132.329L223.741 131.482ZM229.088 134.707C229.886 134.215 229.953 133.519 229.917 133.074L229.983 133.033L230.434 133.765L231.51 133.102L228.649 128.458L227.552 129.134L228.025 129.902L227.979 129.93C227.606 129.697 226.961 129.414 226.142 129.919C225.069 130.58 224.743 131.941 225.697 133.489C226.639 135.018 227.993 135.381 229.088 134.707ZM228.84 133.621C228.117 134.066 227.345 133.666 226.808 132.795C226.276 131.93 226.269 131.08 226.997 130.631C227.702 130.197 228.448 130.542 229.003 131.443C229.559 132.344 229.538 133.191 228.84 133.621ZM231.941 129.082C231.528 128.411 231.694 127.774 232.272 127.418C232.837 127.07 233.405 127.233 233.787 127.853L235.504 130.641L236.599 129.966L234.777 127.009C234.095 125.895 233.068 125.651 232.11 126.242C231.415 126.67 231.142 127.297 231.249 127.945L231.194 127.978L230.708 127.189L229.662 127.834L232.523 132.477L233.618 131.803L231.941 129.082ZM237.016 123.303L236.1 123.867L235.414 122.754L234.32 123.429L235.005 124.541L234.346 124.947L234.868 125.794L235.527 125.388L237.118 127.97C237.65 128.847 238.549 128.885 239.357 128.355C239.663 128.154 239.84 127.961 239.934 127.849L239.222 127.107C239.171 127.159 239.064 127.263 238.928 127.347C238.653 127.516 238.372 127.555 238.1 127.114L236.621 124.714L237.537 124.149L237.016 123.303ZM246.271 119.736C245.038 117.734 243.09 117.308 241.467 118.308C239.84 119.31 239.348 121.24 240.581 123.241C241.813 125.24 243.759 125.671 245.386 124.669C245.779 124.427 246.105 124.13 246.359 123.79L247.27 124.125L248.358 123.455L246.822 122.883C247.109 121.955 246.962 120.857 246.271 119.736ZM243.671 122.739L245.187 123.323C245.066 123.452 244.926 123.563 244.766 123.662C243.759 124.283 242.577 123.955 241.709 122.546C240.841 121.138 241.08 119.935 242.087 119.315C243.097 118.692 244.275 119.021 245.144 120.43C245.613 121.192 245.759 121.89 245.634 122.472L244.687 122.113L243.671 122.739ZM250.802 118.52C251.238 119.228 250.949 119.89 250.466 120.188C249.94 120.512 249.36 120.356 248.997 119.766L247.279 116.979L246.185 117.653L248.006 120.61C248.694 121.726 249.718 121.966 250.631 121.404C251.326 120.975 251.591 120.308 251.482 119.657L251.53 119.628L252.039 120.453L253.1 119.799L250.239 115.155L249.144 115.83L250.802 118.52ZM256.154 118.043C257.514 117.204 257.789 115.713 256.904 114.277C256.017 112.838 254.56 112.409 253.199 113.248C251.839 114.086 251.567 115.58 252.453 117.019C253.338 118.455 254.793 118.881 256.154 118.043ZM255.62 117.162C254.867 117.626 254.085 117.182 253.561 116.333C253.038 115.483 252.987 114.576 253.74 114.112C254.481 113.655 255.269 114.108 255.792 114.958C256.316 115.807 256.36 116.706 255.62 117.162ZM258.556 110.03L257.64 110.595L256.955 109.482L255.86 110.157L256.546 111.269L255.887 111.675L256.408 112.522L257.068 112.116L258.658 114.698C259.191 115.575 260.09 115.613 260.898 115.082C261.203 114.881 261.381 114.689 261.474 114.577L260.763 113.835C260.712 113.887 260.604 113.991 260.468 114.075C260.193 114.244 259.913 114.283 259.641 113.842L258.162 111.441L259.078 110.877L258.556 110.03ZM264.242 113.059C265.324 112.393 265.742 111.405 265.438 110.479L264.345 110.994C264.439 111.478 264.203 111.907 263.731 112.198C263.024 112.634 262.269 112.457 261.77 111.667L265.004 109.674L264.798 109.338C263.794 107.709 262.373 107.596 261.23 108.3C259.9 109.12 259.634 110.631 260.516 112.064C261.414 113.521 262.842 113.922 264.242 113.059ZM261.318 110.928C260.986 110.314 261.117 109.546 261.77 109.143C262.399 108.756 263.105 108.954 263.501 109.583L261.318 110.928Z" fill="white"/>
<g opacity="0.300003">
<path opacity="0.0243835" d="M295.914 352.338L140.726 438.995L174.172 458.303L327.095 370.338L295.914 352.338Z" fill="#F8FBFF"/>
<path opacity="0.0487823" d="M295.914 352.337L144.335 436.979L177.727 456.255L327.095 370.337L295.914 352.337Z" fill="#F8FBFF"/>
<path opacity="0.0731659" d="M295.914 352.338L147.945 434.964L181.285 454.209L327.095 370.338L295.914 352.338Z" fill="#F8FBFF"/>
<path opacity="0.0975647" d="M295.914 352.339L151.554 432.948L184.839 452.162L327.094 370.338L295.914 352.339Z" fill="#F8FBFF"/>
<path opacity="0.121948" d="M295.915 352.337L155.164 430.931L188.395 450.117L327.095 370.337L295.915 352.337Z" fill="#F8FBFF"/>
<path opacity="0.146347" d="M295.914 352.338L158.772 428.919L191.951 448.07L327.095 370.338L295.914 352.338Z" fill="#F8FBFF"/>
<path opacity="0.170731" d="M295.915 352.338L162.383 426.902L195.507 446.023L327.096 370.337L295.915 352.338Z" fill="#F8FBFF"/>
<path opacity="0.195129" d="M295.914 352.339L165.991 424.888L199.06 443.977L327.094 370.338L295.914 352.339Z" fill="#F8FBFF"/>
<path opacity="0.219513" d="M295.914 352.339L169.6 422.872L202.618 441.933L327.094 370.338L295.914 352.339Z" fill="#F8FBFF"/>
<path opacity="0.243896" d="M295.914 352.338L173.209 420.856L206.173 439.885L327.095 370.338L295.914 352.338Z" fill="#F8FBFF"/>
<path opacity="0.268295" d="M295.914 352.338L176.819 418.84L209.728 437.838L327.095 370.338L295.914 352.338Z" fill="#F8FBFF"/>
<path opacity="0.292679" d="M295.913 352.339L180.428 416.827L213.285 435.792L327.094 370.339L295.913 352.339Z" fill="#F8FBFF"/>
<path opacity="0.317078" d="M295.914 352.338L184.037 414.81L216.84 433.744L327.095 370.338L295.914 352.338Z" fill="#F8FBFF"/>
<path opacity="0.341461" d="M295.914 352.337L187.646 412.794L220.394 431.699L327.094 370.337L295.914 352.337Z" fill="#F8FBFF"/>
<path opacity="0.36586" d="M295.913 352.338L191.255 410.779L223.949 429.653L327.094 370.338L295.913 352.338Z" fill="#F8FBFF"/>
<path opacity="0.390244" d="M295.914 352.338L194.866 408.763L227.507 427.606L327.095 370.338L295.914 352.338Z" fill="#F8FBFF"/>
<path opacity="0.414627" d="M295.914 352.339L198.474 406.748L231.061 425.56L327.094 370.338L295.914 352.339Z" fill="#F8FBFF"/>
<path opacity="0.439026" d="M295.915 352.337L202.084 404.731L234.617 423.511L327.095 370.337L295.915 352.337Z" fill="#F8FBFF"/>
<path opacity="0.463409" d="M295.914 352.338L205.693 402.718L238.173 421.467L327.095 370.337L295.914 352.338Z" fill="#F8FBFF"/>
<path opacity="0.487808" d="M295.913 352.338L209.302 400.703L241.728 419.421L327.094 370.338L295.913 352.338Z" fill="#F8FBFF"/>
<path opacity="0.512192" d="M295.914 352.339L212.911 398.687L245.283 417.375L327.094 370.339L295.914 352.339Z" fill="#F8FBFF"/>
<path opacity="0.536591" d="M295.914 352.338L216.52 396.671L248.84 415.327L327.094 370.338L295.914 352.338Z" fill="#F8FBFF"/>
<path opacity="0.560974" d="M295.914 352.338L220.13 394.655L252.395 413.282L327.095 370.338L295.914 352.338Z" fill="#F8FBFF"/>
<path opacity="0.585373" d="M295.915 352.338L223.74 392.642L255.951 411.236L327.096 370.338L295.915 352.338Z" fill="#F8FBFF"/>
<path opacity="0.609756" d="M295.914 352.338L227.349 390.625L259.507 409.188L327.095 370.337L295.914 352.338Z" fill="#F8FBFF"/>
<path opacity="0.63414" d="M295.913 352.339L230.957 388.611L263.061 407.142L327.094 370.338L295.913 352.339Z" fill="#F8FBFF"/>
<path opacity="0.658539" d="M295.914 352.338L234.567 386.594L266.617 405.094L327.095 370.337L295.914 352.338Z" fill="#F8FBFF"/>
<path opacity="0.682922" d="M295.914 352.338L238.177 384.578L270.172 403.05L327.095 370.338L295.914 352.338Z" fill="#F8FBFF"/>
<path opacity="0.707321" d="M295.914 352.338L241.786 382.563L273.729 401.003L327.095 370.338L295.914 352.338Z" fill="#F8FBFF"/>
<path opacity="0.731705" d="M295.915 352.339L245.395 380.547L277.285 398.957L327.095 370.339L295.915 352.339Z" fill="#F8FBFF"/>
<path opacity="0.756104" d="M295.914 352.337L249.004 378.533L280.839 396.909L327.095 370.337L295.914 352.337Z" fill="#F8FBFF"/>
<path opacity="0.780487" d="M295.913 352.338L252.613 376.518L284.395 394.863L327.094 370.338L295.913 352.338Z" fill="#F8FBFF"/>
<path opacity="0.804871" d="M295.914 352.338L256.223 374.502L287.951 392.818L327.095 370.338L295.914 352.338Z" fill="#F8FBFF"/>
<path opacity="0.829269" d="M295.914 352.338L259.831 372.486L291.505 390.771L327.094 370.338L295.914 352.338Z" fill="#F8FBFF"/>
<path opacity="0.853653" d="M295.914 352.339L263.441 370.471L295.063 388.725L327.095 370.338L295.914 352.339Z" fill="#F8FBFF"/>
<path opacity="0.878052" d="M295.914 352.338L267.05 368.454L298.618 386.677L327.095 370.337L295.914 352.338Z" fill="#F8FBFF"/>
<path opacity="0.902435" d="M295.913 352.338L270.659 366.441L302.172 384.632L327.094 370.337L295.913 352.338Z" fill="#F8FBFF"/>
<path opacity="0.926834" d="M295.914 352.338L274.269 364.425L305.73 382.586L327.095 370.338L295.914 352.338Z" fill="#F8FBFF"/>
<path opacity="0.951218" d="M295.914 352.338L277.878 362.41L309.284 380.539L327.094 370.338L295.914 352.338Z" fill="#F8FBFF"/>
<path opacity="0.975616" d="M295.914 352.338L281.487 360.393L312.839 378.492L327.095 370.338L295.914 352.338Z" fill="#F8FBFF"/>
<path opacity="0.300003" d="M295.914 352.338L285.097 358.378L316.397 376.445L327.095 370.338L295.914 352.338Z" fill="#F8FBFF"/>
</g>
<path d="M294.222 386.08L267.325 372.187C264.694 370.825 264.733 367.019 267.393 365.711L267.816 365.504C272.491 363.205 277.881 362.868 282.803 364.567L302.865 369.483C305.2 369.919 306.887 371.984 306.864 374.381L306.822 378.854C306.804 380.686 305.826 382.372 304.248 383.285L299.632 385.955C297.966 386.917 295.93 386.964 294.222 386.08Z" fill="#05105D"/>
<path d="M280.691 371.393L281.07 371.206C285.261 369.146 288.086 366.271 292.495 367.792L303.649 369.932L305.222 373.31C305.196 374.957 304.311 376.472 302.892 377.292L298.779 379.671C297.287 380.535 295.461 380.577 293.932 379.783L280.632 372.846C280.271 372.659 279.986 372.41 279.739 372.137C280.001 371.847 280.305 371.582 280.691 371.393Z" fill="#F9B888"/>
<path d="M322.23 370.76L295.333 356.867C292.702 355.505 292.741 351.699 295.401 350.392L295.824 350.184C300.499 347.886 305.888 347.548 310.811 349.248L330.873 354.164C333.208 354.6 334.895 356.665 334.872 359.062L334.83 363.535C334.812 365.366 333.834 367.053 332.256 367.966L327.64 370.636C325.974 371.598 323.937 371.645 322.23 370.76Z" fill="#05105D"/>
<path d="M308.698 356.073L309.077 355.887C313.267 353.827 316.09 350.949 320.501 352.472L331.656 354.613L333.228 357.988C333.202 359.638 332.318 361.153 330.898 361.973L326.786 364.352C325.291 365.216 323.467 365.257 321.939 364.464L308.638 357.526C308.278 357.339 307.992 357.09 307.743 356.818C308.008 356.527 308.309 356.263 308.698 356.073Z" fill="#F9B888"/>
<path d="M326.193 363.193C326.281 363.193 326.369 363.193 326.46 363.191C330.889 363.04 332.758 359.302 332.61 354.837L331.017 305.663L334.216 256.484C334.361 252.019 330.889 248.281 326.46 248.133C322.031 247.993 311.906 251.493 311.761 255.955L316.567 305.663L318.18 355.369C318.321 359.743 321.883 363.193 326.193 363.193Z" fill="#F9B888"/>
<path d="M297.308 379.375C297.578 379.375 297.85 379.362 298.122 379.333C302.534 378.884 304.14 374.915 303.693 370.468L298.997 307.619L310.087 264.524C310.896 260.129 303.135 265.261 298.782 264.447C294.443 263.64 286.732 257.974 285.925 262.366L282.801 306.942L289.334 372.1C289.755 376.269 293.239 379.375 297.308 379.375Z" fill="#F9B888"/>
<path d="M328.606 207.321L330.863 213.685C332.189 217.426 332.76 221.401 332.539 225.367L332.007 238.147L340.44 289.547C332.949 305.282 295.139 306.351 281.343 295.807L284.316 240.711C283.341 235.859 282.98 230.904 283.247 225.962L284.039 216.113L328.606 207.321Z" fill="#05105D"/>
<path d="M320.616 211.28C322.86 211.28 325.042 210.108 326.246 208.006L337.992 187.495C350.208 166.167 344.765 138.827 325.335 123.904L322.121 121.44C319.266 119.245 315.195 119.803 313.021 122.683C310.846 125.56 311.399 129.669 314.253 131.861L317.466 134.329C331.711 145.267 335.699 165.308 326.744 180.944L314.998 201.455C313.205 204.587 314.269 208.593 317.375 210.401C318.397 210.997 319.513 211.28 320.616 211.28Z" fill="#F3F8FE"/>
<path opacity="0.300003" d="M326.245 208.006C325.041 210.108 322.859 211.28 320.614 211.28C319.514 211.28 318.396 210.997 317.373 210.403C314.267 208.593 313.204 204.587 314.999 201.455L326.745 180.944C328.686 177.553 329.984 173.95 330.736 170.281C330.674 176.243 331.016 182.205 331.816 188.118L332.708 196.723L326.245 208.006Z" fill="#05105D"/>
<path d="M307.039 121.476L303.238 123.689C290.807 130.928 283.147 139.45 283.147 153.927L281.528 157.8C279.465 162.727 279.195 168.227 280.762 173.335L283.147 181.1L282.228 279.421C288.046 283.528 301.525 283.108 314.133 280.036C315.226 279.772 316.308 262.374 317.379 262.07C318.435 261.769 319.478 278.565 320.506 278.231C329.966 275.149 337.986 270.634 340.438 265.588L329.442 202.68C328.498 195.691 328.152 191.867 328.412 184.818L330.228 135.566C330.682 123.305 317.574 115.343 307.039 121.476Z" fill="#F3F8FE"/>
<path d="M301.467 125.11H310.559C315.097 125.11 318.776 121.432 318.776 116.891V86.654H285.753V109.399C285.753 118.077 292.79 125.11 301.467 125.11Z" fill="#F9B888"/>
<path d="M305.844 134.743H309.645C312.408 134.743 314.648 132.504 314.648 129.741V108.605C314.648 107.658 313.877 106.887 312.93 106.887H302.559C301.609 106.887 300.841 107.658 300.841 108.605V129.741C300.841 132.504 303.08 134.743 305.844 134.743Z" fill="#F9B888"/>
<path opacity="0.300003" d="M283.147 176.404C284.284 175.943 286.419 174.682 286.808 171.641L289.424 151.197C289.883 147.609 293.137 145.085 296.694 145.539C300.254 146.004 300.428 149.768 299.969 153.356L299.689 173.317C298.726 180.841 293.661 186.888 286.469 189.104C285.366 189.444 284.255 189.649 283.147 189.786V176.404Z" fill="#05105D"/>
<path d="M266.76 179.867L247.967 158.311C245.598 155.595 245.863 151.457 248.556 149.067C251.249 146.678 255.354 146.948 257.72 149.661L276.514 171.218C278.849 173.898 281.82 173.247 282.676 172.982C283.53 172.72 286.356 171.584 286.81 168.048L289.425 147.604C289.885 144.016 293.138 141.489 296.696 141.946C300.253 142.407 302.765 145.692 302.305 149.28L299.69 169.723C298.727 177.245 293.662 183.295 286.47 185.51C284.604 186.084 282.713 186.364 280.847 186.364C275.533 186.364 270.437 184.083 266.76 179.867Z" fill="#F2B1B5"/>
<path d="M260.818 153.215L257.719 149.663C255.353 146.947 251.248 146.68 248.555 149.069C245.862 151.456 245.597 155.594 247.966 158.31L251.728 162.625L260.818 153.215Z" fill="#F9B888"/>
<path d="M241.873 152.009C241.873 156.386 245.392 159.935 249.73 159.935C254.071 159.935 257.59 156.386 257.59 152.009C257.59 147.633 254.071 144.083 249.73 144.083C245.392 144.083 241.873 147.633 241.873 152.009Z" fill="#F9B888"/>
<path d="M283.391 79.9127C289.097 73.0999 302.439 75.1261 309.834 77.5155C320.05 80.8181 326.993 87.5713 326.526 99.2122C326.277 105.415 323.56 112.827 319.048 117.163C313.77 122.235 306.64 120.891 302.553 115.095C300.768 112.56 299.723 109.294 297.078 107.696C294.995 106.438 291.98 106.22 291.004 103.975C290.267 102.276 291.175 100.364 291.853 98.6389C292.53 96.9136 292.831 94.6072 291.357 93.4994C289.857 92.3735 287.774 93.0169 286.297 91.8053C285.301 90.9855 284.019 89.2732 283.101 88.2199C280.672 85.4283 281.059 82.699 283.391 79.9127Z" fill="#1067DB"/>
<path d="M283.391 79.9135C286.463 76.2425 291.754 75.1503 297.136 75.2852C292.361 75.4123 287.836 76.6317 285.088 79.9135C282.756 82.6999 282.369 85.4292 284.798 88.2207C285.716 89.274 286.998 90.9863 287.994 91.8061C289.471 93.0177 291.554 92.3743 293.054 93.5003C294.528 94.6081 294.224 96.9145 293.547 98.6397C292.872 100.365 291.964 102.277 292.701 103.976C293.674 106.22 296.692 106.438 298.773 107.697C301.419 109.295 302.463 112.561 304.25 115.096C306.461 118.23 309.564 120.004 312.782 120.225C308.98 120.645 305.151 118.78 302.553 115.096C300.768 112.561 299.723 109.295 297.078 107.697C294.995 106.438 291.977 106.22 291.004 103.976C290.267 102.277 291.175 100.365 291.85 98.6397C292.527 96.9145 292.831 94.6081 291.357 93.5003C289.857 92.3743 287.774 93.0177 286.297 91.8061C285.301 90.9863 284.019 89.274 283.101 88.2207C280.672 85.4292 281.059 82.6999 283.391 79.9135Z" fill="#4085E2"/>
<path d="M316.065 101.811L317.416 101.215C318.491 96.978 322.025 93.6469 326.091 92.1292C333.042 89.54 342.256 93.7506 345.541 100.429C348.646 106.746 345.016 117.466 342.154 123.467C336.848 134.591 325.644 144.637 331.711 157.977C332.315 159.305 333.06 160.89 332.282 162.123C330.413 165.085 326.122 154.007 325.603 152.944C322.92 147.457 320.307 142.18 320.969 135.844C321.42 131.514 323.312 127.477 324.191 123.217C325.068 118.958 324.671 113.945 321.407 111.102C319.687 109.602 317.3 108.821 316.078 106.886C315.128 105.381 315.123 103.321 316.065 101.811Z" fill="#1067DB"/>
<path opacity="0.300003" d="M315.94 102.877C317.482 104.805 319.635 102.452 321.662 103.853C325.504 106.512 329.202 111.534 328.766 116.215C328.33 120.898 326.366 126.278 326.397 130.979C326.433 136.793 327.37 148.735 330.261 153.413C329.993 156.386 330.206 154.666 331.711 157.976C332.316 159.305 333.06 160.89 332.282 162.125C330.414 165.087 326.122 154.007 325.603 152.943C322.92 147.459 320.307 142.179 320.969 135.844C321.42 131.516 323.312 127.477 324.191 123.217C325.069 118.957 324.672 113.947 321.407 111.101C319.687 109.602 317.3 108.821 316.078 106.885C315.271 105.606 315.188 103.946 315.748 102.545C315.818 102.651 315.86 102.776 315.94 102.877Z" fill="#231F20"/>
<path d="M314.766 103.859L315.114 104.059C316.183 104.674 316.393 103.553 316.912 102.427C317.651 100.821 318.521 99.28 319.514 97.822C320.21 96.7972 321.058 96.0423 319.989 95.4274L319.644 95.2302C318.739 94.7087 317.561 94.9319 316.956 95.788C315.752 97.5003 314.722 99.3267 313.873 101.244C313.451 102.204 313.861 103.34 314.766 103.859Z" fill="#05105D"/>
<path d="M266.469 180.47L252.066 165.69C250.403 162.048 256.394 146.731 258.851 149.551L276.514 171.219C278.937 174 283.042 173.188 283.148 172.257C283.148 172.257 285.284 171.31 285.753 167.636L288.968 144.084C289.446 140.359 293.857 140.624 297.549 141.098C301.244 141.578 303.852 144.987 303.374 148.71L300.66 169.937C299.659 177.749 294.399 184.027 286.934 186.329C284.996 186.925 283.032 187.216 281.096 187.216C275.577 187.216 270.286 184.85 266.469 180.47Z" fill="#F3F8FE"/>
<path d="M242.403 137.692L253.464 149.413C253.799 149.766 254.354 149.779 254.705 149.444L255.948 148.248C256.298 147.911 256.313 147.353 255.979 147.001L244.917 135.279C244.583 134.926 244.027 134.911 243.677 135.248L242.434 136.442C242.084 136.779 242.068 137.339 242.403 137.692Z" fill="#F9B888"/>
<path d="M200.829 258.666L86.064 114.966V98.8087L200.829 245.689V258.666Z" fill="#E5EDF4"/>
</svg>
