<svg width="400" height="400" viewBox="0 0 400 400" fill="none" xmlns="http://www.w3.org/2000/svg">
<path d="M290.012 24.8761L247.675 0.476331C247.129 0.163221 246.51 -0.00102141 245.88 4.77932e-06C245.25 0.00103096 244.632 0.167291 244.086 0.482179C243.541 0.797068 243.088 1.24955 242.772 1.79444C242.456 2.33933 242.289 2.95754 242.287 3.5873V52.3869C242.287 53.2936 242.525 54.1843 242.979 54.9696C243.432 55.7548 244.084 56.4069 244.869 56.8602L287.206 81.26C287.752 81.5732 288.371 81.7374 289.001 81.7364C289.631 81.7353 290.249 81.5691 290.795 81.2542C291.34 80.9393 291.793 80.4868 292.109 79.9419C292.425 79.397 292.592 78.7788 292.594 78.1491V29.3494C292.598 28.4419 292.362 27.5496 291.908 26.7636C291.454 25.9777 290.8 25.3263 290.012 24.8761V24.8761Z" fill="#F3F8FE"/>
<path d="M290.011 101.248L247.675 76.8479C247.129 76.5348 246.51 76.3705 245.88 76.3716C245.25 76.3726 244.631 76.5388 244.086 76.8537C243.541 77.1686 243.087 77.6211 242.771 78.166C242.456 78.7109 242.288 79.3291 242.286 79.9589V128.758C242.288 129.665 242.528 130.555 242.981 131.34C243.434 132.124 244.085 132.777 244.869 133.232L287.205 157.632C287.753 157.946 288.374 158.11 289.005 158.108C289.637 158.106 290.257 157.938 290.803 157.621C291.349 157.303 291.802 156.848 292.116 156.3C292.431 155.753 292.595 155.132 292.594 154.5V105.619C292.58 104.729 292.335 103.858 291.882 103.091C291.429 102.325 290.784 101.689 290.011 101.248V101.248Z" fill="#F3F8FE"/>
<path d="M290.907 79.0641V30.2645C290.903 29.3613 290.663 28.4748 290.21 27.6934C289.757 26.912 289.106 26.2632 288.324 25.8115L245.988 1.41173C245.236 0.964493 244.342 0.819172 243.487 1.00507C244.046 0.494279 244.755 0.175442 245.508 0.0949834C246.261 0.0145252 247.021 0.176645 247.676 0.557736L290.012 24.9576C290.8 25.4077 291.454 26.0591 291.908 26.845C292.362 27.631 292.599 28.5233 292.594 29.4308V78.2305C292.595 79.0583 292.307 79.8604 291.78 80.4987C291.253 81.1371 290.52 81.5717 289.707 81.7278C290.083 81.3931 290.384 80.9829 290.591 80.5239C290.798 80.065 290.905 79.5675 290.907 79.0641V79.0641Z" fill="url(#paint0_linear_3476_3239)"/>
<path d="M290.908 155.436V106.636C290.902 105.73 290.66 104.842 290.208 104.058C289.755 103.274 289.106 102.621 288.325 102.163L245.989 77.7628C245.231 77.3301 244.341 77.1925 243.488 77.3765C244.047 76.8657 244.756 76.5469 245.509 76.4664C246.262 76.386 247.022 76.5481 247.677 76.9292L290.013 101.329C290.798 101.777 291.45 102.426 291.904 103.208C292.357 103.99 292.596 104.878 292.595 105.782V154.582C292.597 155.412 292.31 156.217 291.783 156.858C291.256 157.5 290.523 157.939 289.708 158.099C290.084 157.765 290.385 157.354 290.592 156.895C290.799 156.436 290.906 155.939 290.908 155.436Z" fill="url(#paint1_linear_3476_3239)"/>
<path d="M272.625 62.9195C269.941 62.8367 267.325 62.0515 265.04 60.6422C260.433 57.6331 256.598 53.5823 253.847 48.8173C251.095 44.0523 249.503 38.7068 249.199 33.2127C249.199 27.9058 251.111 23.9002 254.568 21.8872C258.024 19.8742 262.457 20.2605 267.033 22.9038C271.642 25.9106 275.478 29.9608 278.23 34.7263C280.982 39.4918 282.573 44.8385 282.873 50.3333C282.873 55.6402 280.982 59.6662 277.525 61.6589C276.032 62.5062 274.341 62.9413 272.625 62.9195V62.9195ZM259.468 24.6321C258.451 24.6159 257.448 24.8684 256.56 25.3641C254.405 26.6045 253.205 29.4308 253.205 33.2127C253.507 38.0011 254.912 42.6547 257.311 46.8099C259.709 50.9651 263.037 54.5093 267.033 57.1652C270.347 59.0766 273.357 59.4425 275.512 58.1819C277.667 56.9212 278.867 54.1153 278.867 50.3333C278.579 45.5333 277.181 40.8658 274.781 36.6986C272.382 32.5314 269.047 28.9784 265.04 26.3198V26.3198C263.359 25.2866 261.44 24.7052 259.468 24.6321V24.6321Z" fill="#E9EDFC"/>
<path d="M271.61 59.5442C269.45 59.485 267.345 58.8535 265.509 57.7142C262.739 56.0326 260.328 53.8216 258.413 51.2076C258.334 51.1021 258.277 50.9822 258.244 50.8546C258.212 50.727 258.205 50.5943 258.224 50.464C258.243 50.3337 258.287 50.2084 258.354 50.0953C258.422 49.9822 258.511 49.8834 258.616 49.8046C258.721 49.7258 258.841 49.6686 258.969 49.6362C259.097 49.6038 259.229 49.5968 259.36 49.6157C259.49 49.6346 259.615 49.679 259.728 49.7463C259.842 49.8136 259.94 49.9025 260.019 50.0079C261.771 52.4039 263.975 54.4346 266.506 55.9859C269.515 57.7142 272.301 58.0192 274.335 56.8399C276.368 55.6606 277.527 53.0783 277.527 49.6216C277.301 45.4509 276.095 41.3921 274.007 37.7745C271.919 34.157 269.008 31.0825 265.509 28.8004C265.28 28.6683 265.113 28.4505 265.044 28.1951C264.976 27.9396 265.011 27.6673 265.143 27.4381C265.275 27.2089 265.493 27.0416 265.749 26.973C266.004 26.9043 266.277 26.94 266.506 27.0721C270.295 29.5431 273.448 32.8727 275.709 36.7907C277.971 40.7087 279.276 45.1046 279.52 49.6216C279.52 53.8306 278.035 57.0026 275.351 58.5682C274.21 59.213 272.921 59.5494 271.61 59.5442V59.5442Z" fill="url(#paint2_linear_3476_3239)"/>
<path d="M272.625 138.986C269.941 138.903 267.325 138.118 265.04 136.709C260.433 133.699 256.598 129.649 253.847 124.884C251.095 120.119 249.503 114.773 249.199 109.279C249.199 103.972 251.111 99.9666 254.568 97.9536C258.024 95.9406 262.457 96.327 267.033 98.9703C271.642 101.977 275.478 106.027 278.23 110.793C280.982 115.558 282.573 120.905 282.873 126.4C282.873 131.707 280.982 135.733 277.525 137.725C276.032 138.573 274.341 139.008 272.625 138.986V138.986ZM259.468 100.699C258.451 100.682 257.448 100.935 256.56 101.431C254.405 102.671 253.205 105.497 253.205 109.279C253.507 114.068 254.912 118.721 257.311 122.876C259.709 127.032 263.037 130.576 267.033 133.232C270.347 135.143 273.357 135.509 275.512 134.248C277.667 132.988 278.867 130.182 278.867 126.4C278.567 121.611 277.163 116.957 274.764 112.801C272.365 108.646 269.037 105.102 265.04 102.447V102.447C263.365 101.393 261.445 100.79 259.468 100.699V100.699Z" fill="#E9EDFC"/>
<path d="M272.156 135.855C271.886 135.855 271.628 135.748 271.437 135.557C271.246 135.366 271.139 135.108 271.139 134.838C271.139 134.568 271.246 134.31 271.437 134.119C271.628 133.929 271.886 133.821 272.156 133.821C275.552 133.537 277.585 130.588 277.585 125.912C277.356 121.742 276.149 117.684 274.061 114.067C271.973 110.45 269.064 107.375 265.568 105.091C265.452 105.027 265.35 104.941 265.269 104.838C265.187 104.734 265.128 104.615 265.093 104.488C265.059 104.36 265.051 104.227 265.07 104.097C265.088 103.966 265.133 103.841 265.202 103.728C265.337 103.503 265.555 103.339 265.809 103.271C266.063 103.202 266.334 103.235 266.564 103.362C270.35 105.837 273.5 109.167 275.761 113.085C278.022 117.002 279.329 121.396 279.578 125.912C279.578 131.646 276.792 135.448 272.319 135.814L272.156 135.855Z" fill="url(#paint3_linear_3476_3239)"/>
<path d="M263.396 37.7674C262.928 37.5234 262.582 37.5438 262.338 37.7674C262.065 38.2138 261.924 38.7285 261.931 39.2517C262.174 39.1737 262.431 39.1497 262.684 39.1813C262.937 39.2129 263.18 39.2994 263.396 39.4347C264.166 39.8747 264.788 40.5327 265.185 41.3257C265.677 42.2108 265.949 43.201 265.978 44.213C266.03 44.5807 265.996 44.9554 265.88 45.3079C265.763 45.6605 265.567 45.9816 265.307 46.2464C265.029 46.4283 264.704 46.5252 264.372 46.5252C264.039 46.5252 263.714 46.4283 263.436 46.2464C262.901 45.9589 262.43 45.5644 262.053 45.0874C261.638 44.5931 261.314 44.0284 261.098 43.4201C260.61 42.1184 260.349 40.7431 260.325 39.3534C260.286 38.5703 260.341 37.7853 260.488 37.0151C260.57 36.5243 260.789 36.0665 261.118 35.6934C261.407 35.4624 261.765 35.3366 262.135 35.3366C262.504 35.3366 262.863 35.4624 263.152 35.6934C263.529 35.8867 263.873 36.1408 264.168 36.4458C264.437 36.6994 264.689 36.9712 264.921 37.2591C265.104 37.5031 265.287 37.7877 265.51 38.1334L264.778 39.3127L264.575 38.9874C264.429 38.753 264.259 38.5349 264.067 38.3368C263.876 38.1108 263.649 37.9184 263.396 37.7674V37.7674ZM263.396 41.3461C263.269 41.2729 263.125 41.2344 262.979 41.2344C262.832 41.2344 262.689 41.2729 262.562 41.3461C262.446 41.4572 262.36 41.5951 262.31 41.7476C262.26 41.9001 262.249 42.0625 262.277 42.2204C262.286 42.6692 262.405 43.1091 262.623 43.5014C262.802 43.8781 263.093 44.1904 263.457 44.396C263.567 44.4818 263.703 44.5283 263.843 44.5283C263.983 44.5283 264.119 44.4818 264.229 44.396C264.453 44.2334 264.534 43.9487 264.514 43.5014C264.505 43.0616 264.394 42.6299 264.189 42.2407C263.998 41.858 263.692 41.545 263.314 41.3461H263.396Z" fill="#37407D"/>
<path d="M267.156 40.004V37.9706L271.752 40.431V42.017L270.308 43.6029C270.925 44.0706 271.414 44.6859 271.731 45.3923C272.081 46.0661 272.275 46.8094 272.301 47.5679C272.301 48.6456 272.097 49.3572 271.589 49.6012C271.264 49.7527 270.905 49.8155 270.548 49.7834C270.191 49.7513 269.848 49.6253 269.556 49.4182C268.526 48.7603 267.651 47.8861 266.993 46.8563L267.624 45.3923C268.143 46.2123 268.837 46.9069 269.657 47.4256C269.773 47.5095 269.908 47.5644 270.049 47.5856C270.191 47.6068 270.335 47.5938 270.471 47.5476C270.694 47.4256 270.776 47.1612 270.776 46.7342C270.751 46.2955 270.603 45.8727 270.349 45.5143C270.085 45.1223 269.729 44.8012 269.312 44.5789C268.997 44.4379 268.659 44.3553 268.315 44.3349V42.6473L269.678 41.0816L267.156 40.004Z" fill="#37407D"/>
<path d="M263.153 117.819V116.03L264.76 116.904V118.694L265.593 119.141V121.174L264.739 120.707L264.841 123.167L263.214 122.313V119.853L260.205 118.226V116.477L262.604 111.719L264.414 112.695L262.096 117.169L263.153 117.819Z" fill="#37407D"/>
<path d="M266.464 117.006L266.342 113.712L271.751 116.619V118.368L269.026 125.281L267.196 124.285L269.799 117.555L267.928 116.538V117.86L266.464 117.006Z" fill="#37407D"/>
<path d="M262.905 149.001C261.916 148.836 259.938 148.836 259.609 147.682C259.279 146.034 262.246 147.352 264.883 146.528C265.707 146.199 268.839 146.528 269.992 147.023C271.146 147.517 274.772 147.188 275.431 147.188C275.926 147.188 276.75 153.45 276.75 153.45C276.75 153.45 271.146 154.11 269.992 154.769C268.839 155.263 264.223 157.406 261.422 157.736C258.29 158.065 257.96 155.263 255.158 154.934C254.829 154.934 253.675 154.934 253.84 153.945C254.169 152.956 262.905 151.143 264.059 149.495C264.388 149.001 263.235 149.001 262.905 149.001Z" fill="#FEBDA9"/>
<path d="M308.726 131.366C320.263 123.125 334.603 113.236 336.58 112.083C345.646 106.644 347.294 110.764 348.777 115.709C351.25 123.949 344.657 130.542 329.658 138.782C314.659 147.023 309.55 146.858 305.759 145.704C302.133 144.551 297.353 139.606 308.726 131.366Z" fill="white"/>
<path d="M308.724 131.366C316.636 127.245 329.821 136.804 317.954 144.386C306.087 151.967 277.078 155.758 277.078 155.758C270.65 150.154 275.1 144.551 275.1 144.551C275.1 144.551 293.396 139.441 308.724 131.366Z" fill="white"/>
<path d="M326.526 285.465C328.01 284.97 327.845 281.509 327.845 281.509L338.723 279.861C338.723 279.861 338.558 288.761 338.394 290.244C338.229 291.563 337.405 294.694 333.449 294.035C328.504 293.211 324.054 293.87 322.571 294.365C321.087 294.859 317.956 295.189 314.33 294.529C310.868 293.87 308.396 292.387 311.363 289.915C314.659 287.607 323.065 286.783 326.526 285.465Z" fill="#1F262E"/>
<path d="M348.447 233.549C348.447 236.351 345.151 262.061 341.195 283.322C340.042 289.585 326.032 284.476 325.867 281.674C325.702 276.4 329.163 239.482 331.141 228.769C332.295 222.177 348.447 224.979 348.447 233.549Z" fill="url(#paint4_linear_3476_3239)"/>
<path d="M366.578 297.99C366.578 297.496 366.908 296.178 366.908 296.178L376.467 294.365C376.467 294.365 377.291 295.848 377.456 297.661C377.621 299.474 378.116 303.594 378.28 304.748C378.445 305.901 378.445 308.868 375.973 311.67C373.336 314.472 372.017 315.46 368.556 314.472C365.095 313.318 365.095 308.703 365.754 306.231C366.083 304.088 366.578 298.65 366.578 297.99Z" fill="#1F262E"/>
<path d="M376.962 243.108C377.456 245.91 378.939 271.785 378.939 293.541C378.939 299.968 364.27 297.661 363.611 295.024C362.457 289.915 358.996 252.997 358.996 242.119C359.161 235.197 375.313 234.703 376.962 243.108Z" fill="url(#paint5_linear_3476_3239)"/>
<path d="M357.183 183.281C357.348 188.555 355.041 196.137 353.887 201.081C352.568 206.19 349.602 233.879 347.953 238.823C345.811 245.251 330.318 243.108 330.318 234.538C330.318 231.736 329.493 187.072 333.614 165.647C334.603 159.548 357.019 180.48 357.183 183.281Z" fill="url(#paint6_linear_3476_3239)"/>
<path d="M378.94 189.05C380.917 196.137 378.115 243.438 377.456 248.547C376.632 255.304 360.974 256.293 359.326 247.888C358.831 245.086 352.898 201.081 352.898 179.326C352.898 173.063 378.28 186.248 378.94 189.05Z" fill="url(#paint7_linear_3476_3239)"/>
<path d="M351.415 108.786L364.93 105.325C364.93 105.325 367.567 105.655 368.227 106.314C369.38 107.468 370.204 108.951 370.699 110.27C371.358 111.918 372.347 113.236 373.666 114.39C373.666 114.39 382.566 121.147 384.709 123.619C393.115 133.179 383.39 216.244 383.39 238.493C383.39 238.493 359.656 238.164 348.283 235.197L345.976 226.792L342.514 232.56C338.559 231.406 326.032 223.99 326.032 223.99C326.032 223.99 331.307 116.862 339.548 110.435C341.196 109.116 351.415 108.786 351.415 108.786Z" fill="white"/>
<path d="M385.038 148.506C382.895 143.727 382.236 147.847 377.456 146.199C377.951 147.682 386.356 178.007 386.356 178.007C386.356 178.007 390.971 161.856 385.038 148.506Z" fill="url(#paint8_linear_3476_3239)"/>
<path d="M348.283 113.401C348.777 112.083 349.602 110.929 350.755 110.105C351.909 109.281 353.392 108.457 355.041 108.951C355.041 108.951 351.415 110.27 352.074 115.214C352.239 117.192 351.909 120.323 352.239 124.114C352.568 128.234 350.261 141.419 350.261 141.419L344.327 125.103L347.129 122.466L343.998 120.323L348.283 113.401Z" fill="url(#paint9_linear_3476_3239)"/>
<path d="M367.402 105.49C369.05 106.644 370.369 109.446 366.413 114.06C364.435 116.368 362.622 119.994 360.809 122.96C359.491 125.103 351.579 135.816 350.426 138.782C350.426 138.782 350.261 135.98 350.261 131.53C350.261 130.542 350.261 117.851 351.085 114.72C353.228 107.468 362.293 101.7 367.402 105.49Z" fill="white"/>
<path d="M365.753 101.535C365.753 101.535 365.918 103.677 367.401 107.303C367.566 107.798 367.566 108.457 367.071 108.786C365.588 110.435 361.632 114.72 357.512 114.72C357.512 114.72 354.545 112.412 354.545 109.775C354.545 107.138 365.753 101.535 365.753 101.535Z" fill="#FEBDA9"/>
<path d="M358.501 80.1091C372.017 80.4388 368.391 94.7774 368.391 94.7774C368.391 94.7774 369.38 95.2718 368.885 97.0848C368.391 98.8977 368.226 99.0625 367.896 100.051C367.567 101.04 366.907 102.688 365.589 102.359C365.589 102.359 363.611 107.303 354.71 110.27C353.227 110.764 351.084 110.27 350.755 108.786C350.26 107.303 347.293 103.018 347.293 99.7217C347.293 97.2496 348.282 97.4144 347.458 95.9311C346.634 94.283 344.821 79.7795 358.501 80.1091Z" fill="#FEBDA9"/>
<path d="M357.843 79.1203C367.073 78.7907 373.666 86.2072 369.051 95.9311C367.403 93.6237 365.425 96.4255 365.26 97.2496C365.095 97.744 364.601 99.8866 363.776 99.8866C363.117 99.8866 362.952 97.744 362.952 97.744C362.952 91.8108 364.436 90.9867 361.304 89.6682C358.667 88.5146 352.734 92.9645 347.459 92.9645C342.844 93.1293 345.152 79.6147 357.843 79.1203Z" fill="#1F262E"/>
<path d="M352.24 118.181L355.536 117.521L357.679 120.158C357.679 120.158 357.019 121.477 355.371 123.29C355.866 124.114 356.195 125.927 355.866 129.223C354.877 131.201 350.097 141.419 350.097 141.419V128.069C350.591 124.938 351.086 124.114 352.24 122.466V118.181Z" fill="url(#paint10_linear_3476_3239)"/>
<path d="M366.248 113.731C370.204 109.116 367.402 105.49 367.402 105.49C369.215 105.985 370.369 107.798 370.863 109.281C371.358 110.764 371.523 112.577 371.193 114.06L368.886 124.114L366.248 123.784L367.072 126.421L350.261 141.254C350.261 141.254 356.854 126.421 359.985 122.301C362.787 119.005 364.6 115.544 366.248 113.731Z" fill="url(#paint11_linear_3476_3239)"/>
<path d="M396.905 192.84C396.905 192.84 390.312 191.852 390.312 192.346C390.147 192.84 389.488 196.302 388.664 197.126C387.675 198.114 386.521 200.916 386.686 201.575C386.851 204.212 384.543 206.52 386.356 206.685C387.675 206.849 388.334 204.872 388.664 204.048C388.829 203.718 388.994 202.729 389.488 203.224C390.807 204.707 390.147 213.277 390.971 213.772C391.795 214.266 392.125 213.277 392.29 212.947C393.444 210.475 396.411 210.97 396.905 208.003C397.399 205.366 396.575 200.751 396.411 199.433C395.916 198.114 396.905 192.84 396.905 192.84Z" fill="#FEBDA9"/>
<path d="M379.928 120.488C375.808 119.005 368.556 124.608 371.522 134.332C372.182 136.31 379.434 148.506 384.543 161.361C389.488 174.217 395.751 171.25 398.059 168.119C400.366 164.987 398.883 161.361 394.927 145.375C390.477 129.223 386.192 122.631 379.928 120.488Z" fill="white"/>
<path d="M385.202 163.669C388.499 178.337 388.004 194.818 388.004 194.818C388.004 194.818 391.795 199.927 398.553 195.972C398.553 195.972 402.014 172.074 398.223 160.537C394.432 149.001 383.554 156.252 385.202 163.669Z" fill="white"/>
<path d="M357.842 142.738L357.677 149.165L369.38 154.11L369.709 147.517L357.842 142.738Z" fill="url(#paint12_linear_3476_3239)"/>
<path d="M360.644 142.573L360.479 145.869L366.743 148.506V145.045L360.644 142.573Z" fill="url(#paint13_linear_3476_3239)"/>
<path d="M315.9 255.396C316.066 255.109 316.214 254.813 316.344 254.508C316.704 253.796 317.001 253.054 317.232 252.29C317.401 251.782 317.534 251.263 317.631 250.737C317.77 250.08 317.845 249.411 317.853 248.74C317.898 248.223 317.898 247.704 317.853 247.187C317.818 246.366 317.714 245.55 317.542 244.747C317.133 242.721 316.296 240.806 315.087 239.131C313.878 237.455 312.324 236.057 310.531 235.029L248.719 199.311C244.819 197.064 240.396 195.882 235.895 195.882C231.394 195.882 226.972 197.064 223.071 199.311L26.763 312.101C24.9687 313.133 23.4126 314.532 22.1967 316.206C20.9808 317.881 20.1326 319.793 19.7076 321.819V321.819C19.5388 322.623 19.4349 323.439 19.397 324.259C19.397 324.791 19.397 325.28 19.397 325.812C19.397 326.344 19.3969 327.143 19.6188 327.809C19.8407 328.474 19.8406 328.829 20.0181 329.362C20.2559 330.137 20.5526 330.894 20.9057 331.625C21.0361 331.914 21.1843 332.196 21.3494 332.468C21.8795 333.399 22.5201 334.263 23.2574 335.041L23.7899 335.574C24.6685 336.434 25.6525 337.179 26.7186 337.792L88.5308 373.511C89.5052 374.061 90.5131 374.55 91.5483 374.975C94.6532 376.276 97.9881 376.94 101.355 376.927C103.571 376.934 105.779 376.651 107.922 376.084C110.106 375.489 112.208 374.624 114.179 373.511L310.487 260.72C311.537 260.104 312.506 259.359 313.371 258.502L313.904 257.969C314.661 257.187 315.331 256.324 315.9 255.396V255.396Z" fill="#0062BC"/>
<path d="M203.057 311.702V319.156C203.058 320.057 202.821 320.943 202.369 321.722C201.917 322.501 201.266 323.147 200.484 323.594L199.463 324.348C197.293 325.56 194.849 326.197 192.364 326.197C189.878 326.197 187.434 325.56 185.264 324.348L171.952 317.204C171.601 317.008 171.308 316.721 171.105 316.374C170.902 316.027 170.794 315.632 170.794 315.23C170.794 314.827 170.902 314.432 171.105 314.085C171.308 313.738 171.601 313.452 171.952 313.255V313.255C174.294 311.394 177.135 310.267 180.116 310.016C181.363 310.239 182.623 310.372 183.888 310.415L189.967 311.258L203.057 311.702Z" fill="#1067DB"/>
<path d="M172.127 315.696L185.439 322.839C187.625 324.026 190.08 324.629 192.567 324.591C195.055 324.552 197.49 323.872 199.638 322.617L200.659 321.907C201.438 321.457 202.086 320.811 202.538 320.032C202.989 319.254 203.229 318.37 203.232 317.47V319.201C203.233 320.102 202.996 320.987 202.544 321.766C202.092 322.546 201.441 323.191 200.659 323.638L199.638 324.392C197.468 325.605 195.024 326.241 192.538 326.241C190.053 326.241 187.608 325.605 185.439 324.392L172.127 317.249C171.63 316.991 171.248 316.556 171.059 316.029C170.87 315.502 170.887 314.924 171.106 314.409C171.287 314.943 171.648 315.397 172.127 315.696Z" fill="#05105D"/>
<path d="M196.532 320.931C198.49 320.924 200.372 320.173 201.798 318.83C203.223 317.487 204.085 315.653 204.209 313.699L206.56 275.185L227.682 287.831C229.447 288.878 231.556 289.181 233.545 288.674C235.534 288.166 237.24 286.889 238.287 285.124C239.335 283.359 239.638 281.25 239.13 279.261C238.623 277.272 237.346 275.567 235.581 274.519L212.24 260.543C210.203 259.33 207.889 258.66 205.519 258.598C203.15 258.536 200.804 259.083 198.706 260.187C196.608 261.292 194.829 262.916 193.54 264.905C192.25 266.894 191.493 269.181 191.34 271.547L188.855 312.678C188.789 313.687 188.923 314.699 189.249 315.655C189.574 316.612 190.086 317.495 190.754 318.253C191.422 319.012 192.233 319.631 193.141 320.076C194.048 320.52 195.035 320.781 196.044 320.843L196.532 320.931Z" fill="#05105D"/>
<path d="M179.446 329.495V336.949C179.435 337.842 179.196 338.718 178.754 339.494C178.312 340.27 177.68 340.921 176.917 341.386L175.897 342.096C173.746 343.343 171.311 344.018 168.826 344.056C166.34 344.095 163.886 343.497 161.697 342.318L148.385 335.174C148.033 334.984 147.739 334.702 147.534 334.359C147.328 334.015 147.22 333.622 147.22 333.222C147.22 332.822 147.328 332.429 147.534 332.085C147.739 331.742 148.033 331.46 148.385 331.27C150.717 329.39 153.563 328.261 156.55 328.031C157.815 328.215 159.088 328.333 160.366 328.386L166.445 329.229L179.446 329.495Z" fill="#1067DB"/>
<path d="M148.524 333.533L161.836 340.632C164.003 341.853 166.448 342.494 168.936 342.494C171.423 342.494 173.868 341.853 176.035 340.632L177.056 339.878C177.821 339.416 178.456 338.765 178.898 337.988C179.341 337.212 179.578 336.335 179.585 335.441V337.171C179.574 338.064 179.335 338.94 178.893 339.716C178.45 340.492 177.819 341.143 177.056 341.608L176.035 342.318C173.885 343.565 171.45 344.239 168.965 344.278C166.479 344.317 164.025 343.719 161.836 342.54L148.524 335.396C148.042 335.124 147.677 334.685 147.497 334.162C147.317 333.638 147.335 333.067 147.548 332.556C147.753 332.983 148.097 333.327 148.524 333.533V333.533Z" fill="#05105D"/>
<path d="M172.969 338.768C174.927 338.761 176.809 338.01 178.234 336.667C179.66 335.324 180.522 333.49 180.645 331.536L184.24 299.589L205.406 316.539C209.089 318.713 212.505 306.6 214.68 302.961C215.722 301.206 216.027 299.111 215.528 297.132C215.029 295.153 213.767 293.452 212.017 292.401L188.632 278.469C186.635 277.264 184.361 276.595 182.029 276.525C179.697 276.455 177.387 276.987 175.32 278.069C173.217 279.167 171.434 280.789 170.143 282.78C168.852 284.77 168.099 287.06 167.955 289.428L165.425 330.56C165.304 332.601 165.997 334.607 167.353 336.138C168.709 337.668 170.617 338.598 172.658 338.724L172.969 338.768Z" fill="#05105D"/>
<path d="M219.162 154.985L18.4608 270.349C16.1584 271.688 14.2476 273.607 12.9195 275.916C11.5914 278.225 10.8926 280.841 10.8926 283.505C10.8926 286.168 11.5914 288.785 12.9195 291.093C14.2476 293.402 16.1584 295.321 18.4608 296.66L81.6485 333.133C85.6322 335.444 90.1556 336.66 94.7608 336.66C99.366 336.66 103.89 335.444 107.873 333.133L308.619 217.769C310.922 216.436 312.834 214.521 314.164 212.216C315.493 209.911 316.193 207.296 316.193 204.635C316.193 201.974 315.493 199.36 314.164 197.055C312.834 194.75 310.922 192.835 308.619 191.502L245.431 155.029C241.443 152.712 236.915 151.488 232.302 151.481C227.69 151.473 223.158 152.681 219.162 154.985V154.985Z" fill="#E9EDFC"/>
<path d="M194.876 189.775L86.5372 251.355C85.2839 252.061 84.2419 253.083 83.5171 254.317C82.7924 255.551 82.4106 256.952 82.4106 258.379C82.4106 259.806 82.7924 261.207 83.5171 262.441C84.2419 263.674 85.2839 264.696 86.5372 265.403L120.611 284.884C122.768 286.121 125.217 286.773 127.711 286.773C130.205 286.773 132.654 286.121 134.812 284.884L243.151 223.304C244.393 222.589 245.423 221.563 246.139 220.331C246.855 219.099 247.232 217.702 247.232 216.28C247.232 214.859 246.855 213.462 246.139 212.23C245.423 210.997 244.393 209.972 243.151 209.256L209.032 189.775C206.883 188.538 204.441 187.886 201.954 187.886C199.467 187.886 197.025 188.538 194.876 189.775Z" fill="#D3DBF9"/>
<path d="M308.62 211.38L107.874 326.744C103.891 329.054 99.3671 330.271 94.7619 330.271C90.1567 330.271 85.6333 329.054 81.6496 326.744L18.4619 290.271C16.6272 289.219 15.0374 287.789 13.798 286.075C12.5586 284.361 11.6979 282.404 11.2733 280.332C10.5794 283.464 10.9023 286.736 12.195 289.673C13.4877 292.609 15.683 295.057 18.4619 296.66L81.6496 333.133C85.6333 335.444 90.1567 336.66 94.7619 336.66C99.3671 336.66 103.891 335.444 107.874 333.133L308.62 217.769C311.404 216.171 313.603 213.724 314.896 210.786C316.19 207.848 316.509 204.573 315.808 201.441C315.384 203.512 314.523 205.47 313.284 207.184C312.044 208.897 310.454 210.328 308.62 211.38V211.38Z" fill="url(#paint14_linear_3476_3239)"/>
<path d="M171.548 325.28L257.81 275.451L300.941 300.388L214.679 350.216L171.548 325.28Z" fill="url(#paint15_linear_3476_3239)"/>
<path d="M171.548 325.28V375.108L214.679 400V350.216L171.548 325.28Z" fill="#A8B8F4"/>
<path d="M300.945 300.388V350.216L214.683 400V350.216L300.945 300.388Z" fill="#BECAF7"/>
<path d="M176.342 246.033C176.734 246.022 177.107 245.858 177.38 245.576C177.653 245.295 177.806 244.917 177.806 244.525V238.313C177.806 237.92 177.653 237.543 177.38 237.262C177.107 236.98 176.734 236.816 176.342 236.804V236.804C175.942 236.804 175.558 236.963 175.275 237.246C174.992 237.529 174.833 237.913 174.833 238.313V244.525C174.833 244.925 174.992 245.309 175.275 245.592C175.558 245.874 175.942 246.033 176.342 246.033V246.033Z" fill="#F9B888"/>
<path d="M223.111 246.921C224.125 246.915 225.12 246.646 225.999 246.141C226.878 245.635 227.611 244.91 228.126 244.037C228.506 243.379 228.753 242.652 228.853 241.898C228.952 241.145 228.901 240.379 228.703 239.645C228.505 238.911 228.164 238.223 227.699 237.622C227.234 237.02 226.656 236.516 225.996 236.139L199.771 220.92C198.447 220.149 196.871 219.935 195.39 220.327C193.908 220.718 192.643 221.681 191.872 223.005C191.101 224.329 190.888 225.905 191.279 227.386C191.67 228.867 192.634 230.132 193.958 230.903L220.449 246.122C221.256 246.605 222.171 246.879 223.111 246.921Z" fill="#F9B888"/>
<path d="M247.784 273.455L251.378 300.077C251.378 301.725 250.943 303.343 250.117 304.769C249.291 306.194 248.104 307.377 246.675 308.197L223.024 320.488C212.463 324.259 200.837 318.402 200.837 311.613L211.753 258.901C211.753 255.529 204.742 257.836 207.67 256.15L238.199 238.402C244.101 235.162 247.784 266.71 247.784 273.455Z" fill="#05105D"/>
<path d="M250.714 230.77L252.134 244.081C252.807 250.597 253.147 257.143 253.154 263.693V273.81C253.266 281.367 252.911 288.925 252.089 296.439C251.69 298.391 232.387 318.092 205.364 307.709L203.545 262.406C202.613 249.095 202.701 232.19 215.88 223.981L217.611 222.961L231.677 215.284C233.311 214.346 235.162 213.853 237.046 213.853C238.931 213.853 240.782 214.346 242.416 215.284V215.284C244.913 217.038 246.964 219.352 248.405 222.041C249.846 224.73 250.637 227.72 250.714 230.77V230.77Z" fill="#1067DB"/>
<path d="M229.017 225.401C230.288 225.401 231.506 224.896 232.405 223.997C233.304 223.099 233.809 221.88 233.809 220.609V201.84C233.694 200.654 233.142 199.554 232.26 198.753C231.379 197.952 230.23 197.509 229.039 197.509C227.847 197.509 226.699 197.952 225.817 198.753C224.935 199.554 224.383 200.654 224.269 201.84V220.609C224.263 221.236 224.381 221.858 224.617 222.439C224.853 223.021 225.202 223.549 225.643 223.995C226.085 224.44 226.61 224.794 227.189 225.035C227.768 225.277 228.389 225.401 229.017 225.401V225.401Z" fill="#F9B888"/>
<path d="M229.323 219.677C229.878 219.683 230.429 219.578 230.943 219.368C231.457 219.159 231.924 218.848 232.317 218.456C232.709 218.063 233.02 217.596 233.229 217.082C233.439 216.568 233.544 216.017 233.538 215.462V192.123C233.544 191.568 233.439 191.017 233.229 190.503C233.02 189.989 232.709 189.522 232.317 189.129C231.924 188.736 231.457 188.426 230.943 188.216C230.429 188.007 229.878 187.902 229.323 187.908H209.798V200.376C209.798 202.929 210.305 205.457 211.289 207.814C212.272 210.17 213.714 212.308 215.53 214.103C217.346 215.898 219.5 217.315 221.868 218.272C224.235 219.229 226.769 219.706 229.323 219.677Z" fill="#F9B888"/>
<path d="M204.43 181.607C204.672 180.984 205.039 180.417 205.507 179.94C205.975 179.463 206.536 179.087 207.155 178.834C207.773 178.581 208.437 178.456 209.105 178.467C209.773 178.479 210.432 178.626 211.042 178.9C212.284 179.566 213.172 179.921 214.414 179.167C215.657 178.412 216.5 177.481 218.851 177.791C219.739 177.791 220.937 178.723 221.78 178.723C223.555 178.723 224.753 177.259 226.839 177.88C227.944 178.35 229.167 178.473 230.344 178.235C231.475 178.026 232.642 178.134 233.716 178.545C235.846 179.388 235.713 180.986 236.956 182.45C238.198 183.914 239.441 182.849 240.683 184.003C241.201 184.503 241.554 185.148 241.697 185.853C241.84 186.558 241.765 187.29 241.482 187.952C241.216 188.573 240.727 189.239 240.949 189.86C241.171 190.481 241.615 190.525 241.97 190.88C243.212 192.078 242.192 194.164 241.26 195.628C241.053 195.897 240.929 196.221 240.905 196.56C241.003 196.994 241.218 197.393 241.526 197.714C242.131 198.576 242.41 199.625 242.312 200.673C242.215 201.722 241.747 202.702 240.994 203.437C240.239 204.059 239.219 204.591 239.041 205.523C239.059 206.069 239.164 206.608 239.352 207.12C239.581 208.135 239.471 209.197 239.038 210.143C238.605 211.089 237.874 211.866 236.956 212.356C234.781 213.465 236.956 217.37 233.45 217.68C230.832 217.947 228.48 214.708 227.904 212.489C227.904 212.844 226.217 211.912 226.084 211.735C225.675 211.087 225.403 210.362 225.286 209.605C224.784 208.176 224.5 206.681 224.442 205.168C224.543 202.938 224.379 200.704 223.954 198.512C222.797 198.531 221.644 198.366 220.538 198.024C217.964 197.048 219.029 195.362 218.097 193.587C217.609 192.744 216.5 192.566 215.967 191.679C215.504 190.632 215.41 189.459 215.701 188.351C213.297 189.061 210.739 189.061 208.335 188.351C206.515 187.553 203.897 186.266 203.897 183.914C203.921 183.117 204.102 182.333 204.43 181.607V181.607Z" fill="#05105D"/>
<path d="M204.432 181.607C204.878 180.538 205.675 179.652 206.691 179.096C207.707 178.539 208.882 178.345 210.023 178.545C209.243 178.763 208.52 179.15 207.906 179.679C207.292 180.209 206.803 180.867 206.473 181.607C206.024 182.42 205.809 183.341 205.852 184.269C205.852 186.443 208.426 187.73 210.289 188.706C210.961 188.958 211.662 189.122 212.375 189.194C210.995 189.353 209.597 189.186 208.293 188.706C206.473 187.908 203.855 186.621 203.855 184.269C203.842 183.35 204.04 182.439 204.432 181.607V181.607Z" fill="#37407D"/>
<path d="M221.913 204.946C223.825 204.946 225.374 203.397 225.374 201.485C225.374 199.574 223.825 198.024 221.913 198.024C220.002 198.024 218.452 199.574 218.452 201.485C218.452 203.397 220.002 204.946 221.913 204.946Z" fill="#F9B888"/>
<path opacity="0.3" d="M209.448 262.007C208.172 264.57 206.337 266.814 204.078 268.574L203.502 262.317C203.502 259.966 203.235 257.481 203.191 254.952C203.19 252.388 203.323 249.826 203.59 247.276L210.912 232.5C211.226 231.792 211.685 231.158 212.259 230.638C212.834 230.118 213.51 229.724 214.246 229.482C214.982 229.239 215.76 229.154 216.531 229.23C217.302 229.307 218.048 229.544 218.722 229.927C220.096 230.806 221.096 232.163 221.53 233.736C221.964 235.308 221.802 236.986 221.074 238.446L209.448 262.007Z" fill="#231F20"/>
<path d="M193.827 265.645C194.824 265.647 195.819 265.558 196.8 265.379C199.195 264.966 201.475 264.053 203.494 262.7C205.512 261.347 207.223 259.584 208.514 257.526L221.56 236.671C221.962 236.027 222.234 235.31 222.359 234.562C222.484 233.813 222.46 233.047 222.289 232.307C222.118 231.568 221.803 230.869 221.362 230.251C220.921 229.634 220.363 229.109 219.719 228.707C219.075 228.304 218.358 228.033 217.609 227.908C216.861 227.783 216.094 227.807 215.355 227.978C214.615 228.149 213.916 228.464 213.299 228.905C212.681 229.346 212.156 229.904 211.754 230.548L198.708 251.402C198.271 252.083 197.699 252.667 197.027 253.117C196.356 253.567 195.599 253.875 194.803 254.02C194.024 254.144 193.227 254.106 192.464 253.907C191.7 253.708 190.986 253.354 190.366 252.866L172.705 239.023C171.49 238.201 170.008 237.869 168.558 238.093C167.108 238.318 165.797 239.082 164.887 240.233C163.977 241.384 163.537 242.837 163.653 244.3C163.77 245.762 164.436 247.126 165.517 248.119L183.044 261.918C186.119 264.334 189.916 265.647 193.827 265.645V265.645Z" fill="#F9B888"/>
<path d="M211.575 253.887C211.575 253.887 212.773 251.624 214.016 249.45L221.914 236.849C222.42 236.129 222.773 235.315 222.954 234.454C223.134 233.594 223.138 232.706 222.964 231.844C222.79 230.982 222.443 230.165 221.943 229.442C221.443 228.719 220.801 228.105 220.057 227.638C219.312 227.17 218.48 226.86 217.612 226.724C216.743 226.589 215.856 226.631 215.004 226.85C214.153 227.068 213.354 227.457 212.658 227.994C211.962 228.531 211.382 229.203 210.954 229.971L201.591 244.747C202.668 247.036 204.547 248.852 206.872 249.849C208.768 250.757 210.39 252.15 211.575 253.887V253.887Z" fill="#1067DB"/>
<path d="M202.698 232.145C202.661 231.951 202.585 231.766 202.475 231.602C202.365 231.437 202.223 231.297 202.057 231.189C201.891 231.081 201.705 231.008 201.51 230.974C201.315 230.94 201.115 230.946 200.923 230.992L194.888 232.279C194.693 232.315 194.508 232.391 194.344 232.501C194.18 232.611 194.039 232.753 193.932 232.919C193.824 233.085 193.751 233.271 193.717 233.466C193.683 233.661 193.689 233.861 193.734 234.053V234.053C193.771 234.248 193.847 234.433 193.957 234.597C194.067 234.761 194.209 234.902 194.375 235.009C194.541 235.117 194.727 235.19 194.922 235.224C195.117 235.258 195.317 235.252 195.509 235.207L201.544 233.92C201.738 233.884 201.923 233.808 202.088 233.698C202.252 233.587 202.392 233.445 202.5 233.279C202.608 233.113 202.681 232.927 202.715 232.733C202.749 232.538 202.743 232.338 202.698 232.145Z" fill="#F9B888"/>
<path d="M8.25246 118.689L196.751 9.84766C198.548 8.79944 200.591 8.24504 202.672 8.24063C204.753 8.23621 206.798 8.7819 208.6 9.82247C210.402 10.863 211.897 12.3614 212.933 14.1659C213.969 15.9703 214.51 18.0166 214.5 20.0973V138.656C214.498 141.558 213.734 144.409 212.286 146.923C210.838 149.438 208.756 151.529 206.247 152.988L17.7484 261.785C15.9542 262.831 13.9155 263.386 11.8384 263.392C9.76136 263.398 7.71933 262.856 5.91869 261.821C4.11805 260.786 2.62257 259.294 1.58317 257.496C0.543779 255.697 -0.00263339 253.657 -0.000934665 251.58V133.021C-0.00747625 130.117 0.752105 127.263 2.20122 124.747C3.65033 122.231 5.73762 120.141 8.25246 118.689V118.689Z" fill="#1067DB"/>
<path d="M4.78734 253.973V135.414C4.78528 132.506 5.55159 129.649 7.00872 127.132C8.46585 124.616 10.5621 122.529 13.0852 121.082L201.539 12.2852C204.118 10.7574 207.197 10.3108 210.103 11.0428C208.271 9.50966 206.014 8.57327 203.635 8.35914C201.256 8.14502 198.868 8.66343 196.791 9.84485L8.29288 118.686C5.77804 120.138 3.69075 122.228 2.24164 124.744C0.792524 127.26 0.0328069 130.114 0.0393485 133.018V251.577C0.0370552 254.246 0.946493 256.836 2.61688 258.917C4.28726 260.999 6.61845 262.448 9.22468 263.025C7.84075 261.957 6.72092 260.585 5.95152 259.016C5.18212 257.446 4.78374 255.721 4.78734 253.973V253.973Z" fill="url(#paint16_linear_3476_3239)"/>
<path d="M18.3389 197.359L72.4745 166.078V175.041L18.3389 206.277V197.359Z" fill="white"/>
<path d="M149.987 60.9476L204.123 29.6661V38.6291L149.987 69.8661V60.9476Z" fill="white"/>
<path d="M18.1292 135.113L41.2042 121.961V130.924L18.1292 144.031V135.113Z" fill="white"/>
<path d="M18.1292 153.242L41.2042 140.09V149.053L18.1292 162.161V153.242Z" fill="white"/>
<path d="M84.53 114.682L107.427 101.459V126.905L84.53 140.09V114.682Z" fill="white"/>
<path d="M85.707 147.644L108.604 134.422V159.868L85.707 173.052V147.644Z" fill="white" fill-opacity="0.7"/>
<path d="M85.707 180.606L108.604 167.384V192.83L85.707 206.015V180.606Z" fill="white" fill-opacity="0.4"/>
<path d="M148.338 79.1472L171.235 65.9247V91.3706L148.338 104.556V79.1472Z" fill="white"/>
<path d="M149.516 112.11L172.413 98.8871V124.333L149.516 137.518V112.11Z" fill="white" fill-opacity="0.7"/>
<path d="M149.516 145.072L172.413 131.849V157.295L149.516 170.48V145.072Z" fill="white" fill-opacity="0.4"/>
<path d="M117.022 96.4149L139.919 83.23V109.5L117.022 122.685V96.4149Z" fill="white"/>
<path d="M118.199 129.377L141.096 116.192V142.462L118.199 155.647V129.377Z" fill="white" fill-opacity="0.7"/>
<path d="M118.199 162.34L141.096 149.155V175.425L118.199 188.61V162.34Z" fill="white" fill-opacity="0.4"/>
<path d="M181.304 61.0179L204.2 47.7955V73.2413L181.304 86.4263V61.0179Z" fill="white"/>
<path d="M182.48 93.9802L205.376 80.7578V106.204L182.48 119.389V93.9802Z" fill="white" fill-opacity="0.7"/>
<path d="M182.48 126.943L205.376 113.72V139.166L182.48 152.351V126.943Z" fill="white" fill-opacity="0.4"/>
<path d="M18.3389 215.871L72.4745 184.589V193.508L18.3389 224.789V215.871Z" fill="white"/>
<path d="M18.1292 235.648L72.2648 204.367V213.285L18.1292 244.567V235.648Z" fill="white"/>
<defs>
<linearGradient id="paint0_linear_3476_3239" x1="3835.22" y1="13080.9" x2="1283.05" y2="10779.3" gradientUnits="userSpaceOnUse">
<stop stop-color="#1067DB"/>
<stop offset="1" stop-color="#1CA2F9"/>
</linearGradient>
<linearGradient id="paint1_linear_3476_3239" x1="3835.21" y1="16224.1" x2="1283.04" y2="13922.5" gradientUnits="userSpaceOnUse">
<stop stop-color="#1067DB"/>
<stop offset="1" stop-color="#1CA2F9"/>
</linearGradient>
<linearGradient id="paint2_linear_3476_3239" x1="8273.04" y1="4667.35" x2="8496.12" y2="4667.35" gradientUnits="userSpaceOnUse">
<stop stop-color="#1067DB"/>
<stop offset="1" stop-color="#1CA2F9"/>
</linearGradient>
<linearGradient id="paint3_linear_3476_3239" x1="5774.6" y1="5970.08" x2="5878.25" y2="5970.08" gradientUnits="userSpaceOnUse">
<stop stop-color="#F7A66A"/>
<stop offset="0.32" stop-color="#F3AE6A"/>
<stop offset="1" stop-color="#EDBD6A"/>
</linearGradient>
<linearGradient id="paint4_linear_3476_3239" x1="324.669" y1="264.754" x2="347.061" y2="247.598" gradientUnits="userSpaceOnUse">
<stop offset="0.0121213" stop-color="#5574E0"/>
<stop offset="0.1879" stop-color="#4E6FD9"/>
<stop offset="0.4494" stop-color="#3C63C5"/>
<stop offset="0.7626" stop-color="#1F4EA4"/>
<stop offset="1" stop-color="#043C86"/>
</linearGradient>
<linearGradient id="paint5_linear_3476_3239" x1="367.107" y1="269.574" x2="385.011" y2="252.027" gradientUnits="userSpaceOnUse">
<stop offset="0.0121213" stop-color="#5574E0"/>
<stop offset="0.1879" stop-color="#4E6FD9"/>
<stop offset="0.4494" stop-color="#3C63C5"/>
<stop offset="0.7626" stop-color="#1F4EA4"/>
<stop offset="1" stop-color="#043C86"/>
</linearGradient>
<linearGradient id="paint6_linear_3476_3239" x1="300.305" y1="233.494" x2="322.717" y2="216.323" gradientUnits="userSpaceOnUse">
<stop offset="0.0121213" stop-color="#5574E0"/>
<stop offset="0.1879" stop-color="#4E6FD9"/>
<stop offset="0.4494" stop-color="#3C63C5"/>
<stop offset="0.7626" stop-color="#1F4EA4"/>
<stop offset="1" stop-color="#043C86"/>
</linearGradient>
<linearGradient id="paint7_linear_3476_3239" x1="338.265" y1="240.676" x2="356.215" y2="223.083" gradientUnits="userSpaceOnUse">
<stop offset="0.0121213" stop-color="#5574E0"/>
<stop offset="0.1879" stop-color="#4E6FD9"/>
<stop offset="0.4494" stop-color="#3C63C5"/>
<stop offset="0.7626" stop-color="#1F4EA4"/>
<stop offset="1" stop-color="#043C86"/>
</linearGradient>
<linearGradient id="paint8_linear_3476_3239" x1="377.468" y1="162.107" x2="388.044" y2="162.107" gradientUnits="userSpaceOnUse">
<stop stop-color="#F6F7FB"/>
<stop offset="0.2605" stop-color="#DFEAF6"/>
<stop offset="0.7447" stop-color="#B9D4EE"/>
<stop offset="1" stop-color="#ABCCEB"/>
</linearGradient>
<linearGradient id="paint9_linear_3476_3239" x1="343.91" y1="125.134" x2="354.941" y2="125.134" gradientUnits="userSpaceOnUse">
<stop stop-color="#F6F7FB"/>
<stop offset="0.2605" stop-color="#DFEAF6"/>
<stop offset="0.7447" stop-color="#B9D4EE"/>
<stop offset="1" stop-color="#ABCCEB"/>
</linearGradient>
<linearGradient id="paint10_linear_3476_3239" x1="350.116" y1="129.434" x2="357.876" y2="129.434" gradientUnits="userSpaceOnUse">
<stop offset="8e-08" stop-color="#D82C53"/>
<stop offset="1" stop-color="#FF5774"/>
</linearGradient>
<linearGradient id="paint11_linear_3476_3239" x1="350.181" y1="123.458" x2="371.392" y2="123.458" gradientUnits="userSpaceOnUse">
<stop stop-color="#F6F7FB"/>
<stop offset="0.2605" stop-color="#DFEAF6"/>
<stop offset="0.7447" stop-color="#B9D4EE"/>
<stop offset="1" stop-color="#ABCCEB"/>
</linearGradient>
<linearGradient id="paint12_linear_3476_3239" x1="357.614" y1="148.399" x2="369.695" y2="148.399" gradientUnits="userSpaceOnUse">
<stop stop-color="#F6F7FB"/>
<stop offset="0.2605" stop-color="#DFEAF6"/>
<stop offset="0.7447" stop-color="#B9D4EE"/>
<stop offset="1" stop-color="#ABCCEB"/>
</linearGradient>
<linearGradient id="paint13_linear_3476_3239" x1="360.508" y1="145.47" x2="366.803" y2="145.47" gradientUnits="userSpaceOnUse">
<stop offset="0.0121224" stop-color="#626270"/>
<stop offset="0.3122" stop-color="#5F5F6C"/>
<stop offset="0.6004" stop-color="#575761"/>
<stop offset="0.8829" stop-color="#49494D"/>
<stop offset="1" stop-color="#414143"/>
</linearGradient>
<linearGradient id="paint14_linear_3476_3239" x1="97930.6" y1="49387.5" x2="118926" y2="49387.5" gradientUnits="userSpaceOnUse">
<stop stop-color="#92A6F1"/>
<stop offset="1" stop-color="white"/>
</linearGradient>
<linearGradient id="paint15_linear_3476_3239" x1="46362.3" y1="28210.6" x2="50135.4" y2="28210.6" gradientUnits="userSpaceOnUse">
<stop stop-color="#92A6F1"/>
<stop offset="1" stop-color="white"/>
</linearGradient>
<linearGradient id="paint16_linear_3476_3239" x1="66936.9" y1="93755.3" x2="74849.4" y2="80029.3" gradientUnits="userSpaceOnUse">
<stop stop-color="#05105D"/>
<stop offset="0.23" stop-color="#0C3F8F"/>
<stop offset="0.48" stop-color="#136ABD"/>
<stop offset="0.7" stop-color="#1888DE"/>
<stop offset="0.88" stop-color="#1B9BF2"/>
<stop offset="1" stop-color="#1CA2F9"/>
</linearGradient>
</defs>
</svg>
