<svg width="430" height="306" viewBox="0 0 430 306" fill="none" xmlns="http://www.w3.org/2000/svg">
<path d="M216.808 304.699L1.89314 180.778C-0.902365 179.17 -0.563521 176.292 2.65555 174.43L201.052 59.7355C204.271 57.8733 209.269 57.6194 212.064 59.3123L426.895 183.233C429.69 184.841 429.352 187.719 426.133 189.581L227.821 304.275C224.602 306.138 219.604 306.307 216.808 304.699Z" fill="#F8FBFD"/>
<path d="M430 165.678L425.764 165.509L213.221 42.943C210.426 41.3348 205.428 41.5041 202.208 43.3663L4.48981 157.637L1.52488 157.553H1.18604V161.7C1.27075 162.716 1.86374 163.647 3.04972 164.324L217.965 288.414C220.76 290.022 225.758 289.853 228.978 287.991L427.289 173.297C429.068 172.281 429.915 171.011 429.915 169.741V165.678H430Z" fill="#DAE9F8"/>
<path d="M217.965 284.52L3.04988 160.599C0.254373 158.991 0.593217 156.113 3.81229 154.251L202.209 39.5568C205.428 37.6946 210.426 37.4407 213.221 39.1336L428.052 163.054C430.847 164.662 430.508 167.54 427.289 169.402L228.978 284.097C225.759 285.959 220.761 286.213 217.965 284.52Z" fill="#F0F5FD"/>
<path d="M225.1 81.5002C227.5 80.5002 229.3 80.4002 231.3 79.9002C234.9 79.1002 243 92.8002 247.3 93.7002C250.1 94.3002 253.4 89.4002 254.6 86.9002C255.5 84.9002 257.6 79.6002 258.5 77.1002C261.6 68.6002 254 65.4002 251.4 69.6002C249.5 73.9002 249.2 81.7002 247.3 86.2002C247.3 86.2002 236.4 77.2002 234 75.6002C232.3 74.5002 230.2 72.8002 228.3 72.5002C228.1 72.5002 227.9 72.5002 227.8 72.5002C226.6 72.5002 226.7 73.6002 225.6 74.0002C224.2 74.7002 222.1 78.6002 223.1 78.4002C223.9 78.2002 224.2 77.1002 224.7 76.8002C225.5 76.8002 225.6 76.8002 226.2 76.9002C226.2 76.9002 227.6 77.3002 227.7 77.8002C228 79.1002 226.4 79.6002 225.1 80.0002C224.6 80.2002 224.4 80.6002 224.4 81.0002C224.6 81.2002 224.9 81.5002 225.1 81.5002Z" fill="#FEBDA9"/>
<path d="M234.9 74.6001C236.9 76.0001 243.8 81.6001 246.8 84.0001C247.4 82.1001 247.8 79.9001 248.2 77.7001C248.8 74.6001 249.3 71.4001 250.3 69.1001V69.0001V68.9001C251.3 67.3001 252.9 66.4001 254.6 66.4001C256.4 66.4001 258.1 67.3001 259.2 68.9001C260.1 70.2001 261.3 72.9001 259.7 77.5001C258.8 80.1001 256.7 85.3001 255.7 87.4001C254.8 89.4001 251.4 95.0001 247.7 95.0001C247.4 95.0001 247.2 95.0001 247 94.9001C244.5 94.4001 241.6 91.0001 238.5 87.5001C236.3 85.0001 233.1 81.4001 231.7 81.1001C233.5 79.4001 233.2 76.5001 234.9 74.6001Z" fill="url(#paint0_linear_3711_89230)"/>
<path d="M250.1 172.5C250.1 172.5 250.3 173.9 250.7 175.5C251.2 177 250.6 179.1 250.6 179.1C250.6 179.1 250.3 180 248.9 180.3C247.6 180.6 246.5 180.2 246.5 180.2C246.5 180.2 245.2 181.8 243.5 182.9C241.8 184.1 238.1 185 237.1 184.9C235.5 184.7 234.6 183.4 234.7 182.6C234.8 181.8 236.7 179.5 238.3 178.5C239.3 177.9 241.6 175.7 242.3 175C243.5 173.8 244.3 172.4 244.3 172.4L250.1 172.5Z" fill="#1F262E"/>
<path d="M252.3 92.6001C252.3 92.6001 243.6 118.2 242.6 129.7C242.1 135.9 241.1 171.2 240.6 174.5C241.1 176.7 252.2 177.5 252.8 174.9C252.8 174.9 255.3 147.4 255.7 143C256.1 138.6 254.2 132.8 254.2 132.8C254.2 132.8 260.6 119.1 262.9 113.7C265.2 108.3 263.6 101.6 263.6 101.6L252.3 92.6001Z" fill="url(#paint1_linear_3711_89230)"/>
<path d="M274.3 184.9C274.3 184.9 275.2 188.1 275.1 190C275 191.9 274.5 192.3 274 192.9C273.4 193.5 272.8 193.3 272.8 193.3C272.8 193.3 272.5 197.2 270.7 198.7C268.9 200.3 265.6 200.4 264 199.8C262.5 199.2 263.5 196.5 265 193.8C266.5 191.1 268.4 188.2 268.9 185.7C272.4 185.2 274.3 184.9 274.3 184.9Z" fill="#1F262E"/>
<path d="M275.1 107.9C276.4 111.9 274.8 119.2 274.4 122.9C273.9 127.2 273.7 140.1 273.7 140.1L277.1 187.1C277.1 187.1 275 187.7 271.7 187.7C269.5 187.7 264.7 186.3 264.7 186.3L260.4 139.7L257.4 117.5C257.4 117.5 251.4 113.6 254.5 103.7C256.4 97.5001 273.3 102.1 275.1 107.9Z" fill="url(#paint2_linear_3711_89230)"/>
<path d="M255.7 65.9001C252.2 67.6001 250.4 73.7001 249.9 78.3001C249.7 80.2001 248.6 95.0001 249.3 96.0001C248.6 96.9001 247.5 103.7 247.1 104.6C246.4 106.3 237.6 141.3 237.6 141.3C237.6 141.3 256.3 150.7 261.3 151.3C267.1 152.1 280 147.6 280 147.6C280 147.6 277.8 106.2 275.7 102C276.7 99.1001 276.3 93.1001 277.2 89.6001C278.6 84.3001 277.5 75.6001 275.1 71.3001C273.5 68.5001 256.2 65.6001 255.7 65.9001Z" fill="url(#paint3_linear_3711_89230)"/>
<path d="M265.1 60.4001C265.1 60.4001 260.8 63.7001 259.4 65.9001C257 69.6001 257.1 71.1001 259.3 73.2001C262.2 72.1001 267.5 70.2001 268.4 67.4001C267 66.6001 265.1 60.4001 265.1 60.4001Z" fill="#FEBDA9"/>
<path d="M267.4 66.6001C267.4 66.6001 266.7 69.7001 264.7 71.2001C262.3 73.0001 258.7 73.2001 258.7 74.5001C261.3 73.3001 263.1 77.4001 263.1 77.4001C263.1 77.4001 264.2 75.4001 266.5 74.1001C269.3 72.5001 269.8 68.6001 269.8 68.6001C269.8 68.6001 268.7 67.0001 267.4 66.6001Z" fill="white"/>
<path d="M258.4 67.6001C258.4 67.6001 255.9 69.8001 255.4 70.6001C254.9 71.4001 253.9 74.9001 253.9 74.9001C253.9 74.9001 255.1 74.9001 255.9 74.2001C257.3 72.9001 258.8 74.4001 258.8 74.4001C258.8 74.4001 257.2 72.4001 257.8 71.2001C258.4 69.9001 259.5 68.3001 259.5 68.3001L258.4 67.6001Z" fill="white"/>
<path d="M255.7 65.0002C256.6 66.9002 258.1 68.3002 260 67.9002C263.8 67.2002 266.1 62.0002 266.5 58.6002C267 54.9002 265 51.7002 262.1 51.5002C260.2 51.4002 257.8 51.5002 256.4 52.8002C255 54.1002 254.5 56.5002 254.5 58.4002C254.4 60.0002 254.7 62.8002 255.7 65.0002Z" fill="#FEBDA9"/>
<path d="M266.5 63.9001C265 63.6001 264.5 59.9001 264 58.7001C262.8 58.5001 262 57.1001 262.4 55.3001C258 53.4001 253.4 57.6001 252 57.4001C252 57.4001 252.4 49.8001 258.3 48.8001C263.4 47.9001 264.8 51.0001 264.8 51.0001C267 50.6001 268.9 53.5001 268.7 56.4001C268.5 59.0001 266.9 61.6001 266.5 63.9001Z" fill="#1F262E"/>
<path d="M262.8 58.9003C262.8 58.9003 263.4 57.1003 264.9 57.9003C266.4 58.7003 264.3 61.8003 264.3 61.8003L262.8 58.9003Z" fill="#FEBDA9"/>
<path d="M272.1 102.1C272.1 102.1 267.1 106.9 266.1 108.2C265.2 109.5 267.4 109.4 267.6 111.9C267.8 114.4 270.1 113.7 272 113.5C273.9 113.3 274.1 112.7 273 112.3C271.9 111.9 270.7 111.9 270.7 111.9C270.7 111.9 273.7 110.2 273.9 107.1C274.1 104 272.1 102.1 272.1 102.1Z" fill="#FEBDA9"/>
<path d="M288.3 92.8C287.1 90.2 287.2 87.8 285.3 84.7C283.4 81.5 275.2 70 272.9 70C270.2 70 267.9 82 269.9 85.6C271.6 88.5 273.2 89.3 274.9 90.3C275.3 91.4 277.9 92.4 278.6 93.4C277.4 94.3 275 99.2 273.9 100C271.5 101.8 269.9 104.2 269.9 104.2L273.8 108.8C273.8 108.8 285.1 100.9 286.2 99.6C288.7 96.7 289 94.2 288.3 92.8Z" fill="url(#paint4_linear_3711_89230)"/>
<path d="M249.8 77.4001L255.6 80.8001V84.1001L249.8 80.8001V77.4001Z" fill="#D7D8DD"/>
<path d="M206.9 97.2998L206.8 147.8L186.2 159.8L186.3 109.3L206.9 97.2998Z" fill="url(#paint5_linear_3711_89230)"/>
<path d="M206.9 97.2999L186.3 109.3L140.1 82.2999L160.6 70.3999L206.9 97.2999Z" fill="url(#paint6_linear_3711_89230)"/>
<path d="M186.3 109.3L186.2 159.8L140 132.8L140.1 82.2998L186.3 109.3Z" fill="url(#paint7_linear_3711_89230)"/>
<path d="M206.9 27L206.8 96.2L186.2 108.1L186.3 38.9L206.9 27Z" fill="url(#paint8_linear_3711_89230)"/>
<path d="M206.9 27L186.3 38.9L140.1 11.9L160.6 0L206.9 27Z" fill="url(#paint9_linear_3711_89230)"/>
<path d="M186.3 38.8999L186.2 108.1L140 81.0999L140.1 11.8999L186.3 38.8999Z" fill="url(#paint10_linear_3711_89230)"/>
<path d="M288 143.9L287.9 194.4L267.4 206.3L267.5 155.8L288 143.9Z" fill="url(#paint11_linear_3711_89230)"/>
<path d="M288 143.9L267.5 155.8L187.6 109.9L208.1 98L288 143.9Z" fill="url(#paint12_linear_3711_89230)"/>
<path d="M267.5 155.8L267.4 206.3L187.5 160.4L187.6 109.9L267.5 155.8Z" fill="url(#paint13_linear_3711_89230)"/>
<path fill-rule="evenodd" clip-rule="evenodd" d="M265.1 139.3V140L259.4 143.1V142.4L265.1 139.3Z" fill="#262128"/>
<path fill-rule="evenodd" clip-rule="evenodd" d="M265.1 139.3L259.4 142.4L247.4 135.9L253 132.9L265.1 139.3Z" fill="url(#paint14_linear_3711_89230)"/>
<path fill-rule="evenodd" clip-rule="evenodd" d="M259.4 142.4V143.1L254.7 140.6L247.4 136.6V135.9L259.4 142.4Z" fill="#71A7D6"/>
<path fill-rule="evenodd" clip-rule="evenodd" d="M253.6 128.6L252.8 129C252.7 128.9 252.6 128.9 252.5 128.8C251.9 128.5 250.8 128.5 250.2 128.8C249.9 129 249.7 129.3 249.8 129.5L248.4 130.3L247.3 129.7L251.5 127.4L253.6 128.6Z" fill="url(#paint15_linear_3711_89230)"/>
<path fill-rule="evenodd" clip-rule="evenodd" d="M252.6 135.2C252.6 135.8 252.1 136.3 251.4 136.3C250.7 136.3 250.2 135.8 250.2 135.2V123.8H252.6V135.2V135.2Z" fill="url(#paint16_linear_3711_89230)"/>
<path fill-rule="evenodd" clip-rule="evenodd" d="M252.4 135.2C252.4 135.7 252 136.1 251.4 136.1C250.9 136.1 250.4 135.7 250.4 135.2V127.9H252.4V135.2Z" fill="url(#paint17_linear_3711_89230)"/>
<path fill-rule="evenodd" clip-rule="evenodd" d="M250.7 127.5C251.1 127.3 251.7 127.3 252.1 127.5C252.5 127.7 252.5 128 252.1 128.3C251.7 128.5 251.1 128.5 250.7 128.3C250.3 128 250.3 127.7 250.7 127.5Z" fill="#FFE043"/>
<path fill-rule="evenodd" clip-rule="evenodd" d="M250.3 123.1C250.9 122.8 251.8 122.8 252.3 123.1C252.9 123.4 252.9 123.9 252.3 124.2C251.7 124.5 250.8 124.5 250.3 124.2C249.8 123.9 249.8 123.4 250.3 123.1Z" fill="url(#paint18_linear_3711_89230)"/>
<path fill-rule="evenodd" clip-rule="evenodd" d="M250.4 123.3C250.6 123.2 251 123.1 251.3 123.1C251.6 123.1 252 123.2 252.2 123.3C252.4 123.4 252.5 123.6 252.5 123.7C252.5 123.8 252.4 124 252.2 124.1C252 124.2 251.6 124.3 251.3 124.3C251 124.3 250.6 124.2 250.4 124.1C250.2 124 250.1 123.8 250.1 123.7C250.1 123.5 250.2 123.4 250.4 123.3Z" fill="url(#paint19_linear_3711_89230)"/>
<path fill-rule="evenodd" clip-rule="evenodd" d="M249.3 130.4V135.7L249 135.8V130.4H249.3Z" fill="#23384E"/>
<path fill-rule="evenodd" clip-rule="evenodd" d="M249 130.4V135.8L248.7 135.7V130.4H249Z" fill="#233E5A"/>
<path fill-rule="evenodd" clip-rule="evenodd" d="M250.3 130C250.9 130.3 252 130.3 252.6 130C253.1 129.7 253.2 129.3 252.8 129L253.6 128.6L256.7 130.2L255.9 130.6C255.8 130.5 255.7 130.5 255.6 130.4C255 130.1 253.9 130.1 253.3 130.4C252.9 130.6 252.8 131 252.9 131.3L251.6 132L248.4 130.3L249.8 129.5C249.8 129.7 250 129.9 250.3 130Z" fill="url(#paint20_linear_3711_89230)"/>
<path fill-rule="evenodd" clip-rule="evenodd" d="M255.6 136.9C255.6 137.5 255.1 138 254.4 138C253.7 138 253.2 137.5 253.2 136.9V125.5H255.6V136.9V136.9Z" fill="url(#paint21_linear_3711_89230)"/>
<path fill-rule="evenodd" clip-rule="evenodd" d="M255.4 136.9C255.4 137.4 255 137.8 254.4 137.8C253.9 137.8 253.4 137.4 253.4 136.9V129.6H255.4V136.9Z" fill="url(#paint22_linear_3711_89230)"/>
<path fill-rule="evenodd" clip-rule="evenodd" d="M253.7 129.2C254.1 129 254.7 129 255.1 129.2C255.5 129.4 255.5 129.7 255.1 130C254.7 130.2 254.1 130.2 253.7 130C253.4 129.7 253.3 129.4 253.7 129.2Z" fill="#FFE043"/>
<path fill-rule="evenodd" clip-rule="evenodd" d="M253.4 124.8C254 124.5 254.9 124.5 255.4 124.8C256 125.1 256 125.6 255.4 125.9C254.8 126.2 253.9 126.2 253.4 125.9C252.9 125.6 252.8 125.1 253.4 124.8Z" fill="url(#paint23_linear_3711_89230)"/>
<path fill-rule="evenodd" clip-rule="evenodd" d="M253.5 124.9C253.7 124.8 254.1 124.7 254.4 124.7C254.7 124.7 255.1 124.8 255.3 124.9C255.5 125 255.6 125.2 255.6 125.3C255.6 125.4 255.5 125.6 255.3 125.7C255.1 125.8 254.7 125.9 254.4 125.9C254.1 125.9 253.7 125.8 253.5 125.7C253.3 125.6 253.2 125.4 253.2 125.3C253.2 125.2 253.3 125.1 253.5 124.9Z" fill="url(#paint24_linear_3711_89230)"/>
<path fill-rule="evenodd" clip-rule="evenodd" d="M253.3 131.7C253.9 132 255 132 255.6 131.7C256.1 131.4 256.2 131 255.8 130.7L256.6 130.3L259.4 131.8L258.6 132.2L258.5 132.1C257.9 131.8 256.8 131.8 256.2 132.1C255.8 132.3 255.7 132.6 255.8 132.9L254.5 133.6L251.6 132L252.9 131.3C253 131.5 253.1 131.6 253.3 131.7Z" fill="url(#paint25_linear_3711_89230)"/>
<path fill-rule="evenodd" clip-rule="evenodd" d="M258.7 138.4C258.7 139 258.2 139.5 257.5 139.5C256.8 139.5 256.3 139 256.3 138.4V127H258.7V138.4V138.4Z" fill="url(#paint26_linear_3711_89230)"/>
<path fill-rule="evenodd" clip-rule="evenodd" d="M258.5 138.4C258.5 138.9 258.1 139.3 257.5 139.3C257 139.3 256.5 138.9 256.5 138.4V131.1H258.5V138.4Z" fill="url(#paint27_linear_3711_89230)"/>
<path fill-rule="evenodd" clip-rule="evenodd" d="M256.7 130.8C257.1 130.6 257.7 130.6 258.1 130.8C258.5 131 258.5 131.3 258.1 131.6C257.7 131.8 257.1 131.8 256.7 131.6C256.4 131.3 256.4 131 256.7 130.8Z" fill="#FFE043"/>
<path fill-rule="evenodd" clip-rule="evenodd" d="M256.4 126.4C257 126.1 257.9 126.1 258.4 126.4C258.9 126.7 259 127.2 258.4 127.5C257.8 127.8 256.9 127.8 256.4 127.5C255.9 127.2 255.9 126.7 256.4 126.4Z" fill="url(#paint28_linear_3711_89230)"/>
<path fill-rule="evenodd" clip-rule="evenodd" d="M256.5 126.5C256.7 126.4 257.1 126.3 257.4 126.3C257.7 126.3 258.1 126.4 258.3 126.5C258.5 126.6 258.6 126.8 258.6 126.9C258.6 127 258.5 127.2 258.3 127.3C258.1 127.4 257.7 127.5 257.4 127.5C257.1 127.5 256.7 127.4 256.5 127.3C256.3 127.2 256.2 127 256.2 126.9C256.2 126.8 256.3 126.6 256.5 126.5Z" fill="url(#paint29_linear_3711_89230)"/>
<path fill-rule="evenodd" clip-rule="evenodd" d="M256.4 133.3C257 133.6 258.1 133.6 258.7 133.3C259.3 133 259.3 132.5 258.8 132.2L259.6 131.8L261.1 132.6L262.8 133.5L262 133.9C261.9 133.8 261.8 133.8 261.7 133.7C261.1 133.4 260 133.4 259.4 133.7C259 133.9 258.9 134.3 259 134.6L257.7 135.3L256.7 134.8L254.5 133.6L255.8 132.9C256 133 256.1 133.2 256.4 133.3Z" fill="url(#paint30_linear_3711_89230)"/>
<path fill-rule="evenodd" clip-rule="evenodd" d="M261.8 140.2C261.8 140.8 261.3 141.3 260.6 141.3C259.9 141.3 259.4 140.8 259.4 140.2V128.8H261.8V140.2V140.2Z" fill="url(#paint31_linear_3711_89230)"/>
<path fill-rule="evenodd" clip-rule="evenodd" d="M261.6 140.2C261.6 140.7 261.2 141.1 260.6 141.1C260.1 141.1 259.6 140.7 259.6 140.2V132.9H261.6V140.2Z" fill="url(#paint32_linear_3711_89230)"/>
<path fill-rule="evenodd" clip-rule="evenodd" d="M259.9 132.5C260.3 132.3 260.9 132.3 261.3 132.5C261.7 132.7 261.7 133 261.3 133.3C260.9 133.5 260.3 133.5 259.9 133.3C259.5 133 259.5 132.7 259.9 132.5Z" fill="#FFE043"/>
<path fill-rule="evenodd" clip-rule="evenodd" d="M259.6 128.1C260.2 127.8 261.1 127.8 261.6 128.1C262.1 128.4 262.2 128.9 261.6 129.2C261 129.5 260.1 129.5 259.6 129.2C259 128.9 259 128.4 259.6 128.1Z" fill="url(#paint33_linear_3711_89230)"/>
<path fill-rule="evenodd" clip-rule="evenodd" d="M259.7 128.2C259.9 128.1 260.3 128 260.6 128C260.9 128 261.3 128.1 261.5 128.2C261.7 128.3 261.8 128.5 261.8 128.6C261.8 128.7 261.7 128.9 261.5 129C261.3 129.1 260.9 129.2 260.6 129.2C260.3 129.2 259.9 129.1 259.7 129C259.5 128.9 259.4 128.7 259.4 128.6C259.4 128.5 259.5 128.4 259.7 128.2Z" fill="url(#paint34_linear_3711_89230)"/>
<path fill-rule="evenodd" clip-rule="evenodd" d="M250.4 123.3C250.6 123.2 251 123.1 251.3 123.1C251.6 123.1 252 123.2 252.2 123.3C252.4 123.4 252.5 123.6 252.5 123.7C252.5 123.8 252.4 124 252.2 124.1C252 124.2 251.6 124.3 251.3 124.3C251 124.3 250.6 124.2 250.4 124.1C250.2 124 250.1 123.8 250.1 123.7C250.1 123.5 250.2 123.4 250.4 123.3Z" fill="url(#paint35_linear_3711_89230)"/>
<path fill-rule="evenodd" clip-rule="evenodd" d="M253.5 124.9C253.7 124.8 254.1 124.7 254.4 124.7C254.7 124.7 255.1 124.8 255.3 124.9C255.5 125 255.6 125.2 255.6 125.3C255.6 125.4 255.5 125.6 255.3 125.7C255.1 125.8 254.7 125.9 254.4 125.9C254.1 125.9 253.7 125.8 253.5 125.7C253.3 125.6 253.2 125.4 253.2 125.3C253.2 125.2 253.3 125.1 253.5 124.9Z" fill="url(#paint36_linear_3711_89230)"/>
<path fill-rule="evenodd" clip-rule="evenodd" d="M256.5 126.5C256.7 126.4 257.1 126.3 257.4 126.3C257.7 126.3 258.1 126.4 258.3 126.5C258.5 126.6 258.6 126.8 258.6 126.9C258.6 127 258.5 127.2 258.3 127.3C258.1 127.4 257.7 127.5 257.4 127.5C257.1 127.5 256.7 127.4 256.5 127.3C256.3 127.2 256.2 127 256.2 126.9C256.2 126.8 256.3 126.6 256.5 126.5Z" fill="url(#paint37_linear_3711_89230)"/>
<path fill-rule="evenodd" clip-rule="evenodd" d="M260.4 135.3V141.6L260.1 141.7V135.5L260.4 135.3Z" fill="#23384E"/>
<path fill-rule="evenodd" clip-rule="evenodd" d="M260.4 135.3L260.1 135.5L259.8 135.4L260.1 135.2L260.4 135.3Z" fill="#273549"/>
<path fill-rule="evenodd" clip-rule="evenodd" d="M260.1 135.5V141.7L259.8 141.6V135.4L260.1 135.5Z" fill="#233E5A"/>
<path fill-rule="evenodd" clip-rule="evenodd" d="M263.8 134.7V139.7L263.5 139.9V134.7H263.8Z" fill="#23384E"/>
<path fill-rule="evenodd" clip-rule="evenodd" d="M263.5 134.7V139.9L263.3 139.7V134.7H263.5Z" fill="#233E5A"/>
<path fill-rule="evenodd" clip-rule="evenodd" d="M264.3 134.7L260.1 137V136.6L264.3 134.3V134.7Z" fill="#262128"/>
<path fill-rule="evenodd" clip-rule="evenodd" d="M260.1 137L247.3 130.1V129.7L260.1 136.6V137Z" fill="#71A7D6"/>
<path fill-rule="evenodd" clip-rule="evenodd" d="M259.4 134.9C260 135.2 261.1 135.2 261.7 134.9C262.2 134.6 262.3 134.2 261.9 133.9L262.7 133.5L264.3 134.3L260.1 136.6L257.7 135.3L259 134.6C259.1 134.7 259.3 134.8 259.4 134.9Z" fill="url(#paint38_linear_3711_89230)"/>
<path fill-rule="evenodd" clip-rule="evenodd" d="M236.488 127.764C236.488 127.764 238.888 125.364 239.388 124.464H242.688C243.188 125.364 244.988 126.964 245.688 127.864C245.688 127.864 246.688 128.964 246.888 129.764C247.188 130.764 246.688 131.764 245.888 132.464C244.588 133.564 242.688 133.964 240.988 133.964C239.288 133.964 237.388 133.564 236.088 132.464C235.288 131.764 234.788 130.764 235.088 129.764C235.388 128.964 235.888 128.364 236.488 127.764Z" fill="white"/>
<path d="M242.788 120.964H239.288V125.964H242.788V120.964Z" fill="white"/>
<path fill-rule="evenodd" clip-rule="evenodd" d="M239.788 120.264C240.488 119.864 241.588 119.964 242.288 120.264C242.988 120.664 242.888 121.264 242.188 121.564C241.488 121.964 240.388 121.864 239.688 121.564C239.088 121.264 239.088 120.664 239.788 120.264Z" fill="white"/>
<path fill-rule="evenodd" clip-rule="evenodd" d="M239.888 120.464C240.188 120.264 240.588 120.264 240.988 120.264C241.388 120.264 241.788 120.364 242.088 120.564C242.288 120.664 242.488 120.864 242.488 121.064C242.488 121.264 242.288 121.364 242.088 121.564C241.788 121.764 241.388 121.764 240.988 121.764C240.588 121.764 240.188 121.664 239.888 121.464C239.688 121.364 239.488 121.164 239.488 120.964C239.488 120.764 239.688 120.564 239.888 120.464Z" fill="#71A7D6"/>
<path fill-rule="evenodd" clip-rule="evenodd" d="M235.588 129.364C235.688 129.064 235.988 128.764 236.088 128.664C236.088 128.664 236.188 128.564 236.188 128.464L236.288 128.364L236.388 128.264L236.488 128.164L236.588 128.064L236.688 127.964C236.688 127.964 236.788 127.864 236.788 127.764L236.888 127.664C236.888 127.664 236.988 127.564 236.988 127.464L237.088 127.364L237.188 127.264C237.188 127.264 237.288 127.164 237.288 127.064C237.488 126.864 237.788 126.564 238.188 126.364C239.788 125.564 242.388 125.564 243.888 126.464C244.188 126.664 244.488 126.864 244.588 127.064C244.988 127.564 245.488 128.064 245.888 128.564C246.388 129.164 246.588 129.764 246.588 130.364C246.588 130.764 246.388 131.464 245.588 132.064C244.688 132.764 243.488 133.064 243.288 133.164C242.888 133.264 242.488 133.364 241.688 133.464C240.888 133.564 240.288 133.464 239.988 133.464C239.788 133.464 239.288 133.364 238.788 133.264C238.588 133.264 238.088 133.064 237.588 132.864C237.088 132.664 236.388 132.264 235.888 131.664C235.288 130.964 235.388 130.364 235.388 130.164C235.388 129.864 235.588 129.464 235.588 129.364Z" fill="url(#paint39_linear_3711_89230)"/>
<path fill-rule="evenodd" clip-rule="evenodd" d="M236.088 128.664C236.088 128.564 236.188 128.564 236.188 128.464L236.288 128.364L236.388 128.264L236.488 128.164L236.588 128.064L236.688 127.964C236.688 127.964 236.788 127.864 236.788 127.764L236.888 127.664C236.888 127.664 236.988 127.564 236.988 127.464L237.088 127.364L237.188 127.264C237.188 127.264 237.288 127.164 237.288 127.064C236.588 127.864 236.888 128.864 238.088 129.464C239.588 130.364 242.188 130.364 243.788 129.564C245.088 128.864 245.388 127.864 244.688 127.064C245.088 127.564 245.588 128.064 245.988 128.564C246.188 128.864 246.388 129.064 246.588 129.464C246.688 129.764 246.688 130.164 246.688 130.364C246.688 130.464 246.588 130.864 246.388 131.264C246.188 131.664 245.788 131.964 245.688 132.064C245.588 132.164 245.388 132.264 245.288 132.364C245.088 132.464 244.888 132.564 244.588 132.764C244.388 132.864 243.788 133.064 243.088 133.264C241.988 133.464 240.888 133.564 239.788 133.364C239.488 133.364 239.288 133.264 238.988 133.264C238.688 133.164 238.588 133.164 238.188 133.064C237.788 132.964 237.388 132.764 237.088 132.564C236.888 132.464 236.388 132.164 236.088 131.764C235.888 131.564 235.788 131.364 235.788 131.364C235.688 131.064 235.588 130.964 235.588 130.864C235.588 130.764 235.488 130.564 235.488 130.364C235.488 130.264 235.488 130.064 235.588 129.764C235.488 129.664 235.588 129.164 236.088 128.664Z" fill="url(#paint40_linear_3711_89230)"/>
<path d="M240.9 120.1L228.6 127.2L201.6 111.1L214 104L240.9 120.1Z" fill="#71A7D6"/>
<path d="M202.4 111.3L201.6 111.1V110.5L202.9 110.6L202.4 111.3Z" fill="#71A7D6"/>
<path d="M240.9 120.1L240 119.9L240.9 119.4V120.1Z" fill="#71A7D6"/>
<path d="M240.9 119.4L228.6 126.6L201.6 110.5L214 103.3L240.9 119.4Z" fill="url(#paint41_linear_3711_89230)"/>
<path d="M213.3 104.9L214.9 105.9V106L214 106.5C214 106.5 213.9 106.5 213.8 106.5L212.2 105.5V105.4L213.1 104.9C213.1 104.9 213.2 104.9 213.3 104.9Z" fill="#32373B"/>
<path d="M215.3 106.2L216.6 107V107.1L215.7 107.6C215.7 107.6 215.6 107.6 215.5 107.6L214.2 106.8V106.7L215.1 106.2C215.2 106.1 215.3 106.1 215.3 106.2Z" fill="#32373B"/>
<path d="M217.1 107.2L218.4 108V108.1L217.5 108.6C217.5 108.6 217.4 108.6 217.3 108.6L216 107.8C216 107.8 215.9 107.7 216 107.7L216.9 107.2C217 107.2 217 107.2 217.1 107.2Z" fill="#32373B"/>
<path d="M218.8 108.3L220.1 109.1V109.2L219.2 109.7C219.2 109.7 219.1 109.7 219 109.7L217.7 108.9V108.8L218.6 108.3C218.7 108.2 218.8 108.2 218.8 108.3Z" fill="#32373B"/>
<path d="M220.6 109.3L221.9 110.1V110.2L221 110.7C221 110.7 220.9 110.7 220.8 110.7L219.5 109.9V109.8L220.4 109.3C220.5 109.3 220.5 109.3 220.6 109.3Z" fill="#32373B"/>
<path d="M222.3 110.4L223.6 111.2V111.3L222.7 111.8C222.7 111.8 222.6 111.8 222.5 111.8L221.2 111V110.9L222.1 110.4C222.2 110.4 222.3 110.4 222.3 110.4Z" fill="#32373B"/>
<path d="M224.1 111.4L225.4 112.2V112.3L224.5 112.8C224.5 112.8 224.4 112.8 224.3 112.8L223 112V111.9L223.9 111.4C224 111.4 224 111.4 224.1 111.4Z" fill="#32373B"/>
<path d="M225.8 112.5L227.1 113.3C227.1 113.3 227.2 113.4 227.1 113.4L226.2 113.9C226.2 113.9 226.1 113.9 226 113.9L224.7 113.1V113L225.6 112.5C225.7 112.5 225.8 112.5 225.8 112.5Z" fill="#32373B"/>
<path d="M227.6 113.6L228.9 114.4V114.5L228 115C228 115 227.9 115 227.8 115L226.5 114.2V114.1L227.4 113.6C227.5 113.5 227.5 113.5 227.6 113.6Z" fill="#32373B"/>
<path d="M229.3 114.6L230.6 115.4V115.5L229.7 116C229.7 116 229.6 116 229.5 116L228.2 115.2V115.1L229.1 114.6C229.2 114.6 229.3 114.6 229.3 114.6Z" fill="#32373B"/>
<path d="M231.1 115.7L232.4 116.5V116.6L231.5 117.1C231.5 117.1 231.4 117.1 231.3 117.1L230 116.3V116.2L230.9 115.7C231 115.6 231 115.7 231.1 115.7Z" fill="#32373B"/>
<path d="M232.8 116.7L234.1 117.5V117.6L233.2 118.1C233.2 118.1 233.1 118.1 233 118.1L231.7 117.3V117.2L232.6 116.7C232.7 116.7 232.8 116.7 232.8 116.7Z" fill="#32373B"/>
<path d="M234.6 117.8L235.9 118.6V118.7L235 119.2C235 119.2 234.9 119.2 234.8 119.2L233.5 118.4V118.3L234.4 117.8C234.5 117.8 234.5 117.8 234.6 117.8Z" fill="#32373B"/>
<path d="M236.2 118.8L237.8 119.8V119.9L236.9 120.4C236.9 120.4 236.8 120.4 236.7 120.4L235.1 119.4V119.3L236 118.8C236 118.7 236.1 118.7 236.2 118.8Z" fill="#32373B"/>
<path d="M212 105.7L213.6 106.7V106.8L212.4 107.5C212.4 107.5 212.3 107.5 212.2 107.5L210.6 106.5V106.4L211.8 105.7C211.8 105.6 211.9 105.6 212 105.7Z" fill="#32373B"/>
<path d="M214 106.9L215.3 107.7V107.8L214.1 108.5C214.1 108.5 214 108.5 213.9 108.5L212.6 107.7V107.6L213.8 106.9C213.9 106.9 214 106.9 214 106.9Z" fill="#32373B"/>
<path d="M215.8 108L217.1 108.8V108.9L215.9 109.6C215.9 109.6 215.8 109.6 215.7 109.6L214.4 108.8V108.7L215.6 108C215.7 108 215.8 108 215.8 108Z" fill="#32373B"/>
<path d="M217.6 109.1L218.9 109.9V110L217.7 110.7C217.7 110.7 217.6 110.7 217.5 110.7L216.2 109.9V109.8L217.4 109.1C217.5 109 217.5 109 217.6 109.1Z" fill="#32373B"/>
<path d="M219.4 110.1L220.7 110.9V111L219.5 111.7C219.5 111.7 219.4 111.7 219.3 111.7L218 110.9V110.8L219.2 110.1C219.2 110.1 219.3 110.1 219.4 110.1Z" fill="#32373B"/>
<path d="M221.1 111.2L222.4 112V112.1L221.2 112.8C221.2 112.8 221.1 112.8 221 112.8L219.7 112V111.9L220.9 111.2C221 111.2 221.1 111.2 221.1 111.2Z" fill="#32373B"/>
<path d="M222.9 112.3L224.2 113.1V113.2L223 113.9C223 113.9 222.9 113.9 222.8 113.9L221.5 113.1V113L222.7 112.3C222.8 112.3 222.9 112.3 222.9 112.3Z" fill="#32373B"/>
<path d="M224.7 113.4L226 114.2V114.3L224.8 115C224.8 115 224.7 115 224.6 115L223.3 114.2C223.3 114.2 223.2 114.1 223.3 114.1L224.5 113.4C224.6 113.3 224.6 113.3 224.7 113.4Z" fill="#32373B"/>
<path d="M226.5 114.4L227.8 115.2V115.3L226.6 116C226.6 116 226.5 116 226.4 116L225.1 115.2V115.1L226.3 114.4C226.3 114.4 226.4 114.4 226.5 114.4Z" fill="#32373B"/>
<path d="M228.2 115.5L229.5 116.3V116.4L228.3 117.1C228.3 117.1 228.2 117.1 228.1 117.1L226.8 116.3V116.2L228 115.5C228.1 115.5 228.2 115.5 228.2 115.5Z" fill="#32373B"/>
<path d="M230 116.6L231.3 117.4V117.5L230.1 118.2C230.1 118.2 230 118.2 229.9 118.2L228.6 117.4V117.3L229.8 116.6C229.9 116.5 230 116.5 230 116.6Z" fill="#32373B"/>
<path d="M231.8 117.7L233.1 118.5V118.6L231.9 119.3C231.9 119.3 231.8 119.3 231.7 119.3L230.4 118.5V118.4L231.6 117.7C231.7 117.6 231.7 117.6 231.8 117.7Z" fill="#32373B"/>
<path d="M210.4 106.6L212.3 107.7V107.8L211.1 108.5C211.1 108.5 211 108.5 210.9 108.5L209 107.4V107.3L210.2 106.6C210.3 106.6 210.4 106.6 210.4 106.6Z" fill="#32373B"/>
<path d="M212.8 108L214.1 108.8V108.9L212.9 109.6C212.9 109.6 212.8 109.6 212.7 109.6L211.4 108.8V108.7L212.6 108C212.7 108 212.7 108 212.8 108Z" fill="#32373B"/>
<path d="M208.8 107.5L211.1 108.9C211.1 108.9 211.2 109 211.1 109L209.9 109.7C209.9 109.7 209.8 109.7 209.7 109.7L207.4 108.3V108.2L208.6 107.5C208.7 107.5 208.8 107.5 208.8 107.5Z" fill="#32373B"/>
<path d="M214.6 109.1L215.9 109.9V110L214.7 110.7C214.7 110.7 214.6 110.7 214.5 110.7L213.2 109.9V109.8L214.4 109.1C214.4 109.1 214.5 109.1 214.6 109.1Z" fill="#32373B"/>
<path d="M216.3 110.2L217.6 111V111.1L216.4 111.8C216.4 111.8 216.3 111.8 216.2 111.8L214.9 111C214.9 111 214.8 110.9 214.9 110.9L216.1 110.2C216.2 110.2 216.3 110.2 216.3 110.2Z" fill="#32373B"/>
<path d="M218.1 111.3L219.4 112.1V112.2L218.2 112.9C218.2 112.9 218.1 112.9 218 112.9L216.7 112.1V112L217.9 111.3C218 111.2 218.1 111.2 218.1 111.3Z" fill="#32373B"/>
<path d="M219.9 112.3L221.2 113.1C221.2 113.1 221.3 113.2 221.2 113.2L220 113.9C220 113.9 219.9 113.9 219.8 113.9L218.5 113.1V113L219.7 112.3C219.8 112.3 219.8 112.3 219.9 112.3Z" fill="#32373B"/>
<path d="M221.7 113.4L223 114.2C223 114.2 223.1 114.3 223 114.3L221.8 115C221.8 115 221.7 115 221.6 115L220.3 114.2V114.1L221.5 113.4C221.6 113.4 221.6 113.4 221.7 113.4Z" fill="#32373B"/>
<path d="M223.4 114.5L224.7 115.3V115.4L223.5 116.1C223.5 116.1 223.4 116.1 223.3 116.1L222 115.3V115.2L223.2 114.5C223.3 114.5 223.4 114.5 223.4 114.5Z" fill="#32373B"/>
<path d="M225.2 115.6L226.5 116.4C226.5 116.4 226.6 116.5 226.5 116.5L225.3 117.2C225.3 117.2 225.2 117.2 225.1 117.2L223.8 116.4V116.3L225 115.6C225.1 115.5 225.2 115.5 225.2 115.6Z" fill="#32373B"/>
<path d="M227 116.6L228.3 117.4V117.5L227.1 118.2C227.1 118.2 227 118.2 226.9 118.2L225.6 117.4V117.3L226.8 116.6C226.9 116.6 226.9 116.6 227 116.6Z" fill="#32373B"/>
<path d="M228.8 117.7L230.1 118.5V118.6L228.9 119.3C228.9 119.3 228.8 119.3 228.7 119.3L227.4 118.5V118.4L228.6 117.7C228.7 117.7 228.7 117.7 228.8 117.7Z" fill="#32373B"/>
<path d="M230.5 118.8L231.8 119.6V119.7L230.6 120.4C230.6 120.4 230.5 120.4 230.4 120.4L229.1 119.6V119.5L230.3 118.8C230.4 118.8 230.5 118.8 230.5 118.8Z" fill="#32373B"/>
<path d="M211.6 109.2L212.9 110V110.1L211.7 110.8C211.7 110.8 211.6 110.8 211.5 110.8L210.2 110V109.9L211.4 109.2C211.4 109.2 211.5 109.2 211.6 109.2Z" fill="#32373B"/>
<path d="M213.3 110.3L214.6 111.1V111.2L213.4 111.9C213.4 111.9 213.3 111.9 213.2 111.9L211.9 111.1V111L213.1 110.3C213.2 110.2 213.3 110.2 213.3 110.3Z" fill="#32373B"/>
<path d="M215.1 111.3L216.4 112.1V112.2L215.2 112.9C215.2 112.9 215.1 112.9 215 112.9L213.7 112.1V112L214.9 111.3C215 111.3 215.1 111.3 215.1 111.3Z" fill="#32373B"/>
<path d="M216.9 112.4L218.2 113.2V113.3L217 114C217 114 216.9 114 216.8 114L215.5 113.2V113.1L216.7 112.4C216.8 112.4 216.8 112.4 216.9 112.4Z" fill="#32373B"/>
<path d="M218.7 113.5L220 114.3V114.4L218.8 115.1C218.8 115.1 218.7 115.1 218.6 115.1L217.3 114.3V114.2L218.5 113.5C218.5 113.4 218.6 113.4 218.7 113.5Z" fill="#32373B"/>
<path d="M220.4 114.5L221.7 115.3V115.4L220.5 116.1C220.5 116.1 220.4 116.1 220.3 116.1L219 115.3V115.2L220.2 114.5C220.3 114.5 220.4 114.5 220.4 114.5Z" fill="#32373B"/>
<path d="M222.2 115.6L223.5 116.4V116.5L222.3 117.2C222.3 117.2 222.2 117.2 222.1 117.2L220.8 116.4V116.3L222 115.6C222.1 115.6 222.2 115.6 222.2 115.6Z" fill="#32373B"/>
<path d="M224 116.7L225.3 117.5V117.6L224.1 118.3C224.1 118.3 224 118.3 223.9 118.3L222.6 117.5V117.4L223.8 116.7C223.9 116.7 223.9 116.7 224 116.7Z" fill="#32373B"/>
<path d="M225.8 117.8L227.1 118.6V118.7L225.9 119.4C225.9 119.4 225.8 119.4 225.7 119.4L224.4 118.6V118.5L225.6 117.8C225.6 117.7 225.7 117.7 225.8 117.8Z" fill="#32373B"/>
<path d="M227.5 118.8L228.8 119.6V119.7L227.6 120.4C227.6 120.4 227.5 120.4 227.4 120.4L226.1 119.6V119.5L227.3 118.8C227.4 118.8 227.5 118.8 227.5 118.8Z" fill="#32373B"/>
<path d="M207.3 108.5L209.3 109.7V109.8L208.1 110.5C208.1 110.5 208 110.5 207.9 110.5L205.9 109.3V109.2L207.1 108.5C207.2 108.4 207.2 108.4 207.3 108.5Z" fill="#32373B"/>
<path d="M209.7 109.9L211 110.7V110.8L209.8 111.5C209.8 111.5 209.7 111.5 209.6 111.5L208.3 110.7V110.6L209.5 109.9C209.6 109.9 209.7 109.9 209.7 109.9Z" fill="#32373B"/>
<path d="M211.5 111L212.8 111.8V111.9L211.6 112.6C211.6 112.6 211.5 112.6 211.4 112.6L210.1 111.8V111.7L211.3 111C211.4 111 211.5 111 211.5 111Z" fill="#32373B"/>
<path d="M213.3 112.1L214.6 112.9V113L213.4 113.7C213.4 113.7 213.3 113.7 213.2 113.7L211.9 112.9V112.8L213.1 112.1C213.2 112.1 213.2 112.1 213.3 112.1Z" fill="#32373B"/>
<path d="M215.1 113.2L216.4 114V114.1L215.2 114.8C215.2 114.8 215.1 114.8 215 114.8L213.7 114V113.9L214.9 113.2C214.9 113.1 215 113.1 215.1 113.2Z" fill="#32373B"/>
<path d="M216.8 114.2L218.1 115V115.1L216.9 115.8C216.9 115.8 216.8 115.8 216.7 115.8L215.4 115V114.9L216.6 114.2C216.7 114.2 216.8 114.2 216.8 114.2Z" fill="#32373B"/>
<path d="M218.6 115.3L219.9 116.1V116.2L218.7 116.9C218.7 116.9 218.6 116.9 218.5 116.9L217.2 116.1V116L218.4 115.3C218.5 115.3 218.6 115.3 218.6 115.3Z" fill="#32373B"/>
<path d="M220.4 116.4L221.7 117.2V117.3L220.5 118C220.5 118 220.4 118 220.3 118L219 117.2V117.1L220.2 116.4C220.3 116.3 220.3 116.4 220.4 116.4Z" fill="#32373B"/>
<path d="M222.2 117.5L223.5 118.3V118.4L222.3 119.1C222.3 119.1 222.2 119.1 222.1 119.1L220.8 118.3V118.2L222 117.5C222 117.4 222.1 117.4 222.2 117.5Z" fill="#32373B"/>
<path d="M223.9 118.5L225.2 119.3V119.4L224 120.1C224 120.1 223.9 120.1 223.8 120.1L222.5 119.3V119.2L223.7 118.5C223.8 118.5 223.9 118.5 223.9 118.5Z" fill="#32373B"/>
<path d="M225.7 119.6L227 120.4V120.5L225.8 121.2C225.8 121.2 225.7 121.2 225.6 121.2L224.3 120.4V120.3L225.5 119.6C225.6 119.6 225.7 119.6 225.7 119.6Z" fill="#32373B"/>
<path d="M233.6 118.7L234.9 119.5C234.9 119.5 235 119.6 235.1 119.6L236.5 120.5C236.5 120.5 236.6 120.6 236.5 120.6L235.3 121.3C235.3 121.3 235.2 121.3 235.1 121.3L233.6 120.4C233.6 120.4 233.5 120.3 233.4 120.3L232.1 119.5V119.4L233.3 118.7C233.4 118.7 233.5 118.7 233.6 118.7Z" fill="#32373B"/>
<path d="M232.3 119.9L233.5 120.6C233.5 120.6 233.6 120.7 233.7 120.7L235 121.5V121.6L233.8 122.3C233.8 122.3 233.7 122.3 233.6 122.3L232.3 121.5C232.3 121.5 232.2 121.4 232.1 121.4L230.9 120.7V120.6L232.1 119.9C232.2 119.8 232.3 119.8 232.3 119.9Z" fill="#32373B"/>
<path d="M229.5 120L230.1 120.3C230.1 120.3 230.2 120.4 230.3 120.4L230.9 120.7C230.9 120.7 231 120.8 231.1 120.8L233.5 122.2C233.5 122.2 233.6 122.3 233.5 122.3L232.3 123C232.3 123 232.2 123 232.1 123L229.7 121.5C229.7 121.5 229.6 121.4 229.5 121.4L228.9 121.1C228.9 121.1 228.8 121 228.7 121L228.1 120.7V120.6L229.3 119.9C229.4 120 229.4 120 229.5 120Z" fill="#32373B"/>
<path d="M227.5 120.7L228.8 121.5V121.6L227.6 122.3C227.6 122.3 227.5 122.3 227.4 122.3L226.1 121.5V121.4L227.3 120.7C227.4 120.6 227.4 120.6 227.5 120.7Z" fill="#32373B"/>
<path d="M229.2 121.7L229.5 121.9C229.5 121.9 229.6 122 229.7 122L230 122.2C230 122.2 230.1 122.3 230.2 122.3L231.8 123.2V123.3L230.6 124C230.6 124 230.5 124 230.4 124L228.8 123.1C228.8 123.1 228.7 123 228.6 123L228.3 122.8C228.3 122.8 228.2 122.7 228.1 122.7L227.8 122.5V122.4L229 121.7C229.1 121.7 229.2 121.7 229.2 121.7Z" fill="#32373B"/>
<path d="M205.6 109.4L206.9 110.2V110.3L205.7 111C205.7 111 205.6 111 205.5 111L204.2 110.2V110.1L205.4 109.4C205.5 109.4 205.6 109.4 205.6 109.4Z" fill="#32373B"/>
<path d="M207.4 110.5L208.7 111.3V111.4L207.5 112.1C207.5 112.1 207.4 112.1 207.3 112.1L206 111.3V111.2L207.2 110.5C207.2 110.5 207.3 110.5 207.4 110.5Z" fill="#32373B"/>
<path d="M209.1 111.6L210.4 112.4V112.5L209.2 113.2C209.2 113.2 209.1 113.2 209 113.2L207.7 112.4V112.3L208.9 111.6C209 111.5 209.1 111.5 209.1 111.6Z" fill="#32373B"/>
<path d="M210.9 112.6L212.2 113.4V113.5L211 114.2C211 114.2 210.9 114.2 210.8 114.2L209.5 113.4V113.3L210.7 112.6C210.8 112.6 210.9 112.6 210.9 112.6Z" fill="#32373B"/>
<path d="M212.6 113.7L223.1 120.1C223.2 120.1 223.2 120.2 223.1 120.2L221.9 120.9C221.9 120.9 221.8 120.9 221.7 120.9L211.2 114.5C211.1 114.5 211.1 114.4 211.2 114.4L212.4 113.7C212.5 113.7 212.6 113.7 212.6 113.7Z" fill="#32373B"/>
<path d="M223.5 120.3L224.8 121.1V121.2L223.6 121.9C223.6 121.9 223.5 121.9 223.4 121.9L222.1 121.1V121L223.3 120.3C223.4 120.2 223.5 120.2 223.5 120.3Z" fill="#32373B"/>
<path d="M225.3 121.3L226.6 122.1V122.2L225.4 122.9C225.4 122.9 225.3 122.9 225.2 122.9L223.9 122.1V122L225.1 121.3C225.2 121.3 225.3 121.3 225.3 121.3Z" fill="#32373B"/>
<path d="M227.1 122.4L228.4 123.2V123.3L227.9 123.6C227.9 123.6 227.8 123.6 227.7 123.6L226.4 122.8V122.7L226.9 122.4C227 122.4 227 122.4 227.1 122.4Z" fill="#32373B"/>
<path d="M226.4 122.8L227.7 123.6V123.7L227.2 124C227.2 124 227.1 124 227 124L225.7 123.2V123.1L226.2 122.8C226.2 122.8 226.3 122.8 226.4 122.8Z" fill="#32373B"/>
<path d="M228.9 123.5L230.2 124.3V124.4L229 125.1C229 125.1 228.9 125.1 228.8 125.1L227.5 124.3V124.2L228.7 123.5C228.7 123.5 228.8 123.5 228.9 123.5Z" fill="#32373B"/>
<path d="M194.5 76.7L193 77.9C193 77.9 193 77.9 192.9 77.9L194.5 76.7Z" fill="#003989"/>
<path d="M194.5 76.6998L193 77.8998C193 77.8998 193 77.8998 192.9 77.8998L194.5 76.6998C194.4 76.5998 194.4 76.5998 194.5 76.6998Z" fill="#003989"/>
<path d="M194.4 76.5999L192.9 77.7999L194.4 76.5999Z" fill="#003989"/>
<path d="M194.3 76.5999L192.8 77.7999L194.3 76.5999Z" fill="#003989"/>
<path d="M194.3 76.5999L192.8 77.7999L194.3 76.5999Z" fill="#003989"/>
<path d="M194.3 76.5999L192.8 77.7999L194.3 76.5999Z" fill="#003989"/>
<path d="M194.2 76.5999L192.7 77.7999L194.2 76.5999Z" fill="#003989"/>
<path d="M194.2 76.5999L192.7 77.7999L194.2 76.5999Z" fill="#003989"/>
<path d="M194.2 76.5999L192.7 77.7999L194.2 76.5999Z" fill="#003989"/>
<path d="M194.2 76.5999L192.7 77.7999L194.2 76.5999Z" fill="#003989"/>
<path d="M194.1 76.5999L192.6 77.7999L194.1 76.5999Z" fill="#003989"/>
<path d="M194.1 76.5999L192.6 77.7999L194.1 76.5999Z" fill="#003989"/>
<path d="M194.1 76.5999L192.6 77.7999L194.1 76.5999Z" fill="#003989"/>
<path d="M232.2 121.2C232.2 121.4 232.2 121.5 232.1 121.5L230.6 122.7C230.7 122.6 230.7 122.5 230.7 122.4L232.2 121.2Z" fill="#003989"/>
<path d="M227.9 96.5999C228 96.5999 228 96.6999 228.1 96.7999C228.1 96.7999 228.1 96.7999 228.2 96.8999C228.2 96.8999 228.2 96.8999 228.2 96.9999C228.2 96.9999 228.2 96.9999 228.2 97.0999C228.2 97.0999 228.2 97.0999 228.2 97.1999V97.2999L231.8 120.8L230.3 122L226.7 98.4999C226.6 98.0999 226.3 97.6999 226 97.4999L192.6 77.5999L194.1 76.3999L227.9 96.5999Z" fill="#003989"/>
<path d="M193 77.8998L226.4 97.7998C226.7 97.9998 227.1 98.4998 227.1 98.7998L230.7 122.3C230.8 122.7 230.5 122.8 230.2 122.6L196.8 102.7C196.5 102.5 196.1 102 196.1 101.7L192.5 78.1998C192.4 77.8998 192.7 77.6998 193 77.8998Z" fill="url(#paint42_linear_3711_89230)"/>
<path d="M206.1 102C206.2 101.9 206.3 101.8 206.4 101.7L209.4 99.3999L213.5 101.7L210.3 104.2L203.5 113.8L205.9 112.8L209.1 114.8L204 116.9C203.8 117 203.5 117 203.3 117C202.7 117 202.2 116.9 201.7 116.6C201.2 116.3 200.3 115.7 199.5 115.1C198.9 114.7 198.8 113.9 199.2 113.3L206.1 102Z" fill="url(#paint43_linear_3711_89230)"/>
<defs>
<linearGradient id="paint0_linear_3711_89230" x1="217.454" y1="63.8203" x2="236.177" y2="96.8748" gradientUnits="userSpaceOnUse">
<stop offset="0.0121213" stop-color="#5574E0"/>
<stop offset="0.4659" stop-color="#5373DE"/>
<stop offset="0.6293" stop-color="#4D6FD7"/>
<stop offset="0.7459" stop-color="#4367CC"/>
<stop offset="0.8401" stop-color="#335DBB"/>
<stop offset="0.9201" stop-color="#204FA5"/>
<stop offset="0.9904" stop-color="#083F8A"/>
<stop offset="1" stop-color="#043C86"/>
</linearGradient>
<linearGradient id="paint1_linear_3711_89230" x1="238.483" y1="164.165" x2="253.823" y2="131.157" gradientUnits="userSpaceOnUse">
<stop offset="0.0121213" stop-color="#5574E0"/>
<stop offset="0.212" stop-color="#5171DC"/>
<stop offset="0.4244" stop-color="#4669CF"/>
<stop offset="0.6426" stop-color="#335CBA"/>
<stop offset="0.8634" stop-color="#184A9C"/>
<stop offset="1" stop-color="#043C86"/>
</linearGradient>
<linearGradient id="paint2_linear_3711_89230" x1="266.094" y1="164.512" x2="264.81" y2="118.042" gradientUnits="userSpaceOnUse">
<stop offset="0.0121213" stop-color="#5574E0"/>
<stop offset="0.212" stop-color="#5171DC"/>
<stop offset="0.4244" stop-color="#4669CF"/>
<stop offset="0.6426" stop-color="#335CBA"/>
<stop offset="0.8634" stop-color="#184A9C"/>
<stop offset="1" stop-color="#043C86"/>
</linearGradient>
<linearGradient id="paint3_linear_3711_89230" x1="259.006" y1="85.8381" x2="259.006" y2="141.331" gradientUnits="userSpaceOnUse">
<stop offset="0.0121213" stop-color="#5574E0"/>
<stop offset="0.1879" stop-color="#4E6FD9"/>
<stop offset="0.4494" stop-color="#3C63C5"/>
<stop offset="0.7626" stop-color="#1F4EA4"/>
<stop offset="1" stop-color="#043C86"/>
</linearGradient>
<linearGradient id="paint4_linear_3711_89230" x1="259.5" y1="66.5" x2="288.879" y2="92.3794" gradientUnits="userSpaceOnUse">
<stop offset="0.0121213" stop-color="#1067DB"/>
<stop offset="0.4659" stop-color="#5373DE"/>
<stop offset="0.6293" stop-color="#4D6FD7"/>
<stop offset="0.7459" stop-color="#4367CC"/>
<stop offset="0.8401" stop-color="#335DBB"/>
<stop offset="0.9201" stop-color="#204FA5"/>
<stop offset="0.9904" stop-color="#083F8A"/>
<stop offset="1" stop-color="#043C86"/>
</linearGradient>
<linearGradient id="paint5_linear_3711_89230" x1="206.871" y1="128.554" x2="186.237" y2="128.554" gradientUnits="userSpaceOnUse">
<stop stop-color="#F6F7FB"/>
<stop offset="0.2605" stop-color="#DFEAF6"/>
<stop offset="0.7447" stop-color="#B9D4EE"/>
<stop offset="1" stop-color="#ABCCEB"/>
</linearGradient>
<linearGradient id="paint6_linear_3711_89230" x1="175.338" y1="83.258" x2="170.078" y2="101.801" gradientUnits="userSpaceOnUse">
<stop offset="0.0121213" stop-color="#F6F7FB"/>
<stop offset="0.7656" stop-color="#BED7EF"/>
<stop offset="1" stop-color="#ABCCEB"/>
</linearGradient>
<linearGradient id="paint7_linear_3711_89230" x1="157.212" y1="164.354" x2="192.527" y2="96.4709" gradientUnits="userSpaceOnUse">
<stop stop-color="#05105D"/>
<stop offset="0.14" stop-color="#061767"/>
<stop offset="0.39" stop-color="#082981"/>
<stop offset="0.69" stop-color="#0C46AB"/>
<stop offset="1" stop-color="#1067DB"/>
</linearGradient>
<linearGradient id="paint8_linear_3711_89230" x1="193.895" y1="112.865" x2="238.165" y2="76.5101" gradientUnits="userSpaceOnUse">
<stop stop-color="#05105D"/>
<stop offset="0.14" stop-color="#061767"/>
<stop offset="0.39" stop-color="#082981"/>
<stop offset="0.69" stop-color="#0C46AB"/>
<stop offset="1" stop-color="#1067DB"/>
</linearGradient>
<linearGradient id="paint9_linear_3711_89230" x1="164.932" y1="41.1858" x2="172.52" y2="-0.735691" gradientUnits="userSpaceOnUse">
<stop stop-color="#05105D"/>
<stop offset="0.14" stop-color="#061767"/>
<stop offset="0.39" stop-color="#082981"/>
<stop offset="0.69" stop-color="#0C46AB"/>
<stop offset="1" stop-color="#1067DB"/>
</linearGradient>
<linearGradient id="paint10_linear_3711_89230" x1="157.212" y1="113.753" x2="206.005" y2="38.1942" gradientUnits="userSpaceOnUse">
<stop stop-color="#05105D"/>
<stop offset="0.14" stop-color="#061767"/>
<stop offset="0.39" stop-color="#082981"/>
<stop offset="0.69" stop-color="#0C46AB"/>
<stop offset="1" stop-color="#1067DB"/>
</linearGradient>
<linearGradient id="paint11_linear_3711_89230" x1="275.058" y1="209.967" x2="309.72" y2="173.15" gradientUnits="userSpaceOnUse">
<stop stop-color="#05105D"/>
<stop offset="0.14" stop-color="#061767"/>
<stop offset="0.39" stop-color="#082981"/>
<stop offset="0.69" stop-color="#0C46AB"/>
<stop offset="1" stop-color="#1067DB"/>
</linearGradient>
<linearGradient id="paint12_linear_3711_89230" x1="192.853" y1="92.4845" x2="248.052" y2="139.362" gradientUnits="userSpaceOnUse">
<stop offset="0.0121213" stop-color="#86F2FF"/>
<stop offset="1" stop-color="#68AAFF"/>
</linearGradient>
<linearGradient id="paint13_linear_3711_89230" x1="217.239" y1="211.964" x2="252.479" y2="117.871" gradientUnits="userSpaceOnUse">
<stop stop-color="#05105D"/>
<stop offset="0.14" stop-color="#061767"/>
<stop offset="0.39" stop-color="#082981"/>
<stop offset="0.69" stop-color="#0C46AB"/>
<stop offset="1" stop-color="#1067DB"/>
</linearGradient>
<linearGradient id="paint14_linear_3711_89230" x1="265.084" y1="137.641" x2="247.368" y2="137.641" gradientUnits="userSpaceOnUse">
<stop offset="0.0121224" stop-color="#626270"/>
<stop offset="0.3122" stop-color="#5F5F6C"/>
<stop offset="0.6004" stop-color="#575761"/>
<stop offset="0.8829" stop-color="#49494D"/>
<stop offset="1" stop-color="#414143"/>
</linearGradient>
<linearGradient id="paint15_linear_3711_89230" x1="253.584" y1="128.896" x2="247.332" y2="128.896" gradientUnits="userSpaceOnUse">
<stop offset="0.0121224" stop-color="#626270"/>
<stop offset="0.3122" stop-color="#5F5F6C"/>
<stop offset="0.6004" stop-color="#575761"/>
<stop offset="0.8829" stop-color="#49494D"/>
<stop offset="1" stop-color="#414143"/>
</linearGradient>
<linearGradient id="paint16_linear_3711_89230" x1="250.257" y1="124.821" x2="252.353" y2="133.678" gradientUnits="userSpaceOnUse">
<stop offset="0.0121213" stop-color="#F6F7FB"/>
<stop offset="0.7656" stop-color="#BED7EF"/>
<stop offset="1" stop-color="#ABCCEB"/>
</linearGradient>
<linearGradient id="paint17_linear_3711_89230" x1="252.373" y1="131.978" x2="250.383" y2="131.978" gradientUnits="userSpaceOnUse">
<stop offset="0.0121213" stop-color="#FFE955"/>
<stop offset="0.204" stop-color="#FFD751"/>
<stop offset="0.5889" stop-color="#FFA845"/>
<stop offset="1" stop-color="#FF7038"/>
</linearGradient>
<linearGradient id="paint18_linear_3711_89230" x1="251.589" y1="124.536" x2="253.71" y2="133.496" gradientUnits="userSpaceOnUse">
<stop offset="0.0121213" stop-color="#F6F7FB"/>
<stop offset="0.7656" stop-color="#BED7EF"/>
<stop offset="1" stop-color="#ABCCEB"/>
</linearGradient>
<linearGradient id="paint19_linear_3711_89230" x1="252.62" y1="123.635" x2="250.136" y2="123.635" gradientUnits="userSpaceOnUse">
<stop offset="0.0121224" stop-color="#626270"/>
<stop offset="0.3122" stop-color="#5F5F6C"/>
<stop offset="0.6004" stop-color="#575761"/>
<stop offset="0.8829" stop-color="#49494D"/>
<stop offset="1" stop-color="#414143"/>
</linearGradient>
<linearGradient id="paint20_linear_3711_89230" x1="256.652" y1="130.308" x2="248.415" y2="130.308" gradientUnits="userSpaceOnUse">
<stop offset="0.0121224" stop-color="#626270"/>
<stop offset="0.3122" stop-color="#5F5F6C"/>
<stop offset="0.6004" stop-color="#575761"/>
<stop offset="0.8829" stop-color="#49494D"/>
<stop offset="1" stop-color="#414143"/>
</linearGradient>
<linearGradient id="paint21_linear_3711_89230" x1="253.09" y1="125.543" x2="255.186" y2="134.4" gradientUnits="userSpaceOnUse">
<stop offset="0.0121213" stop-color="#F6F7FB"/>
<stop offset="0.7656" stop-color="#BED7EF"/>
<stop offset="1" stop-color="#ABCCEB"/>
</linearGradient>
<linearGradient id="paint22_linear_3711_89230" x1="255.432" y1="133.662" x2="253.443" y2="133.662" gradientUnits="userSpaceOnUse">
<stop offset="0.0121213" stop-color="#FFE955"/>
<stop offset="0.204" stop-color="#FFD751"/>
<stop offset="0.5889" stop-color="#FFA845"/>
<stop offset="1" stop-color="#FF7038"/>
</linearGradient>
<linearGradient id="paint23_linear_3711_89230" x1="254.421" y1="125.248" x2="256.543" y2="134.214" gradientUnits="userSpaceOnUse">
<stop offset="0.0121213" stop-color="#F6F7FB"/>
<stop offset="0.7656" stop-color="#BED7EF"/>
<stop offset="1" stop-color="#ABCCEB"/>
</linearGradient>
<linearGradient id="paint24_linear_3711_89230" x1="255.679" y1="125.319" x2="253.195" y2="125.319" gradientUnits="userSpaceOnUse">
<stop offset="0.0121224" stop-color="#626270"/>
<stop offset="0.3122" stop-color="#5F5F6C"/>
<stop offset="0.6004" stop-color="#575761"/>
<stop offset="0.8829" stop-color="#49494D"/>
<stop offset="1" stop-color="#414143"/>
</linearGradient>
<linearGradient id="paint25_linear_3711_89230" x1="259.483" y1="131.915" x2="251.642" y2="131.915" gradientUnits="userSpaceOnUse">
<stop offset="0.0121224" stop-color="#626270"/>
<stop offset="0.3122" stop-color="#5F5F6C"/>
<stop offset="0.6004" stop-color="#575761"/>
<stop offset="0.8829" stop-color="#49494D"/>
<stop offset="1" stop-color="#414143"/>
</linearGradient>
<linearGradient id="paint26_linear_3711_89230" x1="255.912" y1="126.256" x2="258.009" y2="135.113" gradientUnits="userSpaceOnUse">
<stop offset="0.0121213" stop-color="#F6F7FB"/>
<stop offset="0.7656" stop-color="#BED7EF"/>
<stop offset="1" stop-color="#ABCCEB"/>
</linearGradient>
<linearGradient id="paint27_linear_3711_89230" x1="258.46" y1="135.249" x2="256.473" y2="135.249" gradientUnits="userSpaceOnUse">
<stop offset="0.0121213" stop-color="#FFE955"/>
<stop offset="0.204" stop-color="#FFD751"/>
<stop offset="0.5889" stop-color="#FFA845"/>
<stop offset="1" stop-color="#FF7038"/>
</linearGradient>
<linearGradient id="paint28_linear_3711_89230" x1="257.238" y1="125.951" x2="259.36" y2="134.912" gradientUnits="userSpaceOnUse">
<stop offset="0.0121213" stop-color="#F6F7FB"/>
<stop offset="0.2451" stop-color="#E6EEF7"/>
<stop offset="1" stop-color="#ABCCEB"/>
</linearGradient>
<linearGradient id="paint29_linear_3711_89230" x1="258.709" y1="126.906" x2="256.226" y2="126.906" gradientUnits="userSpaceOnUse">
<stop offset="0.0121224" stop-color="#626270"/>
<stop offset="0.3122" stop-color="#5F5F6C"/>
<stop offset="0.6004" stop-color="#575761"/>
<stop offset="0.8829" stop-color="#49494D"/>
<stop offset="1" stop-color="#414143"/>
</linearGradient>
<linearGradient id="paint30_linear_3711_89230" x1="262.721" y1="133.517" x2="254.582" y2="133.517" gradientUnits="userSpaceOnUse">
<stop offset="0.0121224" stop-color="#626270"/>
<stop offset="0.3122" stop-color="#5F5F6C"/>
<stop offset="0.6004" stop-color="#575761"/>
<stop offset="0.8829" stop-color="#49494D"/>
<stop offset="1" stop-color="#414143"/>
</linearGradient>
<linearGradient id="paint31_linear_3711_89230" x1="258.821" y1="126.998" x2="260.918" y2="135.855" gradientUnits="userSpaceOnUse">
<stop offset="0.0121213" stop-color="#F6F7FB"/>
<stop offset="0.7656" stop-color="#BED7EF"/>
<stop offset="1" stop-color="#ABCCEB"/>
</linearGradient>
<linearGradient id="paint32_linear_3711_89230" x1="261.599" y1="136.966" x2="259.612" y2="136.966" gradientUnits="userSpaceOnUse">
<stop offset="0.0121213" stop-color="#FFE955"/>
<stop offset="0.204" stop-color="#FFD751"/>
<stop offset="0.5889" stop-color="#FFA845"/>
<stop offset="1" stop-color="#FF7038"/>
</linearGradient>
<linearGradient id="paint33_linear_3711_89230" x1="260.146" y1="126.681" x2="262.267" y2="135.643" gradientUnits="userSpaceOnUse">
<stop offset="0.0121213" stop-color="#F6F7FB"/>
<stop offset="0.7656" stop-color="#BED7EF"/>
<stop offset="1" stop-color="#ABCCEB"/>
</linearGradient>
<linearGradient id="paint34_linear_3711_89230" x1="261.849" y1="128.623" x2="259.365" y2="128.623" gradientUnits="userSpaceOnUse">
<stop offset="0.0121224" stop-color="#626270"/>
<stop offset="0.3122" stop-color="#5F5F6C"/>
<stop offset="0.6004" stop-color="#575761"/>
<stop offset="0.8829" stop-color="#49494D"/>
<stop offset="1" stop-color="#414143"/>
</linearGradient>
<linearGradient id="paint35_linear_3711_89230" x1="252.62" y1="123.635" x2="250.136" y2="123.635" gradientUnits="userSpaceOnUse">
<stop offset="0.0121224" stop-color="#626270"/>
<stop offset="0.3122" stop-color="#5F5F6C"/>
<stop offset="0.6004" stop-color="#575761"/>
<stop offset="0.8829" stop-color="#49494D"/>
<stop offset="1" stop-color="#414143"/>
</linearGradient>
<linearGradient id="paint36_linear_3711_89230" x1="255.679" y1="125.319" x2="253.195" y2="125.319" gradientUnits="userSpaceOnUse">
<stop offset="0.0121224" stop-color="#626270"/>
<stop offset="0.3122" stop-color="#5F5F6C"/>
<stop offset="0.6004" stop-color="#575761"/>
<stop offset="0.8829" stop-color="#49494D"/>
<stop offset="1" stop-color="#414143"/>
</linearGradient>
<linearGradient id="paint37_linear_3711_89230" x1="258.709" y1="126.906" x2="256.226" y2="126.906" gradientUnits="userSpaceOnUse">
<stop offset="0.0121224" stop-color="#626270"/>
<stop offset="0.3122" stop-color="#5F5F6C"/>
<stop offset="0.6004" stop-color="#575761"/>
<stop offset="0.8829" stop-color="#49494D"/>
<stop offset="1" stop-color="#414143"/>
</linearGradient>
<linearGradient id="paint38_linear_3711_89230" x1="264.307" y1="135.019" x2="257.726" y2="135.019" gradientUnits="userSpaceOnUse">
<stop offset="0.0121224" stop-color="#626270"/>
<stop offset="0.3122" stop-color="#5F5F6C"/>
<stop offset="0.6004" stop-color="#575761"/>
<stop offset="0.8829" stop-color="#49494D"/>
<stop offset="1" stop-color="#414143"/>
</linearGradient>
<linearGradient id="paint39_linear_3711_89230" x1="241.04" y1="127.581" x2="241.04" y2="132.598" gradientUnits="userSpaceOnUse">
<stop offset="0.0121213" stop-color="#5574E0"/>
<stop offset="0.1879" stop-color="#4E6FD9"/>
<stop offset="0.4494" stop-color="#3C63C5"/>
<stop offset="0.7626" stop-color="#1F4EA4"/>
<stop offset="1" stop-color="#043C86"/>
</linearGradient>
<linearGradient id="paint40_linear_3711_89230" x1="244.539" y1="128.535" x2="240.755" y2="130.101" gradientUnits="userSpaceOnUse">
<stop offset="0.0121213" stop-color="#5574E0"/>
<stop offset="0.1879" stop-color="#4E6FD9"/>
<stop offset="0.4494" stop-color="#3C63C5"/>
<stop offset="0.7626" stop-color="#1F4EA4"/>
<stop offset="1" stop-color="#043C86"/>
</linearGradient>
<linearGradient id="paint41_linear_3711_89230" x1="240.94" y1="114.951" x2="201.62" y2="114.951" gradientUnits="userSpaceOnUse">
<stop offset="0.0121213" stop-color="#F6F7FB"/>
<stop offset="0.4828" stop-color="#F4F6FB"/>
<stop offset="0.6524" stop-color="#EDF2F9"/>
<stop offset="0.7733" stop-color="#E2EBF7"/>
<stop offset="0.871" stop-color="#D1E2F3"/>
<stop offset="0.9536" stop-color="#BBD5EE"/>
<stop offset="1" stop-color="#ABCCEB"/>
</linearGradient>
<linearGradient id="paint42_linear_3711_89230" x1="197.617" y1="77.9571" x2="229.273" y2="128.606" gradientUnits="userSpaceOnUse">
<stop offset="0.0121213" stop-color="#5574E0"/>
<stop offset="0.4659" stop-color="#5373DE"/>
<stop offset="0.6293" stop-color="#4D6FD7"/>
<stop offset="0.7459" stop-color="#4367CC"/>
<stop offset="0.8401" stop-color="#335DBB"/>
<stop offset="0.9201" stop-color="#204FA5"/>
<stop offset="0.9904" stop-color="#083F8A"/>
<stop offset="1" stop-color="#043C86"/>
</linearGradient>
<linearGradient id="paint43_linear_3711_89230" x1="212.96" y1="101.307" x2="201.299" y2="116.579" gradientUnits="userSpaceOnUse">
<stop offset="0.0121213" stop-color="#F6F7FB"/>
<stop offset="0.3641" stop-color="#DEE9F6"/>
<stop offset="1" stop-color="#ABCCEB"/>
</linearGradient>
</defs>
</svg>
