<svg width="294" height="168" viewBox="0 0 294 168" fill="none" xmlns="http://www.w3.org/2000/svg">
<path opacity="0.08" d="M293.96 66.4801L174.85 7.62012L0.0400391 99.7401L118.53 167.76L293.96 66.4801Z" fill="black"/>
<path d="M279.88 66.61V62.98L272.13 62.78L173.17 13.96L19.5702 94.4399L12.4102 94.89V98.5099L118.53 159.72L184.62 121.56C185.313 122.251 186.208 122.703 187.176 122.851C188.143 122.998 189.133 122.833 190 122.38L201.36 115.82C202.637 115.084 203.749 114.095 204.63 112.914C205.51 111.732 206.14 110.384 206.48 108.95L279.88 66.61Z" fill="#143684"/>
<path d="M279.88 62.9799L272.17 59.1498L173.17 10.3398L19.6004 90.8198L12.4404 94.8898L118.53 156.14L186.45 116.92V117.56C186.45 119.37 187.73 120.1 189.31 119.19L201.36 112.19C202.189 111.649 202.878 110.921 203.373 110.065C203.868 109.208 204.155 108.247 204.21 107.26V106.72L279.88 62.9799Z" fill="#2051A4"/>
<path d="M272.13 57.1199L173.2 6.33984L19.5996 88.6898V95.0198L118.53 152.14L195.33 107.8L272.13 63.4598V57.1199Z" fill="#399EFF"/>
<path d="M272.17 57.12L215.85 81.34C210.846 83.4871 206.48 86.8862 203.17 91.21L195.34 101.46L96.4102 44.34L104.25 34.08C107.548 29.7633 111.901 26.3678 116.89 24.22L173.17 0L272.17 57.12Z" fill="#8FD4FF"/>
<path d="M129.67 35.3199L176.4 14.72L171.68 12L128.5 30.56C123.488 32.7279 119.058 36.0478 115.57 40.25L119.65 42.56C122.426 39.4489 125.845 36.9784 129.67 35.3199Z" fill="#BDE6FF"/>
<path d="M141.8 43.0001L189.17 22.0901L184.45 19.3701L140.6 38.2301C135.77 40.3134 131.475 43.4659 128.04 47.4501L132.15 49.7801C134.863 46.8764 138.149 44.5677 141.8 43.0001Z" fill="#BDE6FF"/>
<path d="M155.93 51.51L203.58 30.51L198.85 27.79L154.76 46.79C149.994 48.8419 145.749 51.9381 142.34 55.85L146.46 58.1801C149.132 55.3379 152.354 53.0686 155.93 51.51Z" fill="#BDE6FF"/>
<path d="M212.79 64.7203C226.59 60.3603 242.51 53.2803 242.51 53.2803L216.03 38.5703L171.94 57.5703C167.175 59.603 162.928 62.6785 159.51 66.5703L186.42 81.7404C190.88 75.8604 199 69.1003 212.79 64.7203Z" fill="white"/>
<path d="M195.33 101.46C187.085 100.189 178.673 102.223 171.92 107.12L118.53 145.81L19.5996 88.72L72.9896 50.03C79.7418 45.1315 88.1565 43.1006 96.3996 44.38L195.33 101.46Z" fill="#BDE6FF"/>
<path d="M118.53 145.81V152.139L19.5996 95.0195V88.6895L118.53 145.81Z" fill="#43BCFF"/>
<path d="M56.7106 95.95C55.6858 96.5349 54.5807 96.9662 53.4306 97.23C51.0847 97.3185 48.7558 96.7983 46.6706 95.72C43.0206 93.63 43.0006 90.23 46.6106 88.13C48.7236 87.0026 51.0971 86.4541 53.4906 86.54C54.5938 86.7977 55.6546 87.2119 56.6406 87.77C60.6006 89.99 60.6306 93.72 56.7106 95.95Z" fill="#2051A4"/>
<path d="M59.63 93.8502C59.3673 93.8574 59.1059 93.8128 58.8604 93.7189C58.615 93.6251 58.3905 93.4839 58.1996 93.3033C58.0088 93.1227 57.8554 92.9062 57.7483 92.6663C57.6411 92.4264 57.5822 92.1678 57.575 91.9051C57.5678 91.6425 57.6123 91.381 57.7062 91.1356C57.8 90.8902 57.9413 90.6657 58.1219 90.4749C58.3025 90.284 58.5189 90.1306 58.7588 90.0234C58.9987 89.9163 59.2573 89.8574 59.52 89.8502L97.81 87.8502C98.0726 87.837 98.3353 87.8757 98.5829 87.9641C98.8306 88.0525 99.0585 88.1888 99.2535 88.3652C99.4485 88.5417 99.6068 88.7547 99.7195 88.9924C99.8321 89.23 99.8968 89.4875 99.91 89.7502C99.9231 90.0128 99.8844 90.2755 99.796 90.5231C99.7076 90.7708 99.5713 90.9987 99.3949 91.1937C99.2185 91.3887 99.0053 91.547 98.7677 91.6597C98.5301 91.7723 98.2726 91.837 98.01 91.8502L59.73 93.8502H59.63Z" fill="#2C89FF"/>
<path d="M97.91 101.759C109.298 101.759 118.53 96.4272 118.53 89.8495C118.53 83.2718 109.298 77.9395 97.91 77.9395C86.5219 77.9395 77.29 83.2718 77.29 89.8495C77.29 96.4272 86.5219 101.759 97.91 101.759Z" fill="#E60026"/>
<path d="M105.67 98.9198C103.396 100.208 100.947 101.161 98.4004 101.75C93.1858 101.92 88.0166 100.731 83.4004 98.2998C75.3104 93.6798 75.2504 86.1398 83.2704 81.4698C87.9573 78.9607 93.2281 77.7457 98.5404 77.9498C100.989 78.5207 103.346 79.4329 105.54 80.6598C114.3 85.7198 114.36 93.8498 105.67 98.9198Z" fill="#F62121"/>
<path d="M104.69 70.4295C110.13 67.2595 110.09 62.1395 104.6 58.9995C99.11 55.8595 90.24 55.8795 84.8 59.0495C79.36 62.2195 79.4 67.3395 84.89 70.4795C90.38 73.6195 99.25 73.5995 104.69 70.4295Z" fill="#FF590E"/>
<path d="M100.01 70.9004C98.4681 71.7753 96.8075 72.422 95.08 72.8204C91.538 72.9356 88.0268 72.1293 84.89 70.4804C79.4 67.3404 79.36 62.2204 84.8 59.0504C87.9904 57.372 91.5682 56.5681 95.17 56.7204C96.8283 57.1088 98.4239 57.7282 99.91 58.5604C105.87 61.9104 105.91 67.4604 100.01 70.9004Z" fill="#FF782D"/>
<path d="M136.68 113.64C141.44 110.86 141.41 106.39 136.6 103.64C131.79 100.89 124.05 100.91 119.29 103.69C114.53 106.47 114.56 110.94 119.37 113.69C124.18 116.44 131.92 116.41 136.68 113.64Z" fill="#009573"/>
<path d="M132.59 114.05C131.242 114.814 129.79 115.38 128.28 115.73C125.187 115.845 122.117 115.156 119.37 113.73C114.56 110.99 114.53 106.51 119.29 103.73C122.071 102.241 125.198 101.52 128.35 101.64C129.802 101.979 131.199 102.521 132.5 103.25C137.71 106.19 137.75 111.04 132.59 114.05Z" fill="#17A984"/>
<path d="M239.17 30.6399C239.223 31.1547 239.138 31.6745 238.924 32.1456C238.71 32.6167 238.373 33.022 237.95 33.3199L229.25 38.3199L223.25 28.1799L232.25 23.0599C232.71 22.9031 233.202 22.8576 233.683 22.9271C234.165 22.9967 234.623 23.1792 235.02 23.4599C236.225 24.2483 237.229 25.3087 237.95 26.5558C238.671 27.8029 239.089 29.2018 239.17 30.6399Z" fill="#143684"/>
<path d="M236.44 34.5006C236.44 36.5606 235.71 38.0105 234.53 38.6905C233.35 39.3705 202.53 57.4805 202.53 57.4805L193.17 41.6405C193.17 41.6405 225.46 22.6905 225.58 22.6405C226.297 22.3921 227.062 22.3178 227.814 22.4239C228.565 22.53 229.28 22.8134 229.9 23.2506C231.798 24.479 233.38 26.138 234.516 28.0929C235.653 30.0477 236.312 32.2431 236.44 34.5006Z" fill="#E60026"/>
<path d="M204.4 53.3098C204.4 57.4498 201.49 59.1198 197.89 57.0398C195.996 55.8092 194.419 54.149 193.288 52.1941C192.157 50.2392 191.503 48.045 191.38 45.7898C191.38 41.6598 194.29 39.9898 197.89 42.0698C199.783 43.2988 201.359 44.9573 202.49 46.9105C203.622 48.8636 204.276 51.0562 204.4 53.3098Z" fill="#FF590E"/>
<path d="M201.43 52.7202C201.485 53.2377 201.4 53.7605 201.183 54.2338C200.967 54.7071 200.627 55.1134 200.2 55.4102L191.51 60.4102L185.51 50.2602C185.51 50.2602 194.4 45.1802 194.51 45.1502C194.968 44.9912 195.457 44.9436 195.937 45.0114C196.417 45.0793 196.874 45.2605 197.27 45.5402C198.478 46.3263 199.485 47.3859 200.207 48.6333C200.93 49.8807 201.349 51.2808 201.43 52.7202Z" fill="#143684"/>
<path d="M164.61 91.3597C182.71 89.4397 195.4 80.3596 195.61 70.0997C195.61 68.6997 195.61 63.3896 195.61 63.3896C189.091 57.6478 181.654 53.0405 173.61 49.7596C166.67 47.0296 157.68 45.4196 150.47 46.1896C137.55 47.5496 119.73 62.5597 119.73 62.5597C119.589 65.2578 119.589 67.9615 119.73 70.6596C119.811 71.711 120.019 72.7486 120.35 73.7497C124.17 85.6397 144.03 93.5397 164.61 91.3597ZM164.38 83.1896C148.86 84.8296 132.38 81.7396 129.45 72.7796C126.52 63.8196 136.78 55.1797 152.3 53.5397C167.82 51.8997 182.81 57.8497 185.73 66.8097C188.65 75.7697 179.89 81.5396 164.38 83.1896Z" fill="#2051A4"/>
<path d="M164.61 84.9497C185.19 82.7697 198.78 71.3198 194.91 59.4298C191.04 47.5398 171.17 39.6397 150.57 41.8197C129.97 43.9997 116.4 55.4497 120.27 67.3397C124.14 79.2297 144.03 87.1297 164.61 84.9497ZM162.7 79.7498C147.18 81.3898 132.37 75.3298 129.45 66.3698C126.53 57.4098 136.78 48.7697 152.3 47.1297C167.82 45.4897 182.81 51.4397 185.73 60.4097C188.65 69.3797 178.22 78.0997 162.7 79.7197V79.7498Z" fill="#399EFF"/>
<path d="M197.89 42.0599C199.066 42.7686 200.112 43.6752 200.98 44.7399L233.17 26.1399C232.266 24.9812 231.158 23.9983 229.9 23.2399L229.76 23.1699L197.43 41.8299L197.89 42.0599Z" fill="#F62121"/>
</svg>
