<svg width="24" height="24" viewBox="0 0 24 24" fill="none" xmlns="http://www.w3.org/2000/svg">
<path d="M12 0C7.5817 0 4 3.5817 4 8C4 9.421 4.3816 10.75 5.0312 11.906C5.1391 12.098 5.2522 12.287 5.375 12.469L12 24L18.625 12.469C18.727 12.318 18.815 12.158 18.906 12L18.969 11.906C19.618 10.75 20 9.421 20 8C20 3.5817 16.418 0 12 0ZM12 4C14.209 4 16 5.7909 16 8C16 10.209 14.209 12 12 12C9.7909 12 8 10.209 8 8C8 5.7909 9.7909 4 12 4Z" fill="#040D1F"/>
<path d="M12 3C9.2386 3 7 5.2386 7 8C7 10.761 9.2386 13 12 13C14.761 13 17 10.761 17 8C17 5.2386 14.761 3 12 3ZM12 5C13.657 5 15 6.3431 15 8C15 9.6569 13.657 11 12 11C10.343 11 9 9.6569 9 8C9 6.3431 10.343 5 12 5Z" fill="#4B5669"/>
</svg>
