<svg width="143" height="17" viewBox="0 0 143 17" fill="none" xmlns="http://www.w3.org/2000/svg">
<g clip-path="url(#clip0_2993_39068)">
<path d="M15.7439 14.4825H9.04199V2.61365H15.7441L15.7439 14.4825Z" fill="#FF5F00"/>
<path d="M24.7856 8.5483C24.7856 12.7172 21.3567 16.0966 17.1267 16.0966C15.4093 16.0991 13.7413 15.5305 12.3926 14.4827C14.1744 13.1006 15.3184 10.956 15.3184 8.5483C15.3184 6.14057 14.1744 3.99599 12.3926 2.61385C13.7412 1.56613 15.4092 0.997491 17.1266 0.999947C21.3566 0.999947 24.7855 4.37941 24.7855 8.5483" fill="#F79E1B"/>
<path d="M9.46696 8.54768C9.46696 6.14008 10.6109 3.99538 12.3923 2.61324C11.0439 1.56549 9.37611 0.996837 7.65894 0.999337C3.42892 0.999337 0 4.3788 0 8.54768C0 12.7166 3.42892 16.096 7.65894 16.096C9.37616 16.0986 11.044 15.5299 12.3924 14.4821C10.6112 13.1002 9.46696 10.9554 9.46696 8.54768Z" fill="#EB001B"/>
</g>
<path d="M55.4964 15.2666H52.0149L54.1908 1.74167H57.6727L55.4964 15.2666ZM49.086 1.74167L45.7669 11.0443L45.3742 9.04105L45.3745 9.04177L44.203 2.95944C44.203 2.95944 44.0614 1.74167 42.5515 1.74167H37.0644L37 1.97068C37 1.97068 38.678 2.32378 40.6418 3.51659L43.6665 15.267H47.2939L52.833 1.74167H49.086ZM76.4699 15.2666H79.6667L76.8795 1.74131H74.0808C72.7884 1.74131 72.4736 2.74924 72.4736 2.74924L67.2812 15.2666H70.9105L71.6363 13.2577H76.0621L76.4699 15.2666ZM72.6389 10.4824L74.4682 5.42103L75.4973 10.4824H72.6389ZM67.5535 4.99412L68.0503 2.08971C68.0503 2.08971 66.5172 1.5 64.919 1.5C63.1913 1.5 59.0884 2.26373 59.0884 5.97745C59.0884 9.47157 63.9038 9.51499 63.9038 11.3503C63.9038 13.1857 59.5846 12.8568 58.1591 11.6994L57.6415 14.7363C57.6415 14.7363 59.1961 15.5 61.5713 15.5C63.9471 15.5 67.5313 14.2558 67.5313 10.8695C67.5313 7.35296 62.6726 7.02554 62.6726 5.49664C62.673 3.96737 66.0636 4.16382 67.5535 4.99412Z" fill="#2566AF"/>
<path d="M45.3745 9.04113L44.203 2.9588C44.203 2.9588 44.0614 1.74103 42.5515 1.74103H37.0644L37 1.97004C37 1.97004 39.6373 2.52284 42.167 4.59406C44.5858 6.57375 45.3745 9.04113 45.3745 9.04113Z" fill="#E6A540"/>
<g clip-path="url(#clip1_2993_39068)">
<path d="M104.962 4.17934C104.865 4.1219 104.745 4.1179 104.644 4.16868C104.543 4.21959 104.474 4.31824 104.462 4.43068C104.45 4.54002 104.432 4.64934 104.408 4.76402C103.756 7.72602 102.445 9.16667 100.4 9.16667H97.4002C97.242 9.16695 97.1058 9.27836 97.0742 9.43333L96.0742 14.1207L95.8956 15.314C95.7928 15.8567 96.1495 16.3798 96.6921 16.4826C96.7519 16.4939 96.8127 16.4997 96.8736 16.5H98.8802C99.3401 16.5014 99.7411 16.1875 99.8502 15.7407L100.661 12.5H102.4C104.453 12.5 105.872 10.8634 106.395 7.89136C106.74 6.47618 106.169 4.99549 104.962 4.17934Z" fill="#03A9F4"/>
<path d="M104.333 1.68808C103.675 0.940928 102.729 0.508992 101.733 0.500085H96.2134C95.3873 0.495648 94.684 1.10005 94.5641 1.91739L92.8501 13.3514C92.768 13.8975 93.1442 14.4068 93.6903 14.4889C93.7399 14.4964 93.79 14.5001 93.8401 14.5001H96.4001C96.5583 14.4998 96.6945 14.3884 96.7261 14.2334L97.6694 9.83341H100.403C102.775 9.83341 104.342 8.17541 105.062 4.90008C105.091 4.76951 105.113 4.63758 105.129 4.50473C105.296 3.49427 105.004 2.46186 104.333 1.68808Z" fill="#283593"/>
</g>
<g clip-path="url(#clip2_2993_39068)">
<path d="M121.35 0.658752H140.441C141.194 0.658752 141.805 1.26963 141.805 2.02304V14.9776C141.805 15.7303 141.194 16.3412 140.441 16.3412H121.35C120.597 16.3413 119.986 15.7303 119.986 14.9777V2.02304C119.986 1.26963 120.597 0.658752 121.35 0.658752Z" fill="#26A6D1"/>
<path d="M123.505 6.11334L121.35 10.8813H123.929L124.249 10.1211H124.98L125.3 10.8813H128.139V10.3011L128.392 10.8813H129.861L130.114 10.2888V10.8813H136.018L136.736 10.1409L137.408 10.8813L140.441 10.8875L138.28 8.51065L140.441 6.11334H137.455L136.756 6.84013L136.105 6.11334H129.682L129.13 7.344L128.566 6.11334H125.992V6.67382L125.706 6.11334C125.706 6.11334 123.505 6.11334 123.505 6.11334ZM124.004 6.7904H125.261L126.69 10.0236V6.7904H128.067L129.171 9.10859L130.189 6.7904H131.559V10.2117H130.725L130.718 7.5308L129.503 10.2117H128.757L127.534 7.5308V10.2117H125.819L125.494 9.44473H123.736L123.412 10.2111H122.493L124.004 6.7904ZM132.322 6.7904H135.713L136.75 7.91061L137.82 6.7904H138.857L137.282 8.50997L138.857 10.2097H137.773L136.736 9.07651L135.66 10.2097H132.322V6.7904ZM124.615 7.36928L124.037 8.73566H125.194L124.615 7.36928ZM133.159 7.4988V8.12336H135.009V8.81949H133.159V9.50134H135.234L136.198 8.49704L135.275 7.4982H133.159V7.4988Z" fill="white"/>
</g>
<defs>
<clipPath id="clip0_2993_39068">
<rect width="25" height="16" fill="white" transform="translate(0 0.5)"/>
</clipPath>
<clipPath id="clip1_2993_39068">
<rect width="16" height="16" fill="white" transform="translate(91.6665 0.5)"/>
</clipPath>
<clipPath id="clip2_2993_39068">
<rect width="22.5455" height="16" fill="white" transform="translate(119.667 0.5)"/>
</clipPath>
</defs>
</svg>
