<?xml version="1.0" encoding="UTF-8"?>
<svg width="2280px" height="738px" viewBox="0 0 2280 738" version="1.1" xmlns="http://www.w3.org/2000/svg" xmlns:xlink="http://www.w3.org/1999/xlink">
    <title>direct-debit-dark</title>
    <g id="Page-1" stroke="none" stroke-width="1" fill="none" fill-rule="evenodd">
        <g id="direct-debit-dark" transform="translate(0.294881, 0.126917)" fill="#000000" fill-rule="nonzero">
            <path d="M1072.31422,154.884932 L1190.53363,154.884932 C1190.53363,154.884932 1307.58576,152.524435 1306.40551,258.915416 C1305.23823,338.13474 1192.92006,349.950196 1192.92006,349.950196 L1072.32719,349.950196 L1072.32719,154.884932 L1072.31422,154.884932 L1072.31422,154.884932 Z M1425.98674,536.779659 C1429.307,552.252589 1440.49991,569.30783 1477.83986,571.058748 C1527.48812,572.226027 1555.86597,553.30314 1555.86597,553.30314 L1555.86597,589.955695 C1555.86597,589.955695 1501.48374,602.977339 1475.46639,602.977339 C1448.28177,602.977339 1367.88219,597.050157 1367.88219,522.577767 C1367.88219,462.2943 1434.09284,443.371413 1471.91268,443.371413 C1538.12333,445.73191 1570.04192,469.388761 1568.86167,536.766689 C1568.86167,537.739422 1459.92861,537.013115 1425.98674,536.779659 L1425.98674,536.779659 Z M1426.14238,507.195626 L1516.85291,507.195626 C1516.85291,507.195626 1516.85291,472.916537 1473.1059,472.916537 C1440.2016,472.916537 1429.4367,490.659175 1426.14238,507.195626 Z M1713.09842,470.179917 C1726.22383,455.939115 1748.25946,444.538691 1785.22329,444.538691 C1858.5284,444.538691 1870.35682,506.015377 1869.17658,522.564797 C1867.99633,539.114217 1862.08211,601.771151 1776.97452,601.771151 C1744.82247,601.771151 1725.14734,590.79873 1713.11139,577.180477 L1713.11139,597.037187 L1655.17545,597.037187 L1655.17545,384.229285 L1713.11139,384.229285 L1713.11139,470.179917 L1713.09842,470.179917 L1713.09842,470.179917 Z M1762.77262,568.672311 C1797.05171,567.479093 1812.42088,537.946938 1812.42088,523.758015 C1812.42088,509.569093 1804.1332,480.010998 1760.38619,480.010998 C1726.44431,480.010998 1716.10741,505.652224 1713.09842,518.181016 L1713.09842,533.602067 C1716.08147,546.377285 1726.47025,568.672311 1762.77262,568.672311 L1762.77262,568.672311 Z M2262.87379,562.771068 L2264.04107,595.882878 C2264.04107,595.882878 2236.85644,601.784121 2219.12677,601.784121 C2201.3971,601.784121 2155.26365,591.148914 2155.26365,546.208678 L2155.26365,477.637531 L2106.80861,477.637531 L2106.80861,446.912158 L2155.26365,446.912158 L2155.26365,410.259603 L2214.39281,410.259603 L2214.39281,446.912158 L2262.87379,446.912158 L2262.87379,477.637531 L2214.39281,477.637531 L2214.39281,536.766689 C2214.39281,536.766689 2214.39281,566.324784 2238.04966,566.324784 C2261.68057,566.324784 2262.87379,562.771068 2262.87379,562.771068 L2262.87379,562.771068 Z M2083.16473,186.803524 L2151.73587,186.803524 L2151.73587,351.130445 L2209.64587,351.130445 L2209.64587,186.803524 L2279.41024,186.803524 L2279.41024,152.511465 L2083.16473,152.511465 L2083.16473,186.803524 Z M2059.50788,195.078234 L2066.60234,160.786175 C2066.60234,160.786175 2037.04424,147.790471 1985.03549,147.790471 C1934.19401,147.790471 1852.62716,176.168316 1852.62716,253.014173 C1852.62716,328.679782 1938.92797,354.68416 1992.12995,354.68416 C2045.33192,354.68416 2063.06159,346.40945 2063.06159,346.40945 L2057.16035,308.576646 C2057.16035,308.576646 2033.5035,315.671108 1993.29723,315.671108 C1954.28417,314.490859 1914.11681,283.752516 1914.11681,249.473428 C1915.28409,218.735085 1950.74343,184.443026 1996.87688,184.443026 C2032.32325,184.443026 2059.50788,195.078234 2059.50788,195.078234 L2059.50788,195.078234 Z M1536.94308,153.704684 C1536.94308,153.704684 1633.89207,148.983689 1633.89207,205.726411 C1633.89207,254.207392 1578.34257,257.748138 1578.34257,257.748138 C1578.34257,257.748138 1593.69877,260.108635 1600.8062,270.743842 C1606.70744,280.198801 1645.7205,351.143414 1645.7205,351.143414 L1586.59134,351.143414 C1586.59134,351.143414 1577.13638,339.314989 1572.40242,331.053249 C1568.86167,322.778539 1558.21349,305.0359 1558.21349,305.0359 C1558.21349,305.0359 1549.95175,275.477806 1521.56094,275.477806 C1520.8476,275.477806 1509.30451,275.036834 1500.27755,274.69962 L1500.27755,351.143414 L1443.53483,351.143414 L1443.53483,153.704684 L1536.94308,153.704684 L1536.94308,153.704684 Z M1500.29052,242.378966 L1531.04184,242.378966 C1531.04184,242.378966 1573.59563,240.005499 1575.95613,214.001121 C1577.14935,189.176991 1534.59555,185.623275 1534.59555,185.623275 L1500.29052,185.623275 L1500.29052,242.378966 L1500.29052,242.378966 Z M1737.92255,273.117309 L1832.51105,273.117309 L1832.51105,236.464753 L1737.92255,236.464753 L1737.92255,191.537488 L1840.79873,191.537488 L1840.79873,153.704684 L1680.02552,153.704684 L1680.02552,351.143414 L1841.99195,351.143414 L1841.99195,315.671108 L1737.93552,315.671108 L1737.93552,273.117309 L1737.92255,273.117309 Z M1968.46013,424.435556 L2026.39607,424.435556 L2026.39607,384.229285 L1968.46013,384.229285 L1968.46013,424.435556 Z M1968.46013,597.050157 L2026.39607,597.050157 L2026.39607,446.912158 L1968.46013,446.912158 L1968.46013,597.050157 L1968.46013,597.050157 Z M1337.15682,351.143414 L1393.89954,351.143414 L1393.89954,153.704684 L1337.15682,153.704684 L1337.15682,351.143414 L1337.15682,351.143414 Z M1072.31422,400.804644 L1190.53363,400.804644 C1190.53363,400.804644 1307.58576,398.418207 1306.40551,504.835128 C1305.23823,584.041482 1192.92006,595.882878 1192.92006,595.882878 L1072.32719,595.882878 L1072.32719,400.804644 L1072.31422,400.804644 L1072.31422,400.804644 Z M1130.25016,559.230322 L1168.08296,559.230322 C1168.08296,559.230322 1246.10907,554.496358 1246.10907,494.199921 C1246.10907,433.903484 1163.349,427.989271 1163.349,427.989271 L1130.25016,427.989271 L1130.25016,559.230322 Z M1130.25016,313.31061 L1168.08296,313.31061 C1168.08296,313.31061 1246.10907,307.396398 1246.10907,248.280209 C1246.10907,186.803524 1163.349,182.082529 1163.349,182.082529 L1130.25016,182.082529 L1130.25016,313.31061 Z M541.474714,272.416942 L541.474714,667.994771 C541.474714,667.994771 312.104422,626.608251 312.104422,469.375791 C312.117392,343.971134 481.904584,288.693997 541.474714,272.416942 Z M541.474714,265.037145 C403.619083,255.063396 91.0347797,319.678765 91.0347797,461.088111 C91.0347797,553.29017 256.554919,688.084936 526.105543,691.625682 C536.74075,691.625682 842.943929,679.797257 838.222935,351.130445 C834.254187,75.0819689 627.645832,26.7306854 561.57785,18.313308 L561.57785,1.49152296 C824.967835,18.2095499 1032.12092,176.609288 1032.12092,368.860113 C1032.12092,572.213057 800.390131,737.720227 515.470336,737.720227 C230.550541,737.720227 7.10542736e-14,572.200087 7.10542736e-14,368.860113 C7.10542736e-14,165.520139 230.537571,1.13686838e-13 515.470336,1.13686838e-13 C524.198987,1.13686838e-13 532.87576,0.155637179 541.487684,0.466911536 L541.487684,265.037145 L541.474714,265.037145 Z" id="Shape"></path>
        </g>
    </g>
</svg>