<svg width="81" height="26" viewBox="0 0 81 26" fill="none" xmlns="http://www.w3.org/2000/svg">
<path fill-rule="evenodd" clip-rule="evenodd" d="M37.7923 5.45872H41.9588C41.9588 5.45872 46.0842 5.37553 46.0426 9.12514C46.0014 11.9171 42.0429 12.3335 42.0429 12.3335H37.7928V5.45872H37.7923ZM50.2571 18.9181C50.3741 19.4634 50.7686 20.0645 52.0846 20.1262C53.8343 20.1674 54.8345 19.5005 54.8345 19.5005V20.7922C54.8345 20.7922 52.9179 21.2512 52.0009 21.2512C51.0428 21.2512 48.2092 21.0423 48.2092 18.4176C48.2092 16.293 50.5427 15.6261 51.8757 15.6261C54.2092 15.7092 55.3341 16.543 55.2925 18.9177C55.2925 18.9519 51.4533 18.9263 50.2571 18.9181ZM50.2625 17.8755H53.4595C53.4595 17.8755 53.4595 16.6673 51.9177 16.6673C50.758 16.6673 50.3786 17.2927 50.2625 17.8755ZM60.3759 16.5709C60.8385 16.069 61.6151 15.6672 62.9179 15.6672C65.5014 15.6672 65.9183 17.8339 65.8767 18.4171C65.8351 19.0004 65.6267 21.2086 62.6272 21.2086C61.494 21.2086 60.8006 20.8219 60.3764 20.342V21.0418H58.3345V13.5417H60.3764V16.5709H60.3759ZM62.1266 20.0421C63.3348 20.0001 63.8764 18.9592 63.8764 18.4592C63.8764 17.9591 63.5843 16.9174 62.0425 16.9174C60.8463 16.9174 60.482 17.8211 60.3759 18.2626V18.8061C60.4811 19.2564 60.8472 20.0421 62.1266 20.0421ZM79.7521 19.8341L79.7932 21.0011C79.7932 21.0011 78.8351 21.2091 78.2103 21.2091C77.5854 21.2091 75.9595 20.8343 75.9595 19.2504V16.8337H74.2517V15.7508H75.9595V14.4591H78.0434V15.7508H79.7521V16.8337H78.0434V18.9177C78.0434 18.9177 78.0434 19.9594 78.8772 19.9594C79.71 19.9594 79.7521 19.8341 79.7521 19.8341ZM73.4184 6.58365H75.8352V12.3751H77.8761V6.58365H80.3349V5.37507H73.4184V6.58365ZM72.5847 6.87528L72.8347 5.6667C72.8347 5.6667 71.793 5.20869 69.96 5.20869C68.1682 5.20869 65.2934 6.20883 65.2934 8.91716C65.2934 11.5839 68.335 12.5004 70.21 12.5004C72.0851 12.5004 72.7099 12.2088 72.7099 12.2088L72.502 10.8754C72.502 10.8754 71.6682 11.1254 70.2512 11.1254C68.8762 11.0838 67.4606 10.0005 67.4606 8.79237C67.5017 7.70904 68.7514 6.50046 70.3773 6.50046C71.6266 6.50046 72.5847 6.87528 72.5847 6.87528ZM54.1676 5.41713C54.1676 5.41713 57.5844 5.25074 57.5844 7.25057C57.5844 8.95922 55.6266 9.084 55.6266 9.084C55.6266 9.084 56.1679 9.16719 56.4183 9.54202C56.6263 9.87525 58.0013 12.3756 58.0013 12.3756H55.9174C55.9174 12.3756 55.5841 11.9587 55.4173 11.6675C55.2925 11.3759 54.9172 10.7506 54.9172 10.7506C54.9172 10.7506 54.626 9.70886 53.6255 9.70886C53.6003 9.70886 53.1935 9.69332 52.8753 9.68143V12.3756H50.8755V5.41713H54.1676ZM52.8758 8.54234H53.9596C53.9596 8.54234 55.4593 8.45868 55.5425 7.54219C55.5846 6.6673 54.0848 6.54205 54.0848 6.54205H52.8758V8.54234ZM61.2508 9.62567H64.5845V8.3339H61.2508V6.75049H64.8766V5.41713H59.2103V12.3756H64.9186V11.1254H61.2513V9.62567H61.2508ZM69.3758 14.9587H71.4177V13.5417H69.3758V14.9587ZM69.3758 21.0423H71.4177V15.7508H69.3758V21.0423ZM47.1264 12.3756H49.1262V5.41713H47.1264V12.3756ZM37.7923 14.1258H41.9588C41.9588 14.1258 46.0842 14.0417 46.0426 17.7923C46.0014 20.5838 42.0429 21.0011 42.0429 21.0011H37.7928V14.1258H37.7923ZM39.8342 19.7094H41.1676C41.1676 19.7094 43.9175 19.5425 43.9175 17.4174C43.9175 15.2924 41.0007 15.0839 41.0007 15.0839H39.8342V19.7094ZM39.8342 11.0422H41.1676C41.1676 11.0422 43.9175 10.8338 43.9175 8.75032C43.9175 6.58365 41.0007 6.41726 41.0007 6.41726H39.8342V11.0422ZM19.0836 9.60099V23.5426C19.0836 23.5426 10.9997 22.084 10.9997 16.5425C11.0002 12.1228 16.9841 10.1747 19.0836 9.60099ZM19.0836 9.34089C14.225 8.98938 3.2084 11.2667 3.2084 16.2505C3.2084 19.5 9.04195 24.2507 18.5419 24.3755C18.9167 24.3755 29.7085 23.9586 29.5421 12.3751C29.4022 2.64617 22.1206 0.94209 19.7921 0.64543V0.0525693C29.0749 0.641775 36.3758 6.22437 36.3758 13C36.3758 20.1669 28.2087 26 18.1671 26C8.12546 26 0 20.1665 0 13C0 5.83354 8.125 0 18.1671 0C18.4747 0 18.7805 0.00548665 19.084 0.0164571V9.34089H19.0836Z" fill="#4B5669"/>
</svg>
