<svg width="39" height="24" viewBox="0 0 39 24" fill="none" xmlns="http://www.w3.org/2000/svg">
<mask id="mask0_3156_4730" style="mask-type:alpha" maskUnits="userSpaceOnUse" x="0" y="0" width="39" height="24">
<rect width="39" height="24" rx="4" fill="#E5EDF4"/>
</mask>
<g mask="url(#mask0_3156_4730)">
<path d="M43 0H-5V24H43V0Z" fill="#00008B"/>
<path d="M-5 0L19 12L-5 0ZM19 0L-5 12L19 0Z" fill="black"/>
<path d="M19 0L-5 12M-5 0L19 12L-5 0Z" stroke="white" stroke-width="3.2"/>
<path d="M-5 0L19 12L-5 0ZM19 0L-5 12L19 0Z" fill="black"/>
<path d="M19 0L-5 12M-5 0L19 12L-5 0Z" stroke="#FF0000" stroke-width="2.13333"/>
<path d="M7 0V14V0ZM-5 6H23H-5Z" fill="black"/>
<path d="M-5 6H23M7 0V14V0Z" stroke="white" stroke-width="5.33333"/>
<path d="M7 0V14V0ZM-5 6H23H-5Z" fill="black"/>
<path d="M-5 6H23M7 0V14V0Z" stroke="#FF0000" stroke-width="3.2"/>
<path d="M-5 12H19V0H27V16H-5V12Z" fill="#00008B"/>
<path d="M30.9999 18.2856L31.3305 19.3135L32.3402 18.9311L31.7428 19.8304L32.6713 20.3814L31.5956 20.475L31.7437 21.5444L30.9999 20.7618L30.2561 21.5444L30.4043 20.475L29.3286 20.3814L30.2571 19.8304L29.6597 18.9311L30.6694 19.3135L30.9999 18.2856Z" fill="white"/>
<path d="M24.9999 8.78564L25.3305 9.81348L26.3402 9.43109L25.7428 10.3304L26.6713 10.8814L25.5956 10.975L25.7437 12.0444L24.9999 11.2618L24.2561 12.0444L24.4043 10.975L23.3286 10.8814L24.2571 10.3304L23.6597 9.43109L24.6694 9.81348L24.9999 8.78564Z" fill="white"/>
<path d="M30.9999 2.28564L31.3305 3.31348L32.3402 2.93109L31.7428 3.83039L32.6713 4.38139L31.5956 4.47497L31.7437 5.54445L30.9999 4.76184L30.2561 5.54445L30.4043 4.47497L29.3286 4.38139L30.2571 3.83039L29.6597 2.93109L30.6694 3.31348L30.9999 2.28564Z" fill="white"/>
<path d="M36.3333 7.18567L36.6639 8.2135L37.6736 7.83111L37.0761 8.73041L38.0046 9.28142L36.929 9.37499L37.0771 10.4445L36.3333 9.66186L35.5895 10.4445L35.7376 9.37499L34.662 9.28142L35.5905 8.73041L34.993 7.83111L36.0027 8.2135L36.3333 7.18567Z" fill="white"/>
<path d="M33.4 12L33.6612 12.6404L34.351 12.691L33.8227 13.1373L33.9878 13.809L33.4 13.4444L32.8122 13.809L32.9773 13.1373L32.4489 12.691L33.1387 12.6404L33.4 12Z" fill="white"/>
</g>
</svg>
