<svg width="59" height="48" viewBox="0 0 59 48" fill="none" xmlns="http://www.w3.org/2000/svg">
<path d="M30.892 18.8182V29H29.659V20.608H29.5795C29.5331 20.7008 29.4138 20.8068 29.2215 20.9261C29.0293 21.0421 28.7807 21.1449 28.4758 21.2344C28.1709 21.3205 27.8229 21.3636 27.4318 21.3636V20.3295C27.8262 20.3295 28.1676 20.2583 28.4559 20.1158C28.7443 19.9732 28.9846 19.8059 29.1768 19.6136C29.3724 19.4214 29.5198 19.2474 29.6193 19.0916C29.722 18.9358 29.7817 18.8447 29.7983 18.8182H30.892Z" fill="#4B5669"/>
<path d="M4.6665 1H54.6665V-1H4.6665V1ZM57.6665 4V44H59.6665V4H57.6665ZM54.6665 47H4.6665V49H54.6665V47ZM1.6665 44V4H-0.333496V44H1.6665ZM4.6665 47C3.00965 47 1.6665 45.6569 1.6665 44H-0.333496C-0.333496 46.7614 1.90508 49 4.6665 49V47ZM57.6665 44C57.6665 45.6569 56.3234 47 54.6665 47V49C57.4279 49 59.6665 46.7614 59.6665 44H57.6665ZM54.6665 1C56.3234 1 57.6665 2.34315 57.6665 4H59.6665C59.6665 1.23858 57.4279 -1 54.6665 -1V1ZM4.6665 -1C1.90508 -1 -0.333496 1.23858 -0.333496 4H1.6665C1.6665 2.34315 3.00965 1 4.6665 1V-1Z" fill="#4B5669"/>
</svg>
