<svg width="86" height="28" viewBox="0 0 86 28" fill="none" xmlns="http://www.w3.org/2000/svg">
<g clip-path="url(#clip0_3091_35288)">
<path d="M10.3201 4.64868H3.61207C3.18207 4.64868 2.75207 4.98618 2.66607 5.40806L6.65095e-05 22.2831C-0.0859335 22.6206 0.172067 22.8737 0.516067 22.8737H3.69807C4.12807 22.8737 4.55807 22.5362 4.64407 22.1143L5.33207 17.5581C5.41807 17.1362 5.76207 16.7987 6.27807 16.7987H8.42807C12.8141 16.7987 15.3941 14.6893 16.0821 10.5549C16.3401 8.78306 16.0821 7.34868 15.2221 6.33618C14.2761 5.23931 12.5561 4.64868 10.3201 4.64868ZM11.0941 10.8081C10.7501 13.1706 8.85807 13.1706 7.13807 13.1706H6.10607L6.79407 8.78306C6.79407 8.52993 7.05207 8.36118 7.31007 8.36118H7.74007C8.94407 8.36118 10.0621 8.36118 10.6641 9.03618C11.0941 9.37368 11.2661 9.96431 11.0941 10.8081Z" fill="white"/>
<path d="M30.2718 10.7238H27.0898C26.8318 10.7238 26.5738 10.8925 26.5738 11.1456L26.4018 11.9894L26.1438 11.6519C25.4558 10.6394 23.9078 10.3019 22.3598 10.3019C18.8338 10.3019 15.8238 12.9175 15.2218 16.63C14.8778 18.4863 15.3078 20.2581 16.4258 21.4394C17.3718 22.5363 18.8338 23.0425 20.4678 23.0425C23.3058 23.0425 24.9398 21.2706 24.9398 21.2706L24.7678 22.1144C24.6818 22.4519 24.9398 22.7894 25.2838 22.7894H28.2078C28.6378 22.7894 29.0678 22.4519 29.1538 22.03L30.8738 11.23C30.9598 11.0613 30.6158 10.7238 30.2718 10.7238ZM25.8858 16.7988C25.5418 18.5706 24.1658 19.8363 22.2738 19.8363C21.3278 19.8363 20.6398 19.5831 20.1238 18.9925C19.6078 18.4019 19.4358 17.6425 19.6078 16.7988C19.8658 15.0269 21.4138 13.7613 23.2198 13.7613C24.1658 13.7613 24.8538 14.0988 25.3698 14.605C25.7998 15.1956 25.9718 15.955 25.8858 16.7988Z" fill="white"/>
<path d="M47.3859 10.7238H44.2039C43.8599 10.7238 43.6019 10.8925 43.4299 11.1456L38.9579 17.5581L37.0659 11.3988C36.9799 10.9769 36.5499 10.7238 36.2059 10.7238H33.0239C32.6799 10.7238 32.3359 11.0613 32.5079 11.4831L36.0339 21.6925L32.6799 26.2488C32.4219 26.5863 32.6799 27.0925 33.1099 27.0925H36.2919C36.6359 27.0925 36.8939 26.9238 37.0659 26.6706L47.8159 11.4831C48.0739 11.23 47.8159 10.7238 47.3859 10.7238Z" fill="white"/>
<path d="M58.05 4.64868H51.342C50.912 4.64868 50.482 4.98618 50.396 5.40806L47.73 22.1987C47.644 22.5362 47.902 22.7893 48.246 22.7893H51.686C52.03 22.7893 52.288 22.5362 52.288 22.2831L53.062 17.4737C53.148 17.0518 53.492 16.7143 54.008 16.7143H56.158C60.544 16.7143 63.124 14.6049 63.812 10.4706C64.07 8.69868 63.812 7.26431 62.952 6.25181C61.92 5.23931 60.286 4.64868 58.05 4.64868ZM58.824 10.8081C58.48 13.1706 56.588 13.1706 54.868 13.1706H53.836L54.524 8.78306C54.524 8.52993 54.782 8.36118 55.04 8.36118H55.47C56.674 8.36118 57.792 8.36118 58.394 9.03618C58.824 9.37368 58.91 9.96431 58.824 10.8081Z" fill="white"/>
<path d="M78.0019 10.7238H74.8199C74.5619 10.7238 74.3039 10.8925 74.3039 11.1456L74.1319 11.9894L73.8739 11.6519C73.1859 10.6394 71.6379 10.3019 70.0899 10.3019C66.5639 10.3019 63.5539 12.9175 62.9519 16.63C62.6079 18.4863 63.0379 20.2581 64.1559 21.4394C65.1019 22.5363 66.5639 23.0425 68.1979 23.0425C71.0359 23.0425 72.6699 21.2706 72.6699 21.2706L72.4979 22.1144C72.4119 22.4519 72.6699 22.7894 73.0139 22.7894H75.9379C76.3679 22.7894 76.7979 22.4519 76.8839 22.03L78.6039 11.23C78.6039 11.0613 78.3459 10.7238 78.0019 10.7238ZM73.5299 16.7988C73.1859 18.5706 71.8099 19.8363 69.9179 19.8363C68.9719 19.8363 68.2839 19.5831 67.7679 18.9925C67.2519 18.4019 67.0799 17.6425 67.2519 16.7988C67.5099 15.0269 69.0579 13.7613 70.8639 13.7613C71.8099 13.7613 72.4979 14.0988 73.0139 14.605C73.5299 15.1956 73.7019 15.955 73.5299 16.7988Z" fill="white"/>
<path d="M81.786 5.07056L79.034 22.1987C78.948 22.5362 79.206 22.7893 79.55 22.7893H82.302C82.732 22.7893 83.162 22.4518 83.248 22.0299L86 5.23931C86.086 4.90181 85.828 4.64868 85.484 4.64868H82.388C82.044 4.64868 81.872 4.81743 81.786 5.07056Z" fill="white"/>
</g>
<defs>
<clipPath id="clip0_3091_35288">
<rect width="86" height="27" fill="white" transform="translate(0 0.5)"/>
</clipPath>
</defs>
</svg>
