<svg width="744" height="145" viewBox="0 0 744 145" fill="none" xmlns="http://www.w3.org/2000/svg">
<path fill-rule="evenodd" clip-rule="evenodd" d="M707.453 31.0734C712.605 31.0734 717.354 31.6846 721.7 32.907C726.045 34.1294 729.83 35.901 733.055 38.2218C736.279 40.5426 738.776 43.3861 740.546 46.7522C742.259 50.0096 743.143 53.7151 743.198 57.8685L743.201 58.2854V115.154H730.429C724.283 115.154 719.125 108.787 719.02 102.597L719.018 102.399H718.388C716.951 105.162 715.12 107.501 712.894 109.414C710.669 111.328 708.058 112.763 705.061 113.719C702.065 114.676 698.691 115.154 694.941 115.154C689.789 115.154 685.225 114.277 681.247 112.523C677.269 110.769 674.132 108.112 671.837 104.551C669.541 100.99 668.393 96.5168 668.393 91.1311C668.393 86.5958 669.182 82.7691 670.759 79.651C672.336 76.533 674.509 73.9996 677.278 72.0508C680.046 70.102 683.236 68.6227 686.846 67.6129C690.243 66.6625 693.858 66.0024 697.69 65.6326L699.348 65.4784L700.416 65.3737L701.951 65.2147L703.408 65.0534L704.785 64.8897L705.659 64.7792L706.498 64.6678L707.302 64.5553L708.442 64.3845L709.158 64.2694L709.503 64.2114C712.307 63.7331 714.348 63.0422 715.628 62.1386C715.991 61.8822 716.302 61.595 716.562 61.2771C716.585 61.2573 716.603 61.2375 716.618 61.2172L716.705 61.0932C716.765 61.0104 716.822 60.9256 716.876 60.839L716.955 60.7075C717.765 59.384 718.515 57.4649 718.515 55.9035C718.515 53.2037 717.549 51.1434 715.616 49.7225C713.683 48.3015 711.226 47.5911 708.247 47.5911C705.445 47.5911 702.918 48.1595 700.665 49.2962C698.413 50.4329 696.613 52.0048 695.265 54.0119C694.362 55.3571 693.761 56.8499 693.463 58.4903L671.13 58.491C671.831 53.5305 673.905 47.6114 676.831 43.6961C679.757 39.7808 683.788 36.6982 688.922 34.4483C694.056 32.1983 700.233 31.0734 707.453 31.0734ZM717.482 78.6625L717.254 78.7787C716.557 79.1239 715.737 79.4405 714.795 79.7282C713.749 80.0479 712.605 80.3499 711.364 80.634C710.122 80.9182 708.845 81.1669 707.533 81.38L706.752 81.5058L705.228 81.7445L703.756 81.9662C701.308 82.3569 699.224 82.9608 697.504 83.7778C695.784 84.5949 694.471 85.6517 693.567 86.9483C692.662 88.2449 692.21 89.7813 692.21 91.5574C692.21 94.2572 693.177 96.3175 695.11 97.7384C697.043 99.1594 699.499 99.8698 702.479 99.8698C705.281 99.8698 707.808 99.3015 710.06 98.1647C712.313 97.028 714.113 95.4561 715.461 93.449C716.758 91.5163 717.431 89.2789 717.479 86.7368L717.482 86.4421V78.6625Z" fill="#00052A"/>
<path fill-rule="evenodd" clip-rule="evenodd" d="M608.972 0L608.927 48.5449H609.825C611.656 43.5165 614.659 39.5858 618.832 36.7528C623.006 33.9199 628.122 32.5034 634.18 32.5034C639.886 32.5034 644.852 33.7694 649.079 36.3013C653.305 38.8333 656.59 42.401 658.932 47.0045C661.214 51.49 662.368 56.7151 662.393 62.6798V89.1711C662.393 103.378 651.056 114.921 636.985 115.151L636.558 115.154V68.2515C636.593 63.7188 635.466 60.1776 633.176 57.628C630.887 55.0784 627.664 53.8035 623.508 53.8035C620.796 53.8035 618.41 54.3967 616.349 55.583C614.289 56.7693 612.686 58.4602 611.542 60.6557C610.441 62.7668 609.853 65.3035 609.778 68.2658L609.772 68.6233V89.1719C609.772 103.378 598.435 114.921 584.364 115.151L583.937 115.154L583.983 25.1322C583.983 11.3909 594.949 0.225304 608.559 0.003367L608.972 0Z" fill="#00052A"/>
<path fill-rule="evenodd" clip-rule="evenodd" d="M540.316 31.0734C547.798 31.0734 554.323 32.4349 559.89 35.158C565.458 37.8812 569.814 41.7271 572.958 46.696C576.032 51.5544 577.687 57.2327 577.923 63.7309L577.937 64.1752H553.857C553.366 60.0021 551.969 56.7308 549.668 54.3614C547.368 51.9919 544.373 50.8072 540.685 50.8072C537.699 50.8072 535.082 51.6471 532.834 53.3269C530.586 55.0068 528.838 57.4824 527.591 60.7536C526.344 64.0249 525.721 68.0654 525.721 72.8751C525.721 77.6847 526.344 81.7429 527.591 85.0496C528.838 88.3562 530.586 90.8495 532.834 92.5293C535.082 94.2092 537.699 95.0491 540.685 95.0491C543.073 95.0491 545.19 94.5363 547.034 93.5107C548.878 92.4851 550.397 90.9732 551.592 88.9751C552.736 87.0602 553.478 84.7475 553.816 82.0368L553.857 81.681H577.937C577.691 88.4004 576.031 94.271 572.958 99.2929C569.884 104.315 565.581 108.214 560.048 110.99C554.516 113.766 547.956 115.154 540.369 115.154C531.833 115.154 524.517 113.386 518.423 109.849C512.328 106.313 507.648 101.388 504.381 95.0756C501.114 88.7629 499.481 81.4511 499.481 73.1403C499.481 64.7941 501.123 57.4647 504.407 51.152C507.692 44.8393 512.381 39.9147 518.476 36.3781C524.57 32.8416 531.85 31.0734 540.316 31.0734Z" fill="#00052A"/>
<path fill-rule="evenodd" clip-rule="evenodd" d="M465.263 31.0734C470.981 31.0734 475.948 32.3792 480.165 34.991C484.383 37.6028 487.665 41.2412 490.012 45.9064C492.299 50.4519 493.455 55.7413 493.481 61.7746V88.7215C493.481 103.174 482.121 114.917 468.021 115.151L467.592 115.154V67.4399C467.628 62.8288 466.49 59.2264 464.178 56.6326C461.866 54.0389 458.663 52.742 454.569 52.742C451.852 52.742 449.461 53.3454 447.396 54.5522C445.332 55.7591 443.743 57.4792 442.632 59.7127C441.563 61.8603 440.991 64.4409 440.918 67.4545L440.911 67.8182V88.7223C440.911 103.174 429.552 114.917 415.452 115.151L415.024 115.154V57.2887C415.024 43.5461 425.826 32.3794 439.234 32.1575L439.641 32.1541V47.3924H440.541C442.341 42.313 445.411 38.3233 449.752 35.4233C454.093 32.5233 459.263 31.0734 465.263 31.0734Z" fill="#00052A"/>
<path fill-rule="evenodd" clip-rule="evenodd" d="M409.024 31.0734V88.3781C409.024 103.018 397.815 114.914 383.903 115.151L383.48 115.154V31.0734H409.024Z" fill="#00052A"/>
<path fill-rule="evenodd" clip-rule="evenodd" d="M396.252 0C403.306 0 409.024 5.72848 409.024 12.7949C409.024 19.8613 403.306 25.5898 396.252 25.5898C389.198 25.5898 383.48 19.8613 383.48 12.7949C383.48 5.72848 389.198 0 396.252 0Z" fill="#0635F9"/>
<path fill-rule="evenodd" clip-rule="evenodd" d="M345.01 31.0734C350.679 31.0734 355.984 32.5617 360.926 35.5384C365.869 38.5151 369.863 43.1041 372.91 49.3055C375.957 55.5069 377.48 63.4093 377.48 73.0126C377.48 82.2616 376.019 90.0045 373.096 96.2413C370.173 102.478 366.241 107.156 361.298 110.274C356.356 113.393 350.873 114.952 344.851 114.952C340.741 114.952 337.18 114.279 334.169 112.932C331.157 111.585 328.633 109.814 326.596 107.616C324.661 105.529 323.149 103.298 322.061 100.923L321.893 100.547H321.362V118.399C321.362 132.615 309.958 144.167 295.804 144.396L295.375 144.4V57.8713C295.375 43.8005 306.484 31.3041 320.493 31.0768L320.919 31.0734L321.096 46.1162H321.893C322.956 43.6356 324.47 41.2437 326.437 38.9403C328.403 36.6369 330.918 34.7499 333.983 33.2793C337.047 31.8087 340.723 31.0734 345.01 31.0734ZM333.451 52.0653C330.258 52.0653 327.545 52.9328 325.31 54.6677C323.076 56.4025 321.364 58.881 320.176 62.1029C318.988 65.3248 318.394 69.1663 318.394 73.6275C318.394 78.0178 318.988 81.8416 320.176 85.099C321.364 88.3563 323.085 90.879 325.337 92.667C327.589 94.4549 330.294 95.3489 333.451 95.3489C336.643 95.3489 339.356 94.4549 341.591 92.667C343.826 90.879 345.519 88.3563 346.672 85.099C347.825 81.8416 348.401 78.0178 348.401 73.6275C348.401 69.2372 347.825 65.431 346.672 62.2091C345.519 58.9872 343.834 56.4911 341.618 54.7208C339.401 52.9505 336.678 52.0653 333.451 52.0653Z" fill="#00052A"/>
<path fill-rule="evenodd" clip-rule="evenodd" d="M260.773 30.356C271.095 30.356 280.131 35.8658 285.103 44.1065C285.697 44.9492 286.236 45.8311 286.72 46.7522C288.433 50.0096 289.317 53.7151 289.372 57.8685L289.375 58.2854V115.154H276.603C270.457 115.154 265.299 108.787 265.194 102.597L265.192 102.399H264.562C263.125 105.162 261.293 107.501 259.068 109.414C256.843 111.328 254.232 112.763 251.235 113.719C248.239 114.676 244.865 115.154 241.115 115.154C235.963 115.154 231.399 114.277 227.421 112.523C223.443 110.769 220.306 108.112 218.011 104.551C215.715 100.99 214.567 96.5168 214.567 91.1311C214.567 86.5958 215.356 82.7691 216.933 79.651C218.51 76.533 220.683 73.9996 223.452 72.0508C226.22 70.102 229.41 68.6227 233.02 67.6129C236.417 66.6625 240.032 66.0024 243.864 65.6326L245.522 65.4784L246.59 65.3737L248.125 65.2147L249.582 65.0534L250.959 64.8897L251.833 64.7792L252.672 64.6678L253.476 64.5553L254.245 64.4417L254.979 64.3271C255.217 64.2887 255.45 64.2501 255.677 64.2114C258.481 63.7331 260.522 63.0422 261.802 62.1386C262.182 61.8702 262.505 61.5682 262.772 61.2326L262.792 61.2108L262.832 61.1562C262.955 60.9933 263.066 60.8227 263.164 60.6443L263.258 60.4634C263.965 59.1604 264.483 57.3815 264.483 55.9035C264.483 53.2037 263.516 51.1434 261.583 49.7225C259.65 48.3015 257.194 47.5911 254.215 47.5911C251.412 47.5911 248.885 48.1595 246.633 49.2962C244.381 50.4329 242.581 52.0048 241.233 54.0119L241.083 54.2423L241.115 38.3275C241.094 38.3162 241.086 38.3036 241.093 38.2894L241.116 38.2632L241.115 38.2218C242.003 37.3666 242.924 36.5974 243.88 35.9142L244.292 35.6267C248.94 32.3085 254.629 30.356 260.773 30.356ZM262.483 78.6625L262.255 78.7787C261.557 79.124 260.738 79.4405 259.796 79.7282C258.75 80.0479 257.606 80.3499 256.364 80.634C255.123 80.9182 253.846 81.1669 252.534 81.38L251.753 81.5058L250.229 81.7445L248.756 81.9662C246.309 82.3569 244.225 82.9608 242.505 83.7778C240.784 84.5949 239.472 85.6517 238.568 86.9483C237.663 88.2449 237.211 89.7813 237.211 91.5574C237.211 94.2572 238.177 96.3175 240.111 97.7385C242.044 99.1594 244.5 99.8698 247.479 99.8698C250.281 99.8698 252.809 99.3015 255.061 98.1647C257.313 97.028 259.113 95.4561 260.461 93.449C261.759 91.5163 262.432 89.2789 262.48 86.7368L262.483 86.4421V78.6625Z" fill="#00052A"/>
<path fill-rule="evenodd" clip-rule="evenodd" d="M206.845 32.7369L206.852 33.6547C206.856 34.5386 206.854 35.4107 206.845 36.271L206.845 50.1529C206.852 41.154 215.683 33.7428 224.675 33.7428C226.594 33.7428 228.436 34.0751 230.146 34.6853C232.056 35.3668 233.801 36.395 235.306 37.6942L235.566 37.9212L235.567 53.7326C235.556 53.6814 235.55 53.6557 235.55 53.6557C232.54 51.4276 228.817 51.2941 224.786 51.2941C214.88 51.2941 207.097 59.2485 206.942 69.1217L206.93 70.4962C206.888 70.8222 206.861 71.1533 206.85 71.4896C206.85 71.4896 206.844 71.7904 206.845 72.0913C206.872 77.2153 206.901 81.6633 206.933 85.4352L206.945 89.5395L206.944 93.9408L206.936 96.2477C206.935 96.4322 206.934 96.6147 206.932 96.7948L206.99 102.399L206.988 102.597C206.885 108.711 201.85 114.999 195.804 115.151L195.579 115.154H182.807V58.2854L182.81 57.8685C182.865 53.7151 183.749 50.0096 185.462 46.7522C186.491 44.7944 187.767 43.0135 189.288 41.4094C193.602 36.2374 199.767 32.8536 206.845 32.7369Z" fill="#00052A"/>
<path fill-rule="evenodd" clip-rule="evenodd" d="M141.06 31.0734C146.211 31.0734 150.96 31.6846 155.306 32.907C159.652 34.1294 163.437 35.901 166.661 38.2218C169.886 40.5426 172.383 43.3861 174.152 46.7522C175.865 50.0096 176.749 53.7151 176.805 57.8685L176.807 58.2854V115.154H164.035C157.889 115.154 152.731 108.787 152.627 102.597L152.625 102.399H151.994C150.557 105.162 148.726 107.501 146.501 109.414C144.275 111.328 141.664 112.763 138.668 113.719C135.671 114.676 132.298 115.154 128.548 115.154C123.396 115.154 118.831 114.277 114.853 112.523C110.876 110.769 107.739 108.112 105.443 104.551C103.148 100.99 102 96.5168 102 91.1311C102 86.5958 102.789 82.7691 104.366 79.651C105.943 76.533 108.116 73.9996 110.884 72.0508C113.653 70.102 116.842 68.6227 120.452 67.6129C123.85 66.6625 127.464 66.0024 131.296 65.6326L132.955 65.4784L134.022 65.3737L135.558 65.2147L137.014 65.0534L138.391 64.8897L139.266 64.7792L140.105 64.6678L140.909 64.5553L142.049 64.3845L142.765 64.2694L143.11 64.2114C145.914 63.7331 147.955 63.0422 149.234 62.1386C149.597 61.8822 149.909 61.595 150.169 61.2771C150.191 61.2573 150.21 61.2375 150.224 61.2172L150.311 61.0932C150.372 61.0104 150.429 60.9256 150.483 60.839L150.561 60.7075C151.371 59.384 152.122 57.4649 152.122 55.9035C152.122 53.2037 151.155 51.1434 149.222 49.7225C147.289 48.3015 144.833 47.5911 141.853 47.5911C139.051 47.5911 136.524 48.1595 134.272 49.2962C132.019 50.4329 130.219 52.0048 128.872 54.0119C127.968 55.3571 127.368 56.8499 127.07 58.4903L104.737 58.491C105.438 53.5305 107.511 47.6114 110.438 43.6961C113.364 39.7808 117.394 36.6982 122.529 34.4483C127.663 32.1983 133.84 31.0734 141.06 31.0734ZM150.089 78.6625L149.861 78.7787C149.163 79.1239 148.344 79.4405 147.402 79.7282C146.356 80.0479 145.212 80.3499 143.97 80.634C142.729 80.9182 141.452 81.1669 140.14 81.38L139.359 81.5058L137.835 81.7445L136.362 81.9662C133.915 82.3569 131.831 82.9608 130.111 83.7778C128.39 84.5949 127.078 85.6517 126.174 86.9483C125.269 88.2449 124.817 89.7813 124.817 91.5574C124.817 94.2572 125.783 96.3175 127.716 97.7384C129.65 99.1594 132.106 99.8698 135.085 99.8698C137.887 99.8698 140.415 99.3015 142.667 98.1647C144.919 97.028 146.719 95.4561 148.067 93.449C149.365 91.5163 150.038 89.2789 150.086 86.7368L150.089 86.4421V78.6625Z" fill="#00052A"/>
<path fill-rule="evenodd" clip-rule="evenodd" d="M46.2107 104.194C40.1848 100.589 36.7487 95.0451 36 88.193V54.979V44.8944C36.7496 51.7516 40.1893 57.2979 46.2233 60.9026L85.8895 83.8861C92.3284 88.02 96 94.3564 96 101.636V133.043L46.2107 104.194Z" fill="url(#paint0_linear_103_26)"/>
<path fill-rule="evenodd" clip-rule="evenodd" d="M46.2107 28.8216C40.1848 32.4231 36.7487 37.9615 36 44.8076V71.9533V88.193C36.7496 81.3423 40.1893 75.8012 46.2233 72.1999L85.8895 49.2377C92.3284 45.1074 96 38.7773 96 31.5044V0L46.2107 28.8216Z" fill="#00052A"/>
<path fill-rule="evenodd" clip-rule="evenodd" d="M32.0025 40.4103C31.8974 33.3915 28.8208 27.6475 23.2687 23.5775L0 10.0785V68.0702C0.349055 75.5608 3.61369 80.4782 9.75017 84.9985L10.3805 85.455L11.4884 86.2381L12.3959 86.8672L13.3692 87.5322L14.4082 88.2331L15.8958 89.2234L17.5002 90.2775L19.2214 91.3953L21.5373 92.8822L23.5214 94.1435L26.1659 95.8098L29.5802 97.9408L32.0025 99.4412V40.4103Z" fill="#00052A"/>
<defs>
<linearGradient id="paint0_linear_103_26" x1="36.9029" y1="8.18917" x2="98.7624" y2="89.8428" gradientUnits="userSpaceOnUse">
<stop stop-color="#00052A" stop-opacity="0.8"/>
<stop offset="1" stop-color="#00052A"/>
</linearGradient>
</defs>
</svg>
